<?xml version="1.0" encoding="UTF-8" standalone="no"?><!DOCTYPE svg PUBLIC "-//W3C//DTD SVG 1.1//EN" "http://www.w3.org/Graphics/SVG/1.1/DTD/svg11.dtd"><svg width="100%" height="100%" viewBox="0 0 250 180" version="1.1" xmlns="http://www.w3.org/2000/svg" xmlns:xlink="http://www.w3.org/1999/xlink" xml:space="preserve" xmlns:serif="http://www.serif.com/" style="fill-rule:evenodd;clip-rule:evenodd;stroke-linejoin:round;stroke-miterlimit:2;"><path d="M126.596,65.303c2.902,-0.464 5.909,-1.111 8.946,-1.384c2.915,-0.262 5.9,-0.475 8.784,-0.102c4.448,0.574 7.397,4.493 7.405,9.233c0.008,4.136 -0.976,8.102 -2.235,11.962c-3.373,10.341 -6.89,20.631 -10.297,30.96c-4.373,13.255 -8.438,26.613 -11.621,40.252c-0.523,2.24 -0.892,4.521 -1.292,6.791c-0.129,0.735 -0.13,1.496 -0.221,2.648c0.618,-0.71 1.07,-1.131 1.411,-1.635c5.103,-7.569 10.431,-14.982 15.242,-22.755c19.895,-32.141 41.065,-63.315 63.299,-93.676c10.17,-13.888 20.97,-27.229 32.732,-39.661c1.321,-1.396 2.702,-2.731 4.103,-4.038c0.796,-0.743 1.506,-0.77 2.301,0.256c1.507,1.945 1.643,2.732 0.21,4.812c-0.749,1.087 -1.661,2.048 -2.416,3.131c-8.76,12.569 -19.203,23.611 -28.71,35.501c-25.887,32.376 -49.972,66.17 -71.444,102.016c-3.385,5.651 -6.937,11.193 -10.507,16.716c-1.07,1.654 -2.403,3.136 -3.725,4.585c-2.208,2.422 -5.638,0.993 -6.162,-2.316c-0.437,-2.762 -0.12,-5.47 0.401,-8.143c4.214,-21.603 10.304,-42.617 17.627,-63.259c2.325,-6.555 4.238,-13.28 6.155,-19.986c0.515,-1.801 0.436,-3.818 0.468,-5.739c0.026,-1.516 -0.864,-2.456 -2.2,-2.958c-2.57,-0.967 -5.253,-1.178 -7.895,-0.818c-5.042,0.685 -10.058,1.599 -15.073,2.494c-0.657,0.118 -1.311,0.592 -1.851,1.053c-7.034,6.009 -14.651,10.869 -23.456,13.395c-3.309,0.949 -6.651,1.75 -10.109,1.624c-1.062,-0.039 -2.162,-0.176 -3.161,-0.53c-0.915,-0.325 -1.831,-0.872 -2.545,-1.556c-1.486,-1.422 -1.185,-3.2 0.617,-4.063c11.339,-5.432 23.076,-9.615 35.207,-12.577c0.886,-0.217 1.873,-0.641 2.487,-1.306c2.135,-2.311 4.258,-4.664 6.118,-7.219c0.93,-1.278 1.447,-2.981 1.849,-4.577c0.503,-1.998 -0.154,-3.274 -1.996,-4.006c-1.359,-0.54 -2.826,-0.946 -4.268,-1.052c-6.332,-0.466 -12.418,1.019 -18.436,2.885c-10.731,3.327 -20.707,8.421 -30.12,14.737c-13.054,8.759 -25.309,18.6 -35.601,30.913c-7.892,9.443 -14.726,19.668 -19.345,31.381c-2.572,6.523 -3.974,13.319 -3.731,20.432c0.165,4.826 1.415,9.299 4.025,13.29c2.812,4.299 6.628,6.601 11.656,6.7c6.531,0.128 12.77,-1.445 18.707,-4.011c11.188,-4.836 22.255,-9.992 33.329,-15.118c12.422,-5.75 24.791,-11.628 37.2,-17.41c1.596,-0.744 3.293,-1.246 4.943,-1.861c0.681,-0.253 1.482,-0.389 1.704,0.455c0.09,0.342 -0.584,1.169 -1.065,1.382c-16.275,7.182 -32.018,15.552 -47.756,23.928c-6.502,3.461 -12.844,7.259 -19.336,10.742c-6.772,3.633 -13.866,6.313 -21.414,7.572c-14.265,2.379 -26.432,-7.347 -28.268,-22.52c-1.485,-12.26 1.252,-23.582 6.678,-34.263c7.672,-15.106 17.676,-28.274 30.127,-39.283c14.413,-12.744 30.098,-23.318 47.653,-30.567c8.151,-3.365 16.56,-5.783 25.37,-6.031c2.591,-0.073 5.29,0.167 7.78,0.883c6.178,1.777 9.051,8.786 6.117,14.769c-1.195,2.437 -2.897,4.596 -4.395,6.922Zm-17.193,8.336c-0.029,-0.122 -0.058,-0.243 -0.087,-0.365c-7.151,2.456 -14.303,4.911 -21.454,7.367c0.032,0.104 0.064,0.209 0.095,0.313c7.603,-0.942 14.778,-3.294 21.446,-7.315Z" style="fill:#f67a18;fill-opacity:0.3;fill-rule:nonzero;"/><g><path d="M12.356,121.776c0.135,-0 0.252,0.052 0.35,0.157l0.979,1.062c-0.541,0.671 -1.208,1.185 -1.999,1.542c-0.791,0.357 -1.741,0.536 -2.849,0.536c-0.991,-0 -1.883,-0.17 -2.674,-0.508c-0.791,-0.339 -1.467,-0.81 -2.027,-1.413c-0.56,-0.604 -0.989,-1.324 -1.288,-2.161c-0.299,-0.838 -0.448,-1.752 -0.448,-2.743c0,-1.004 0.166,-1.923 0.499,-2.757c0.332,-0.834 0.8,-1.553 1.403,-2.156c0.604,-0.604 1.326,-1.073 2.166,-1.409c0.84,-0.335 1.769,-0.503 2.785,-0.503c0.991,0 1.857,0.159 2.599,0.476c0.742,0.317 1.378,0.737 1.907,1.26l-0.831,1.155c-0.049,0.073 -0.112,0.138 -0.189,0.194c-0.077,0.055 -0.183,0.083 -0.319,0.083c-0.141,-0 -0.286,-0.056 -0.434,-0.167c-0.148,-0.11 -0.335,-0.23 -0.563,-0.36c-0.228,-0.129 -0.516,-0.249 -0.864,-0.36c-0.348,-0.111 -0.789,-0.166 -1.325,-0.166c-0.628,-0 -1.205,0.109 -1.732,0.328c-0.526,0.218 -0.978,0.531 -1.357,0.937c-0.379,0.406 -0.674,0.901 -0.887,1.482c-0.212,0.582 -0.318,1.236 -0.318,1.963c-0,0.751 0.106,1.419 0.318,2.004c0.213,0.585 0.501,1.077 0.864,1.477c0.363,0.401 0.791,0.707 1.283,0.919c0.493,0.213 1.022,0.319 1.589,0.319c0.339,-0 0.645,-0.018 0.919,-0.055c0.274,-0.037 0.526,-0.096 0.757,-0.176c0.231,-0.08 0.45,-0.183 0.656,-0.309c0.206,-0.126 0.411,-0.282 0.614,-0.467c0.062,-0.055 0.126,-0.1 0.194,-0.134c0.068,-0.033 0.141,-0.05 0.222,-0.05Z" style="fill:#f67a18;fill-rule:nonzero;"/><path d="M17.86,115.45l-0,9.475l-2.281,-0l-0,-9.475l2.281,-0Zm0.341,-2.762c0,0.197 -0.04,0.382 -0.12,0.554c-0.08,0.173 -0.186,0.324 -0.318,0.453c-0.133,0.129 -0.288,0.232 -0.467,0.309c-0.178,0.077 -0.369,0.116 -0.572,0.116c-0.197,-0 -0.383,-0.039 -0.559,-0.116c-0.175,-0.077 -0.328,-0.18 -0.457,-0.309c-0.129,-0.129 -0.233,-0.28 -0.309,-0.453c-0.077,-0.172 -0.116,-0.357 -0.116,-0.554c0,-0.203 0.039,-0.394 0.116,-0.572c0.076,-0.179 0.18,-0.333 0.309,-0.462c0.129,-0.129 0.282,-0.233 0.457,-0.309c0.176,-0.077 0.362,-0.116 0.559,-0.116c0.203,0 0.394,0.039 0.572,0.116c0.179,0.076 0.334,0.18 0.467,0.309c0.132,0.129 0.238,0.283 0.318,0.462c0.08,0.178 0.12,0.369 0.12,0.572Z" style="fill:#f67a18;fill-rule:nonzero;"/><path d="M20.436,124.925l0,-9.475l1.395,-0c0.295,-0 0.489,0.138 0.582,0.415l0.157,0.748c0.19,-0.197 0.392,-0.375 0.605,-0.535c0.212,-0.161 0.437,-0.299 0.674,-0.416c0.237,-0.117 0.491,-0.206 0.762,-0.268c0.271,-0.061 0.566,-0.092 0.886,-0.092c0.517,-0 0.976,0.088 1.376,0.263c0.4,0.175 0.734,0.422 1.002,0.739c0.268,0.317 0.471,0.696 0.61,1.136c0.138,0.44 0.208,0.925 0.208,1.454l-0,6.031l-2.282,-0l0,-6.031c0,-0.578 -0.133,-1.026 -0.401,-1.343c-0.268,-0.318 -0.67,-0.476 -1.205,-0.476c-0.394,-0 -0.764,0.089 -1.109,0.268c-0.344,0.178 -0.671,0.421 -0.979,0.729l0,6.853l-2.281,-0Z" style="fill:#f67a18;fill-rule:nonzero;"/><path d="M34.852,115.302c0.598,-0 1.147,0.095 1.649,0.286c0.502,0.191 0.934,0.47 1.297,0.836c0.364,0.366 0.647,0.816 0.85,1.348c0.203,0.533 0.305,1.141 0.305,1.824c-0,0.173 -0.008,0.316 -0.023,0.43c-0.016,0.113 -0.043,0.203 -0.083,0.267c-0.04,0.065 -0.094,0.111 -0.162,0.139c-0.068,0.028 -0.154,0.041 -0.259,0.041l-5.855,0c0.068,0.973 0.33,1.687 0.785,2.143c0.456,0.456 1.059,0.683 1.81,0.683c0.37,0 0.688,-0.043 0.956,-0.129c0.268,-0.086 0.502,-0.181 0.702,-0.286c0.2,-0.105 0.376,-0.2 0.527,-0.286c0.15,-0.087 0.297,-0.13 0.438,-0.13c0.093,0 0.173,0.019 0.24,0.056c0.068,0.037 0.127,0.089 0.176,0.157l0.665,0.831c-0.253,0.295 -0.536,0.543 -0.85,0.743c-0.314,0.2 -0.642,0.36 -0.983,0.481c-0.342,0.12 -0.69,0.204 -1.044,0.253c-0.354,0.05 -0.697,0.074 -1.03,0.074c-0.659,0 -1.271,-0.109 -1.838,-0.327c-0.566,-0.219 -1.059,-0.542 -1.477,-0.97c-0.419,-0.428 -0.748,-0.958 -0.988,-1.589c-0.24,-0.631 -0.361,-1.362 -0.361,-2.193c0,-0.646 0.105,-1.254 0.314,-1.824c0.21,-0.569 0.51,-1.065 0.901,-1.487c0.391,-0.422 0.868,-0.756 1.431,-1.002c0.564,-0.246 1.199,-0.369 1.907,-0.369Zm0.047,1.634c-0.665,0 -1.186,0.188 -1.561,0.564c-0.376,0.375 -0.616,0.908 -0.72,1.597l4.285,0c-0,-0.295 -0.04,-0.574 -0.12,-0.835c-0.08,-0.262 -0.204,-0.491 -0.37,-0.688c-0.166,-0.197 -0.375,-0.353 -0.628,-0.467c-0.252,-0.114 -0.548,-0.171 -0.886,-0.171Z" style="fill:#f67a18;fill-rule:nonzero;"/><path d="M40.809,124.925l0,-9.475l1.395,-0c0.295,-0 0.489,0.138 0.581,0.415l0.148,0.702c0.166,-0.185 0.34,-0.354 0.522,-0.508c0.182,-0.154 0.376,-0.286 0.582,-0.397c0.206,-0.111 0.428,-0.199 0.665,-0.263c0.237,-0.065 0.497,-0.097 0.78,-0.097c0.597,-0 1.088,0.161 1.473,0.485c0.385,0.323 0.673,0.752 0.864,1.288c0.147,-0.314 0.332,-0.583 0.554,-0.808c0.221,-0.225 0.465,-0.408 0.729,-0.55c0.265,-0.141 0.547,-0.246 0.845,-0.314c0.299,-0.067 0.599,-0.101 0.901,-0.101c0.523,-0 0.988,0.08 1.394,0.24c0.407,0.16 0.748,0.394 1.025,0.702c0.277,0.308 0.488,0.683 0.633,1.126c0.145,0.444 0.217,0.952 0.217,1.524l0,6.031l-2.281,-0l-0,-6.031c-0,-0.603 -0.132,-1.057 -0.397,-1.362c-0.265,-0.305 -0.653,-0.457 -1.164,-0.457c-0.234,-0 -0.451,0.04 -0.651,0.12c-0.2,0.08 -0.375,0.195 -0.526,0.346c-0.151,0.151 -0.27,0.34 -0.356,0.568c-0.086,0.228 -0.129,0.49 -0.129,0.785l-0,6.031l-2.29,-0l-0,-6.031c-0,-0.634 -0.128,-1.096 -0.384,-1.385c-0.255,-0.289 -0.632,-0.434 -1.131,-0.434c-0.326,-0 -0.633,0.082 -0.919,0.245c-0.286,0.163 -0.553,0.386 -0.799,0.669l0,6.936l-2.281,-0Z" style="fill:#f67a18;fill-rule:nonzero;"/><path d="M63.786,124.925l-1.025,-0c-0.215,-0 -0.385,-0.032 -0.508,-0.097c-0.123,-0.065 -0.215,-0.196 -0.277,-0.393l-0.203,-0.674c-0.24,0.216 -0.476,0.405 -0.707,0.568c-0.23,0.163 -0.469,0.3 -0.715,0.411c-0.247,0.111 -0.508,0.194 -0.785,0.249c-0.277,0.056 -0.585,0.084 -0.924,0.084c-0.4,-0 -0.769,-0.054 -1.108,-0.162c-0.339,-0.108 -0.63,-0.269 -0.873,-0.485c-0.243,-0.215 -0.432,-0.483 -0.568,-0.803c-0.135,-0.32 -0.203,-0.693 -0.203,-1.118c0,-0.357 0.094,-0.709 0.282,-1.057c0.188,-0.348 0.5,-0.662 0.937,-0.942c0.437,-0.28 1.019,-0.513 1.746,-0.697c0.726,-0.185 1.628,-0.29 2.706,-0.314l-0,-0.555c-0,-0.634 -0.134,-1.103 -0.402,-1.408c-0.268,-0.305 -0.657,-0.457 -1.168,-0.457c-0.37,-0 -0.678,0.043 -0.924,0.129c-0.246,0.086 -0.46,0.183 -0.642,0.291c-0.181,0.108 -0.349,0.205 -0.503,0.291c-0.154,0.086 -0.323,0.129 -0.508,0.129c-0.154,0 -0.286,-0.04 -0.397,-0.12c-0.111,-0.08 -0.2,-0.178 -0.268,-0.295l-0.416,-0.73c1.09,-0.997 2.405,-1.496 3.944,-1.496c0.554,0 1.048,0.091 1.482,0.273c0.434,0.181 0.802,0.434 1.104,0.757c0.301,0.323 0.531,0.709 0.688,1.159c0.157,0.449 0.235,0.942 0.235,1.477l0,5.985Zm-4.433,-1.422c0.234,-0 0.45,-0.022 0.647,-0.065c0.197,-0.043 0.383,-0.108 0.559,-0.194c0.175,-0.086 0.344,-0.192 0.507,-0.319c0.164,-0.126 0.328,-0.275 0.495,-0.447l-0,-1.598c-0.665,0.031 -1.221,0.088 -1.667,0.171c-0.447,0.083 -0.805,0.189 -1.076,0.318c-0.271,0.13 -0.464,0.28 -0.577,0.453c-0.114,0.172 -0.171,0.36 -0.171,0.563c-0,0.4 0.118,0.687 0.355,0.859c0.237,0.172 0.547,0.259 0.928,0.259Z" style="fill:#f67a18;fill-rule:nonzero;"/><path d="M69.143,125.073c-0.819,-0 -1.45,-0.233 -1.894,-0.698c-0.443,-0.464 -0.665,-1.106 -0.665,-1.925l0,-5.292l-0.96,0c-0.123,0 -0.229,-0.04 -0.319,-0.12c-0.089,-0.08 -0.133,-0.2 -0.133,-0.36l-0,-0.905l1.523,-0.25l0.481,-2.585c0.024,-0.124 0.081,-0.219 0.17,-0.287c0.09,-0.067 0.202,-0.101 0.337,-0.101l1.183,-0l-0,2.983l2.493,-0l0,1.625l-2.493,0l-0,5.135c-0,0.295 0.073,0.526 0.221,0.692c0.148,0.167 0.345,0.25 0.591,0.25c0.142,-0 0.26,-0.017 0.356,-0.051c0.095,-0.034 0.178,-0.069 0.249,-0.106c0.071,-0.037 0.134,-0.073 0.19,-0.106c0.055,-0.034 0.11,-0.051 0.166,-0.051c0.067,-0 0.123,0.017 0.166,0.051c0.043,0.033 0.089,0.084 0.139,0.152l0.683,1.108c-0.333,0.277 -0.714,0.487 -1.145,0.628c-0.431,0.142 -0.878,0.213 -1.339,0.213Z" style="fill:#f67a18;fill-rule:nonzero;"/><path d="M77.223,115.302c0.708,-0 1.35,0.114 1.926,0.341c0.576,0.228 1.067,0.552 1.473,0.97c0.406,0.419 0.72,0.93 0.942,1.533c0.222,0.604 0.332,1.278 0.332,2.023c0,0.751 -0.11,1.428 -0.332,2.031c-0.222,0.604 -0.536,1.118 -0.942,1.543c-0.406,0.425 -0.897,0.751 -1.473,0.979c-0.576,0.227 -1.218,0.341 -1.926,0.341c-0.708,0 -1.351,-0.114 -1.93,-0.341c-0.578,-0.228 -1.073,-0.554 -1.482,-0.979c-0.409,-0.425 -0.726,-0.939 -0.951,-1.543c-0.225,-0.603 -0.337,-1.28 -0.337,-2.031c-0,-0.745 0.112,-1.419 0.337,-2.023c0.225,-0.603 0.542,-1.114 0.951,-1.533c0.409,-0.418 0.904,-0.742 1.482,-0.97c0.579,-0.227 1.222,-0.341 1.93,-0.341Zm0,8.007c0.788,-0 1.372,-0.265 1.75,-0.795c0.379,-0.529 0.568,-1.305 0.568,-2.327c0,-1.022 -0.189,-1.801 -0.568,-2.336c-0.378,-0.536 -0.962,-0.804 -1.75,-0.804c-0.8,0 -1.391,0.27 -1.773,0.808c-0.381,0.539 -0.572,1.316 -0.572,2.332c-0,1.016 0.191,1.79 0.572,2.323c0.382,0.532 0.973,0.799 1.773,0.799Z" style="fill:#f67a18;fill-rule:nonzero;"/><path d="M86.957,115.283c0.407,0 0.788,0.042 1.145,0.125c0.358,0.083 0.684,0.205 0.979,0.365l2.725,-0l-0,0.849c-0,0.142 -0.037,0.253 -0.111,0.333c-0.074,0.08 -0.2,0.135 -0.379,0.166l-0.849,0.157c0.061,0.16 0.109,0.329 0.143,0.508c0.034,0.179 0.051,0.366 0.051,0.563c-0,0.468 -0.094,0.892 -0.282,1.27c-0.188,0.379 -0.446,0.701 -0.776,0.965c-0.329,0.265 -0.72,0.47 -1.173,0.614c-0.452,0.145 -0.943,0.217 -1.473,0.217c-0.357,0 -0.705,-0.033 -1.043,-0.101c-0.296,0.178 -0.444,0.379 -0.444,0.6c0,0.191 0.088,0.331 0.264,0.42c0.175,0.09 0.406,0.153 0.692,0.19c0.287,0.037 0.611,0.06 0.975,0.069c0.363,0.009 0.735,0.029 1.117,0.06c0.382,0.031 0.754,0.085 1.118,0.162c0.363,0.077 0.688,0.198 0.974,0.364c0.286,0.167 0.517,0.393 0.692,0.679c0.176,0.286 0.264,0.654 0.264,1.104c-0,0.418 -0.103,0.825 -0.31,1.219c-0.206,0.394 -0.505,0.745 -0.896,1.053c-0.39,0.307 -0.869,0.555 -1.436,0.743c-0.566,0.188 -1.212,0.282 -1.939,0.282c-0.72,-0 -1.345,-0.07 -1.875,-0.208c-0.529,-0.139 -0.968,-0.323 -1.316,-0.554c-0.348,-0.231 -0.608,-0.497 -0.78,-0.799c-0.173,-0.302 -0.259,-0.616 -0.259,-0.942c0,-0.443 0.136,-0.816 0.407,-1.117c0.271,-0.302 0.646,-0.542 1.126,-0.721c-0.234,-0.129 -0.421,-0.301 -0.563,-0.517c-0.142,-0.215 -0.212,-0.496 -0.212,-0.84c-0,-0.142 0.024,-0.288 0.073,-0.439c0.05,-0.151 0.125,-0.3 0.227,-0.448c0.101,-0.148 0.229,-0.288 0.383,-0.42c0.154,-0.133 0.336,-0.251 0.545,-0.356c-0.48,-0.258 -0.857,-0.603 -1.131,-1.034c-0.274,-0.431 -0.411,-0.936 -0.411,-1.515c-0,-0.468 0.093,-0.891 0.281,-1.269c0.188,-0.379 0.45,-0.702 0.785,-0.97c0.336,-0.268 0.733,-0.473 1.192,-0.614c0.458,-0.142 0.959,-0.213 1.5,-0.213Zm2.503,10.067c0,-0.185 -0.055,-0.336 -0.166,-0.453c-0.111,-0.117 -0.262,-0.208 -0.453,-0.272c-0.191,-0.065 -0.414,-0.113 -0.669,-0.143c-0.256,-0.031 -0.527,-0.054 -0.813,-0.07c-0.286,-0.015 -0.582,-0.03 -0.887,-0.046c-0.304,-0.015 -0.598,-0.041 -0.882,-0.078c-0.258,0.141 -0.466,0.309 -0.623,0.503c-0.157,0.194 -0.235,0.417 -0.235,0.669c-0,0.167 0.041,0.322 0.124,0.467c0.083,0.145 0.216,0.269 0.397,0.374c0.182,0.105 0.418,0.186 0.707,0.245c0.289,0.058 0.643,0.087 1.062,0.087c0.425,0 0.791,-0.032 1.099,-0.097c0.308,-0.064 0.562,-0.154 0.762,-0.267c0.2,-0.114 0.346,-0.25 0.439,-0.407c0.092,-0.157 0.138,-0.328 0.138,-0.512Zm-2.503,-5.394c0.284,0 0.53,-0.038 0.739,-0.115c0.209,-0.077 0.383,-0.183 0.522,-0.319c0.138,-0.135 0.243,-0.298 0.314,-0.489c0.071,-0.191 0.106,-0.4 0.106,-0.628c0,-0.468 -0.14,-0.839 -0.42,-1.113c-0.28,-0.274 -0.7,-0.411 -1.261,-0.411c-0.56,-0 -0.98,0.137 -1.26,0.411c-0.28,0.274 -0.42,0.645 -0.42,1.113c-0,0.221 0.035,0.428 0.106,0.619c0.071,0.19 0.175,0.355 0.314,0.494c0.138,0.138 0.314,0.246 0.526,0.323c0.213,0.077 0.457,0.115 0.734,0.115Z" style="fill:#f67a18;fill-rule:nonzero;"/><path d="M93.237,124.925l0,-9.475l1.339,-0c0.234,-0 0.397,0.043 0.49,0.129c0.092,0.086 0.154,0.234 0.184,0.443l0.139,1.145c0.339,-0.585 0.736,-1.046 1.191,-1.385c0.456,-0.339 0.967,-0.508 1.533,-0.508c0.468,0 0.856,0.108 1.164,0.323l-0.295,1.709c-0.019,0.111 -0.059,0.189 -0.121,0.235c-0.061,0.046 -0.144,0.07 -0.249,0.07c-0.092,-0 -0.218,-0.022 -0.379,-0.065c-0.16,-0.043 -0.372,-0.065 -0.637,-0.065c-0.474,0 -0.88,0.131 -1.219,0.393c-0.338,0.261 -0.625,0.645 -0.859,1.15l0,5.901l-2.281,-0Z" style="fill:#f67a18;fill-rule:nonzero;"/><path d="M107.94,124.925l-1.025,-0c-0.216,-0 -0.385,-0.032 -0.508,-0.097c-0.124,-0.065 -0.216,-0.196 -0.277,-0.393l-0.204,-0.674c-0.24,0.216 -0.475,0.405 -0.706,0.568c-0.231,0.163 -0.47,0.3 -0.716,0.411c-0.246,0.111 -0.508,0.194 -0.785,0.249c-0.277,0.056 -0.585,0.084 -0.923,0.084c-0.401,-0 -0.77,-0.054 -1.109,-0.162c-0.338,-0.108 -0.629,-0.269 -0.872,-0.485c-0.243,-0.215 -0.433,-0.483 -0.568,-0.803c-0.136,-0.32 -0.203,-0.693 -0.203,-1.118c-0,-0.357 0.093,-0.709 0.281,-1.057c0.188,-0.348 0.5,-0.662 0.938,-0.942c0.437,-0.28 1.019,-0.513 1.745,-0.697c0.727,-0.185 1.629,-0.29 2.706,-0.314l-0,-0.555c-0,-0.634 -0.134,-1.103 -0.402,-1.408c-0.268,-0.305 -0.657,-0.457 -1.168,-0.457c-0.369,-0 -0.677,0.043 -0.924,0.129c-0.246,0.086 -0.46,0.183 -0.641,0.291c-0.182,0.108 -0.35,0.205 -0.504,0.291c-0.154,0.086 -0.323,0.129 -0.508,0.129c-0.154,0 -0.286,-0.04 -0.397,-0.12c-0.111,-0.08 -0.2,-0.178 -0.268,-0.295l-0.415,-0.73c1.09,-0.997 2.404,-1.496 3.943,-1.496c0.554,0 1.048,0.091 1.483,0.273c0.434,0.181 0.801,0.434 1.103,0.757c0.302,0.323 0.531,0.709 0.688,1.159c0.157,0.449 0.236,0.942 0.236,1.477l-0,5.985Zm-4.433,-1.422c0.234,-0 0.449,-0.022 0.646,-0.065c0.197,-0.043 0.383,-0.108 0.559,-0.194c0.175,-0.086 0.345,-0.192 0.508,-0.319c0.163,-0.126 0.328,-0.275 0.494,-0.447l-0,-1.598c-0.665,0.031 -1.221,0.088 -1.667,0.171c-0.446,0.083 -0.805,0.189 -1.076,0.318c-0.271,0.13 -0.463,0.28 -0.577,0.453c-0.114,0.172 -0.171,0.36 -0.171,0.563c0,0.4 0.119,0.687 0.356,0.859c0.237,0.172 0.546,0.259 0.928,0.259Z" style="fill:#f67a18;fill-rule:nonzero;"/><path d="M110.184,128.019l-0,-12.569l1.394,-0c0.148,-0 0.274,0.033 0.379,0.101c0.105,0.068 0.172,0.173 0.203,0.314l0.185,0.877c0.382,-0.437 0.82,-0.791 1.316,-1.062c0.495,-0.27 1.076,-0.406 1.741,-0.406c0.517,0 0.989,0.108 1.417,0.323c0.428,0.216 0.798,0.528 1.108,0.938c0.311,0.409 0.552,0.914 0.721,1.514c0.169,0.601 0.254,1.289 0.254,2.064c-0,0.708 -0.096,1.364 -0.286,1.967c-0.191,0.604 -0.464,1.127 -0.818,1.57c-0.354,0.444 -0.782,0.79 -1.284,1.039c-0.501,0.25 -1.063,0.374 -1.685,0.374c-0.536,0 -0.99,-0.081 -1.362,-0.244c-0.373,-0.164 -0.707,-0.39 -1.002,-0.679l-0,3.879l-2.281,-0Zm4.433,-10.944c-0.474,-0 -0.879,0.1 -1.215,0.3c-0.335,0.2 -0.648,0.482 -0.937,0.845l-0,4.248c0.258,0.32 0.54,0.544 0.845,0.67c0.305,0.126 0.633,0.189 0.983,0.189c0.345,0 0.658,-0.064 0.938,-0.194c0.28,-0.129 0.517,-0.326 0.711,-0.591c0.194,-0.265 0.343,-0.599 0.448,-1.002c0.104,-0.403 0.157,-0.879 0.157,-1.427c-0,-0.554 -0.045,-1.023 -0.134,-1.408c-0.089,-0.385 -0.217,-0.697 -0.383,-0.937c-0.167,-0.241 -0.368,-0.416 -0.605,-0.527c-0.237,-0.111 -0.507,-0.166 -0.808,-0.166Z" style="fill:#f67a18;fill-rule:nonzero;"/><path d="M120.629,124.925l-0,-13.724l2.281,0l-0,5.274c0.369,-0.351 0.776,-0.635 1.219,-0.85c0.443,-0.215 0.963,-0.323 1.561,-0.323c0.517,-0 0.976,0.088 1.376,0.263c0.4,0.175 0.734,0.422 1.002,0.739c0.268,0.317 0.471,0.696 0.609,1.136c0.139,0.44 0.208,0.925 0.208,1.454l0,6.031l-2.281,-0l-0,-6.031c-0,-0.578 -0.134,-1.026 -0.402,-1.343c-0.268,-0.318 -0.669,-0.476 -1.205,-0.476c-0.394,-0 -0.763,0.089 -1.108,0.268c-0.345,0.178 -0.671,0.421 -0.979,0.729l-0,6.853l-2.281,-0Z" style="fill:#f67a18;fill-rule:nonzero;"/><path d="M134.158,127.529c-0.067,0.16 -0.155,0.282 -0.263,0.365c-0.108,0.083 -0.272,0.125 -0.494,0.125l-1.699,-0l1.773,-3.796l-3.833,-8.773l1.995,-0c0.185,-0 0.326,0.043 0.425,0.129c0.098,0.086 0.172,0.185 0.222,0.295l2.022,4.913c0.068,0.161 0.126,0.327 0.176,0.499c0.049,0.173 0.092,0.345 0.129,0.517c0.049,-0.178 0.103,-0.351 0.161,-0.517c0.059,-0.166 0.122,-0.335 0.19,-0.508l1.902,-4.904c0.049,-0.123 0.131,-0.224 0.245,-0.304c0.114,-0.08 0.242,-0.12 0.383,-0.12l1.829,-0l-5.163,12.079Z" style="fill:#f67a18;fill-rule:nonzero;"/><path d="M143.061,115.45l1.81,-0c0.173,-0 0.317,0.04 0.434,0.12c0.117,0.08 0.191,0.181 0.222,0.304l1.357,5.061c0.074,0.277 0.134,0.548 0.18,0.813c0.047,0.265 0.091,0.529 0.134,0.794c0.068,-0.265 0.14,-0.529 0.217,-0.794c0.077,-0.265 0.159,-0.536 0.245,-0.813l1.57,-5.079c0.037,-0.123 0.111,-0.225 0.222,-0.305c0.111,-0.08 0.24,-0.12 0.388,-0.12l1.006,0c0.167,0 0.305,0.04 0.416,0.12c0.111,0.08 0.185,0.182 0.222,0.305l1.551,5.172c0.08,0.264 0.152,0.521 0.217,0.771c0.065,0.249 0.128,0.5 0.189,0.752c0.043,-0.264 0.091,-0.529 0.144,-0.794c0.052,-0.265 0.118,-0.539 0.198,-0.822l1.404,-5.061c0.031,-0.123 0.104,-0.224 0.221,-0.304c0.117,-0.08 0.253,-0.12 0.407,-0.12l1.727,-0l-3.002,9.475l-1.837,-0c-0.197,-0 -0.339,-0.136 -0.425,-0.407l-1.709,-5.476c-0.055,-0.179 -0.106,-0.359 -0.152,-0.54c-0.046,-0.182 -0.085,-0.362 -0.116,-0.54c-0.037,0.184 -0.077,0.367 -0.12,0.549c-0.043,0.182 -0.092,0.365 -0.147,0.549l-1.727,5.458c-0.087,0.271 -0.253,0.407 -0.499,0.407l-1.746,-0l-3.001,-9.475Z" style="fill:#f67a18;fill-rule:nonzero;"/><path d="M161.254,115.45l0,9.475l-2.281,-0l0,-9.475l2.281,-0Zm0.342,-2.762c0,0.197 -0.04,0.382 -0.12,0.554c-0.08,0.173 -0.186,0.324 -0.319,0.453c-0.132,0.129 -0.287,0.232 -0.466,0.309c-0.179,0.077 -0.369,0.116 -0.573,0.116c-0.197,-0 -0.383,-0.039 -0.558,-0.116c-0.176,-0.077 -0.328,-0.18 -0.457,-0.309c-0.13,-0.129 -0.233,-0.28 -0.31,-0.453c-0.077,-0.172 -0.115,-0.357 -0.115,-0.554c-0,-0.203 0.038,-0.394 0.115,-0.572c0.077,-0.179 0.18,-0.333 0.31,-0.462c0.129,-0.129 0.281,-0.233 0.457,-0.309c0.175,-0.077 0.361,-0.116 0.558,-0.116c0.204,0 0.394,0.039 0.573,0.116c0.179,0.076 0.334,0.18 0.466,0.309c0.133,0.129 0.239,0.283 0.319,0.462c0.08,0.178 0.12,0.369 0.12,0.572Z" style="fill:#f67a18;fill-rule:nonzero;"/><path d="M166.943,125.073c-0.819,-0 -1.45,-0.233 -1.893,-0.698c-0.443,-0.464 -0.665,-1.106 -0.665,-1.925l0,-5.292l-0.96,0c-0.124,0 -0.23,-0.04 -0.319,-0.12c-0.089,-0.08 -0.134,-0.2 -0.134,-0.36l0,-0.905l1.524,-0.25l0.48,-2.585c0.025,-0.124 0.082,-0.219 0.171,-0.287c0.089,-0.067 0.202,-0.101 0.337,-0.101l1.182,-0l0,2.983l2.494,-0l-0,1.625l-2.494,0l0,5.135c0,0.295 0.074,0.526 0.222,0.692c0.148,0.167 0.345,0.25 0.591,0.25c0.141,-0 0.26,-0.017 0.355,-0.051c0.096,-0.034 0.179,-0.069 0.25,-0.106c0.071,-0.037 0.134,-0.073 0.189,-0.106c0.055,-0.034 0.111,-0.051 0.166,-0.051c0.068,-0 0.123,0.017 0.167,0.051c0.043,0.033 0.089,0.084 0.138,0.152l0.683,1.108c-0.332,0.277 -0.714,0.487 -1.145,0.628c-0.431,0.142 -0.877,0.213 -1.339,0.213Z" style="fill:#f67a18;fill-rule:nonzero;"/><path d="M170.979,124.925l-0,-13.724l2.281,0l0,5.274c0.369,-0.351 0.776,-0.635 1.219,-0.85c0.443,-0.215 0.964,-0.323 1.561,-0.323c0.517,-0 0.976,0.088 1.376,0.263c0.4,0.175 0.734,0.422 1.002,0.739c0.268,0.317 0.471,0.696 0.609,1.136c0.139,0.44 0.208,0.925 0.208,1.454l0,6.031l-2.281,-0l0,-6.031c0,-0.578 -0.134,-1.026 -0.402,-1.343c-0.267,-0.318 -0.669,-0.476 -1.205,-0.476c-0.394,-0 -0.763,0.089 -1.108,0.268c-0.345,0.178 -0.671,0.421 -0.979,0.729l0,6.853l-2.281,-0Z" style="fill:#f67a18;fill-rule:nonzero;"/><path d="M183.862,111.571l2.004,-0c0.216,-0 0.391,0.052 0.526,0.157c0.136,0.104 0.238,0.24 0.305,0.406l3.14,8.146c0.105,0.264 0.205,0.555 0.3,0.872c0.096,0.317 0.187,0.651 0.273,1.002c0.141,-0.708 0.317,-1.333 0.526,-1.874l3.131,-8.146c0.055,-0.141 0.154,-0.271 0.295,-0.388c0.142,-0.117 0.318,-0.175 0.527,-0.175l2.004,-0l-5.393,13.354l-2.245,-0l-5.393,-13.354Z" style="fill:#f67a18;fill-rule:nonzero;"/><path d="M204.447,124.925l-1.025,-0c-0.215,-0 -0.385,-0.032 -0.508,-0.097c-0.123,-0.065 -0.215,-0.196 -0.277,-0.393l-0.203,-0.674c-0.24,0.216 -0.476,0.405 -0.706,0.568c-0.231,0.163 -0.47,0.3 -0.716,0.411c-0.246,0.111 -0.508,0.194 -0.785,0.249c-0.277,0.056 -0.585,0.084 -0.924,0.084c-0.4,-0 -0.769,-0.054 -1.108,-0.162c-0.339,-0.108 -0.629,-0.269 -0.873,-0.485c-0.243,-0.215 -0.432,-0.483 -0.568,-0.803c-0.135,-0.32 -0.203,-0.693 -0.203,-1.118c0,-0.357 0.094,-0.709 0.282,-1.057c0.188,-0.348 0.5,-0.662 0.937,-0.942c0.437,-0.28 1.019,-0.513 1.746,-0.697c0.726,-0.185 1.628,-0.29 2.706,-0.314l-0,-0.555c-0,-0.634 -0.134,-1.103 -0.402,-1.408c-0.268,-0.305 -0.657,-0.457 -1.168,-0.457c-0.37,-0 -0.678,0.043 -0.924,0.129c-0.246,0.086 -0.46,0.183 -0.642,0.291c-0.181,0.108 -0.349,0.205 -0.503,0.291c-0.154,0.086 -0.323,0.129 -0.508,0.129c-0.154,0 -0.286,-0.04 -0.397,-0.12c-0.111,-0.08 -0.2,-0.178 -0.268,-0.295l-0.416,-0.73c1.09,-0.997 2.405,-1.496 3.944,-1.496c0.554,0 1.048,0.091 1.482,0.273c0.434,0.181 0.802,0.434 1.104,0.757c0.301,0.323 0.531,0.709 0.688,1.159c0.157,0.449 0.235,0.942 0.235,1.477l0,5.985Zm-4.433,-1.422c0.234,-0 0.45,-0.022 0.647,-0.065c0.197,-0.043 0.383,-0.108 0.559,-0.194c0.175,-0.086 0.344,-0.192 0.508,-0.319c0.163,-0.126 0.327,-0.275 0.494,-0.447l-0,-1.598c-0.665,0.031 -1.221,0.088 -1.667,0.171c-0.447,0.083 -0.805,0.189 -1.076,0.318c-0.271,0.13 -0.464,0.28 -0.577,0.453c-0.114,0.172 -0.171,0.36 -0.171,0.563c-0,0.4 0.118,0.687 0.355,0.859c0.237,0.172 0.547,0.259 0.928,0.259Z" style="fill:#f67a18;fill-rule:nonzero;"/><rect x="206.839" y="111.201" width="2.281" height="13.723" style="fill:#f67a18;fill-rule:nonzero;"/><path d="M213.784,115.45l0,6.021c0,0.579 0.134,1.027 0.402,1.344c0.268,0.317 0.669,0.475 1.205,0.475c0.394,0 0.763,-0.088 1.108,-0.263c0.345,-0.175 0.671,-0.417 0.979,-0.725l0,-6.852l2.281,-0l0,9.475l-1.394,-0c-0.296,-0 -0.49,-0.139 -0.582,-0.416l-0.157,-0.757c-0.197,0.197 -0.4,0.377 -0.61,0.54c-0.209,0.163 -0.432,0.302 -0.669,0.416c-0.237,0.114 -0.493,0.203 -0.767,0.268c-0.274,0.064 -0.568,0.097 -0.882,0.097c-0.517,-0 -0.974,-0.088 -1.371,-0.264c-0.397,-0.175 -0.731,-0.423 -1.002,-0.743c-0.271,-0.32 -0.476,-0.7 -0.614,-1.141c-0.139,-0.44 -0.208,-0.925 -0.208,-1.454l-0,-6.021l2.281,-0Z" style="fill:#f67a18;fill-rule:nonzero;"/><path d="M226.113,115.302c0.597,-0 1.147,0.095 1.648,0.286c0.502,0.191 0.935,0.47 1.298,0.836c0.363,0.366 0.646,0.816 0.85,1.348c0.203,0.533 0.304,1.141 0.304,1.824c0,0.173 -0.007,0.316 -0.023,0.43c-0.015,0.113 -0.043,0.203 -0.083,0.267c-0.04,0.065 -0.094,0.111 -0.161,0.139c-0.068,0.028 -0.154,0.041 -0.259,0.041l-5.855,0c0.068,0.973 0.329,1.687 0.785,2.143c0.455,0.456 1.059,0.683 1.81,0.683c0.369,0 0.688,-0.043 0.956,-0.129c0.268,-0.086 0.502,-0.181 0.702,-0.286c0.2,-0.105 0.375,-0.2 0.526,-0.286c0.151,-0.087 0.297,-0.13 0.439,-0.13c0.092,0 0.172,0.019 0.24,0.056c0.068,0.037 0.126,0.089 0.175,0.157l0.665,0.831c-0.252,0.295 -0.535,0.543 -0.849,0.743c-0.314,0.2 -0.642,0.36 -0.984,0.481c-0.342,0.12 -0.689,0.204 -1.043,0.253c-0.354,0.05 -0.698,0.074 -1.03,0.074c-0.659,0 -1.272,-0.109 -1.838,-0.327c-0.566,-0.219 -1.059,-0.542 -1.478,-0.97c-0.418,-0.428 -0.748,-0.958 -0.988,-1.589c-0.24,-0.631 -0.36,-1.362 -0.36,-2.193c0,-0.646 0.105,-1.254 0.314,-1.824c0.209,-0.569 0.51,-1.065 0.9,-1.487c0.391,-0.422 0.869,-0.756 1.432,-1.002c0.563,-0.246 1.199,-0.369 1.907,-0.369Zm0.046,1.634c-0.665,0 -1.185,0.188 -1.561,0.564c-0.375,0.375 -0.615,0.908 -0.72,1.597l4.285,0c0,-0.295 -0.04,-0.574 -0.12,-0.835c-0.08,-0.262 -0.203,-0.491 -0.369,-0.688c-0.166,-0.197 -0.376,-0.353 -0.628,-0.467c-0.253,-0.114 -0.548,-0.171 -0.887,-0.171Z" style="fill:#f67a18;fill-rule:nonzero;"/></g></svg>