<!-- Generated by IcoMoon.io -->
<svg version="1.1" xmlns="http://www.w3.org/2000/svg" width="995" height="1024" viewBox="0 0 995 1024">
<title></title>
<g id="icomoon-ignore">
</g>
<path fill="#000" d="M862.142 0l-68.346 142.3h-284.602c-107.078 4.509-202.421 51.283-270.431 123.955l-0.204 0.22c-57.55 65.298-93.215 151.089-94.856 245.176l-0.005 0.34c1.749 95.554 37.932 182.334 96.62 248.764l-0.359-0.415c56.972 68.119 138.91 113.712 231.566 122.631l1.4 0.109 65.565 140.92c-7.183 0.355-15.599 0.557-24.063 0.557-71.852 0-140.303-14.559-202.565-40.888l3.416 1.283c-64.843-26.951-120.364-63.685-167.584-109.002l0.183 0.175c-47.375-46.418-84.859-102.736-109.125-165.625l-1.083-3.192c-23.83-57.679-37.667-124.652-37.667-194.856 0-0.162 0-0.323 0-0.485v0.026c-0.004-0.73-0.006-1.593-0.006-2.458 0-69.514 13.842-135.794 38.921-196.236l-1.248 3.396c26.934-65.464 65.21-121.197 112.869-167.288l0.136-0.131c46.123-45.616 100.718-82.778 161.198-108.898l3.406-1.309c55.883-24.715 121.056-39.102 189.589-39.102 2.014 0 4.025 0.012 6.033 0.037l-0.306-0.003z"></path>
<path fill="#000" d="M580.443 1022.602l-327.863-710.104c14.536-20.712 31.103-38.601 49.778-54.029l0.457-0.367c17.893-16.304 38.631-29.897 61.312-39.893l1.456-0.573 295.754 634.749zM682.279 809.142l-80.93-167.383 234.364-498.060h159.063z"></path>
</svg>
