<?xml version="1.0" encoding="UTF-8"?>
<svg id="Ebene_1" data-name="Ebene 1" xmlns="http://www.w3.org/2000/svg" version="1.1" viewBox="0 0 1024 214">
  <defs>
    <style>
      .cls-1 {
        fill: #34a19f;
        stroke-width: 0px;
      }
    </style>
  </defs>
  <path class="cls-1" d="M221.7,0c2.5,1.3,5.1,3,3.7,6.1-1.1,2.4-2.4,4.8-3.8,7.4-.3.6-.2,1.3.3,1.7,7.4,5.8,4.7,15.3,1.2,22.5-6,12.5-14.1,25.2-23.1,36.6-2.4,3.1-5.3,6.1-8.7,9.1-1.6,1.5-3.4,1.5-5.2.2-3.6-2.5-5.2-5.4-4.3-9.8,1.3-6.5,3.4-12.6,6.2-18.8,5.5-12.3,12.4-24.9,20.7-37.8.3-.5.2-.7-.4-.6-14.4,2.1-28.9,7.5-42.2,13.9-13,6.3-25.1,13.2-36.2,20.7-29.4,19.8-56.2,43.4-80.4,70.7-10,11.4-18.7,22.6-26.1,33.7-2.5,3.7-5,8-7.5,12.9-3.5,6.7-5.7,12.5-5.7,19.7s1.4,4.4,4.3,5c6.7,1.4,13.9,1.6,21.7.5,15.1-2.1,30-5.4,44.4-9.9,17.2-5.3,35.7-11.1,55.5-17.3,24.9-7.8,50-14.9,75.2-21.1,4.8-1.2,9.6-2.2,14.5-3.2,9.4-1.8,19.1-3.5,28.5-3.9,8.6-.3,16.5,2.2,24.9,5.5.6.2,1,.6,1.1,1.2l.2.6c.2.6,0,.9-.7.8-7.7-1.6-13.4-1.9-20.9-1-27.5,3.4-54.5,9.8-81.1,17.9-25.7,7.8-53.8,16.5-84.3,26.1-15.3,4.8-28.7,8.4-40.3,10.7-6.9,1.4-13.9,2.4-20.9,2.7-8.7.3-16.5-1.1-23.4-6.7-4.8-3.9-7.8-9-8.9-15.3v-2.7c.6-2.3,1.1-4.6,1.6-6.9.6-2.8,2.4-6.9,5.2-12.2,2.3-4.3,5.4-9.2,9.3-14.6,11-15.2,23.8-29.5,37.3-43,19.8-19.9,41.3-37.6,64.4-53,22.2-14.8,44.6-26.9,70-33.7,8.4-2.2,16.2-3.4,23.2-3.4s1.5-.3,2-.9L221.1,0h.6ZM221.3,18c-.3-.6-1.1-.9-1.7-.6-.2.1-.4.3-.5.5-10.6,18.9-20.9,37.6-29,57.7-.1.3-.2.6,0,1,0,.2.2.3.4.2h.1c3.2-2.5,6.1-5.3,8.6-8.3,8.6-10,17-22.6,21.6-35.4,1.7-4.9,3-10.4.6-15.1h-.1Z"/>
  <path class="cls-1" d="M511.9,214h-1.1c-2.5-1.3-4.1-3-4.7-5-.4-1.4-.3-3.2.4-5.4,3.4-10.7,6.7-21.1,10.6-31.4,11.7-30.7,23.5-63.5,31.5-94.9.9-3.6,1.8-8.7,2.8-15.4.8-6,.7-11.9-.4-17.9-.8-4.1-4.1-5.5-8-6-9.6-1.3-17.5,0-29.4,1.6-8.7,1.2-17,2.4-24.9,3.6-1,.2-1.8.8-2.3,1.7-9.5,20.3-19.3,41-29.3,62-8.2,17.1-15.9,34.7-23.2,52.8-.3.7-.8.9-1.5.6-.1,0-.2-.1-.3-.2-.8-.7-1-1.6-.6-2.5,4.9-13.7,10-27.7,15.1-41.9,4.1-11.3,8.4-21.6,13.1-32.1v-.3h-.2c-.2-.2-.3,0-.4,0-2.4,3.9-6.2,9.4-11.4,16.4-5.2,7-11.1,13.2-17.8,18.7-1.7,1.4-3.4,1.5-5,.3-5.3-3.9-3.6-9.4-1.2-14.3.7-1.4.4-1.7-.9-.8-5.5,3.8-10.8,7.5-15.9,11.2-3.7,2.7-9,2.8-9.5-3-.2-1.9,0-3.8.2-5.7v-1.1c0-.2-.2-.3-.4-.2h-.1l-18.2,19.3c-.4.4-1,.5-1.4.2-2.6-1.5-3.2-3.5-1.8-6.2,3.1-6.1,6.2-12.2,9.4-18.4.5-1,.3-1.2-.6-.5-7.1,4.9-14.8,10-23.1,15.3-1.3.8-3.2,1-4.6.2-3-1.9-1.9-5.1-1.3-7.9.1-.6,0-.6-.5-.3-5.6,4.7-11.2,9-16.8,13-4.1,3-9.2.5-8.4-4.7.4-2.7,1.2-5.5,2.3-8.6.4-1.1.1-1.3-.8-.6-5.1,3.9-10,7.5-14.7,10.8-1.2.8-2.4.8-3.8,0-3.2-2.1-2.8-5.4-2-8.7.3-1.2,0-1.4-.9-.5l-13.5,12.4c-.6.5-1.2.6-1.9.2-4.1-2.3-2.1-6.2-1-9.4.5-1.4.2-1.6-1-.8-1,.8-2.1,1.6-3,2.5-3.7,3.4-7.8,7.4-12.5,12-.5.5-1.2.6-1.8.3-2.8-1.4-2.5-4.4-1.5-6.9,2-4.8,3.9-9.4,5.8-13.8.6-1.4.3-1.7-.9-.7-7,5.1-14.1,10.5-21.3,16-2.3,1.8-6.3,2.9-8.3-.2-1.1-1.7-1.4-3.5-1.1-5.4.2-1.1-.2-1.3-1-.6-4.8,3.8-9.7,7.9-14.8,12.3-1.1,1-2.3,1-3.5,0-1.8-1.3-2.4-3.1-1.7-5.2.8-2.7,1.7-5.1,2.7-7.3.3-.7.2-.8-.5-.4-1.7,1.2-3.4,2.5-5,4-6.6,5.9-13.1,11.7-19.4,17.4-.2.2-.4.2-.7.1-4-1.5-2.8-5-1.1-7.6,5.5-8.8,11-17.2,16.3-25.1.4-.5.2-.7-.4-.6-7.8,1.6-15.9,3.8-24.5,6.4-.2,0-.4.3-.3.6v.2c2.4,2.8,2.3,5.5.4,8.7-3.3,5.7-7.7,10.6-13,14.7-3,2.3-7,3-9.8,0-6.7-7.1,3.7-21,8.7-26.3,1.3-1.4,2.6-2.8,4.2-3.9.9-.6,2.1-.4,2.8.4,1.6,1.8,3,4,5.9,3.1,10.4-3.3,19.4-6.3,26.9-9,3.2-1.1,6.5,2.3,7.6,4.8.5,1.2,0,2.8-.6,3.9-2.6,4.5-5.7,9-9.2,13.3h0c0,0,.2.3.2.3h.3c3.8-4,8.4-8.4,13.8-13.4,1.1-1,2.1-1.3,3-.8,3,1.5,4.5,4,2.8,7.3-1.5,2.9-2.9,5.6-4.1,8.2-.6,1.3-.4,1.4.6.5,4.9-4.7,9.6-9.2,14.2-13.5.6-.6,1.3-.7,2-.4,2.4,1,3.8,3.2,3,5.8-.6,2-1.2,4.1-1.7,6.1,0,.3.1.5.4.6h.3c3.3-1.1,6-2.9,8.6-5.1,6.7-5.8,13.5-11.7,20.3-17.8.6-.5,1.2-.8,2-1h.8c4.3,2.1,5.3,5.4,3.1,9.9-1.5,3.1-3,6.1-4.3,8.8-1,1.9-.7,2.1.8.6,2.9-3,5.9-6,9-9,.9-.9,1.9-1.7,3-2.4.3-.2.6-.2.9,0,2.8,1.1,4.1,2.8,4,5.3,0,1.3-.6,2.5-.6,3.9s.2.6.6.2c3.4-3.4,6.8-6.6,10.2-9.6,1.3-1.1,2.5-1.2,3.8-.4,1.6,1.1,2.1,2.7,1.6,4.8-.6,2.3-1.3,4.6-1.9,6.9-.3,1.1,0,1.3.9.7,5.3-3.2,10.2-6.8,14.6-11.1,2.3-2.1,4.4-4.2,6.6-6.3,1.5-1.4,3-1.3,4.5,0,2.5,2.4,2.3,4.8.8,7.7-1.9,3.6-3.7,7-5.4,10.3-.2.3-.3.6-.4,1-.3,1,0,1.2.8.6,1.7-1,3.1-2.1,4.5-3.1,5.2-4.1,11.1-9.2,17.8-15.1,1.8-1.6,4.7,1.9,5,3.4.4,2-2,6.1-3,7.8-.7,1.3-.4,1.5.8.8,9.9-5.9,18-10.8,24.3-14.7,1.5-.9,2.7-1.9,3.6-3.1.3-.4.9-.5,1.3-.3,6.4,2.5,2.9,6.7,1.4,10.7v.3s.1,0,.2,0h.2c1.4-1.4,2.8-2.8,4.3-4.1.7-.6,1.5-.9,2.4-.6,7,2.7,3.6,10.1,2.1,15.2,0,.2,0,.4.3.5h.3c2.8-1.1,5.4-2.6,7.7-4.4,5.9-4.7,11.6-9.3,17.1-14,.4-.3.9-.4,1.4-.2,5.5,2.1,5.4,6,3.2,10.7-1.1,2.4-2.3,4.9-3.5,7.4-.9,1.8-.5,2.2,1.2,1,8.2-5.6,14.5-12.8,20.5-20.9,10.6-14,19.4-29.8,26.3-47.2,0-.2,0-.4-.2-.5h-.2c-25.7,5-52,10.9-78.9,17.8-3.2.8-7.2,2.2-10.6,1.6-3.2-.5-7.2-3.3-7.6-6.9,0-.8.4-1.5,1.1-1.8,2-.6,4.1-1.2,6.5-1.6,30.6-5.3,61-10.6,91.2-15.9,1.6-.3,2.8-1.2,3.5-2.7,2.4-5.1,5-10.3,7.7-15.6.9-1.9,2.2-2.1,3.8-.7.2.2.6.5,1.3,1.1,1.6,1.4,2,3.1,1.1,5l-4.4,10.1c0,.2,0,.5.2.6h.2c12.4-1.8,24.4-3.4,36-4.9,10.7-1.4,20.2-.2,27.2,8.3,6,7.2,7.2,16.1,6.3,25.3-.9,8.4-2.5,16.8-4.7,24.8-5.7,20.3-12.5,40.5-20.3,60.8-5.3,13.5-10.5,27.5-15.8,41.8,0,.3,0,.7.3.8h0c.2,0,.4-.2.8-.6,20.3-28,33.7-46.4,40.2-55.3,6.8-9.2,14.2-18.7,22.2-28.5,27.5-33.7,54.9-67.7,82.2-101.9,1.4-1.8,3.1-3.5,4.6-5.3.4-.5,1.1-.7,1.7-.5,1.9.5,4,2.6,3.2,4.7-.3.8-.8,1.6-1.3,2.3-8.7,11.6-17.6,22.9-27,33.8-31.3,36.4-63.7,75.2-90.4,112.3-11.7,16.3-23.4,32.6-35,48.7-1.9,2.7-4.1,5.7-6.6,8.9-.4.5-1.2,1.2-2.5,2.2l-.4-.5ZM176.3,127.7c6.9-3.8,13.5-10.1,15.8-17.6.2-.6,0-1.3-.6-1.6-2.1-1.2-3.7-.8-5,1.1-3.4,5-6.7,10-10,15-.5.8-.8,1.7-.9,2.6,0,.7.2.9.8.5h-.1Z"/>
  <path class="cls-1" d="M650.8,95c0,0,0-.2-.2-.2h0c-6,6.8-12.1,13.1-18.2,18.7-2.7,2.5-5.5,4.7-8.5,6.6-2.2,1.4-4.2,1.4-5.9-.2-3.4-3-4.5-6.4-3.6-10.9.8-4.7,2.3-9,4.5-13,1.1-2.1,2.3-4.4,4-6,.4-.4,1-.5,1.5-.3,3.5,1.4,6.1,4.3,4.4,8.4-2,4.7-4,9.6-6.1,14.6-.6,1.5-.2,1.9,1.2,1,11.6-6.7,21.2-16.7,29.8-27,1.4-1.6,2.5-3.3,3.3-5.1,5.3-11.2,10.3-21.7,15-31.5.9-1.9,2-3.5,3.3-5,.6-.7,1.7-.9,2.5-.4,3,1.6,4.3,3.7,2.7,7-8.4,17.6-16.5,34.7-24.4,51.4-.2.4-.3.8-.3,1.2,0,.7.2.8.7.3,2.9-2.7,6-5.2,9.2-7.5,2.2-1.5,4.3-1.8,6.3-.6,4.6,2.6,6.1,6.3,4.4,11-.4,1-.7,2.1-.9,3.2,0,.2,0,.4.3.4h.2l7.3-2c.7-.2,1.2-.7,1.5-1.3,2.8-6.5,7.6-11.9,14.2-15.9,5-3.1,10.3-3.4,14.7.8,2.6,2.5,2.5,5.1-.4,7.6-3.8,3.3-8.9,5.8-13.6,7.4-4.1,1.4-9.1,4.9-8.8,9.9,0,.6.6,1.1,1.2,1.1h0c11.3-1.3,21.2-8.9,29.7-15.9,3.9-3.3,6-4.4,7.2-8.4.6-1.8,1.8-3.5,3.6-5,1.5-1.3,3.1-1.3,4.6,0,1.4,1.1,2.5,2.3,3.4,3.5,2.5,3.5-7.2,8.8-2.3,15.4,1.6,2.1,3.2,4.3,5,6.5.7.9,1.8,1.4,2.9,1.3,19.1-1.1,37.8-2.2,56.2-3.4,1,0,1.9.2,2.8.9.2,0,.3.3.3.5,0,.8-.2,1.3-1,1.3-27.8,2.9-55.6,6.2-83.6,9.9-2.2.3-4.4-.5-5.9-2-.3-.4-.7-.7-.9-1.2-1.2-1.8-.7-2.9,1.5-3.2,7.1-.9,15-1.3,22-3.5.6-.2.9-.8.7-1.4,0,0,0-.3-.2-.4l-9.2-11.1c-.2-.2-.5-.2-.7,0-8.8,6-17.7,12-26.6,17.8-1.7,1.1-3.6,2-5.7,2.5-7.2,2-10.5-3.9-12.2-9.7,0-.2-.3-.4-.5-.3h0l-10,2.8c-.7.2-1.3.6-1.7,1.1-4.4,5.2-9.3,10.3-15.1,13.6-.6.3-1.2.6-1.9.8-2.6.6-4.8-2.3-3.7-4.6,2.5-5.6,7.7-9.1,13.3-11.3,1.5-.6,2.6-1.9,3.3-3.3,1.4-2.9,2.6-5.8,3.5-8.6.4-1,0-1.3-1-.9s-2,.9-2.8,1.6c-5.7,4.2-11.3,8.7-16.8,13.6-.4.3-.8.4-1.3.2-3.4-1.4-4.4-3.8-3.2-7.3,1.7-4.8,3.5-9.6,5.3-14.3,0-.3,0-.6,0-.9l-.3-.3ZM709.9,95.8c-.5-.6-3.2.6-6.2,2.7s-5,4.4-4.5,5,3.2-.6,6.2-2.7,5-4.4,4.5-5ZM653.9,127.5l6.1-6h0c-.5-.6-2.1.4-3.8,2l-.2.2c-1.6,1.6-2.6,3.3-2.2,3.8h.1Z"/>
  <path class="cls-1" d="M426.5,74.4c5.1-1.4,10.5-2.3,15.6-3.3,1.1-.2,2.3,0,3.5.3.6.2.9.9.7,1.5,0,0,0,.2-.1.3-.6,1-1.4,1.7-2.4,2.2-2.6,1.4-5.7,2.9-9.2,4.6-1.4.7-2.8.9-3.9.7-2.1-.4-5-2.3-5.2-4.7,0-.7.4-1.4,1.1-1.6h-.1Z"/>
  <path class="cls-1" d="M620.4,78c5.2-1.3,10.8-2.3,16-3.3,1-.2,2,0,3,.4.6.3.9,1,.6,1.6,0,0,0,0,0,.2-.6.8-1.3,1.5-2.2,2-2.9,1.6-6.3,3.3-10,5-3.2,1.5-6.9-.6-8.4-3.5-.4-.8,0-1.9.7-2.3,0,0,.2,0,.4,0Z"/>
  <path class="cls-1" d="M473.8,110.7c1.5-1.2,3.1-2.6,4.7-4.2,5.8-6,11.5-11.9,17-17.5,1.1-1.1,2.4-2,3.8-2.8.3,0,.6-.2.8,0,2.2.6,3.7,2,4.6,4,.9,2.3-.8,7.1-1.9,9.3-14.8,29.5-29,57.5-43.6,87.3-.1.3-.1.5,0,.8.2.4.6.7,1,.9.3.1.5.5.3.8,0,.1-.1.2-.2.3l-2.2,1.4c-.3.2-.6.2-.9.2-3.5-.6-3.8-3.7-2.7-6.6.9-2.4,1.6-4.8,2.6-7.2,11.6-27.5,24.7-53.6,38.3-80.2,1.2-2.4.9-2.7-1.1-.9-6.3,5.8-13.7,13-22.3,21.6-1.2,1.2-3.1,2.9-4.8,1.8-3.2-2.1-4-4.8-3.1-8.4,1.5-5.4,3.5-10.3,6.1-14.5,1.1-1.8,2.4-2,4-.6l.9.8c1.7,1.4,2.1,3.2,1.3,5.3l-3.2,7.9c-.5,1.1-.2,1.3.7.6h0Z"/>
</svg>