<?xml version="1.0" encoding="UTF-8" standalone="no"?><!DOCTYPE svg PUBLIC "-//W3C//DTD SVG 1.1//EN" "http://www.w3.org/Graphics/SVG/1.1/DTD/svg11.dtd"><svg width="100%" height="100%" viewBox="0 0 7500 5000" version="1.1" xmlns="http://www.w3.org/2000/svg" xmlns:xlink="http://www.w3.org/1999/xlink" xml:space="preserve" xmlns:serif="http://www.serif.com/" style="fill-rule:evenodd;clip-rule:evenodd;stroke-linejoin:round;stroke-miterlimit:2;"><g><path d="M2345.93,3237.33c2.89,-0.31 4.89,0.05 5.98,-0.72c48.81,-34.54 97.63,-69.08 146.1,-104.04c3.52,-2.54 6.32,-8.27 6.23,-12.45c-0.28,-12.94 -1.88,-25.88 -3.42,-38.77c-1.42,-11.88 -8.16,-15.43 -18.73,-8.18c-10.68,7.33 -22.68,14.2 -30.4,23.86c-35.31,44.12 -69.33,89.14 -103.72,133.9c-1.14,1.49 -1.21,3.69 -2.04,6.4Zm233.5,-531.19c1.49,0.83 2.98,1.67 4.48,2.51c5.48,-2.79 11.53,-8.62 16.33,-7.83c17.86,2.96 24.23,-9.14 32.71,-18.94c7.63,-8.84 15.48,-17.54 22.62,-26.71c63.53,-81.59 121.74,-166.21 159,-261.57c9.15,-23.42 13.59,-49.34 14.84,-74.35c1.44,-28.5 -13.2,-51.63 -42.98,-68.32c-75.12,150.62 -155.99,296.99 -207,455.21Zm132.31,-478.77c-40.1,-3.64 -76.16,-0.16 -111.91,6.92c-91.75,18.17 -174.76,56.21 -255.53,99.14c-198.38,105.45 -376.48,236.34 -543.14,381.24c-244.46,212.55 -458.17,449.61 -641.1,710.71c-64.19,91.62 -120.231,187.58 -161.366,290.55c-17.117,42.84 -28.825,86.89 -28.484,133.03c0.211,28.55 5.52,56.05 22.419,80.63c14.661,21.32 34.231,31.87 62.611,29.62c62.89,-4.98 123,-20.81 182.09,-39.86c224.84,-72.47 448.97,-146.91 674.11,-218.56c253.14,-80.56 508.32,-155.13 768.04,-215.19c120.25,-27.81 241.07,-53.49 365.12,-61.65c52.83,-3.47 105.35,-1.89 155.81,15.94c7.49,2.64 13.78,4.58 18.18,-5.06c19.32,-42.3 39.26,-84.35 58.89,-126.52c0.65,-1.4 0.39,-3.17 0.16,-0.92c-9.33,-7.1 -21.32,-11.61 -23.12,-18.46c-4.62,-17.6 11.13,-28.59 22.98,-38.99c4.02,-3.54 14.57,-0.56 22.14,-0.56c1.36,1.52 2.73,3.04 4.1,4.56c40.16,-81.36 80.32,-162.71 120.48,-244.06c-1.21,-0.8 -2.41,-1.61 -3.62,-2.42c-5.55,4.42 -11.14,8.79 -16.63,13.27c-36.6,29.91 -72.82,60.25 -109.98,89.55c-12.72,10.03 -27.13,18.63 -41.9,25.85c-30.15,14.74 -53.92,6.26 -67.99,-22.74c-1.42,-2.93 -2.66,-5.93 -5,-11.17c-5.83,3.47 -11.1,6.15 -15.85,9.49c-30.08,21.12 -59.81,42.68 -90.15,63.46c-11.15,7.63 -23.19,14.42 -35.62,20.04c-35.82,16.18 -69.18,-0.86 -74.16,-38.3c-1.91,-14.31 -0.31,-29.02 -0.31,-47.78c-7.59,5.65 -12.71,8.58 -16.67,12.54c-52.96,52.89 -105.91,105.81 -158.51,159.03c-14.1,14.26 -27.22,29.4 -40.35,44.48c-6.45,7.4 -14.28,7.38 -18.68,0.66c-5.97,-9.13 -13.29,-20.59 -12.03,-30.13c2.74,-20.67 7.99,-41.8 16.8,-60.89c23.61,-51.15 49.65,-101.33 74.66,-151.92c3.33,-6.74 6.3,-13.64 6.61,-23.23c-5.29,3.37 -10.94,6.33 -15.81,10.17c-42.05,33.12 -83.53,66.88 -126.08,99.42c-20.96,16.03 -42.62,31.89 -66.12,44.23c-30.43,15.97 -56.05,2.59 -61.82,-29.99c-1.96,-11.07 -1.56,-22.51 -2.42,-36.72c-8.37,4.55 -15.55,7.47 -21.5,11.85c-58.14,42.89 -116.07,86.02 -174.06,129.08c-7.7,5.72 -15.13,11.8 -23.11,17.17c-24.62,16.55 -53.8,4 -55.36,-24.75c-0.75,-13.79 0.55,-28.53 5.1,-41.56c28.23,-80.74 70.74,-153.92 134.65,-215.23c5.24,-5.03 10.77,-9.84 16.48,-14.41c45.02,-35.99 73.67,-35.19 116.5,2.65c23.37,20.65 22.88,46.47 16.87,72.45c-2.88,12.47 -1.96,19.46 10.91,26.04c18.79,9.6 17.35,28.08 17.23,44.78c-0.22,30.5 3.47,33.79 31.2,17.28c26.19,-15.6 51.71,-33.15 74.04,-53.24c61.31,-55.16 120.84,-112.04 170.88,-176.87c14.4,-18.65 20.52,-19.23 40.92,-6.93c42.98,25.91 47.23,34.56 24.3,77.68c-27.55,51.82 -58.5,102.06 -87.95,153c-2.67,4.62 -5.1,9.37 -7.64,14.07c1.51,1.35 3.02,2.7 4.53,4.05c3.45,-4.57 6.58,-9.38 10.38,-13.67c49.14,-55.36 98.25,-110.73 147.72,-165.83c7.91,-8.82 13.48,-23.83 31.18,-15.94c30.28,13.49 38.93,25.89 31.62,47.55c-6.96,20.61 -16.13,40.57 -23.45,61.09c-5.29,14.84 -10.05,29.95 -13.34,45.26c-2.95,13.75 2.27,17.97 16.01,12.07c16.7,-7.17 33.98,-14.89 47.74,-25.94c31.99,-25.68 61.96,-53.56 92.9,-80.39c7.62,-6.61 13.72,-18.12 27.32,-10.79c13.69,7.39 27.51,15.18 24.68,33.47c-0.41,2.68 -0.5,5.39 -0.75,8.09c-2.4,26.45 5.67,33.05 31.04,19.84c24.43,-12.73 49.44,-27.59 67.81,-46.85c54.2,-56.84 106.05,-115.72 157.23,-175c32.55,-37.7 32.15,-34.92 70.84,-5.19c12.92,9.92 16.56,21.99 11.05,36.17c-8.69,22.35 -16.37,45.26 -27.62,66.47c-28.8,54.29 -59.35,107.78 -89.17,161.6c-2.85,5.13 -5.56,10.34 -9.08,16.93c3.56,-0.42 5.51,-0.08 6.48,-0.83c53.21,-41.64 107.26,-82.41 158.98,-125.62c17.25,-14.42 30.77,-33.95 42.05,-53.17c25.15,-42.87 14.47,-82.32 -27.57,-111.35c-36.91,-25.5 -79.72,-36.89 -124.16,-42.82c-96,-12.8 -189.32,-4.61 -278.38,33.78c-9.67,4.16 -19.64,10.67 -30.26,0.95c-11.21,-10.27 -19.43,-20.83 -15.05,-37.13c5.24,-19.56 17.44,-33.48 37.01,-39.92c19.53,-6.41 39.88,-11.63 60.34,-14.38c96.88,-13 191.61,-2.26 284.28,25.83c35.6,10.79 67.91,27.47 95.48,51.57c50.35,43.98 61.28,94.09 24.69,148.8c-23.33,34.88 -52.05,68.27 -84.74,95.65c-55.93,46.83 -116.99,88.3 -175.59,132.38c-7.92,5.95 -16.32,12.87 -20.74,21.11c-94.04,175.19 -183.42,352.34 -252.43,537.81c-7.78,20.89 -12.86,42.66 -19.51,63.93c-1.77,5.66 -3.79,11.64 -7.39,16.34c-4.61,6.03 -10.92,10.92 -16.51,16.3c-6.83,-7.88 -19.2,-15.62 -19.44,-23.67c-0.67,-22.45 -0.5,-46.3 6.8,-67.33c30.35,-87.41 63.37,-174 95.6,-260.83c4.52,-12.18 10.12,-24.02 16.76,-39.65c-19.06,-3.19 -36.14,-7.42 -53.48,-8.74c-79.95,-6.07 -158.23,6.81 -235.93,21.6c-222.08,42.27 -438.45,104.1 -653.59,169.84c-322.45,98.53 -640.57,208.13 -955.76,325.41c-59.91,22.29 -122.76,38.68 -185.51,52.97c-51.51,11.73 -102.34,2.9 -148.831,-23.04c-34.056,-19.01 -55.205,-47.01 -67.343,-81.68c-21.157,-60.42 -18.507,-121.62 -6.164,-182.96c30.026,-149.24 100.736,-282.79 184.868,-410.46c183.2,-278.02 412.93,-518.78 677.72,-730.56c205.61,-164.44 429.08,-303.73 676.74,-406.94c54.71,-22.79 112.49,-39.67 169.92,-56.03c44.8,-12.75 91.44,-13.72 137.21,-1.78c13.23,3.46 15.91,-4.02 19.91,-12.07c68.92,-138.94 137.91,-277.85 206.88,-416.76c97.69,-196.73 212.77,-384.45 335.78,-568.09c10.32,-15.41 20.31,-31.03 28.08,-48.28c-3.3,3.26 -6.83,6.34 -9.88,9.79c-173.22,196.05 -345.63,392.73 -520.05,587.84c-51.14,57.2 -106.46,111.36 -162.91,164.06c-26.67,24.89 -58.64,46.18 -91.56,63.54c-55.82,29.44 -101.67,9.01 -117.05,-49.5c-14.14,-53.79 -7.48,-107.79 3.61,-161.14c26.42,-127.07 75.12,-247.46 127.96,-366.53c4.1,-9.26 7.96,-18.61 11.93,-27.93c-2.22,-1.71 -4.44,-3.42 -6.65,-5.13c-3.17,5.13 -5.53,10.91 -9.62,15.29c-148.28,158.41 -298.89,314.95 -444.45,475.52c-120.11,132.49 -233.98,269.93 -351.31,404.65c-21.48,24.67 -45.92,47.15 -69.74,69.96c-8.53,8.17 -19.56,15.19 -32.57,7.87c-13.16,-7.39 -13.64,-20.06 -9.92,-31.79c7.21,-22.74 14.2,-45.8 24.6,-67.33c59.45,-123.14 135.43,-237.76 209.78,-353.2c98.22,-152.49 197.65,-304.31 294.14,-457.76c52.21,-83.02 100.12,-168.62 134.73,-259.69c12.88,-33.87 22.14,-69.57 27.4,-105.17c5.76,-38.954 -7.47,-51.316 -49.48,-56.882c-63.09,-8.357 -124.74,2.326 -185.92,14.288c-181.6,35.504 -357.97,88.104 -533.59,143.354c-94.3,29.66 -189.49,56.96 -284.77,83.81c-26.36,7.42 -54.31,10.81 -81.82,13.55c-47.92,4.78 -78.58,-25.46 -96.62,-56.85c-14.23,-24.76 6.62,-77.26 33.66,-90.08c5.29,-2.51 12.8,-3.83 18.36,-2.45c50.79,12.66 99.98,-0.3 149.33,-7.89c192.08,-29.52 379.96,-76.757 569.29,-117.968c110.33,-24.013 222.159,-42.065 333.54,-61.655c20.21,-3.554 41.53,-2.233 62.33,-2.009c49.94,0.536 88.42,21.909 118.37,58.365c20.77,25.272 24.38,54.743 16.52,83.497c-11.7,42.8 -24.96,85.76 -43.36,126.35c-50.94,112.39 -117.57,217.24 -185.2,321.3c-133.44,205.34 -269.03,409.47 -402.42,614.85c-32.69,50.34 -60.36,103.53 -90.1,155.53c-3.44,6 -5.37,12.75 -4.78,21.78c6.55,-5.26 13.99,-9.82 19.51,-15.9c50.87,-56.12 102.46,-111.72 151.86,-168.97c163.87,-189.94 326.91,-380.51 490.29,-570.83c113.7,-132.44 227.48,-264.81 341,-397.38c7.55,-8.81 13.7,-18.76 19.79,-28.57c42.79,-68.92 89.74,-135.13 144.95,-196.001c3.37,-3.708 6.83,-7.405 10.69,-10.638c22.67,-18.973 27.96,-18.616 50.42,0.897c15.09,13.118 31.06,25.358 46.25,38.389c9.76,8.379 13.93,17.952 5.76,29.99c-19.5,28.722 -37.44,58.425 -57.96,86.473c-137.23,187.56 -259.78,382.97 -360.97,589.75c-34.29,70.07 -63.44,142.04 -70.2,219.8c-1.52,17.45 1.11,35.55 4.4,52.93c2.86,15.09 15.52,22.58 31.18,17.91c19.6,-5.85 40.26,-11.88 56.79,-22.73c31.62,-20.75 63.81,-42.17 90.13,-68.28c71.82,-71.2 142.57,-143.51 210.27,-218.14c80.05,-88.23 156.85,-179.06 234.35,-269.28c131.48,-153.06 263,-306.09 393.19,-460.105c35.1,-41.525 65.39,-86.604 98.2,-129.848c4.27,-5.625 9.76,-10.878 15.84,-14.687c3.62,-2.264 11.52,-3.549 14.02,-1.524c12.58,10.198 25.24,20.77 35.24,33.079c3.66,4.514 2.25,14.994 -0.54,21.329c-10.35,23.482 -20.51,47.279 -33.82,69.334c-88.46,146.608 -178.29,292.492 -266.57,439.182c-160.07,265.99 -328.46,527.63 -477.14,799.57c-16.86,30.84 -33.12,61.97 -50.31,92.66c-5.1,9.1 -4.67,15.21 3.71,22.52c58.39,50.92 70.46,111.66 43.08,180.75c-28.18,71.13 -69.57,135.82 -115.07,197.79c-42.82,58.32 -90.51,113.54 -136.72,169.64c-8.36,10.15 -19.56,18.39 -30.08,26.82c-26,20.83 -61.49,10.91 -65.37,-20.98c-3.2,-26.27 -0.99,-54.21 5.01,-80.15c20.53,-88.64 57.51,-172.31 94.42,-255.79c25.2,-57 52.17,-113.32 78.31,-169.96c2.44,-5.31 4.63,-10.72 8.16,-18.93Z" style="fill-rule:nonzero;"/><path d="M4439.61,1806.11c-8.38,-13.88 -16.23,-24.57 -21.54,-36.27c-6.15,-13.54 -14.38,-13.88 -22.37,-3.62c-23.63,30.38 -46.18,61.5 -68.96,92.46c-1.31,1.78 -0.86,4.7 -2.09,12.64c41.32,-23.44 78.45,-44.5 114.96,-65.21Zm-393.11,-229.57c96.17,-111.26 183.71,-227.1 224.66,-367.74c-87.62,115.81 -157.03,241.29 -224.66,367.74Zm1725.5,-518.61c-44.7,17.79 -451.92,523.5 -479.94,594.75c8.23,-6.41 13.95,-10.48 19.21,-15.02c34.06,-29.32 68.64,-58.14 101.89,-88.25c91.61,-82.97 178.48,-169.89 249.31,-269.68c42.08,-59.29 77.45,-121.86 101.71,-189.54c3.5,-9.74 4.95,-20.13 7.82,-32.26Zm-1523.04,816.73c-7.05,3.9 -12.32,6.74 -17.51,9.7c-42.381,24.21 -86.76,43.51 -137.16,46.99c-11.45,0.8 -23.27,0.48 -34.58,-1.24c-32.41,-4.94 -52.99,-27.48 -54.4,-58.3c-0.26,-5.7 -0.04,-11.42 -0.04,-21.54c-8.1,6.38 -12.89,9.77 -17.23,13.62c-89.96,79.75 -177.52,161.56 -252.8,254.13c-4.25,5.23 -13.67,6.78 -20.68,10.04c-3.64,-7.78 -11.94,-16.76 -10.07,-23.13c6.4,-21.77 15.54,-42.96 25.15,-63.76c28.9,-62.56 58.53,-124.82 87.8,-187.22c1.54,-3.28 2.44,-6.82 5.21,-14.72c-8.69,5.87 -13.46,9.32 -18.46,12.44c-71.2,44.42 -142.28,89.02 -213.79,132.99c-13.46,8.27 -28.31,14.86 -43.19,20.72c-43.85,17.28 -84.76,-6.76 -86.06,-51.53c-0.53,-18.12 3.96,-36.4 6.46,-54.57c0.71,-5.19 2.46,-10.25 5.01,-20.5c-9.07,6.79 -14.35,10.38 -19.2,14.42c-86.86,72.32 -173.59,144.79 -260.61,216.95c-9.48,7.85 -18.41,20.55 -34.07,13.58c-17.78,-7.91 -34.6,-19.16 -32.35,-39.99c2.64,-24.48 5.99,-49.6 14.42,-72.71c30.45,-83.44 78.71,-158.86 125.14,-235.02c17.76,-29.14 34.12,-59.06 52.83,-87.65c23.28,-35.58 35.52,-37.21 70.93,-12.98c25.05,17.14 27.76,20.21 15.34,47.02c-21.81,47.1 -44.52,93.98 -70.1,139.35c-25.62,45.44 -55.21,88.91 -83.03,133.26c-2.86,4.56 -5.54,9.21 -6.3,16.1c3.95,-2.29 8.19,-4.23 11.81,-6.92c79.35,-58.84 158.74,-117.64 237.77,-176.87c7.44,-5.58 13.32,-13.43 18.55,-21.05c29.96,-43.65 65.79,-82.26 109.98,-113.85c3.21,-2.3 6.54,-4.48 9.96,-6.5c51.6,-30.38 61.88,-25.9 111.55,15.05c5.99,4.93 8.91,15.38 9.42,23.48c2.38,38.11 -16.56,68.94 -41.68,96.8c-2.58,2.86 -13.24,2.62 -17.79,0.09c-18.61,-10.35 -28.99,-25.98 -27.35,-47.19c-39.81,9.21 -138.2,132.22 -140.01,177.29c11,-2.49 22.02,-3.05 31.01,-7.34c39.12,-18.69 78.93,-36.54 116.08,-58.3c55.38,-32.43 108.66,-67.99 162.96,-102.02c16.36,-10.25 26.97,-24.04 35.96,-40.47c74.64,-136.25 147.11,-273.67 226.57,-407.44c37.94,-63.87 89.15,-120.93 135.45,-180.32c10.75,-13.79 25.45,-25.1 39.35,-36.45c9.15,-7.48 20.89,-14.77 32.99,-6.89c13.51,8.8 28.99,18.33 27.25,36.75c-1.21,12.79 -4.54,25.63 -8.69,37.93c-36.45,108.01 -93.67,206.27 -165.79,296.52c-56.06,70.15 -116.4,137.3 -174.67,205.91c-8.23,9.7 -16.65,19.54 -22.98,30.34c-50.06,85.43 -99.65,171.1 -149.34,256.72c-2.39,4.12 -4.28,8.48 -8.53,16.99c6.49,-4.46 9.31,-5.81 11.33,-7.86c67.06,-68.04 134.04,-136.13 200.98,-204.27c3.91,-3.97 7.04,-8.63 11.02,-12.52c7.78,-7.61 11.96,-21.82 28.26,-15c22.95,9.6 29.26,20.31 23.83,40.28c-5.7,20.96 -12.72,41.65 -17.36,62.81c-4.43,20.14 -0.68,23.65 21.66,24.76c39.28,1.95 75.71,-8.81 110.37,-24.34c21.29,-9.53 41.52,-21.44 61.1,-33.84c8.66,-5.48 16.19,-13.94 21.38,-22.55c21.79,-36.12 47.06,-69.44 81.44,-96.11c3.57,-2.76 7.21,-5.45 10.96,-7.97c41.49,-27.94 88.06,-10.77 96.95,37.04c3.15,16.93 0.5,34.8 0.5,52.46c-0.74,0.25 3.22,-0.73 6.85,-2.36c30.57,-13.74 46.78,-10.93 68.67,13.36c5.86,6.5 11.42,14.18 13.95,22.19c7.58,24.05 25.87,35.04 50.47,34.28c27.46,-0.85 54.81,-5.23 82.13,-8.65c11.55,-1.45 16.79,-8.48 19.78,-19.42c16.2,-59.43 50.12,-108.96 99.26,-149.29c9.49,-7.79 20.2,-14.61 31.26,-20.35c39.73,-20.6 59.44,-16.36 91.38,22.1c11.44,13.78 5.81,29.54 -4.38,40.63c-24.74,26.94 -50.29,53.52 -78.19,77.52c-19.4,16.7 -43.14,29.01 -65.11,43.04c-14.59,9.32 -21.03,31.83 -16.45,54.19c3.61,17.63 17.41,23.49 32.86,23.03c24.6,-0.72 49.89,-1.89 73.49,-7.79c69.7,-17.4 130.07,-53.13 189.57,-89.9c5.09,-3.14 9.33,-8.23 12.52,-13.22c102.44,-160.45 220.18,-311.04 340.27,-460c68.61,-85.1 139.38,-168.71 211.14,-251.5c26.46,-30.53 58.46,-56.87 88.21,-84.86c5.25,-4.94 11.6,-9.02 17.95,-12.737c17.23,-10.103 35.29,-22.542 55.88,-9.738c24.55,15.265 44.62,35.105 36.3,65.925c-6.62,24.53 -14.45,49.19 -25.54,72.19c-57.67,119.61 -138.26,224.81 -233.57,320.58c-99.95,100.42 -207.42,193.21 -321.32,279.6c-12.34,9.37 -23.75,20.82 -32.44,33.24c-80.16,114.63 -157.85,230.76 -223.57,353.32c-18.29,34.13 -32.02,70.63 -44.97,106.94c-8.2,22.98 -1.86,27.97 24.49,25.45c61.16,-5.85 118.48,-24.78 174.6,-46.76c150.43,-58.94 291.81,-133.99 430.16,-214.16c166.43,-96.44 339.02,-182.4 513.27,-265.56c26.76,-12.77 54.95,-22.9 82.25,-34.68c17.76,-7.67 30.26,0.51 41.34,11.58c7.73,7.71 -2.79,29.71 -17.67,37.43c-349.7,181.26 -698.64,363.9 -1062.57,519.65c-39.89,17.06 -81.47,30.83 -122.84,44.6c-15.57,5.18 -32.7,7.58 -49.28,8.5c-46.82,2.6 -81.73,-26.69 -80.21,-70.43c0.92,-26.65 6.26,-53.99 14.99,-79.41c29.68,-86.43 76.82,-165.61 121.08,-245.91c6.72,-12.21 13.64,-24.33 17.49,-38.82c-5.77,3.21 -11.55,6.4 -17.3,9.63c-55.15,31.04 -111.15,60.4 -174.17,75.48c-10.61,2.54 -21.5,4.51 -32.4,5.5c-50.48,4.58 -86.3,-18.81 -99.77,-64.62c-1.49,-5.08 -3.01,-10.15 -4.65,-15.66c-21.94,4.73 -42.44,10.23 -63.34,13.47c-62.42,9.65 -93.52,-4.06 -125.21,-55.11c-6.99,-11.26 -15.32,-14.66 -26.88,-8.63c-15.61,8.15 -31.03,16.75 -45.68,26.3c-32.28,21.04 -63.96,42.85 -96.02,64.17c-5.16,3.44 -10.89,6.19 -16.56,8.88c-39.52,18.7 -74.38,0.16 -78.54,-41.67c-0.35,-3.57 -1.01,-7.11 -1.89,-13.14Z" style="fill-rule:nonzero;"/><path d="M4077.72,3191.17c-76.77,31.66 -156.14,59.1 -216.54,117.27c84.58,-19 153.42,-63.51 216.54,-117.27Zm-329.66,-68.19c1.29,1.08 2.58,2.17 3.86,3.26c5.87,-1.84 13.02,-2.28 17.4,-5.76c22.23,-17.7 45.64,-34.62 64.91,-54.91c15.85,-16.69 27,-37.44 39.01,-57.05c2.34,-3.82 1.1,-12.52 -2.15,-15.53c-3.03,-2.82 -11.9,-2.98 -16.44,-0.92c-8.62,3.93 -17.83,8.95 -23.54,15.87c-25.69,31.08 -50.5,62.81 -74.95,94.76c-4.34,5.66 -5.48,13.46 -8.1,20.28Zm523.24,-9.9c-33.76,12.97 -66.51,25.12 -98.771,38.3c-6.429,2.63 -11.699,8.66 -16.379,13.99c-72.11,82.24 -165.4,135.74 -269.9,173.81c-11.1,4.04 -23.59,5.99 -35.55,6.46c-21.26,0.83 -35.81,-14.29 -30.86,-33.65c3.24,-12.69 9.06,-27.09 18.83,-35.59c28.18,-24.53 56.03,-51.53 89.32,-68.32c63.45,-32.01 130.45,-57.9 196.269,-85.7c22.841,-9.65 28.25,-20.26 13.341,-39.39c-10.73,-13.78 -24.77,-25.61 -38.7,-36.83c-11.77,-9.47 -25.45,-16.89 -38.4,-25.07c-31.41,-19.84 -61.79,-40.49 -72.63,-79.31c-29.94,11.49 -58.51,22.45 -88.6,34c15.37,24.14 5.57,45.05 -5.65,65.59c-20.17,36.91 -44.84,71.17 -78.22,98.51c-17.53,14.37 -37.72,27.56 -59.13,35.75c-35.96,13.75 -71.14,-9.95 -72.21,-46.62c-0.38,-13.3 1.1,-27.45 5.7,-39.92c21.36,-57.92 55.89,-107.99 107.26,-146.73c16.68,-12.58 34.66,-24.37 58.6,-16.15c2.75,0.94 6.75,-0.64 9.97,-1.63c45.59,-14.06 91.27,-27.89 136.63,-42.59c10.67,-3.46 21.09,-8.85 30.13,-15.21c32.11,-22.59 65.42,-43.12 104.39,-53.53c9.309,-2.48 21.73,-3.19 29.89,0.6c27.05,12.54 30.65,27.29 8.209,45.59c-18.649,15.22 -42.339,25.26 -64.429,36.5c-14.64,7.46 -31.15,11.82 -45.49,19.69c-18.17,9.99 -18.99,19.3 -3.93,33.61c12.14,11.55 25.84,21.65 38.579,32.66c15.721,13.58 31.651,27 46.611,41.29c21.34,20.39 38.72,43.15 41.38,75.72c25.61,-8.83 48.21,-18.43 71.88,-24.27c24.8,-6.11 35.39,-20.05 42.77,-42.32c50.35,-151.85 103.58,-302.88 152.91,-455.03c17.89,-55.18 28.76,-112.47 40.5,-169.22c4.21,-20.39 2.26,-42.04 1.81,-63.09c-0.44,-20.84 -12.08,-35.85 -34.05,-39.55c-27.15,-4.57 -55.27,-10.52 -82.25,-8.28c-74.81,6.22 -149.75,13.64 -223.76,25.46c-332.37,53.09 -659.29,127.84 -981.45,220.91c-11.59,3.35 -23.44,6.01 -35.29,8.51c-31.33,6.61 -63.9,-8.87 -72.98,-34.45c-9.58,-26.97 8.14,-67.87 37.57,-75.8c38.12,-10.26 77.73,-15.79 116.85,-22.64c12.44,-2.19 25.42,-3.4 37.99,-2.64c8.98,0.54 17.59,5.38 26.53,7.77c5.19,1.38 10.96,3.1 16.05,2.3c245.88,-38.81 491.84,-77.24 737.5,-117.22c107.13,-17.44 213.56,-38.62 320.53,-57.01c26.03,-4.47 52.88,-5.04 79.4,-6.72c71.92,-4.55 111.84,41.98 127.28,90.04c11.71,36.47 10.34,74.01 4.96,111.18c-13.86,95.93 -43.93,188.08 -76.45,279.6c-33.4,93.99 -66.93,187.95 -100.35,281.94c-2.49,6.99 -4.51,14.12 -7.71,24.23c10.93,-1.74 18.74,-4.42 26.22,-3.76c7.04,0.61 13.72,4.74 20.56,7.32c-2.43,5.59 -3.18,13.76 -7.6,16.27c-12.2,6.91 -26.59,10.43 -38.82,17.29c-8.1,4.55 -17.78,11.48 -20.3,19.19c-62.41,190.9 -123.97,382.04 -185.59,573.16c-1.98,6.12 -3.11,12.48 -1.69,20.54c3.27,-4.35 6.75,-8.57 9.779,-13.05c235.111,-347.72 485.571,-685.69 742.721,-1019.33c76.42,-99.14 156.93,-195.52 235.93,-292.91c9.39,-11.58 20.53,-22.06 31.79,-32.14c13.31,-11.91 22.7,-11.16 36.22,0.23c7.85,6.61 8.87,12.52 2.39,20.91c-157.49,203.9 -315.8,407.25 -471.82,612.12c-156.07,204.92 -312.1,409.97 -453.31,624.31c-43.68,66.32 -83.31,134.98 -124.79,202.57c-9.8,15.96 -19.25,32.11 -29.461,47.83c-5.98,9.22 -12.25,19.19 -26.67,17.06c-16.199,-2.39 -32.909,-7.45 -35.02,-24.27c-2.779,-22.16 -5.129,-45.62 -0.439,-67.15c40.649,-186.44 89.07,-371.13 147.53,-553.45c9.28,-28.94 18.31,-57.94 27.37,-86.94c0.27,-0.85 -0.52,-1.99 -1.5,-5.33Z" style="fill-rule:nonzero;"/><path d="M5229.26,3162.46c34.51,-5.31 58.5,-23.47 75.49,-49.72c21.85,-33.74 28.51,-70.99 28.5,-109.67c-42.94,48.9 -83.64,98.22 -103.99,159.39Zm435.52,-481.21c-11.85,13.09 -23.67,26.22 -35.57,39.28c-56.42,61.98 -114.05,122.92 -180.91,175.4c-19.18,15.06 -39.26,29.26 -59.96,42.41c-12.2,7.74 -15.54,15.15 -13.98,29.39c10.14,92.53 -13.72,173.61 -99.3,231.48c-12.61,8.54 -26.76,15.76 -41.23,21.02c-47.68,17.34 -91.71,-11.43 -84.47,-58.27c5.15,-33.31 19.86,-65.49 30.53,-98.11c1.92,-5.86 4.93,-11.43 7.44,-17.13c-1.15,-0.88 -2.31,-1.77 -3.46,-2.65c-4.68,2.66 -9.55,5.06 -14,8.02c-91.13,60.81 -182.13,121.79 -273.37,182.46c-17.07,11.35 -34.25,22.98 -52.77,31.86c-29.6,14.2 -60.96,-5.09 -58.76,-36.02c1.11,-15.48 5.57,-31.02 10.26,-46.08c16.88,-54.16 42.21,-105 74.25,-152.85c16.24,-24.24 22.04,-25.19 49.66,-14.76c36.67,13.85 38.5,17.28 19.55,51.01c-18.99,33.79 -39.4,66.88 -59.09,100.32c-2.96,5.02 -5.42,10.29 -5.28,18.09c4.93,-2.2 10.15,-3.97 14.76,-6.67c112.6,-66.01 225.18,-132.04 337.57,-198.39c7.72,-4.55 13.81,-11.58 20.68,-17.42c18.96,-16.12 37.43,-32.78 57.08,-48.1c11.94,-9.31 25.38,-13.88 41.96,-7.84c6.43,2.34 16.95,-1.18 24.1,-4.74c56.59,-28.2 105.38,-66.23 150.36,-108.67c70.89,-66.86 133.62,-140.02 189.98,-217.93c7.44,-10.28 12.72,-22.05 17.98,-33.54c52.63,-114.84 109.93,-227.52 180.38,-334.09c9.16,-13.86 19.54,-27.15 30.58,-39.77c10.02,-11.45 21.37,-13.95 36.37,-5.08c38.77,22.94 40.51,23.2 21.56,62.45c-68.6,142.08 -138.35,283.69 -207.14,425.7c-160.05,330.39 -304.19,666.57 -431.83,1008.72c-7.85,21.03 -14.65,42.6 -19.2,64.38c-2.55,12.21 1.98,25.48 0.62,38.06c-1.25,11.55 -6.11,22.81 -9.38,34.2c-10.03,-2.56 -21.66,-2.95 -29.76,-8.12c-15.48,-9.9 -19.92,-26.98 -18.12,-43.32c3.2,-29 5.57,-58.86 15.03,-86.42c46.78,-136.26 92.98,-272.79 144.64,-407.52c70.16,-182.97 145.11,-364.4 217.93,-546.51c2.96,-7.39 5.25,-15 7.86,-22.5c-1.18,-0.58 -2.36,-1.17 -3.55,-1.75Z" style="fill-rule:nonzero;"/><path d="M5900.88,3128.91c-6.52,3.95 -11.83,6.94 -16.88,10.27c-32.15,21.19 -63.97,42.83 -96.47,63.55c-13.8,8.79 -28.3,17.19 -43.63,23.19c-41.32,16.18 -81.77,-13.7 -75.29,-55.25c1.83,-11.67 4.67,-23.66 9.82,-34.34c48.27,-100.18 119.4,-183.33 214.01,-248.71c2.79,-1.93 5.76,-3.62 8.7,-5.34c49.68,-29.11 84.95,-25.38 124.88,15.21c6.55,6.67 10.36,18.7 9.8,27.95c-2.47,40.72 -25.4,72.31 -56.46,98.97c-4.21,3.61 -15.93,4.97 -19.89,2.14c-5.78,-4.13 -10.16,-12.85 -10.68,-19.89c-0.97,-13.14 1.28,-26.48 2.18,-39.74c-1.58,-0.99 -3.16,-1.98 -4.75,-2.97c-6.9,3.91 -15.11,6.64 -20.5,11.9c-40.34,39.36 -80.33,79.04 -119.94,119.05c-9.7,9.79 -17.58,21.15 -26.3,31.79c0.86,1.14 1.72,2.29 2.57,3.44c5.48,-2.7 11.22,-5.03 16.4,-8.16c36.94,-22.28 73.68,-44.86 110.67,-67.08c24.56,-14.76 55.71,-10.32 70.94,12.9c5.67,8.64 4.06,22.71 2.59,33.94c-2.65,20.16 -1.63,23.48 19.57,20.02c44.38,-7.23 89.42,-13.21 132.42,-25.24c125.17,-35.03 250.15,-70.92 373.89,-110.09c86.43,-27.36 174.05,-48.07 264.06,-60.76c15.63,-2.21 30.74,-3.36 44.65,6.88c10.93,8.06 14.82,15.82 2.34,24.42c-11.46,7.9 -23.1,17.28 -36.28,21.01c-70.81,20.01 -141.4,41.4 -213.41,56.83c-142.94,30.63 -282.32,71.68 -420.97,115.7c-45.32,14.38 -92.42,23.88 -138.7,35.61c-0.56,0.14 -1.14,0.2 -1.71,0.28c-59.22,8.44 -84.45,-4.55 -107.63,-57.48Z" style="fill-rule:nonzero;"/><path d="M3579.57,1457.41c-4.55,-2.79 -12.14,-2.51 -18.09,-1.73c-14.3,1.88 -28.33,5.77 -42.65,7.14c-11.57,1.11 -23.82,7.2 -35.23,3.78c-5.43,0.26 -10.85,0.82 -16.26,1.36l-0.13,-0c-41.8,11.77 -82.65,22.52 -122.76,35.25c-11.2,3.55 -22.26,11.78 -29.63,20.61c-11.57,13.85 -9.29,29.79 0.69,41.89c12.05,14.6 25.17,12 41.46,6.31c55.2,-19.29 110.96,-37.19 166.55,-55.5c16.36,-5.39 34.06,-8.4 48.9,-16.22c10.04,-5.29 17.68,-16.38 23.01,-26.44c1.37,-2.59 -9.15,-12.35 -15.86,-16.45Z" style="fill-rule:nonzero;"/><path d="M5072.88,2839.64c8.66,5.58 19.64,9.76 24.89,17.39c2.32,3.37 -5.32,15.55 -11.43,20.5c-8,6.48 -18.64,10.51 -28.7,14.3c-46.51,17.53 -93.23,34.56 -139.83,51.88c-17.36,6.46 -44.94,-11.49 -46.23,-30.28c-1.19,-17.34 11.49,-38.25 29.22,-41.82c56.37,-11.35 113.11,-21.14 172.08,-31.97Z" style="fill-rule:nonzero;"/><path d="M6181.39,2881.74c4.91,0.84 12.12,1.13 21.07,1.13c25.98,0 49.94,-9.32 49.94,-36.99c-0,-25.98 -22.8,-36.71 -50.23,-36.71l-20.78,-0l0,72.57Zm0,-91.21l22.8,0c26.56,0 42.15,-13.55 42.15,-31.9c-0,-22.31 -17.32,-31.06 -42.72,-31.06c-11.55,0 -18.19,0.84 -22.23,1.69l0,61.27Zm-25.11,-77.93c10.97,-2.26 28.28,-3.95 45.89,-3.95c25.12,-0 41.28,4.23 53.4,13.83c10.11,7.34 16.17,18.64 16.17,33.6c0,18.36 -12.41,34.45 -32.91,41.79l0,0.57c18.48,4.52 40.13,19.48 40.13,47.72c-0,16.38 -6.64,28.8 -16.46,38.12c-13.56,12.14 -35.5,17.79 -67.26,17.79c-17.31,0 -30.59,-1.13 -38.96,-2.26l-0,-187.21Z" style="fill-rule:nonzero;"/><path d="M6359.78,2885.69c-0,-10.45 7.22,-17.79 17.32,-17.79c10.11,-0 17.03,7.34 17.03,17.79c-0,10.17 -6.63,17.79 -17.31,17.79c-10.11,-0 -17.04,-7.62 -17.04,-17.79Z" style="fill-rule:nonzero;"/><path d="M6579.45,2821.31l-19.05,-54.78c-4.33,-12.42 -7.22,-23.72 -10.1,-34.73l-0.58,0c-2.89,11.3 -6.06,22.87 -9.82,34.45l-19.05,55.06l58.6,0Zm-63.79,19.2l-20.21,59.86l-25.98,0l66.1,-190.31l30.31,0l66.39,190.31l-26.84,0l-20.78,-59.86l-68.99,0Z" style="fill-rule:nonzero;"/><path d="M6711.66,2885.69c0,-10.45 7.22,-17.79 17.32,-17.79c10.1,-0 17.03,7.34 17.03,17.79c-0,10.17 -6.64,17.79 -17.32,17.79c-10.1,-0 -17.03,-7.62 -17.03,-17.79Z" style="fill-rule:nonzero;"/></g></svg>