<?xml version="1.0" encoding="UTF-8" standalone="no"?><!DOCTYPE svg PUBLIC "-//W3C//DTD SVG 1.1//EN" "http://www.w3.org/Graphics/SVG/1.1/DTD/svg11.dtd"><svg width="100%" height="100%" viewBox="0 0 31250 20834" version="1.1" xmlns="http://www.w3.org/2000/svg" xmlns:xlink="http://www.w3.org/1999/xlink" xml:space="preserve" xmlns:serif="http://www.serif.com/" style="fill-rule:evenodd;clip-rule:evenodd;stroke-linejoin:round;stroke-miterlimit:2;"><g><path d="M9774.71,13488.9c12.042,-1.292 20.375,0.208 24.917,-3c203.375,-143.917 406.792,-287.833 608.75,-433.5c14.667,-10.583 26.333,-34.458 25.958,-51.875c-1.166,-53.917 -7.833,-107.833 -14.25,-161.542c-5.916,-49.5 -34,-64.291 -78.041,-34.083c-44.5,30.542 -94.5,59.167 -126.667,99.417c-147.125,183.833 -288.875,371.416 -432.167,557.916c-4.75,6.209 -5.041,15.375 -8.5,26.667Zm972.917,-2213.29c6.208,3.459 12.417,6.959 18.667,10.459c22.833,-11.625 48.041,-35.917 68.041,-32.625c74.417,12.333 100.959,-38.084 136.292,-78.917c31.792,-36.833 64.5,-73.083 94.25,-111.292c264.708,-339.958 507.25,-692.541 662.5,-1089.88c38.125,-97.583 56.625,-205.583 61.833,-309.791c6,-118.75 -55,-215.125 -179.083,-284.667c-313,627.583 -649.958,1237.46 -862.5,1896.71Zm551.292,-1994.88c-167.084,-15.166 -317.334,-0.666 -466.292,28.834c-382.292,75.708 -728.167,234.208 -1064.71,413.083c-826.584,439.375 -1568.67,984.75 -2263.08,1588.5c-1018.58,885.625 -1909.04,1873.38 -2671.25,2961.29c-267.458,381.75 -500.962,781.583 -672.358,1210.62c-71.321,178.5 -120.104,362.041 -118.683,554.291c0.879,118.959 23,233.542 93.412,335.959c61.088,88.833 142.629,132.791 260.879,123.416c262.042,-20.75 512.5,-86.708 758.709,-166.083c936.833,-301.958 1870.71,-612.125 2808.79,-910.667c1054.75,-335.666 2118,-646.375 3200.17,-896.625c501.042,-115.875 1004.46,-222.875 1521.33,-256.875c220.125,-14.458 438.959,-7.875 649.209,66.417c31.208,11 57.416,19.083 75.75,-21.083c80.5,-176.25 163.583,-351.459 245.375,-527.167c2.708,-5.833 1.625,-13.208 0.666,-3.833c-38.875,-29.584 -88.833,-48.375 -96.333,-76.917c-19.25,-73.333 46.375,-119.125 95.75,-162.458c16.75,-14.75 60.708,-2.334 92.25,-2.334c5.667,6.334 11.375,12.667 17.083,19c167.334,-339 334.667,-677.958 502,-1016.92c-5.041,-3.334 -10.041,-6.709 -15.083,-10.084c-23.125,18.417 -46.417,36.625 -69.292,55.292c-152.5,124.625 -303.416,251.042 -458.25,373.125c-53,41.792 -113.041,77.625 -174.583,107.708c-125.625,61.417 -224.667,26.084 -283.292,-94.75c-5.916,-12.208 -11.083,-24.708 -20.833,-46.541c-24.292,14.458 -46.25,25.625 -66.042,39.541c-125.333,88 -249.208,177.834 -375.625,264.417c-46.458,31.792 -96.625,60.083 -148.416,83.5c-149.25,67.417 -288.25,-3.583 -309,-159.583c-7.959,-59.625 -1.292,-120.917 -1.292,-199.084c-31.625,23.542 -52.958,35.75 -69.458,52.25c-220.667,220.375 -441.292,440.875 -660.459,662.625c-58.75,59.417 -113.416,122.5 -168.125,185.334c-26.875,30.833 -59.5,30.75 -77.833,2.75c-24.875,-38.042 -55.375,-85.792 -50.125,-125.542c11.417,-86.125 33.292,-174.167 70,-253.708c98.375,-213.125 206.875,-422.209 311.083,-633c13.875,-28.084 26.25,-56.834 27.542,-96.792c-22.042,14.042 -45.583,26.375 -65.875,42.375c-175.208,138 -348.042,278.667 -525.333,414.25c-87.334,66.792 -177.584,132.875 -275.5,184.292c-126.792,66.541 -233.542,10.791 -257.584,-124.959c-8.166,-46.125 -6.5,-93.791 -10.083,-153c-34.875,18.959 -64.792,31.125 -89.583,49.375c-242.25,178.709 -483.625,358.417 -725.25,537.834c-32.084,23.833 -63.042,49.166 -96.292,71.541c-102.583,68.959 -224.167,16.667 -230.667,-103.125c-3.125,-57.458 2.292,-118.875 21.25,-173.166c117.625,-336.417 294.75,-641.334 561.042,-896.792c21.833,-20.958 44.875,-41 68.667,-60.042c187.583,-149.958 306.958,-146.625 485.416,11.042c97.375,86.042 95.334,193.625 70.292,301.875c-12,51.958 -8.167,81.083 45.458,108.5c78.292,40 72.292,117 71.792,186.583c-0.917,127.084 14.458,140.792 130,72c109.125,-65 215.458,-138.125 308.5,-221.833c255.458,-229.833 503.5,-466.833 712,-736.958c60,-77.709 85.5,-80.125 170.5,-28.875c179.083,107.958 196.792,144 101.25,323.666c-114.792,215.917 -243.75,425.25 -366.458,637.5c-11.125,19.25 -21.25,39.042 -31.834,58.625c6.292,5.625 12.584,11.25 18.875,16.875c14.375,-19.041 27.417,-39.083 43.25,-56.958c204.75,-230.667 409.375,-461.375 615.5,-690.958c32.959,-36.75 56.167,-99.292 129.917,-66.417c126.167,56.208 162.208,107.875 131.75,198.125c-29,85.875 -67.208,169.042 -97.708,254.542c-22.042,61.833 -41.875,124.791 -55.584,188.583c-12.291,57.292 9.459,74.875 66.709,50.292c69.583,-29.875 141.583,-62.042 198.916,-108.084c133.292,-107 258.167,-223.166 387.084,-334.958c31.75,-27.542 57.166,-75.5 113.833,-44.958c57.042,30.791 114.625,63.25 102.833,139.458c-1.708,11.167 -2.083,22.458 -3.125,33.708c-10,110.209 23.625,137.709 129.334,82.667c101.791,-53.042 206,-114.958 282.541,-195.208c225.834,-236.834 441.875,-482.167 655.125,-729.167c135.625,-157.083 133.959,-145.5 295.167,-21.625c53.833,41.333 69,91.625 46.042,150.708c-36.209,93.125 -68.209,188.584 -115.084,276.959c-120,226.208 -247.291,449.083 -371.541,673.333c-11.875,21.375 -23.167,43.083 -37.834,70.542c14.834,-1.75 22.959,-0.334 27,-3.459c221.709,-173.5 446.917,-343.375 662.417,-523.416c71.875,-60.084 128.208,-141.459 175.208,-221.542c104.792,-178.625 60.292,-343 -114.875,-463.958c-153.791,-106.25 -332.166,-153.709 -517.333,-178.417c-400,-53.333 -788.833,-19.208 -1159.92,140.75c-40.291,17.333 -81.833,44.458 -126.083,3.958c-46.708,-42.791 -80.958,-86.791 -62.708,-154.708c21.833,-81.5 72.666,-139.5 154.208,-166.333c81.375,-26.709 166.167,-48.459 251.417,-59.917c403.666,-54.167 798.375,-9.417 1184.5,107.625c148.333,44.958 282.958,114.458 397.833,214.875c209.792,183.25 255.333,392.042 102.875,620c-97.208,145.333 -216.875,284.458 -353.083,398.542c-233.042,195.125 -487.459,367.916 -731.625,551.583c-33,24.792 -68,53.625 -86.417,87.958c-391.833,729.959 -764.25,1468.08 -1051.79,2240.88c-32.416,87.042 -53.583,177.75 -81.291,266.375c-7.375,23.584 -15.792,48.5 -30.792,68.084c-19.208,25.125 -45.5,45.5 -68.792,67.916c-28.458,-32.833 -80,-65.083 -81,-98.625c-2.791,-93.541 -2.083,-192.916 28.334,-280.541c126.458,-364.209 264.041,-725 398.333,-1086.79c18.833,-50.75 42.167,-100.083 69.833,-165.208c-79.416,-13.292 -150.583,-30.917 -222.833,-36.417c-333.125,-25.292 -659.292,28.375 -983.042,90c-925.333,176.125 -1826.88,433.75 -2723.29,707.667c-1343.54,410.541 -2669.04,867.208 -3982.33,1355.88c-249.625,92.875 -511.5,161.166 -772.958,220.708c-214.625,48.875 -426.417,12.083 -620.129,-96c-141.9,-79.208 -230.021,-195.875 -280.596,-340.333c-88.154,-251.75 -77.112,-506.75 -25.683,-762.334c125.108,-621.833 419.733,-1178.29 770.283,-1710.25c763.333,-1158.42 1720.54,-2161.58 2823.83,-3044c856.709,-685.166 1787.83,-1265.54 2819.75,-1695.58c227.959,-94.958 468.709,-165.292 708,-233.458c186.667,-53.125 381,-57.167 571.709,-7.417c55.125,14.417 66.291,-16.75 82.958,-50.292c287.167,-578.916 74.625,-224.375 362,-803.166c407.042,-819.709 588.542,-259.667 -30.958,873.416c-70.25,128.5 28.666,-33.458 -42.959,94.417c-21.25,37.917 -19.458,63.375 15.459,93.833c243.291,212.167 293.583,465.25 179.5,753.125c-117.417,296.375 -289.875,565.917 -479.459,824.125c-178.416,243 -377.125,473.084 -569.666,706.834c-34.834,42.291 -81.5,76.625 -125.334,111.75c-108.333,86.791 -256.208,45.458 -272.375,-87.417c-13.333,-109.458 -4.125,-225.875 20.875,-333.958c85.542,-369.334 239.625,-717.959 393.417,-1065.79c105,-237.5 217.375,-472.167 326.292,-708.167c10.166,-22.125 19.291,-44.666 34,-78.875Z" style="fill:#fff;fill-rule:nonzero;"/><path d="M16990.5,13296.5c-319.875,131.916 -650.583,246.25 -902.25,488.625c352.417,-79.167 639.25,-264.625 902.25,-488.625Zm-1373.58,-284.125c5.375,4.5 10.75,9.041 16.083,13.583c24.458,-7.667 54.25,-9.5 72.5,-24c92.625,-73.75 190.167,-144.25 270.458,-228.792c66.042,-69.541 112.5,-156 162.542,-237.708c9.75,-15.917 4.583,-52.167 -8.958,-64.708c-12.625,-11.75 -49.584,-12.417 -68.5,-3.834c-35.917,16.375 -74.292,37.292 -98.084,66.125c-107.041,129.5 -210.416,261.709 -312.291,394.834c-18.084,23.583 -22.834,56.083 -33.75,84.5Zm2180.17,-41.25c-140.666,54.041 -277.125,104.666 -411.545,159.583c-26.788,10.958 -48.746,36.083 -68.246,58.292c-300.459,342.666 -689.167,565.583 -1124.58,724.208c-46.25,16.833 -98.291,24.958 -148.125,26.917c-88.583,3.458 -149.208,-59.542 -128.583,-140.209c13.5,-52.875 37.75,-112.875 78.458,-148.291c117.417,-102.209 233.459,-214.709 372.167,-284.667c264.375,-133.375 543.542,-241.25 817.788,-357.083c95.17,-40.209 117.708,-84.417 55.587,-164.125c-44.708,-57.417 -103.208,-106.709 -161.25,-153.459c-49.042,-39.458 -106.042,-70.375 -160,-104.458c-130.875,-82.667 -257.458,-168.708 -302.625,-330.458c-124.75,47.875 -243.792,93.541 -369.167,141.666c64.042,100.584 23.209,187.709 -23.541,273.292c-84.042,153.792 -186.834,296.542 -325.917,410.458c-73.042,59.875 -157.167,114.834 -246.375,148.959c-149.833,57.291 -296.417,-41.459 -300.875,-194.25c-1.583,-55.417 4.583,-114.375 23.75,-166.334c89,-241.333 232.875,-449.958 446.917,-611.375c69.5,-52.416 144.416,-101.541 244.166,-67.291c11.459,3.916 28.125,-2.667 41.542,-6.792c189.958,-58.583 380.292,-116.208 569.292,-177.458c44.458,-14.417 87.875,-36.875 125.541,-63.375c133.792,-94.125 272.584,-179.667 434.959,-223.042c38.787,-10.333 90.541,-13.292 124.541,2.5c112.709,52.25 127.709,113.708 34.205,189.958c-77.705,63.417 -176.413,105.25 -268.455,152.084c-61,31.083 -129.791,49.25 -189.541,82.041c-75.709,41.625 -79.125,80.417 -16.375,140.042c50.583,48.125 107.666,90.208 160.746,136.083c65.504,56.584 131.879,112.5 194.212,172.042c88.917,84.958 161.333,179.792 172.417,315.5c106.708,-36.792 200.875,-76.792 299.5,-101.125c103.333,-25.458 147.458,-83.542 178.208,-176.333c209.792,-632.709 431.583,-1262 637.125,-1895.96c74.542,-229.916 119.833,-468.625 168.75,-705.083c17.542,-84.958 9.417,-175.167 7.542,-262.875c-1.834,-86.833 -50.334,-149.375 -141.875,-164.792c-113.125,-19.041 -230.292,-43.833 -342.709,-34.5c-311.708,25.917 -623.958,56.834 -932.333,106.084c-1384.88,221.208 -2747.04,532.666 -4089.38,920.458c-48.292,13.958 -97.667,25.042 -147.042,35.458c-130.541,27.542 -266.25,-36.958 -304.083,-143.541c-39.917,-112.375 33.917,-282.792 156.542,-315.834c158.833,-42.75 323.875,-65.791 486.875,-94.333c51.833,-9.125 105.916,-14.167 158.291,-11c37.417,2.25 73.292,22.417 110.542,32.375c21.625,5.75 45.667,12.917 66.875,9.583c1024.5,-161.708 2049.33,-321.833 3072.92,-488.416c446.375,-72.667 889.833,-160.917 1335.54,-237.542c108.459,-18.625 220.334,-21 330.834,-28c299.666,-18.958 466,174.917 530.333,375.167c48.792,151.958 43.083,308.375 20.667,463.25c-57.75,399.708 -183.042,783.666 -318.542,1165c-139.167,391.625 -278.875,783.125 -418.125,1174.75c-10.375,29.125 -18.792,58.833 -32.125,100.958c45.542,-7.25 78.083,-18.417 109.25,-15.667c29.333,2.542 57.167,19.75 85.667,30.5c-10.125,23.292 -13.25,57.334 -31.667,67.792c-50.833,28.792 -110.792,43.458 -161.75,72.042c-33.75,18.958 -74.083,47.833 -84.583,79.958c-260.042,795.417 -516.542,1591.83 -773.292,2388.17c-8.25,25.5 -12.958,52 -7.042,85.583c13.625,-18.125 28.125,-35.708 40.746,-54.375c979.629,-1448.83 2023.21,-2857.04 3094.67,-4247.21c318.417,-413.084 653.875,-814.667 983.042,-1220.46c39.125,-48.25 85.541,-91.916 132.458,-133.916c55.458,-49.625 94.583,-46.5 150.917,0.958c32.708,27.542 36.958,52.167 9.958,87.125c-656.208,849.583 -1315.83,1696.88 -1965.92,2550.5c-650.291,853.833 -1300.42,1708.21 -1888.79,2601.29c-182,276.333 -347.125,562.416 -519.959,844.041c-40.833,66.5 -80.208,133.792 -122.754,199.292c-24.916,38.417 -51.041,79.958 -111.125,71.083c-67.496,-9.958 -137.121,-31.041 -145.916,-101.125c-11.58,-92.333 -21.371,-190.083 -1.83,-279.791c169.371,-776.834 371.125,-1546.38 614.709,-2306.04c38.666,-120.583 76.291,-241.417 114.041,-362.25c1.125,-3.542 -2.166,-8.292 -6.25,-22.208Z" style="fill:#fff;fill-rule:nonzero;"/><path d="M21788.6,13176.9c143.792,-22.125 243.75,-97.792 314.542,-207.167c91.042,-140.583 118.792,-295.792 118.75,-456.958c-178.917,203.75 -348.5,409.25 -433.292,664.125Zm1814.67,-2005.04c-49.375,54.542 -98.625,109.25 -148.208,163.667c-235.084,258.25 -475.209,512.166 -753.792,730.833c-79.917,62.75 -163.583,121.917 -249.833,176.708c-50.834,32.25 -64.75,63.125 -58.25,122.459c42.25,385.541 -57.167,723.375 -413.75,964.5c-52.542,35.583 -111.5,65.666 -171.792,87.583c-198.667,72.25 -382.125,-47.625 -351.958,-242.792c21.458,-138.791 82.75,-272.875 127.208,-408.791c8,-24.417 20.542,-47.625 31,-71.375c-4.792,-3.667 -9.625,-7.375 -14.417,-11.042c-19.5,11.083 -39.791,21.083 -58.333,33.417c-379.708,253.375 -758.875,507.458 -1139.04,760.25c-71.125,47.291 -142.708,95.75 -219.875,132.75c-123.333,59.166 -254,-21.209 -244.833,-150.084c4.625,-64.5 23.208,-129.25 42.75,-192c70.333,-225.666 175.875,-437.5 309.375,-636.875c67.667,-101 91.833,-104.958 206.917,-61.5c152.791,57.709 160.416,72 81.458,212.542c-79.125,140.792 -164.167,278.667 -246.208,418c-12.334,20.917 -22.584,42.875 -22,75.375c20.541,-9.167 42.291,-16.542 61.5,-27.792c469.166,-275.041 938.25,-550.166 1406.54,-826.625c32.167,-18.958 57.542,-48.25 86.167,-72.583c79,-67.167 155.958,-136.583 237.833,-200.417c49.75,-38.791 105.75,-57.833 174.834,-32.666c26.791,9.75 70.625,-4.917 100.416,-19.75c235.792,-117.5 439.084,-275.959 626.5,-452.792c295.375,-278.583 556.75,-583.417 791.584,-908.042c31,-42.833 53,-91.875 74.916,-139.75c219.292,-478.5 458.042,-948 751.584,-1392.04c38.166,-57.75 81.416,-113.125 127.416,-165.709c41.75,-47.708 89.042,-58.125 151.542,-21.166c161.542,95.583 168.792,96.666 89.833,260.208c-285.833,592 -576.458,1182.04 -863.083,1773.75c-666.875,1376.62 -1267.46,2777.38 -1799.29,4203c-32.708,87.625 -61.041,177.5 -80,268.25c-10.625,50.875 8.25,106.167 2.584,158.583c-5.209,48.125 -25.459,95.042 -39.084,142.5c-41.791,-10.666 -90.25,-12.291 -124,-33.833c-64.5,-41.25 -83,-112.417 -75.5,-180.5c13.334,-120.833 23.209,-245.25 62.625,-360.083c194.917,-567.75 387.417,-1136.62 602.667,-1698c292.333,-762.375 604.625,-1518.33 908.042,-2277.12c12.333,-30.792 21.875,-62.5 32.75,-93.75c-4.917,-2.417 -9.834,-4.875 -14.792,-7.292Z" style="fill:#fff;fill-rule:nonzero;"/><path d="M24587,13037.1c-27.167,16.458 -49.292,28.917 -70.333,42.792c-133.959,88.291 -266.542,178.458 -401.959,264.791c-57.5,36.625 -117.916,71.625 -181.791,96.625c-172.167,67.417 -340.709,-57.083 -313.709,-230.208c7.625,-48.625 19.459,-98.583 40.917,-143.083c201.125,-417.417 497.5,-763.875 891.708,-1036.29c11.625,-8.042 24,-15.083 36.25,-22.25c207,-121.292 353.959,-105.75 520.334,63.375c27.291,27.792 43.166,77.917 40.833,116.458c-10.292,169.667 -105.833,301.292 -235.25,412.375c-17.542,15.042 -66.375,20.709 -82.875,8.917c-24.083,-17.208 -42.333,-53.542 -44.5,-82.875c-4.042,-54.75 5.333,-110.333 9.083,-165.583c-6.583,-4.125 -13.166,-8.25 -19.791,-12.375c-28.75,16.291 -62.959,27.666 -85.417,49.583c-168.083,164 -334.708,329.333 -499.75,496.042c-40.417,40.791 -73.25,88.125 -109.583,132.458c3.583,4.75 7.166,9.542 10.708,14.333c22.833,-11.25 46.75,-20.958 68.333,-34c153.917,-92.833 307,-186.916 461.125,-279.5c102.334,-61.5 232.125,-43 295.584,53.75c23.625,36 16.916,94.625 10.791,141.417c-11.041,84 -6.791,97.833 81.542,83.417c184.917,-30.125 372.583,-55.042 551.75,-105.167c521.542,-145.958 1042.29,-295.5 1557.88,-458.708c360.125,-114 725.208,-200.292 1100.25,-253.167c65.125,-9.208 128.083,-14 186.042,28.667c45.541,33.583 61.75,65.916 9.75,101.75c-47.75,32.916 -96.25,72 -151.167,87.541c-295.042,83.375 -589.167,172.5 -889.208,236.792c-595.584,127.625 -1176.33,298.667 -1754.04,482.083c-188.833,59.917 -385.083,99.5 -577.917,148.375c-2.333,0.584 -4.75,0.834 -7.125,1.167c-246.75,35.167 -351.875,-18.958 -448.458,-239.5Z" style="fill:#fff;fill-rule:nonzero;"/><path d="M21137,11831.8c36.083,23.25 81.833,40.667 103.708,72.459c9.667,14.041 -22.166,64.791 -47.625,85.416c-33.333,27 -77.666,43.792 -119.583,59.584c-193.792,73.041 -388.458,144 -582.625,216.166c-72.333,26.917 -187.25,-47.875 -192.625,-126.166c-4.958,-72.25 47.875,-159.375 121.75,-174.25c234.875,-47.292 471.292,-88.084 717,-133.209Z" style="fill:#fff;fill-rule:nonzero;"/><g transform="matrix(613.718,0,0,613.718,28520.9,11839.1)"></g><text x="25725px" y="11839.1px" style="font-family:'ArialMT', 'Arial', sans-serif;font-size:613.718px;fill:#fff;">gUG (i.G.)</text></g></svg>