<?xml version="1.0" encoding="utf-8"?>
<!-- Generator: Adobe Illustrator 27.0.1, SVG Export Plug-In . SVG Version: 6.00 Build 0)  -->
<svg version="1.1" id="Ebene_1" xmlns="http://www.w3.org/2000/svg" xmlns:xlink="http://www.w3.org/1999/xlink" x="0px" y="0px"
	 viewBox="0 0 995 1024" style="enable-background:new 0 0 995 1024;" xml:space="preserve">
<style type="text/css">
	.st0{fill:#34A19F;}
</style>
<g id="icomoon-ignore">
</g>
<path class="st0" d="M862.1,0l-68.3,142.3H509.2c-107.1,4.5-202.4,51.3-270.4,124l-0.2,0.2c-57.6,65.3-93.2,151.1-94.9,245.2l0,0.3
	c1.7,95.6,37.9,182.3,96.6,248.8l-0.4-0.4c57,68.1,138.9,113.7,231.6,122.6l1.4,0.1l65.6,140.9c-7.2,0.4-15.6,0.6-24.1,0.6
	c-71.9,0-140.3-14.6-202.6-40.9l3.4,1.3c-64.8-27-120.4-63.7-167.6-109l0.2,0.2C100.5,829.7,63,773.4,38.8,710.5l-1.1-3.2
	C13.8,649.6,0,582.7,0,512.5c0-0.2,0-0.3,0-0.5v0c0-0.7,0-1.6,0-2.5C0,440,13.8,373.7,38.9,313.3l-1.2,3.4
	c26.9-65.5,65.2-121.2,112.9-167.3l0.1-0.1c46.1-45.6,100.7-82.8,161.2-108.9l3.4-1.3C371.2,14.4,436.3,0,504.9,0c2,0,4,0,6,0
	l-0.3,0L862.1,0z"/>
<path class="st0" d="M580.4,1022.6L252.6,312.5c14.5-20.7,31.1-38.6,49.8-54l0.5-0.4c17.9-16.3,38.6-29.9,61.3-39.9l1.5-0.6
	l295.8,634.7L580.4,1022.6z M682.3,809.1l-80.9-167.4l234.4-498.1h159.1L682.3,809.1z"/>
</svg>
