<?xml version="1.0" encoding="utf-8"?>
<!-- Generator: Adobe Illustrator 27.0.1, SVG Export Plug-In . SVG Version: 6.00 Build 0)  -->
<svg version="1.1" xmlns="http://www.w3.org/2000/svg" xmlns:xlink="http://www.w3.org/1999/xlink" x="0px" y="0px"
	 viewBox="0 0 2000 2000" style="enable-background:new 0 0 2000 2000;" xml:space="preserve">
<style type="text/css">
	.st0{display:none;}
	.st1{display:inline;fill:#1D1934;stroke:#FFFFFF;stroke-width:9;stroke-miterlimit:10;}
	.st2{display:inline;}
	.st3{fill:#7E9BC0;stroke:#FFFFFF;stroke-width:30;stroke-miterlimit:10;}
	.st4{stroke:#FFFFFF;stroke-width:20;stroke-miterlimit:10;}
	.st5{clip-path:url(#SVGID_00000111183022563049037290000011200342469678696866_);}
	.st6{clip-path:url(#SVGID_00000001643945584079395760000006985301319618564485_);fill:#839EBF;}
	.st7{clip-path:url(#SVGID_00000001643945584079395760000006985301319618564485_);fill:#292A3C;}
	.st8{fill:#FFFFFF;stroke:#000000;stroke-miterlimit:10;}
</style>
<g id="Ebene_2" class="st0">
</g>
<g id="CV4__versuch" class="st0">
	<path class="st1" d="M998.2,1492.2l-74.3-164.5L615.2,666.5h161.1l243.3,522.7l60.8,128.4L998.2,1492.2z M1091.4,1291.1
		l-80.2-170.3l220-469.8h161.1L1091.4,1291.1z"/>
	<g class="st2">
		<path class="st3" d="M942.7,503.9l345.6,0.2l-78.6,166.8l-267-0.2c-46.1,0-88.1,9.5-128.8,27.1c-39.3,17.6-75.9,40.7-104.4,70.5
			c-29.8,29.8-54.2,65.1-70.5,105.8c-17.6,39.3-25.8,82.7-25.8,127.4c0,44.7,8.1,88.1,25.8,128.8c16.3,39.3,40.7,74.6,70.5,104.4
			c28.5,29.8,65.1,52.9,104.4,70.5c39.3,16.3,43.8,18.5,99.5,25.3l75.8,167.2c-114.6,1.7-176.6-12.2-236.2-36.6
			c-59.7-25.8-113.9-61-161.3-108.5h-1.4c-46.1-47.5-82.7-101.7-107.1-161.3c-24.4-61-36.6-124.7-36.6-189.8
			c0-66.4,12.2-130.2,36.6-189.8c24.4-61,61-115.2,107.1-162.7h1.4c47.5-46.1,101.7-82.7,161.3-107.1
			C812.6,516.1,876.3,503.9,942.7,503.9z"/>
	</g>
</g>
<g id="Nachbau" class="st0">
</g>
<g id="Ebene_4">
	<circle class="st4" cx="998.7" cy="1000.3" r="982"/>
	<g id="Bildmaterial_29_1_" class="st0">
		<g class="st2">
			<defs>
				<rect id="SVGID_1_" x="26.7" y="7.1" width="1940" height="1985.8"/>
			</defs>
			<clipPath id="SVGID_00000099626327458339971780000009364137354271555490_">
				<use xlink:href="#SVGID_1_"  style="overflow:visible;"/>
			</clipPath>
			<g style="clip-path:url(#SVGID_00000099626327458339971780000009364137354271555490_);">
				<defs>
					<rect id="SVGID_00000142160002831601060640000017034553366908010142_" x="26.7" y="7.1" width="1940" height="1985.8"/>
				</defs>
				<clipPath id="SVGID_00000119817768194490154110000010517262346497748895_">
					<use xlink:href="#SVGID_00000142160002831601060640000017034553366908010142_"  style="overflow:visible;"/>
				</clipPath>
				<path style="clip-path:url(#SVGID_00000119817768194490154110000010517262346497748895_);fill:#839EBF;" d="M1016.8,7.1
					c-135.3,0-262.4,24.3-378.8,75.8c-116.3,48.7-221.8,119-319.2,213.7C221.5,394,145.7,502.2,99.7,621.2
					c-48.7,119-73,246.2-73,378.8c0,129.9,24.3,257,73,378.8c59.5,143.4,121.7,238.1,213.7,327.4c89.3,89.3,200.2,156.9,324.6,211
					c154.2,62.2,230,70.3,432.9,75.8l-127.2-273.2c-165-13.5-313.8-86.6-451.8-238.1c-102.8-102.8-186.7-305.7-186.7-481.6
					c0-167.7,78.5-370.6,184-476.1c129.9-143.4,343.6-240.8,524.8-240.8H1566L1698.6,7.1H1016.8z"/>
				<path style="clip-path:url(#SVGID_00000119817768194490154110000010517262346497748895_);fill:#292A3C;" d="M1320.1,1656.5
					l-573.5-1231c-46,21.6-75.8,37.9-121.7,78.5c-37.9,32.5-64.9,59.5-97.4,105.5l635.8,1377L1320.1,1656.5z M1966.7,282.1h-308.4
					L1203.7,1248l156.9,324.6L1966.7,282.1z"/>
			</g>
		</g>
	</g>
	<g>
		<path class="st8" d="M1464.6,232.6l-104,216.4H927.7c-142.2,0-309.8,76.4-411.7,188.8c-82.8,82.8-144.3,241.9-144.3,373.5
			c0,137.9,65.8,297.1,146.4,377.7c108.2,118.8,224.9,176.1,354.4,186.7l99.7,214.3c-159.1-4.2-218.6-10.6-339.5-59.4
			c-97.6-42.4-184.6-95.5-254.6-165.5c-72.2-70-121-144.3-167.6-256.8c-38.2-95.5-57.3-195.2-57.3-297.1
			c0-104,19.1-203.7,57.3-297.1C246.5,620.9,306,536,382.4,459.6c76.4-74.3,159.1-129.4,250.4-167.6c91.2-40.3,191-59.4,297.1-59.4
			H1464.6z"/>
		<path class="st8" d="M1035.9,1788L537.3,707.9c25.5-36.1,46.7-57.3,76.4-82.8c36.1-31.8,59.4-44.6,95.5-61.5l449.9,965.5
			L1035.9,1788z M1190.8,1463.3l-123.1-254.6l356.5-757.5h241.9L1190.8,1463.3z"/>
	</g>
</g>
</svg>
