<?xml version="1.0" encoding="UTF-8"?><svg id="Ebene_4" xmlns="http://www.w3.org/2000/svg" viewBox="0 0 2004 2004"><defs><style>.cls-1{fill:none;stroke:#000;stroke-miterlimit:10;stroke-width:40px;}</style></defs><circle class="cls-1" cx="1002" cy="1002" r="982.000000000000114"/><path d="m1467.889961290757128,234.231079823995969l-103.979192229331602,216.446305564906652h-432.883976418621387c-142.170519851844801,0-309.804803022435408,76.39128995622832-411.659856297406805,188.849768580615091-82.755072108109744,82.763706819307117-144.294658806207735,241.910068883647909-144.294658806207735,373.46852867488542,0,137.930876654312669,65.779229895624667,297.085873429852654,146.41879776056885,377.716806583604921,108.218835426860096,118.830895487471935,224.925591959965459,176.122204276836783,354.368547508040137,186.734264337454078l99.730914320598458,214.322166610550994c-159.146362064336245-4.24827790872223-218.561809808063117-10.612060060622753-339.516844249895257-59.415447743744153-97.60677536624371-42.439605531228153-184.610125383082959-95.49127112307724-254.63763318742167-165.518778927424137-72.151646758698917-70.018873093144066-120.955034441825774-144.294658806196821-167.634283170588787-256.753137430589049-38.199962333714211-95.491271123073602-57.299943500567679-195.230820154883986-57.299943500567679-297.085873429852654,0-103.970557518134228,19.099981166853468-203.710106549939155,57.299943500567679-297.068604007467002,36.075823379354915-93.375766879924413,95.482636411889871-178.254977942392543,171.882561079310108-254.637633187419851,76.382655245027308-74.275785713068217,159.146362064338973-129.442955548076498,250.38935527870035-167.642917881790709,91.242993214363196-40.315466576873405,190.982542246171761-59.415447743729601,297.077238718663466-59.415447743729601h534.739029693591874Z"/><path d="m1039.271532203250899,1789.644781221652011l-498.663206314240597-1080.090119447799225c25.463763318744896-36.075823379352187,46.679248728766652-57.291308789372124,76.39128995622923-82.755072108115201,36.067188668154813-31.8275454706245,59.415447743728691-44.563744485597454,95.491271123085426-61.539586698088897l449.851183919919094,965.507501869053158-123.070538684993153,258.877276384950164Zm154.906718866817755-324.6651409917813l-123.079173396194165-254.637633187407118,356.492686462401252-757.549117410391773h241.910068883647909l-475.323581949854997,1012.186750597798891Z"/></svg>