<?xml version="1.0" encoding="UTF-8" standalone="no"?>
<!DOCTYPE svg PUBLIC "-//W3C//DTD SVG 1.1//EN" "http://www.w3.org/Graphics/SVG/1.1/DTD/svg11.dtd">
<svg width="100%" height="100%" viewBox="0 0 258 103" version="1.1" xmlns="http://www.w3.org/2000/svg" xmlns:xlink="http://www.w3.org/1999/xlink" xml:space="preserve" xmlns:serif="http://www.serif.com/" style="fill-rule:evenodd;clip-rule:evenodd;stroke-linejoin:round;stroke-miterlimit:2;">
    <g transform="matrix(0.32,0,0,0.32,0,0)">
        <g transform="matrix(4.16667,0,0,4.16667,0,0)">
            <g transform="matrix(1.37406,0,0,1.37406,-35.2366,-14.6247)">
                <path d="M94.696,31.264C95.487,31.264 95.877,30.918 95.877,30.289C95.877,29.637 95.487,29.36 94.65,29.36L93.277,29.36L93.277,31.264L94.696,31.264ZM94.62,28.739C95.256,28.739 95.663,28.494 95.663,27.841C95.663,27.273 95.241,27.02 94.62,27.02L93.277,27.02L93.277,28.739L94.62,28.739ZM94.497,26.36C95.533,26.36 96.454,26.629 96.454,27.734C96.454,28.263 96.223,28.739 95.839,28.961C96.369,29.184 96.684,29.599 96.684,30.281C96.684,31.463 95.801,31.923 94.688,31.923L92.494,31.923L92.494,26.36L94.497,26.36Z" style="fill:white;fill-rule:nonzero;"/>
            </g>
            <g transform="matrix(1.37406,0,0,1.37406,-35.2366,-14.6247)">
                <path d="M100.604,29.491C100.589,28.908 100.152,28.325 99.415,28.325C98.793,28.325 98.233,28.662 98.171,29.491L100.604,29.491ZM99.438,31.41C100.053,31.41 100.39,31.133 100.566,30.726L101.288,30.726C101.096,31.44 100.444,32.023 99.438,32.023C98.133,32.023 97.413,31.087 97.413,29.867C97.413,28.562 98.287,27.726 99.415,27.726C100.674,27.726 101.434,28.785 101.342,30.089L98.165,30.089C98.195,30.979 98.824,31.41 99.438,31.41Z" style="fill:white;fill-rule:nonzero;"/>
            </g>
            <g transform="matrix(1.37406,0,0,1.37406,-35.2366,-14.6247)">
                <path d="M103.896,28.494C103.252,28.494 102.93,28.854 102.93,29.76L102.93,31.923L102.231,31.923L102.231,27.795L102.914,27.795L102.914,28.517C103.121,28.048 103.544,27.788 104.081,27.772C104.149,27.772 104.211,27.772 104.288,27.78L104.288,28.524C104.142,28.509 104.012,28.494 103.896,28.494Z" style="fill:white;fill-rule:nonzero;"/>
            </g>
            <g transform="matrix(1.37406,0,0,1.37406,-35.2366,-14.6247)">
                <path d="M106.29,32.023C105.331,32.023 104.971,31.379 104.971,30.435L104.971,27.795L105.669,27.795L105.669,30.227C105.669,30.865 105.776,31.417 106.536,31.417C107.196,31.417 107.587,30.949 107.587,30.066L107.587,27.795L108.286,27.795L108.286,31.923L107.587,31.923L107.587,31.332C107.35,31.724 106.974,32.023 106.29,32.023Z" style="fill:white;fill-rule:nonzero;"/>
            </g>
            <g transform="matrix(1.37406,0,0,1.37406,-35.2366,-14.6247)">
                <path d="M110.756,26.36L111.116,26.36L111.116,26.943L110.771,26.943C110.403,26.943 110.342,27.028 110.342,27.457L110.342,27.795L111.116,27.795L111.116,28.355L110.342,28.355L110.342,31.923L109.644,31.923L109.644,28.355L109.067,28.355L109.067,27.795L109.644,27.795L109.644,27.496C109.644,26.636 109.819,26.36 110.756,26.36Z" style="fill:white;fill-rule:nonzero;"/>
            </g>
            <g transform="matrix(1.37406,0,0,1.37406,-35.2366,-14.6247)">
                <path d="M113.258,28.317C112.851,28.317 112.391,28.463 112.391,28.839C112.391,29.169 112.62,29.322 113.02,29.399L113.603,29.514C114.354,29.66 115.015,29.944 115.015,30.742C115.015,31.555 114.278,32.023 113.334,32.023C112.252,32.023 111.639,31.309 111.562,30.588L112.298,30.588C112.405,31.118 112.735,31.433 113.35,31.433C113.879,31.433 114.309,31.202 114.309,30.818C114.309,30.404 113.917,30.227 113.473,30.136L112.858,30.013C112.298,29.898 111.685,29.637 111.685,28.87C111.685,28.141 112.421,27.718 113.334,27.718C114.225,27.718 114.831,28.217 114.961,29L114.232,29C114.125,28.509 113.741,28.317 113.258,28.317Z" style="fill:white;fill-rule:nonzero;"/>
            </g>
            <g transform="matrix(1.37406,0,0,1.37406,-35.2366,-14.6247)">
                <path d="M118.437,27.795L119.158,27.795L117.601,31.923L116.979,31.923L115.421,27.795L116.196,27.795L117.316,30.956L118.437,27.795Z" style="fill:white;fill-rule:nonzero;"/>
            </g>
            <g transform="matrix(1.37406,0,0,1.37406,-35.2366,-14.6247)">
                <path d="M122.618,29.491C122.604,28.908 122.166,28.325 121.429,28.325C120.808,28.325 120.247,28.662 120.187,29.491L122.618,29.491ZM121.452,31.41C122.066,31.41 122.403,31.133 122.58,30.726L123.302,30.726C123.11,31.44 122.458,32.023 121.452,32.023C120.147,32.023 119.427,31.087 119.427,29.867C119.427,28.562 120.302,27.726 121.429,27.726C122.688,27.726 123.447,28.785 123.355,30.089L120.179,30.089C120.209,30.979 120.839,31.41 121.452,31.41Z" style="fill:white;fill-rule:nonzero;"/>
            </g>
            <g transform="matrix(1.37406,0,0,1.37406,-35.2366,-14.6247)">
                <path d="M125.91,28.494C125.266,28.494 124.943,28.854 124.943,29.76L124.943,31.923L124.245,31.923L124.245,27.795L124.928,27.795L124.928,28.517C125.136,28.048 125.558,27.788 126.095,27.772C126.163,27.772 126.225,27.772 126.302,27.78L126.302,28.524C126.156,28.509 126.025,28.494 125.91,28.494Z" style="fill:white;fill-rule:nonzero;"/>
            </g>
            <g transform="matrix(1.37406,0,0,1.37406,-35.2366,-14.6247)">
                <path d="M130.1,29.874C130.1,28.892 129.632,28.325 128.918,28.325C128.297,28.325 127.714,28.785 127.714,29.874C127.714,30.964 128.297,31.425 128.918,31.425C129.632,31.425 130.1,30.857 130.1,29.874ZM127.744,28.447C127.997,28.01 128.435,27.726 129.095,27.726C130.037,27.726 130.858,28.517 130.858,29.874C130.858,31.241 130.037,32.023 129.095,32.023C128.435,32.023 127.997,31.739 127.744,31.302L127.744,31.923L127.046,31.923L127.046,26.36L127.744,26.36L127.744,28.447Z" style="fill:white;fill-rule:nonzero;"/>
            </g>
            <g transform="matrix(1.37406,0,0,1.37406,-35.2366,-14.6247)">
                <path d="M132.264,30.818C132.264,31.21 132.563,31.471 133.062,31.471C133.714,31.471 134.335,31.171 134.335,30.197L134.335,29.936C133.069,30.066 132.264,30.25 132.264,30.818ZM134.281,29.384L134.281,29.284C134.281,28.532 133.859,28.279 133.346,28.279C132.77,28.279 132.433,28.593 132.401,29.1L131.681,29.1C131.749,28.209 132.532,27.711 133.338,27.711C134.474,27.711 134.987,28.255 134.979,29.414L134.972,30.366C134.965,31.057 135.003,31.532 135.079,31.923L134.374,31.923C134.351,31.77 134.327,31.601 134.319,31.355C134.066,31.778 133.637,32.023 132.908,32.023C132.133,32.023 131.488,31.594 131.488,30.834C131.488,29.859 132.586,29.575 134.281,29.384Z" style="fill:white;fill-rule:nonzero;"/>
            </g>
            <g transform="matrix(1.37406,0,0,1.37406,-35.2366,-14.6247)">
                <path d="M138.134,27.726C139.131,27.726 139.491,28.371 139.491,29.314L139.491,31.923L138.794,31.923L138.794,29.521C138.794,28.885 138.686,28.332 137.888,28.332C137.212,28.332 136.798,28.8 136.798,29.683L136.798,31.923L136.1,31.923L136.1,27.795L136.798,27.795L136.798,28.416C137.036,28.025 137.435,27.726 138.134,27.726Z" style="fill:white;fill-rule:nonzero;"/>
            </g>
            <g transform="matrix(1.37406,0,0,1.37406,-35.2366,-14.6247)">
                <path d="M141.087,29.874C141.087,30.857 141.556,31.425 142.269,31.425C142.891,31.425 143.474,30.964 143.474,29.874C143.474,28.785 142.891,28.325 142.269,28.325C141.556,28.325 141.087,28.892 141.087,29.874ZM144.142,26.36L144.142,31.923L143.443,31.923L143.443,31.302C143.19,31.739 142.753,32.023 142.093,32.023C141.148,32.023 140.327,31.241 140.327,29.874C140.327,28.517 141.148,27.726 142.093,27.726C142.753,27.726 143.19,28.01 143.443,28.447L143.443,26.36L144.142,26.36Z" style="fill:white;fill-rule:nonzero;"/>
            </g>
            <g transform="matrix(1.37406,0,0,1.37406,-35.2366,-14.6247)">
                <path d="M96.108,35.952L96.108,36.626L93.277,36.626L93.277,38.315L95.947,38.315L95.947,38.99L93.277,38.99L93.277,41.515L92.494,41.515L92.494,35.952L96.108,35.952Z" style="fill:white;fill-rule:nonzero;"/>
            </g>
            <g transform="matrix(1.37406,0,0,1.37406,-35.2366,-14.6247)">
                <path d="M98.425,38.084C97.781,38.084 97.459,38.445 97.459,39.351L97.459,41.515L96.76,41.515L96.76,37.386L97.443,37.386L97.443,38.108C97.65,37.64 98.072,37.379 98.609,37.363C98.678,37.363 98.74,37.363 98.817,37.371L98.817,38.115C98.67,38.1 98.541,38.084 98.425,38.084Z" style="fill:white;fill-rule:nonzero;"/>
            </g>
            <g transform="matrix(1.37406,0,0,1.37406,-35.2366,-14.6247)">
                <path d="M102.393,39.082C102.378,38.499 101.94,37.916 101.203,37.916C100.582,37.916 100.021,38.253 99.96,39.082L102.393,39.082ZM101.227,41C101.841,41 102.178,40.724 102.354,40.318L103.075,40.318C102.884,41.032 102.231,41.615 101.227,41.615C99.921,41.615 99.2,40.678 99.2,39.458C99.2,38.154 100.075,37.317 101.203,37.317C102.462,37.317 103.222,38.376 103.13,39.681L99.952,39.681C99.983,40.571 100.612,41 101.227,41Z" style="fill:white;fill-rule:nonzero;"/>
            </g>
            <g transform="matrix(1.37406,0,0,1.37406,-35.2366,-14.6247)">
                <path d="M104.718,41.515L104.02,41.515L104.02,37.386L104.718,37.386L104.718,41.515ZM104.718,36.795L104.02,36.795L104.02,35.952L104.718,35.952L104.718,36.795Z" style="fill:white;fill-rule:nonzero;"/>
            </g>
            <g transform="matrix(1.37406,0,0,1.37406,-35.2366,-14.6247)">
                <path d="M108.808,39.082C108.792,38.499 108.354,37.916 107.618,37.916C106.996,37.916 106.437,38.253 106.375,39.082L108.808,39.082ZM107.641,41C108.255,41 108.593,40.724 108.769,40.318L109.49,40.318C109.299,41.032 108.646,41.615 107.641,41.615C106.337,41.615 105.615,40.678 105.615,39.458C105.615,38.154 106.489,37.317 107.618,37.317C108.876,37.317 109.636,38.376 109.544,39.681L106.367,39.681C106.397,40.571 107.027,41 107.641,41Z" style="fill:white;fill-rule:nonzero;"/>
            </g>
            <g transform="matrix(1.37406,0,0,1.37406,-35.2366,-14.6247)">
                <path d="M116.051,35.952L116.051,36.626L113.219,36.626L113.219,38.315L115.89,38.315L115.89,38.99L113.219,38.99L113.219,41.515L112.437,41.515L112.437,35.952L116.051,35.952Z" style="fill:white;fill-rule:nonzero;"/>
            </g>
            <g transform="matrix(1.37406,0,0,1.37406,-35.2366,-14.6247)">
                <path d="M119.649,39.466C119.649,38.369 119.043,37.931 118.414,37.931C117.784,37.931 117.179,38.338 117.179,39.466C117.179,40.563 117.784,41 118.414,41C119.043,41 119.649,40.525 119.649,39.466ZM118.414,41.615C117.454,41.615 116.434,40.962 116.434,39.466C116.434,37.97 117.454,37.317 118.414,37.317C119.373,37.317 120.394,37.97 120.394,39.466C120.394,40.962 119.373,41.615 118.414,41.615Z" style="fill:white;fill-rule:nonzero;"/>
            </g>
            <g transform="matrix(1.37406,0,0,1.37406,-35.2366,-14.6247)">
                <path d="M122.166,36.351L122.166,37.386L122.948,37.386L122.948,37.947L122.166,37.947L122.166,40.394C122.166,40.824 122.196,40.931 122.596,40.931L122.948,40.931L122.948,41.515L122.442,41.515C121.651,41.515 121.468,41.338 121.468,40.479L121.468,37.947L120.815,37.947L120.815,37.386L121.468,37.386L121.468,36.351L122.166,36.351Z" style="fill:white;fill-rule:nonzero;"/>
            </g>
            <g transform="matrix(1.37406,0,0,1.37406,-35.2366,-14.6247)">
                <path d="M126.747,39.466C126.747,38.369 126.141,37.931 125.512,37.931C124.882,37.931 124.276,38.338 124.276,39.466C124.276,40.563 124.882,41 125.512,41C126.141,41 126.747,40.525 126.747,39.466ZM125.512,41.615C124.552,41.615 123.531,40.962 123.531,39.466C123.531,37.97 124.552,37.317 125.512,37.317C126.471,37.317 127.491,37.97 127.491,39.466C127.491,40.962 126.471,41.615 125.512,41.615Z" style="fill:white;fill-rule:nonzero;"/>
            </g>
            <g transform="matrix(1.37406,0,0,1.37406,-35.2366,-14.6247)">
                <path d="M128.94,39.382C128.94,40.326 129.425,40.855 130.106,40.855C130.729,40.855 131.273,40.433 131.273,39.382C131.273,38.338 130.729,37.916 130.106,37.916C129.425,37.916 128.94,38.445 128.94,39.382ZM131.941,37.386L131.941,40.962C131.941,41.806 131.788,42.152 131.55,42.413C131.251,42.758 130.735,42.957 130.123,42.957C129.187,42.957 128.558,42.528 128.427,41.691L129.171,41.691C129.264,42.06 129.485,42.343 130.13,42.343C130.507,42.343 130.789,42.236 130.975,42.037C131.128,41.875 131.243,41.683 131.243,41.123L131.243,40.732C130.99,41.169 130.591,41.446 129.931,41.446C129.018,41.446 128.182,40.709 128.182,39.382C128.182,38.061 129.018,37.317 129.931,37.317C130.591,37.317 130.99,37.601 131.243,38.038L131.243,37.386L131.941,37.386Z" style="fill:white;fill-rule:nonzero;"/>
            </g>
            <g transform="matrix(1.37406,0,0,1.37406,-35.2366,-14.6247)">
                <path d="M134.788,38.084C134.144,38.084 133.821,38.445 133.821,39.351L133.821,41.515L133.123,41.515L133.123,37.386L133.806,37.386L133.806,38.108C134.013,37.64 134.435,37.379 134.972,37.363C135.041,37.363 135.103,37.363 135.179,37.371L135.179,38.115C135.033,38.1 134.903,38.084 134.788,38.084Z" style="fill:white;fill-rule:nonzero;"/>
            </g>
            <g transform="matrix(1.37406,0,0,1.37406,-35.2366,-14.6247)">
                <path d="M136.3,40.41C136.3,40.801 136.599,41.062 137.098,41.062C137.75,41.062 138.371,40.763 138.371,39.788L138.371,39.527C137.105,39.658 136.3,39.842 136.3,40.41ZM138.317,38.975L138.317,38.875C138.317,38.123 137.896,37.87 137.382,37.87C136.806,37.87 136.468,38.184 136.438,38.691L135.716,38.691C135.785,37.801 136.568,37.302 137.374,37.302C138.51,37.302 139.023,37.847 139.016,39.005L139.009,39.957C139.001,40.648 139.039,41.123 139.116,41.515L138.409,41.515C138.387,41.361 138.363,41.193 138.356,40.947C138.103,41.369 137.673,41.615 136.944,41.615C136.169,41.615 135.524,41.185 135.524,40.425C135.524,39.451 136.622,39.166 138.317,38.975Z" style="fill:white;fill-rule:nonzero;"/>
            </g>
            <g transform="matrix(1.37406,0,0,1.37406,-35.2366,-14.6247)">
                <path d="M141.425,35.952L141.786,35.952L141.786,36.535L141.44,36.535C141.072,36.535 141.011,36.619 141.011,37.049L141.011,37.386L141.786,37.386L141.786,37.947L141.011,37.947L141.011,41.515L140.313,41.515L140.313,37.947L139.737,37.947L139.737,37.386L140.313,37.386L140.313,37.087C140.313,36.227 140.489,35.952 141.425,35.952Z" style="fill:white;fill-rule:nonzero;"/>
            </g>
            <g transform="matrix(1.37406,0,0,1.37406,-35.2366,-14.6247)">
                <path d="M145.369,39.082C145.354,38.499 144.917,37.916 144.18,37.916C143.558,37.916 142.998,38.253 142.937,39.082L145.369,39.082ZM144.203,41C144.816,41 145.154,40.724 145.331,40.318L146.052,40.318C145.86,41.032 145.208,41.615 144.203,41.615C142.898,41.615 142.177,40.678 142.177,39.458C142.177,38.154 143.052,37.317 144.18,37.317C145.438,37.317 146.198,38.376 146.105,39.681L142.929,39.681C142.96,40.571 143.589,41 144.203,41Z" style="fill:white;fill-rule:nonzero;"/>
            </g>
            <g transform="matrix(1.37406,0,0,1.37406,-35.2366,-14.6247)">
                <path d="M149.029,37.317C150.026,37.317 150.388,37.962 150.388,38.906L150.388,41.515L149.688,41.515L149.688,39.113C149.688,38.476 149.581,37.923 148.783,37.923C148.108,37.923 147.694,38.392 147.694,39.274L147.694,41.515L146.995,41.515L146.995,37.386L147.694,37.386L147.694,38.008C147.932,37.617 148.331,37.317 149.029,37.317Z" style="fill:white;fill-rule:nonzero;"/>
            </g>
            <g transform="matrix(1.37406,0,0,1.37406,-35.2366,-14.6247)">
                <path d="M154.661,41.615C153.701,41.615 153.341,40.97 153.341,40.026L153.341,37.386L154.039,37.386L154.039,39.819C154.039,40.455 154.146,41.008 154.906,41.008C155.566,41.008 155.958,40.54 155.958,39.658L155.958,37.386L156.656,37.386L156.656,41.515L155.958,41.515L155.958,40.924C155.72,41.315 155.344,41.615 154.661,41.615Z" style="fill:white;fill-rule:nonzero;"/>
            </g>
            <g transform="matrix(1.37406,0,0,1.37406,-35.2366,-14.6247)">
                <path d="M159.871,37.317C160.868,37.317 161.229,37.962 161.229,38.906L161.229,41.515L160.53,41.515L160.53,39.113C160.53,38.476 160.423,37.923 159.625,37.923C158.95,37.923 158.535,38.392 158.535,39.274L158.535,41.515L157.837,41.515L157.837,37.386L158.535,37.386L158.535,38.008C158.773,37.617 159.173,37.317 159.871,37.317Z" style="fill:white;fill-rule:nonzero;"/>
            </g>
            <g transform="matrix(1.37406,0,0,1.37406,-35.2366,-14.6247)">
                <path d="M162.824,39.466C162.824,40.449 163.293,41.016 164.007,41.016C164.628,41.016 165.211,40.556 165.211,39.466C165.211,38.376 164.628,37.916 164.007,37.916C163.293,37.916 162.824,38.484 162.824,39.466ZM165.879,35.952L165.879,41.515L165.181,41.515L165.181,40.893C164.927,41.33 164.489,41.615 163.83,41.615C162.886,41.615 162.065,40.831 162.065,39.466C162.065,38.108 162.886,37.317 163.83,37.317C164.489,37.317 164.927,37.601 165.181,38.038L165.181,35.952L165.879,35.952Z" style="fill:white;fill-rule:nonzero;"/>
            </g>
            <g transform="matrix(1.37406,0,0,1.37406,-35.2366,-14.6247)">
                <path d="M96.108,45.542L96.108,46.218L93.277,46.218L93.277,47.907L95.947,47.907L95.947,48.581L93.277,48.581L93.277,51.106L92.494,51.106L92.494,45.542L96.108,45.542Z" style="fill:white;fill-rule:nonzero;"/>
            </g>
            <g transform="matrix(1.37406,0,0,1.37406,-35.2366,-14.6247)">
                <path d="M97.459,51.106L96.76,51.106L96.76,46.978L97.459,46.978L97.459,51.106ZM97.459,46.387L96.76,46.387L96.76,45.542L97.459,45.542L97.459,46.387Z" style="fill:white;fill-rule:nonzero;"/>
            </g>
            <g transform="matrix(1.37406,0,0,1.37406,-35.2366,-14.6247)">
                <rect x="98.64" y="45.542" width="0.698" height="5.564" style="fill:white;fill-rule:nonzero;"/>
            </g>
            <g transform="matrix(1.37406,0,0,1.37406,-35.2366,-14.6247)">
                <path d="M100.521,51.106L100.521,46.978L101.218,46.978L101.218,47.599C101.456,47.207 101.84,46.909 102.462,46.909C103.091,46.909 103.467,47.185 103.651,47.637C103.98,47.131 104.464,46.909 105.04,46.909C105.999,46.909 106.375,47.553 106.375,48.497L106.375,51.106L105.677,51.106L105.677,48.705C105.677,48.068 105.554,47.515 104.794,47.515C104.196,47.515 103.796,47.983 103.796,48.866L103.796,51.106L103.099,51.106L103.099,48.705C103.099,48.068 102.976,47.515 102.216,47.515C101.617,47.515 101.218,47.983 101.218,48.866L101.218,51.106L100.521,51.106Z" style="fill:white;fill-rule:nonzero;"/>
            </g>
            <g transform="matrix(1.37406,0,0,1.37406,-35.2366,-14.6247)">
                <path d="M107.971,48.973C107.971,49.916 108.454,50.446 109.137,50.446C109.759,50.446 110.304,50.024 110.304,48.973C110.304,47.929 109.759,47.507 109.137,47.507C108.454,47.507 107.971,48.037 107.971,48.973ZM110.971,46.978L110.971,50.553C110.971,51.398 110.817,51.743 110.579,52.004C110.28,52.349 109.767,52.548 109.152,52.548C108.216,52.548 107.587,52.119 107.456,51.283L108.2,51.283C108.293,51.651 108.516,51.935 109.16,51.935C109.536,51.935 109.819,51.828 110.004,51.628C110.157,51.467 110.272,51.275 110.272,50.714L110.272,50.324C110.02,50.761 109.62,51.038 108.96,51.038C108.047,51.038 107.211,50.3 107.211,48.973C107.211,47.653 108.047,46.909 108.96,46.909C109.62,46.909 110.02,47.193 110.272,47.63L110.272,46.978L110.971,46.978Z" style="fill:white;fill-rule:nonzero;"/>
            </g>
            <g transform="matrix(1.37406,0,0,1.37406,-35.2366,-14.6247)">
                <path d="M115.061,48.673C115.045,48.09 114.607,47.507 113.871,47.507C113.249,47.507 112.689,47.845 112.628,48.673L115.061,48.673ZM113.894,50.592C114.508,50.592 114.846,50.316 115.022,49.909L115.743,49.909C115.552,50.622 114.899,51.205 113.894,51.205C112.59,51.205 111.868,50.27 111.868,49.049C111.868,47.746 112.743,46.909 113.871,46.909C115.13,46.909 115.89,47.967 115.797,49.272L112.62,49.272C112.651,50.163 113.28,50.592 113.894,50.592Z" style="fill:white;fill-rule:nonzero;"/>
            </g>
            <g transform="matrix(1.37406,0,0,1.37406,-35.2366,-14.6247)">
                <path d="M118.091,47.499C117.685,47.499 117.224,47.645 117.224,48.021C117.224,48.351 117.454,48.504 117.854,48.581L118.437,48.697C119.188,48.842 119.849,49.126 119.849,49.924C119.849,50.738 119.111,51.205 118.168,51.205C117.086,51.205 116.472,50.493 116.396,49.771L117.132,49.771C117.239,50.3 117.569,50.615 118.183,50.615C118.713,50.615 119.143,50.385 119.143,50.001C119.143,49.586 118.751,49.411 118.306,49.318L117.692,49.196C117.132,49.08 116.519,48.82 116.519,48.052C116.519,47.323 117.255,46.901 118.168,46.901C119.058,46.901 119.664,47.4 119.795,48.182L119.065,48.182C118.958,47.691 118.575,47.499 118.091,47.499Z" style="fill:white;fill-rule:nonzero;"/>
            </g>
            <g transform="matrix(1.37406,0,0,1.37406,-35.2366,-14.6247)">
                <path d="M121.705,45.942L121.705,46.978L122.487,46.978L122.487,47.538L121.705,47.538L121.705,49.986C121.705,50.415 121.735,50.523 122.135,50.523L122.487,50.523L122.487,51.106L121.981,51.106C121.19,51.106 121.007,50.929 121.007,50.07L121.007,47.538L120.354,47.538L120.354,46.978L121.007,46.978L121.007,45.942L121.705,45.942Z" style="fill:white;fill-rule:nonzero;"/>
            </g>
            <g transform="matrix(1.37406,0,0,1.37406,-35.2366,-14.6247)">
                <path d="M123.907,50.001C123.907,50.392 124.206,50.654 124.705,50.654C125.357,50.654 125.979,50.354 125.979,49.379L125.979,49.119C124.713,49.249 123.907,49.433 123.907,50.001ZM125.926,48.566L125.926,48.466C125.926,47.714 125.503,47.461 124.989,47.461C124.414,47.461 124.076,47.776 124.046,48.283L123.324,48.283C123.394,47.392 124.176,46.893 124.981,46.893C126.117,46.893 126.632,47.438 126.624,48.597L126.616,49.548C126.608,50.239 126.646,50.714 126.724,51.106L126.018,51.106C125.995,50.953 125.972,50.784 125.964,50.538C125.71,50.96 125.28,51.205 124.552,51.205C123.776,51.205 123.132,50.776 123.132,50.016C123.132,49.041 124.229,48.758 125.926,48.566Z" style="fill:white;fill-rule:nonzero;"/>
            </g>
            <g transform="matrix(1.37406,0,0,1.37406,-35.2366,-14.6247)">
                <rect x="127.743" y="45.542" width="0.699" height="5.564" style="fill:white;fill-rule:nonzero;"/>
            </g>
            <g transform="matrix(1.37406,0,0,1.37406,-35.2366,-14.6247)">
                <path d="M130.521,45.942L130.521,46.978L131.304,46.978L131.304,47.538L130.521,47.538L130.521,49.986C130.521,50.415 130.552,50.523 130.951,50.523L131.304,50.523L131.304,51.106L130.798,51.106C130.007,51.106 129.823,50.929 129.823,50.07L129.823,47.538L129.171,47.538L129.171,46.978L129.823,46.978L129.823,45.942L130.521,45.942Z" style="fill:white;fill-rule:nonzero;"/>
            </g>
            <g transform="matrix(1.37406,0,0,1.37406,-35.2366,-14.6247)">
                <path d="M135.063,48.673C135.049,48.09 134.611,47.507 133.874,47.507C133.253,47.507 132.692,47.845 132.632,48.673L135.063,48.673ZM133.897,50.592C134.512,50.592 134.849,50.316 135.025,49.909L135.747,49.909C135.555,50.622 134.903,51.205 133.897,51.205C132.593,51.205 131.872,50.27 131.872,49.049C131.872,47.746 132.746,46.909 133.874,46.909C135.133,46.909 135.893,47.967 135.801,49.272L132.624,49.272C132.654,50.163 133.284,50.592 133.897,50.592Z" style="fill:white;fill-rule:nonzero;"/>
            </g>
            <g transform="matrix(1.37406,0,0,1.37406,-35.2366,-14.6247)">
                <path d="M138.355,47.676C137.711,47.676 137.389,48.037 137.389,48.942L137.389,51.106L136.69,51.106L136.69,46.978L137.373,46.978L137.373,47.699C137.581,47.231 138.003,46.97 138.54,46.955C138.608,46.955 138.67,46.955 138.747,46.962L138.747,47.706C138.601,47.691 138.471,47.676 138.355,47.676Z" style="fill:white;fill-rule:nonzero;"/>
            </g>
            <g transform="matrix(1.37406,0,0,1.37406,-35.2366,-14.6247)">
                <path d="M144.295,48.673C144.279,48.09 143.842,47.507 143.104,47.507C142.483,47.507 141.923,47.845 141.862,48.673L144.295,48.673ZM143.128,50.592C143.742,50.592 144.079,50.316 144.256,49.909L144.978,49.909C144.786,50.622 144.134,51.205 143.128,51.205C141.823,51.205 141.103,50.27 141.103,49.049C141.103,47.746 141.978,46.909 143.104,46.909C144.363,46.909 145.123,47.967 145.031,49.272L141.854,49.272C141.885,50.163 142.515,50.592 143.128,50.592Z" style="fill:white;fill-rule:nonzero;"/>
            </g>
            <g transform="matrix(1.37406,0,0,1.37406,-35.2366,-14.6247)">
                <rect x="145.752" y="50.224" width="0.883" height="0.882" style="fill:white;fill-rule:nonzero;"/>
            </g>
            <g transform="matrix(1.37406,0,0,1.37406,-35.2366,-14.6247)">
                <path d="M148.853,50.3L150.364,45.542L151.185,45.542L149.298,51.106L148.361,51.106L146.45,45.542L147.31,45.542L148.853,50.3Z" style="fill:white;fill-rule:nonzero;"/>
            </g>
            <g transform="matrix(1.37406,0,0,1.37406,-35.2366,-14.6247)">
                <rect x="150.993" y="50.224" width="0.882" height="0.882" style="fill:white;fill-rule:nonzero;"/>
            </g>
            <g transform="matrix(1.37406,0,0,1.37406,-35.2366,-14.6247)">
                <path d="M68.692,28.339C68.692,29.487 67.762,30.418 66.614,30.418C65.465,30.418 64.535,29.487 64.535,28.339C64.535,27.191 65.465,26.261 66.614,26.261C67.762,26.261 68.692,27.191 68.692,28.339Z" style="fill:white;fill-rule:nonzero;"/>
            </g>
            <g transform="matrix(1.37406,0,0,1.37406,-35.2366,-14.6247)">
                <path d="M73.889,28.339C73.889,29.487 72.959,30.418 71.81,30.418C70.663,30.418 69.732,29.487 69.732,28.339C69.732,27.191 70.663,26.261 71.81,26.261C72.959,26.261 73.889,27.191 73.889,28.339Z" style="fill:white;fill-rule:nonzero;"/>
            </g>
            <g transform="matrix(1.37406,0,0,1.37406,-35.2366,-14.6247)">
                <path d="M79.086,28.339C79.086,29.487 78.156,30.418 77.007,30.418C75.859,30.418 74.928,29.487 74.928,28.339C74.928,27.191 75.859,26.261 77.007,26.261C78.156,26.261 79.086,27.191 79.086,28.339Z" style="fill:white;fill-rule:nonzero;"/>
            </g>
            <g transform="matrix(1.37406,0,0,1.37406,-35.2366,-14.6247)">
                <path d="M68.692,33.536C68.692,34.684 67.762,35.615 66.614,35.615C65.465,35.615 64.535,34.684 64.535,33.536C64.535,32.388 65.465,31.457 66.614,31.457C67.762,31.457 68.692,32.388 68.692,33.536Z" style="fill:white;fill-rule:nonzero;"/>
            </g>
            <g transform="matrix(1.37406,0,0,1.37406,-35.2366,-14.6247)">
                <path d="M68.692,38.733C68.692,39.881 67.762,40.812 66.614,40.812C65.465,40.812 64.535,39.881 64.535,38.733C64.535,37.585 65.465,36.654 66.614,36.654C67.762,36.654 68.692,37.585 68.692,38.733Z" style="fill:white;fill-rule:nonzero;"/>
            </g>
            <g transform="matrix(1.37406,0,0,1.37406,-35.2366,-14.6247)">
                <path d="M68.692,43.93C68.692,45.078 67.762,46.008 66.614,46.008C65.465,46.008 64.535,45.078 64.535,43.93C64.535,42.782 65.465,41.851 66.614,41.851C67.762,41.851 68.692,42.782 68.692,43.93Z" style="fill:white;fill-rule:nonzero;"/>
            </g>
            <g transform="matrix(1.37406,0,0,1.37406,-35.2366,-14.6247)">
                <path d="M73.889,38.733C73.889,39.881 72.959,40.812 71.81,40.812C70.663,40.812 69.732,39.881 69.732,38.733C69.732,37.585 70.663,36.654 71.81,36.654C72.959,36.654 73.889,37.585 73.889,38.733Z" style="fill:white;fill-rule:nonzero;"/>
            </g>
            <g transform="matrix(1.37406,0,0,1.37406,-35.2366,-14.6247)">
                <path d="M79.086,38.733C79.086,39.881 78.155,40.812 77.007,40.812C75.859,40.812 74.928,39.881 74.928,38.733C74.928,37.585 75.859,36.654 77.007,36.654C78.155,36.654 79.086,37.585 79.086,38.733Z" style="fill:white;fill-rule:nonzero;"/>
            </g>
            <g transform="matrix(1.37406,0,0,1.37406,-35.2366,-14.6247)">
                <path d="M68.692,49.126C68.692,50.275 67.761,51.205 66.614,51.205C65.465,51.205 64.535,50.275 64.535,49.126C64.535,47.978 65.465,47.047 66.614,47.047C67.761,47.047 68.692,47.978 68.692,49.126Z" style="fill:white;fill-rule:nonzero;"/>
            </g>
            <g transform="matrix(1.37406,0,0,1.37406,-35.2366,-14.6247)">
                <path d="M49.717,27.728C49.717,28.538 49.06,29.195 48.25,29.195C47.439,29.195 46.782,28.538 46.782,27.728C46.782,26.917 47.439,26.261 48.25,26.261C49.06,26.261 49.717,26.917 49.717,27.728Z" style="fill:white;fill-rule:nonzero;"/>
            </g>
            <g transform="matrix(1.37406,0,0,1.37406,-35.2366,-14.6247)">
                <path d="M53.385,27.728C53.385,28.538 52.728,29.195 51.918,29.195C51.108,29.195 50.451,28.538 50.451,27.728C50.451,26.917 51.108,26.261 51.918,26.261C52.728,26.261 53.385,26.917 53.385,27.728Z" style="fill:white;fill-rule:nonzero;"/>
            </g>
            <g transform="matrix(1.37406,0,0,1.37406,-35.2366,-14.6247)">
                <path d="M57.053,27.728C57.053,28.538 56.397,29.195 55.586,29.195C54.776,29.195 54.119,28.538 54.119,27.728C54.119,26.917 54.776,26.261 55.586,26.261C56.397,26.261 57.053,26.917 57.053,27.728Z" style="fill:white;fill-rule:nonzero;"/>
            </g>
            <g transform="matrix(1.37406,0,0,1.37406,-35.2366,-14.6247)">
                <path d="M60.721,27.728C60.721,28.538 60.065,29.195 59.254,29.195C58.444,29.195 57.787,28.538 57.787,27.728C57.787,26.917 58.444,26.261 59.254,26.261C60.065,26.261 60.721,26.917 60.721,27.728Z" style="fill:white;fill-rule:nonzero;"/>
            </g>
            <g transform="matrix(1.37406,0,0,1.37406,-35.2366,-14.6247)">
                <path d="M49.717,31.396C49.717,32.206 49.06,32.864 48.25,32.864C47.439,32.864 46.782,32.206 46.782,31.396C46.782,30.586 47.439,29.929 48.25,29.929C49.06,29.929 49.717,30.586 49.717,31.396Z" style="fill:white;fill-rule:nonzero;"/>
            </g>
            <g transform="matrix(1.37406,0,0,1.37406,-35.2366,-14.6247)">
                <path d="M49.717,35.064C49.717,35.875 49.06,36.532 48.25,36.532C47.439,36.532 46.782,35.875 46.782,35.064C46.782,34.254 47.439,33.597 48.25,33.597C49.06,33.597 49.717,34.254 49.717,35.064Z" style="fill:white;fill-rule:nonzero;"/>
            </g>
            <g transform="matrix(1.37406,0,0,1.37406,-35.2366,-14.6247)">
                <path d="M49.717,38.733C49.717,39.543 49.06,40.201 48.25,40.201C47.439,40.201 46.782,39.543 46.782,38.733C46.782,37.923 47.439,37.266 48.25,37.266C49.06,37.266 49.717,37.923 49.717,38.733Z" style="fill:white;fill-rule:nonzero;"/>
            </g>
            <g transform="matrix(1.37406,0,0,1.37406,-35.2366,-14.6247)">
                <path d="M53.385,38.733C53.385,39.543 52.728,40.201 51.918,40.201C51.108,40.201 50.451,39.543 50.451,38.733C50.451,37.923 51.108,37.266 51.918,37.266C52.728,37.266 53.385,37.923 53.385,38.733Z" style="fill:white;fill-rule:nonzero;"/>
            </g>
            <g transform="matrix(1.37406,0,0,1.37406,-35.2366,-14.6247)">
                <path d="M57.053,38.733C57.053,39.543 56.397,40.201 55.586,40.201C54.776,40.201 54.119,39.543 54.119,38.733C54.119,37.923 54.776,37.266 55.586,37.266C56.397,37.266 57.053,37.923 57.053,38.733Z" style="fill:white;fill-rule:nonzero;"/>
            </g>
            <g transform="matrix(1.37406,0,0,1.37406,-35.2366,-14.6247)">
                <path d="M60.721,38.733C60.721,39.543 60.065,40.201 59.254,40.201C58.444,40.201 57.787,39.543 57.787,38.733C57.787,37.923 58.444,37.266 59.254,37.266C60.065,37.266 60.721,37.923 60.721,38.733Z" style="fill:white;fill-rule:nonzero;"/>
            </g>
            <g transform="matrix(1.37406,0,0,1.37406,-35.2366,-14.6247)">
                <path d="M49.717,42.401C49.717,43.211 49.06,43.869 48.25,43.869C47.439,43.869 46.782,43.211 46.782,42.401C46.782,41.591 47.439,40.934 48.25,40.934C49.06,40.934 49.717,41.591 49.717,42.401Z" style="fill:white;fill-rule:nonzero;"/>
            </g>
            <g transform="matrix(1.37406,0,0,1.37406,-35.2366,-14.6247)">
                <path d="M49.717,46.07C49.717,46.88 49.06,47.537 48.25,47.537C47.439,47.537 46.782,46.88 46.782,46.07C46.782,45.259 47.439,44.602 48.25,44.602C49.06,44.602 49.717,45.259 49.717,46.07Z" style="fill:white;fill-rule:nonzero;"/>
            </g>
            <g transform="matrix(1.37406,0,0,1.37406,-35.2366,-14.6247)">
                <path d="M49.717,49.738C49.717,50.548 49.06,51.205 48.25,51.205C47.439,51.205 46.782,50.548 46.782,49.738C46.782,48.928 47.439,48.271 48.25,48.271C49.06,48.271 49.717,48.928 49.717,49.738Z" style="fill:white;fill-rule:nonzero;"/>
            </g>
            <g transform="matrix(1.37406,0,0,1.37406,-35.2366,-14.6247)">
                <path d="M28.063,27.394C28.063,28.02 27.555,28.528 26.928,28.528C26.302,28.528 25.794,28.02 25.794,27.394C25.794,26.768 26.302,26.261 26.928,26.261C27.555,26.261 28.063,26.768 28.063,27.394Z" style="fill:white;fill-rule:nonzero;"/>
            </g>
            <g transform="matrix(1.37406,0,0,1.37406,-35.2366,-14.6247)">
                <path d="M30.897,27.394C30.897,28.02 30.389,28.528 29.763,28.528C29.137,28.528 28.629,28.02 28.629,27.394C28.629,26.768 29.137,26.261 29.763,26.261C30.389,26.261 30.897,26.768 30.897,27.394Z" style="fill:white;fill-rule:nonzero;"/>
            </g>
            <g transform="matrix(1.37406,0,0,1.37406,-35.2366,-14.6247)">
                <path d="M33.732,27.394C33.732,28.02 33.224,28.528 32.598,28.528C31.971,28.528 31.463,28.02 31.463,27.394C31.463,26.768 31.971,26.261 32.598,26.261C33.224,26.261 33.732,26.768 33.732,27.394Z" style="fill:white;fill-rule:nonzero;"/>
            </g>
            <g transform="matrix(1.37406,0,0,1.37406,-35.2366,-14.6247)">
                <path d="M36.567,27.394C36.567,28.02 36.059,28.528 35.432,28.528C34.806,28.528 34.298,28.02 34.298,27.394C34.298,26.768 34.806,26.261 35.432,26.261C36.059,26.261 36.567,26.768 36.567,27.394Z" style="fill:white;fill-rule:nonzero;"/>
            </g>
            <g transform="matrix(1.37406,0,0,1.37406,-35.2366,-14.6247)">
                <path d="M39.401,27.394C39.401,28.02 38.893,28.528 38.267,28.528C37.641,28.528 37.133,28.02 37.133,27.394C37.133,26.768 37.641,26.261 38.267,26.261C38.893,26.261 39.401,26.768 39.401,27.394Z" style="fill:white;fill-rule:nonzero;"/>
            </g>
            <g transform="matrix(1.37406,0,0,1.37406,-35.2366,-14.6247)">
                <path d="M28.063,30.229C28.063,30.855 27.555,31.363 26.928,31.363C26.302,31.363 25.794,30.855 25.794,30.229C25.794,29.603 26.302,29.095 26.928,29.095C27.555,29.095 28.063,29.603 28.063,30.229Z" style="fill:white;fill-rule:nonzero;"/>
            </g>
            <g transform="matrix(1.37406,0,0,1.37406,-35.2366,-14.6247)">
                <path d="M42.236,30.229C42.236,30.855 41.728,31.363 41.102,31.363C40.476,31.363 39.968,30.855 39.968,30.229C39.968,29.603 40.476,29.095 41.102,29.095C41.728,29.095 42.236,29.603 42.236,30.229Z" style="fill:white;fill-rule:nonzero;"/>
            </g>
            <g transform="matrix(1.37406,0,0,1.37406,-35.2366,-14.6247)">
                <path d="M28.063,33.064C28.063,33.69 27.555,34.198 26.928,34.198C26.302,34.198 25.794,33.69 25.794,33.064C25.794,32.437 26.302,31.93 26.928,31.93C27.555,31.93 28.063,32.437 28.063,33.064Z" style="fill:white;fill-rule:nonzero;"/>
            </g>
            <g transform="matrix(1.37406,0,0,1.37406,-35.2366,-14.6247)">
                <path d="M42.236,33.064C42.236,33.69 41.728,34.198 41.102,34.198C40.475,34.198 39.968,33.69 39.968,33.064C39.968,32.437 40.475,31.93 41.102,31.93C41.728,31.93 42.236,32.437 42.236,33.064Z" style="fill:white;fill-rule:nonzero;"/>
            </g>
            <g transform="matrix(1.37406,0,0,1.37406,-35.2366,-14.6247)">
                <path d="M28.063,35.898C28.063,36.524 27.555,37.032 26.928,37.032C26.302,37.032 25.794,36.524 25.794,35.898C25.794,35.272 26.302,34.765 26.928,34.765C27.555,34.765 28.063,35.272 28.063,35.898Z" style="fill:white;fill-rule:nonzero;"/>
            </g>
            <g transform="matrix(1.37406,0,0,1.37406,-35.2366,-14.6247)">
                <path d="M42.236,35.898C42.236,36.524 41.728,37.032 41.102,37.032C40.475,37.032 39.968,36.524 39.968,35.898C39.968,35.272 40.475,34.765 41.102,34.765C41.728,34.765 42.236,35.272 42.236,35.898Z" style="fill:white;fill-rule:nonzero;"/>
            </g>
            <g transform="matrix(1.37406,0,0,1.37406,-35.2366,-14.6247)">
                <path d="M28.063,38.733C28.063,39.359 27.555,39.867 26.928,39.867C26.302,39.867 25.794,39.359 25.794,38.733C25.794,38.106 26.302,37.599 26.928,37.599C27.555,37.599 28.063,38.106 28.063,38.733Z" style="fill:white;fill-rule:nonzero;"/>
            </g>
            <g transform="matrix(1.37406,0,0,1.37406,-35.2366,-14.6247)">
                <path d="M30.897,38.733C30.897,39.359 30.389,39.867 29.763,39.867C29.137,39.867 28.629,39.359 28.629,38.733C28.629,38.106 29.137,37.599 29.763,37.599C30.389,37.599 30.897,38.106 30.897,38.733Z" style="fill:white;fill-rule:nonzero;"/>
            </g>
            <g transform="matrix(1.37406,0,0,1.37406,-35.2366,-14.6247)">
                <path d="M33.732,38.733C33.732,39.359 33.224,39.867 32.598,39.867C31.971,39.867 31.463,39.359 31.463,38.733C31.463,38.106 31.971,37.599 32.598,37.599C33.224,37.599 33.732,38.106 33.732,38.733Z" style="fill:white;fill-rule:nonzero;"/>
            </g>
            <g transform="matrix(1.37406,0,0,1.37406,-35.2366,-14.6247)">
                <path d="M36.567,38.733C36.567,39.359 36.059,39.867 35.432,39.867C34.806,39.867 34.298,39.359 34.298,38.733C34.298,38.106 34.806,37.599 35.432,37.599C36.059,37.599 36.567,38.106 36.567,38.733Z" style="fill:white;fill-rule:nonzero;"/>
            </g>
            <g transform="matrix(1.37406,0,0,1.37406,-35.2366,-14.6247)">
                <path d="M39.401,38.733C39.401,39.359 38.893,39.867 38.267,39.867C37.641,39.867 37.133,39.359 37.133,38.733C37.133,38.106 37.641,37.599 38.267,37.599C38.893,37.599 39.401,38.106 39.401,38.733Z" style="fill:white;fill-rule:nonzero;"/>
            </g>
            <g transform="matrix(1.37406,0,0,1.37406,-35.2366,-14.6247)">
                <path d="M28.063,41.568C28.063,42.194 27.555,42.702 26.928,42.702C26.302,42.702 25.794,42.194 25.794,41.568C25.794,40.941 26.302,40.434 26.928,40.434C27.555,40.434 28.063,40.941 28.063,41.568Z" style="fill:white;fill-rule:nonzero;"/>
            </g>
            <g transform="matrix(1.37406,0,0,1.37406,-35.2366,-14.6247)">
                <path d="M42.236,41.568C42.236,42.194 41.728,42.702 41.102,42.702C40.476,42.702 39.968,42.194 39.968,41.568C39.968,40.941 40.476,40.434 41.102,40.434C41.728,40.434 42.236,40.941 42.236,41.568Z" style="fill:white;fill-rule:nonzero;"/>
            </g>
            <g transform="matrix(1.37406,0,0,1.37406,-35.2366,-14.6247)">
                <path d="M28.063,44.402C28.063,45.029 27.555,45.537 26.928,45.537C26.302,45.537 25.794,45.029 25.794,44.402C25.794,43.776 26.302,43.268 26.928,43.268C27.555,43.268 28.063,43.776 28.063,44.402Z" style="fill:white;fill-rule:nonzero;"/>
            </g>
            <g transform="matrix(1.37406,0,0,1.37406,-35.2366,-14.6247)">
                <path d="M42.236,44.402C42.236,45.029 41.728,45.537 41.102,45.537C40.476,45.537 39.968,45.029 39.968,44.402C39.968,43.776 40.476,43.268 41.102,43.268C41.728,43.268 42.236,43.776 42.236,44.402Z" style="fill:white;fill-rule:nonzero;"/>
            </g>
            <g transform="matrix(1.37406,0,0,1.37406,-35.2366,-14.6247)">
                <path d="M28.063,47.237C28.063,47.864 27.555,48.371 26.928,48.371C26.302,48.371 25.794,47.864 25.794,47.237C25.794,46.611 26.302,46.103 26.928,46.103C27.555,46.103 28.063,46.611 28.063,47.237Z" style="fill:white;fill-rule:nonzero;"/>
            </g>
            <g transform="matrix(1.37406,0,0,1.37406,-35.2366,-14.6247)">
                <path d="M42.236,47.237C42.236,47.864 41.728,48.371 41.102,48.371C40.476,48.371 39.968,47.864 39.968,47.237C39.968,46.611 40.476,46.103 41.102,46.103C41.728,46.103 42.236,46.611 42.236,47.237Z" style="fill:white;fill-rule:nonzero;"/>
            </g>
            <g transform="matrix(1.37406,0,0,1.37406,-35.2366,-14.6247)">
                <path d="M28.063,50.072C28.063,50.698 27.555,51.205 26.928,51.205C26.302,51.205 25.794,50.698 25.794,50.072C25.794,49.446 26.302,48.938 26.928,48.938C27.555,48.938 28.063,49.446 28.063,50.072Z" style="fill:white;fill-rule:nonzero;"/>
            </g>
            <g transform="matrix(1.37406,0,0,1.37406,-35.2366,-14.6247)">
                <path d="M30.897,50.072C30.897,50.698 30.389,51.205 29.763,51.205C29.137,51.205 28.629,50.698 28.629,50.072C28.629,49.446 29.137,48.938 29.763,48.938C30.389,48.938 30.897,49.446 30.897,50.072Z" style="fill:white;fill-rule:nonzero;"/>
            </g>
            <g transform="matrix(1.37406,0,0,1.37406,-35.2366,-14.6247)">
                <path d="M33.732,50.072C33.732,50.698 33.224,51.205 32.598,51.205C31.971,51.205 31.463,50.698 31.463,50.072C31.463,49.446 31.971,48.938 32.598,48.938C33.224,48.938 33.732,49.446 33.732,50.072Z" style="fill:white;fill-rule:nonzero;"/>
            </g>
            <g transform="matrix(1.37406,0,0,1.37406,-35.2366,-14.6247)">
                <path d="M36.567,50.072C36.567,50.698 36.059,51.205 35.432,51.205C34.806,51.205 34.298,50.698 34.298,50.072C34.298,49.446 34.806,48.938 35.432,48.938C36.059,48.938 36.567,49.446 36.567,50.072Z" style="fill:white;fill-rule:nonzero;"/>
            </g>
            <g transform="matrix(1.37406,0,0,1.37406,-35.2366,-14.6247)">
                <path d="M39.401,50.072C39.401,50.698 38.893,51.205 38.267,51.205C37.641,51.205 37.133,50.698 37.133,50.072C37.133,49.446 37.641,48.938 38.267,48.938C38.893,48.938 39.401,49.446 39.401,50.072Z" style="fill:white;fill-rule:nonzero;"/>
            </g>
        </g>
    </g>
</svg>
