<?xml version="1.0" encoding="UTF-8" standalone="no"?>
<!DOCTYPE svg PUBLIC "-//W3C//DTD SVG 1.1//EN" "http://www.w3.org/Graphics/SVG/1.1/DTD/svg11.dtd">
<svg width="100%" height="100%" viewBox="0 0 3867 3867" version="1.1" xmlns="http://www.w3.org/2000/svg" xmlns:xlink="http://www.w3.org/1999/xlink" xml:space="preserve" xmlns:serif="http://www.serif.com/" style="fill-rule:evenodd;clip-rule:evenodd;stroke-miterlimit:2;">
    <g transform="matrix(1.33333,0,0,1.33333,0,0)">
        <g transform="matrix(4.16667,0,0,4.16667,0,0)">
            <path d="M536.331,350.827C496.686,350.827 463.418,375.388 450.133,412.711C436.846,375.388 403.579,350.827 363.934,350.827C324.286,350.827 291.02,375.388 277.732,412.711C264.445,375.388 231.179,350.827 191.532,350.827C189.268,350.827 187.075,350.922 184.939,351.086L184.939,365.478C187.08,365.314 189.274,365.227 191.532,365.227C229.932,365.227 267.931,400.827 267.931,449.624C267.931,498.422 229.932,534.023 191.532,534.023C145.932,534.023 114.333,493.624 114.333,449.624L114.333,154.924L99.133,154.924L99.133,449.624C99.133,506.824 139.933,548.423 191.533,548.423C226.001,548.423 255.646,529.858 271.534,500.483L271.534,635.623L286.734,635.623L286.734,449.624C286.734,405.625 318.334,365.227 363.934,365.227C402.333,365.227 440.333,400.827 440.333,449.624C440.333,493.654 409.395,526.928 375.145,533.014L375.145,547.744C404.768,544.184 429.797,526.618 443.934,500.482L443.934,635.623L459.135,635.623L459.135,449.624C459.135,405.625 490.735,365.227 536.331,365.227C574.731,365.227 612.731,400.827 612.731,449.624C612.731,493.677 581.764,526.961 547.491,533.023L547.491,547.755C593.692,542.234 628.729,502.629 628.729,449.623C628.731,402.486 596.323,350.827 536.331,350.827Z" style="fill-rule:nonzero;"/>
            <path d="M145.356,199.698C151.416,199.709 155.924,195.338 156,187.539C156.314,179.74 152.846,173.434 145.407,173.419C138.867,173.407 134.895,179.399 134.882,186.418C134.867,193.917 138.576,199.685 145.356,199.698ZM134.852,202.078L131.251,202.071L131.334,158.873L134.935,158.879L134.902,175.979C137.188,172.203 141.633,170.173 146.013,170.181C155.492,170.2 159.857,177.947 159.84,186.646C159.822,195.827 155.788,202.958 145.769,202.938C141.809,202.931 137.073,200.702 134.981,196.618L134.861,196.618L134.851,202.078L134.852,202.078Z" style="fill-rule:nonzero;"/>
            <path d="M145.356,199.698C151.416,199.709 155.924,195.338 156,187.539C156.314,179.74 152.846,173.434 145.407,173.419C138.867,173.407 134.895,179.399 134.882,186.418C134.867,193.917 138.576,199.685 145.356,199.698ZM134.852,202.078L131.251,202.071L131.334,158.873L134.935,158.879L134.902,175.979C137.188,172.203 141.633,170.173 146.013,170.181C155.492,170.2 159.857,177.947 159.84,186.646C159.822,195.827 155.788,202.958 145.769,202.938C141.809,202.931 137.073,200.702 134.981,196.618L134.861,196.618L134.851,202.078L134.852,202.078Z" style="stroke:white;stroke-width:1px;"/>
            <path d="M188.61,171.102L192.21,171.109L192.15,202.188L188.55,202.181L188.559,197.861C186.635,200.018 183.988,203.012 178.528,203.002C170.248,202.986 167.498,198.002 167.511,191.521L167.55,171.062L171.149,171.07L171.11,191.469C171.1,196.809 173.435,199.753 179.075,199.764C185.015,199.775 188.563,194.862 188.577,188.022L188.609,171.102L188.61,171.102Z" style="fill-rule:nonzero;"/>
            <path d="M188.61,171.102L192.21,171.109L192.15,202.188L188.55,202.181L188.559,197.861C186.635,200.018 183.988,203.012 178.528,203.002C170.248,202.986 167.498,198.002 167.511,191.521L167.55,171.062L171.149,171.07L171.11,191.469C171.1,196.809 173.435,199.753 179.075,199.764C185.015,199.775 188.563,194.862 188.577,188.022L188.609,171.102L188.61,171.102Z" style="stroke:white;stroke-width:1px;"/>
            <path d="M204.451,202.212L200.851,202.205L200.911,171.126L204.511,171.133L204.502,175.454C207.388,172.398 210.213,170.304 214.533,170.312C218.313,170.32 221.791,171.527 224.003,174.769C225.499,176.993 225.555,179.333 225.55,181.913L225.51,202.252L221.91,202.245L221.949,181.966C221.96,176.386 219.686,173.563 213.925,173.552C209.486,173.543 206.419,176.417 205.274,179.595C204.55,181.574 204.486,183.313 204.482,185.473L204.45,202.212L204.451,202.212Z" style="fill-rule:nonzero;"/>
            <path d="M204.451,202.212L200.851,202.205L200.911,171.126L204.511,171.133L204.502,175.454C207.388,172.398 210.213,170.304 214.533,170.312C218.313,170.32 221.791,171.527 224.003,174.769C225.499,176.993 225.555,179.333 225.55,181.913L225.51,202.252L221.91,202.245L221.949,181.966C221.96,176.386 219.686,173.563 213.925,173.552C209.486,173.543 206.419,176.417 205.274,179.595C204.55,181.574 204.486,183.313 204.482,185.473L204.45,202.212L204.451,202.212Z" style="stroke:white;stroke-width:1px;"/>
            <path d="M247.766,173.617C240.326,173.602 236.835,179.895 237.119,187.695C237.163,195.495 241.655,199.884 247.715,199.895C254.495,199.908 258.226,194.156 258.241,186.657C258.252,179.637 254.305,173.63 247.766,173.617ZM258.293,159.118L261.893,159.124L261.808,202.323L258.209,202.316L258.22,196.856L258.1,196.856C255.992,200.932 251.248,203.143 247.289,203.135C237.269,203.115 233.263,195.968 233.281,186.788C233.297,178.089 237.692,170.358 247.17,170.376C251.55,170.385 255.987,172.434 258.26,176.217L258.293,159.118Z" style="fill-rule:nonzero;"/>
            <path d="M247.766,173.617C240.326,173.602 236.835,179.895 237.119,187.695C237.163,195.495 241.655,199.884 247.715,199.895C254.495,199.908 258.226,194.156 258.241,186.657C258.252,179.637 254.305,173.63 247.766,173.617ZM258.293,159.118L261.893,159.124L261.808,202.323L258.209,202.316L258.22,196.856L258.1,196.856C255.992,200.932 251.248,203.143 247.289,203.135C237.269,203.115 233.263,195.968 233.281,186.788C233.297,178.089 237.692,170.358 247.17,170.376C251.55,170.385 255.987,172.434 258.26,176.217L258.293,159.118Z" style="stroke:white;stroke-width:1px;"/>
            <path d="M145.255,251.698C152.694,251.713 156.187,245.419 155.903,237.619C155.857,229.819 151.366,225.431 145.306,225.419C138.526,225.406 134.795,231.159 134.781,238.658C134.767,245.678 138.714,251.686 145.255,251.698ZM134.727,266.318L131.127,266.311L131.21,222.993L134.811,222.999L134.8,228.458L134.92,228.458C137.028,224.383 141.772,222.173 145.732,222.181C155.752,222.2 159.759,229.348 159.741,238.527C159.724,247.227 155.33,254.957 145.85,254.939C141.47,254.93 137.034,252.882 134.762,249.098L134.728,266.318L134.727,266.318Z" style="fill-rule:nonzero;"/>
            <path d="M145.255,251.698C152.694,251.713 156.187,245.419 155.903,237.619C155.857,229.819 151.366,225.431 145.306,225.419C138.526,225.406 134.795,231.159 134.781,238.658C134.767,245.678 138.714,251.686 145.255,251.698ZM134.727,266.318L131.127,266.311L131.21,222.993L134.811,222.999L134.8,228.458L134.92,228.458C137.028,224.383 141.772,222.173 145.732,222.181C155.752,222.2 159.759,229.348 159.741,238.527C159.724,247.227 155.33,254.957 145.85,254.939C141.47,254.93 137.034,252.882 134.762,249.098L134.728,266.318L134.727,266.318Z" style="stroke:white;stroke-width:1px;"/>
            <path d="M171.17,254.148L167.569,254.141L167.629,223.062L171.23,223.069L171.219,228.889L171.339,228.889C173.328,223.913 176.271,222.239 181.491,222.249L181.484,226.147C173.384,225.952 171.213,231.948 171.199,238.908L171.17,254.148Z" style="fill-rule:nonzero;"/>
            <path d="M171.17,254.148L167.569,254.141L167.629,223.062L171.23,223.069L171.219,228.889L171.339,228.889C173.328,223.913 176.271,222.239 181.491,222.249L181.484,226.147C173.384,225.952 171.213,231.948 171.199,238.908L171.17,254.148Z" style="stroke:white;stroke-width:1px;"/>
            <path d="M198.715,225.522C191.155,225.508 188.143,231.921 188.129,238.641C188.115,246.381 191.764,251.788 198.665,251.802C206.224,251.816 209.237,245.342 209.25,238.682C209.204,231.363 206.335,225.537 198.715,225.522ZM184.291,238.633C184.308,229.574 189.122,222.264 198.722,222.282C208.441,222.301 213.106,229.569 213.088,238.689C213.069,248.529 207.357,255.057 198.658,255.04C190.74,254.905 184.27,249.494 184.291,238.633Z" style="fill-rule:nonzero;"/>
            <path d="M198.715,225.522C191.155,225.508 188.143,231.921 188.129,238.641C188.115,246.381 191.764,251.788 198.665,251.802C206.224,251.816 209.237,245.342 209.25,238.682C209.204,231.363 206.335,225.537 198.715,225.522ZM184.291,238.633C184.308,229.574 189.122,222.264 198.722,222.282C208.441,222.301 213.106,229.569 213.088,238.689C213.069,248.529 207.357,255.057 198.658,255.04C190.74,254.905 184.27,249.494 184.291,238.633Z" style="stroke:white;stroke-width:1px;"/>
            <path d="M216.595,226.157L216.601,223.157L221.221,223.165L221.23,218.246C221.24,213.326 223.046,210.209 227.846,210.218C228.926,210.22 229.886,210.282 230.845,210.464L230.839,213.764C230.12,213.583 229.339,213.461 228.679,213.46C224.959,213.453 224.833,216.512 224.828,219.332L224.821,223.172L230.821,223.184L230.815,226.184L224.815,226.172L224.761,254.251L221.161,254.245L221.215,226.165L216.595,226.157Z" style="fill-rule:nonzero;"/>
            <path d="M216.595,226.157L216.601,223.157L221.221,223.165L221.23,218.246C221.24,213.326 223.046,210.209 227.846,210.218C228.926,210.22 229.886,210.282 230.845,210.464L230.839,213.764C230.12,213.583 229.339,213.461 228.679,213.46C224.959,213.453 224.833,216.512 224.828,219.332L224.821,223.172L230.821,223.184L230.815,226.184L224.815,226.172L224.761,254.251L221.161,254.245L221.215,226.165L216.595,226.157Z" style="stroke:white;stroke-width:1px;"/>
            <path d="M258.874,236.618C258.885,230.559 255.536,225.633 249.056,225.621C242.696,225.608 239.327,230.702 238.595,236.579L258.874,236.618ZM238.589,239.579C238.516,246.299 242.105,251.886 249.005,251.899C253.685,251.908 257.349,249.335 258.437,244.776L262.458,244.784C260.646,250.661 256.918,255.152 248.999,255.137C239.039,255.118 234.732,248.029 234.75,238.851C234.768,229.791 240.183,222.362 249.063,222.379C257.582,222.396 262.79,228.466 262.708,239.624L238.589,239.578L238.589,239.579Z" style="fill-rule:nonzero;"/>
            <path d="M258.874,236.618C258.885,230.559 255.536,225.633 249.056,225.621C242.696,225.608 239.327,230.702 238.595,236.579L258.874,236.618ZM238.589,239.579C238.516,246.299 242.105,251.886 249.005,251.899C253.685,251.908 257.349,249.335 258.437,244.776L262.458,244.784C260.646,250.661 256.918,255.152 248.999,255.137C239.039,255.118 234.732,248.029 234.75,238.851C234.768,229.791 240.183,222.362 249.063,222.379C257.582,222.396 262.79,228.466 262.708,239.624L238.589,239.578L238.589,239.579Z" style="stroke:white;stroke-width:1px;"/>
            <path d="M271.819,244.623C272.95,249.965 275.705,251.951 281.104,251.961C286.325,251.971 288.79,249.215 288.796,246.215C288.813,237.215 268.882,243.537 268.906,231.297C268.916,226.138 272.942,222.426 279.842,222.44C286.562,222.453 290.936,225.221 291.823,232.242L288.163,232.235C287.512,227.434 284.275,225.687 279.775,225.679C275.215,225.67 272.751,227.826 272.745,231.005C272.729,239.464 292.658,234.223 292.635,246.163C292.623,252.102 287.277,255.212 279.958,255.198C272.638,255.184 268.448,250.496 268.158,244.616L271.819,244.623Z" style="fill-rule:nonzero;"/>
            <path d="M271.819,244.623C272.95,249.965 275.705,251.951 281.104,251.961C286.325,251.971 288.79,249.215 288.796,246.215C288.813,237.215 268.882,243.537 268.906,231.297C268.916,226.138 272.942,222.426 279.842,222.44C286.562,222.453 290.936,225.221 291.823,232.242L288.163,232.235C287.512,227.434 284.275,225.687 279.775,225.679C275.215,225.67 272.751,227.826 272.745,231.005C272.729,239.464 292.658,234.223 292.635,246.163C292.623,252.102 287.277,255.212 279.958,255.198C272.638,255.184 268.448,250.496 268.158,244.616L271.819,244.623Z" style="stroke:white;stroke-width:1px;"/>
            <path d="M301.819,244.681C302.95,250.022 305.705,252.008 311.104,252.019C316.325,252.029 318.79,249.273 318.795,246.273C318.813,237.273 298.882,243.595 298.906,231.355C298.916,226.195 302.942,222.484 309.842,222.498C316.562,222.511 320.936,225.279 321.823,232.3L318.163,232.293C317.512,227.492 314.275,225.746 309.775,225.737C305.215,225.728 302.751,227.883 302.745,231.063C302.729,239.522 322.658,234.281 322.635,246.221C322.623,252.16 317.277,255.27 309.958,255.256C302.638,255.242 298.447,250.554 298.158,244.673L301.819,244.681Z" style="fill-rule:nonzero;"/>
            <path d="M301.819,244.681C302.95,250.022 305.705,252.008 311.104,252.019C316.325,252.029 318.79,249.273 318.795,246.273C318.813,237.273 298.882,243.595 298.906,231.355C298.916,226.195 302.942,222.484 309.842,222.498C316.562,222.511 320.936,225.279 321.823,232.3L318.163,232.293C317.512,227.492 314.275,225.746 309.775,225.737C305.215,225.728 302.751,227.883 302.745,231.063C302.729,239.522 322.658,234.281 322.635,246.221C322.623,252.16 317.277,255.27 309.958,255.256C302.638,255.242 298.447,250.554 298.158,244.673L301.819,244.681Z" style="stroke:white;stroke-width:1px;"/>
            <path d="M330.241,254.455L330.301,223.376L333.9,223.383L333.84,254.462L330.241,254.455ZM330.133,216.596L330.144,211.256L334.104,211.263L334.094,216.603L330.133,216.596Z" style="fill-rule:nonzero;"/>
            <path d="M330.241,254.455L330.301,223.376L333.9,223.383L333.84,254.462L330.241,254.455ZM330.133,216.596L330.144,211.256L334.104,211.263L334.094,216.603L330.133,216.596Z" style="stroke:white;stroke-width:1px;"/>
            <path d="M355.434,225.825C347.875,225.81 344.862,232.224 344.849,238.943C344.834,246.684 348.483,252.091 355.383,252.104C362.944,252.119 365.957,245.645 365.969,238.984C365.921,231.665 363.055,225.84 355.434,225.825ZM341.01,238.936C341.027,229.876 345.841,222.566 355.441,222.585C365.16,222.603 369.825,229.872 369.807,238.992C369.789,248.831 364.077,255.359 355.377,255.343C347.458,255.208 340.989,249.796 341.01,238.936Z" style="fill-rule:nonzero;"/>
            <path d="M355.434,225.825C347.875,225.81 344.862,232.224 344.849,238.943C344.834,246.684 348.483,252.091 355.383,252.104C362.944,252.119 365.957,245.645 365.969,238.984C365.921,231.665 363.055,225.84 355.434,225.825ZM341.01,238.936C341.027,229.876 345.841,222.566 355.441,222.585C365.16,222.603 369.825,229.872 369.807,238.992C369.789,248.831 364.077,255.359 355.377,255.343C347.458,255.208 340.989,249.796 341.01,238.936Z" style="stroke:white;stroke-width:1px;"/>
            <path d="M379.981,254.551L376.379,254.544L376.439,223.465L380.041,223.472L380.032,227.792C382.917,224.738 385.74,222.643 390.062,222.652C393.841,222.659 397.319,223.866 399.532,227.108C401.027,229.332 401.083,231.672 401.079,234.252L401.039,254.591L397.439,254.584L397.479,234.305C397.49,228.725 395.213,225.902 389.454,225.891C385.014,225.882 381.951,228.756 380.803,231.934C380.079,233.913 380.017,235.653 380.013,237.812L379.981,254.551Z" style="fill-rule:nonzero;"/>
            <path d="M379.981,254.551L376.379,254.544L376.439,223.465L380.041,223.472L380.032,227.792C382.917,224.738 385.74,222.643 390.062,222.652C393.841,222.659 397.319,223.866 399.532,227.108C401.027,229.332 401.083,231.672 401.079,234.252L401.039,254.591L397.439,254.584L397.479,234.305C397.49,228.725 395.213,225.902 389.454,225.891C385.014,225.882 381.951,228.756 380.803,231.934C380.079,233.913 380.017,235.653 380.013,237.812L379.981,254.551Z" style="stroke:white;stroke-width:1px;"/>
            <path d="M432.274,236.953C432.286,230.893 428.934,225.968 422.456,225.956C416.094,225.943 412.723,231.036 411.995,236.914L432.274,236.953ZM411.988,239.914C411.914,246.634 415.502,252.221 422.403,252.234C427.083,252.243 430.748,249.67 431.836,245.111L435.856,245.119C434.044,250.996 430.317,255.487 422.399,255.472C412.438,255.453 408.133,248.364 408.151,239.185C408.168,230.126 413.58,222.697 422.462,222.714C430.982,222.731 436.187,228.801 436.108,239.959L411.988,239.913L411.988,239.914Z" style="fill-rule:nonzero;"/>
            <path d="M432.274,236.953C432.286,230.893 428.934,225.968 422.456,225.956C416.094,225.943 412.723,231.036 411.995,236.914L432.274,236.953ZM411.988,239.914C411.914,246.634 415.502,252.221 422.403,252.234C427.083,252.243 430.748,249.67 431.836,245.111L435.856,245.119C434.044,250.996 430.317,255.487 422.399,255.472C412.438,255.453 408.133,248.364 408.151,239.185C408.168,230.126 413.58,222.697 422.462,222.714C430.982,222.731 436.187,228.801 436.108,239.959L411.988,239.913L411.988,239.914Z" style="stroke:white;stroke-width:1px;"/>
            <path d="M443.638,254.674L443.722,211.476L447.324,211.483L447.24,254.681L443.638,254.674Z" style="fill-rule:nonzero;"/>
            <path d="M443.638,254.674L443.722,211.476L447.324,211.483L447.24,254.681L443.638,254.674Z" style="stroke:white;stroke-width:1px;"/>
            <path d="M456.958,254.7L457.042,211.502L460.642,211.509L460.558,254.707L456.958,254.7Z" style="fill-rule:nonzero;"/>
            <path d="M456.958,254.7L457.042,211.502L460.642,211.509L460.558,254.707L456.958,254.7Z" style="stroke:white;stroke-width:1px;"/>
            <path d="M492.272,237.069C492.284,231.009 488.932,226.084 482.454,226.071C476.092,226.059 472.721,231.152 471.993,237.03L492.272,237.069ZM471.987,240.03C471.914,246.75 475.502,252.336 482.403,252.35C487.083,252.359 490.748,249.786 491.836,245.227L495.856,245.235C494.043,251.111 490.317,255.603 482.397,255.588C472.436,255.569 468.131,248.48 468.149,239.302C468.167,230.242 473.579,222.813 482.459,222.83C490.979,222.847 496.186,228.917 496.106,240.075L471.987,240.029L471.987,240.03Z" style="fill-rule:nonzero;"/>
            <path d="M492.272,237.069C492.284,231.009 488.932,226.084 482.454,226.071C476.092,226.059 472.721,231.152 471.993,237.03L492.272,237.069ZM471.987,240.03C471.914,246.75 475.502,252.336 482.403,252.35C487.083,252.359 490.748,249.786 491.836,245.227L495.856,245.235C494.043,251.111 490.317,255.603 482.397,255.588C472.436,255.569 468.131,248.48 468.149,239.302C468.167,230.242 473.579,222.813 482.459,222.83C490.979,222.847 496.186,228.917 496.106,240.075L471.987,240.029L471.987,240.03Z" style="stroke:white;stroke-width:1px;"/>
            <path d="M506.876,254.796L503.277,254.789L503.337,223.71L506.937,223.717L506.925,229.538L507.044,229.538C509.035,224.561 511.977,222.887 517.198,222.897L517.19,226.796C509.091,226.601 506.919,232.596 506.907,239.556L506.876,254.796Z" style="fill-rule:nonzero;"/>
            <path d="M506.876,254.796L503.277,254.789L503.337,223.71L506.937,223.717L506.925,229.538L507.044,229.538C509.035,224.561 511.977,222.887 517.198,222.897L517.19,226.796C509.091,226.601 506.919,232.596 506.907,239.556L506.876,254.796Z" style="stroke:white;stroke-width:1px;"/>
            <path d="M145.155,303.698C152.594,303.713 156.086,297.418 155.802,289.618C155.757,281.819 151.266,277.431 145.206,277.419C138.426,277.406 134.695,283.159 134.68,290.658C134.667,297.678 138.614,303.685 145.155,303.698ZM134.627,318.318L131.026,318.31L131.11,274.993L134.71,274.999L134.7,280.458L134.82,280.458C136.928,276.383 141.672,274.173 145.632,274.181C155.651,274.2 159.658,281.347 159.641,290.527C159.624,299.226 155.229,306.957 145.75,306.939C141.37,306.93 136.933,304.882 134.661,301.098L134.628,318.318L134.627,318.318Z" style="fill-rule:nonzero;"/>
            <path d="M145.155,303.698C152.594,303.713 156.086,297.418 155.802,289.618C155.757,281.819 151.266,277.431 145.206,277.419C138.426,277.406 134.695,283.159 134.68,290.658C134.667,297.678 138.614,303.685 145.155,303.698ZM134.627,318.318L131.026,318.31L131.11,274.993L134.71,274.999L134.7,280.458L134.82,280.458C136.928,276.383 141.672,274.173 145.632,274.181C155.651,274.2 159.658,281.347 159.641,290.527C159.624,299.226 155.229,306.957 145.75,306.939C141.37,306.93 136.933,304.882 134.661,301.098L134.628,318.318L134.627,318.318Z" style="stroke:white;stroke-width:1px;"/>
            <path d="M179.705,277.486C172.145,277.471 169.132,283.884 169.119,290.604C169.104,298.344 172.754,303.751 179.654,303.765C187.213,303.78 190.226,297.306 190.239,290.645C190.193,283.326 187.325,277.5 179.705,277.486ZM165.28,290.597C165.297,281.537 170.111,274.227 179.711,274.246C189.431,274.264 194.096,281.532 194.078,290.652C194.059,300.492 188.347,307.02 179.648,307.003C171.729,306.869 165.259,301.457 165.28,290.597Z" style="fill-rule:nonzero;"/>
            <path d="M179.705,277.486C172.145,277.471 169.132,283.884 169.119,290.604C169.104,298.344 172.754,303.751 179.654,303.765C187.213,303.78 190.226,297.306 190.239,290.645C190.193,283.326 187.325,277.5 179.705,277.486ZM165.28,290.597C165.297,281.537 170.111,274.227 179.711,274.246C189.431,274.264 194.096,281.532 194.078,290.652C194.059,300.492 188.347,307.02 179.648,307.003C171.729,306.869 165.259,301.457 165.28,290.597Z" style="stroke:white;stroke-width:1px;"/>
            <path d="M204.43,306.212L200.829,306.206L200.889,275.126L204.49,275.133L204.479,280.954L204.599,280.954C206.588,275.977 209.531,274.303 214.751,274.313L214.744,278.212C206.644,278.016 204.473,284.012 204.459,290.972L204.43,306.212Z" style="fill-rule:nonzero;"/>
            <path d="M204.43,306.212L200.829,306.206L200.889,275.126L204.49,275.133L204.479,280.954L204.599,280.954C206.588,275.977 209.531,274.303 214.751,274.313L214.744,278.212C206.644,278.016 204.473,284.012 204.459,290.972L204.43,306.212Z" style="stroke:white;stroke-width:1px;"/>
            <path d="M232.618,306.387C231.778,306.565 230.217,307.102 228.477,307.099C224.937,307.092 222.959,305.528 222.968,300.908L223.012,278.169L218.633,278.161L218.639,275.161L223.018,275.169L223.035,266.529L226.635,266.536L226.619,275.176L232.438,275.187L232.432,278.187L226.613,278.176L226.572,299.475C226.566,302.535 226.683,303.856 229.683,303.862C230.643,303.863 231.663,303.685 232.624,303.446L232.618,306.387Z" style="fill-rule:nonzero;"/>
            <path d="M232.618,306.387C231.778,306.565 230.217,307.102 228.477,307.099C224.937,307.092 222.959,305.528 222.968,300.908L223.012,278.169L218.633,278.161L218.639,275.161L223.018,275.169L223.035,266.529L226.635,266.536L226.619,275.176L232.438,275.187L232.432,278.187L226.613,278.176L226.572,299.475C226.566,302.535 226.683,303.856 229.683,303.862C230.643,303.863 231.663,303.685 232.624,303.446L232.618,306.387Z" style="stroke:white;stroke-width:1px;"/>
            <path d="M242.158,306.285L238.559,306.278L238.619,275.199L242.218,275.206L242.207,281.026L242.327,281.027C244.317,276.05 247.26,274.376 252.479,274.386L252.472,278.286C244.373,278.089 242.201,284.085 242.188,291.045L242.158,306.285Z" style="fill-rule:nonzero;"/>
            <path d="M242.158,306.285L238.559,306.278L238.619,275.199L242.218,275.206L242.207,281.026L242.327,281.027C244.317,276.05 247.26,274.376 252.479,274.386L252.472,278.286C244.373,278.089 242.201,284.085 242.188,291.045L242.158,306.285Z" style="stroke:white;stroke-width:1px;"/>
            <path d="M278.729,290.037C275.667,291.291 272.546,291.524 269.425,291.759C263.965,292.168 260.661,294.142 260.653,298.342C260.646,302.122 263.942,303.929 267.362,303.935C273.062,303.946 278.707,301.197 278.719,294.897L278.729,290.037ZM272.672,288.225C273.992,288.107 276.213,287.752 277.414,287.214C278.615,286.677 278.738,285.057 278.74,283.977C278.748,280.317 276.592,277.673 271.012,277.662C266.033,277.652 262.61,279.266 261.939,284.664L258.278,284.657C258.833,277.339 264.299,274.41 271.079,274.423C277.378,274.435 282.353,276.904 282.339,284.104L282.306,301.023C282.301,303.843 283.02,304.505 286.082,303.431L286.076,306.25C285.536,306.43 284.275,306.847 283.256,306.845C282.655,306.844 282.176,306.782 281.636,306.661C279.236,306.297 278.82,304.197 278.765,302.037C275.758,305.39 271.675,307.182 267.175,307.173C261.715,307.163 256.801,304.214 256.812,298.215C256.821,292.995 260.428,289.821 267.69,288.875L272.672,288.225Z" style="fill-rule:nonzero;"/>
            <path d="M278.729,290.037C275.667,291.291 272.546,291.524 269.425,291.759C263.965,292.168 260.661,294.142 260.653,298.342C260.646,302.122 263.942,303.929 267.362,303.935C273.062,303.946 278.707,301.197 278.719,294.897L278.729,290.037ZM272.672,288.225C273.992,288.107 276.213,287.752 277.414,287.214C278.615,286.677 278.738,285.057 278.74,283.977C278.748,280.317 276.592,277.673 271.012,277.662C266.033,277.652 262.61,279.266 261.939,284.664L258.278,284.657C258.833,277.339 264.299,274.41 271.079,274.423C277.378,274.435 282.353,276.904 282.339,284.104L282.306,301.023C282.301,303.843 283.02,304.505 286.082,303.431L286.076,306.25C285.536,306.43 284.275,306.847 283.256,306.845C282.655,306.844 282.176,306.782 281.636,306.661C279.236,306.297 278.82,304.197 278.765,302.037C275.758,305.39 271.675,307.182 267.175,307.173C261.715,307.163 256.801,304.214 256.812,298.215C256.821,292.995 260.428,289.821 267.69,288.875L272.672,288.225Z" style="stroke:white;stroke-width:1px;"/>
            <path d="M292.259,306.382L292.319,275.303L295.918,275.31L295.858,306.389L292.259,306.382ZM292.151,268.523L292.162,263.183L296.122,263.19L296.111,268.531L292.151,268.523Z" style="fill-rule:nonzero;"/>
            <path d="M292.259,306.382L292.319,275.303L295.918,275.31L295.858,306.389L292.259,306.382ZM292.151,268.523L292.162,263.183L296.122,263.19L296.111,268.531L292.151,268.523Z" style="stroke:white;stroke-width:1px;"/>
            <path d="M315.957,306.548C315.116,306.726 313.556,307.263 311.815,307.26C308.275,307.253 306.299,305.689 306.308,301.069L306.352,278.33L301.972,278.322L301.978,275.322L306.358,275.33L306.375,266.69L309.974,266.697L309.958,275.337L315.778,275.348L315.772,278.348L309.952,278.337L309.91,299.636C309.904,302.696 310.022,304.017 313.022,304.022C313.982,304.024 315.002,303.846 315.962,303.607L315.957,306.548Z" style="fill-rule:nonzero;"/>
            <path d="M315.957,306.548C315.116,306.726 313.556,307.263 311.815,307.26C308.275,307.253 306.299,305.689 306.308,301.069L306.352,278.33L301.972,278.322L301.978,275.322L306.358,275.33L306.375,266.69L309.974,266.697L309.958,275.337L315.778,275.348L315.772,278.348L309.952,278.337L309.91,299.636C309.904,302.696 310.022,304.017 313.022,304.022C313.982,304.024 315.002,303.846 315.962,303.607L315.957,306.548Z" style="stroke:white;stroke-width:1px;"/>
            <path d="M318.652,278.353L318.657,275.354L323.277,275.363L323.287,270.443C323.296,265.523 325.103,262.406 329.902,262.415C330.982,262.417 331.942,262.48 332.902,262.662L332.896,265.961C332.176,265.78 331.396,265.659 330.736,265.657C327.016,265.65 326.89,268.709 326.885,271.53L326.877,275.37L332.877,275.381L332.872,278.381L326.872,278.37L326.817,306.449L323.217,306.442L323.272,278.363L318.652,278.353Z" style="fill-rule:nonzero;"/>
            <path d="M318.652,278.353L318.657,275.354L323.277,275.363L323.287,270.443C323.296,265.523 325.103,262.406 329.902,262.415C330.982,262.417 331.942,262.48 332.902,262.662L332.896,265.961C332.176,265.78 331.396,265.659 330.736,265.657C327.016,265.65 326.89,268.709 326.885,271.53L326.877,275.37L332.877,275.381L332.872,278.381L326.872,278.37L326.817,306.449L323.217,306.442L323.272,278.363L318.652,278.353Z" style="stroke:white;stroke-width:1px;"/>
            <path d="M350.812,277.816C343.251,277.802 340.239,284.215 340.226,290.935C340.211,298.675 343.861,304.082 350.761,304.096C358.32,304.11 361.333,297.636 361.345,290.975C361.301,283.657 358.431,277.831 350.812,277.816ZM336.387,290.927C336.405,281.868 341.219,274.558 350.819,274.576C360.538,274.595 365.203,281.863 365.185,290.983C365.167,300.823 359.455,307.351 350.755,307.334C342.835,307.199 336.366,301.788 336.387,290.927Z" style="fill-rule:nonzero;"/>
            <path d="M350.812,277.816C343.251,277.802 340.239,284.215 340.226,290.935C340.211,298.675 343.861,304.082 350.761,304.096C358.32,304.11 361.333,297.636 361.345,290.975C361.301,283.657 358.431,277.831 350.812,277.816ZM336.387,290.927C336.405,281.868 341.219,274.558 350.819,274.576C360.538,274.595 365.203,281.863 365.185,290.983C365.167,300.823 359.455,307.351 350.755,307.334C342.835,307.199 336.366,301.788 336.387,290.927Z" style="stroke:white;stroke-width:1px;"/>
            <path d="M382.676,306.677C381.834,306.855 380.277,307.392 378.535,307.388C374.994,307.381 373.018,305.818 373.027,301.198L373.071,278.459L368.69,278.45L368.696,275.451L373.077,275.459L373.093,266.819L376.693,266.826L376.676,275.466L382.495,275.477L382.489,278.477L376.67,278.466L376.629,299.765C376.624,302.825 376.74,304.145 379.74,304.151C380.701,304.153 381.721,303.975 382.68,303.736L382.674,306.677L382.676,306.677Z" style="fill-rule:nonzero;"/>
            <path d="M382.676,306.677C381.834,306.855 380.277,307.392 378.535,307.388C374.994,307.381 373.018,305.818 373.027,301.198L373.071,278.459L368.69,278.45L368.696,275.451L373.077,275.459L373.093,266.819L376.693,266.826L376.676,275.466L382.495,275.477L382.489,278.477L376.67,278.466L376.629,299.765C376.624,302.825 376.74,304.145 379.74,304.151C380.701,304.153 381.721,303.975 382.68,303.736L382.674,306.677L382.676,306.677Z" style="stroke:white;stroke-width:1px;"/>
            <path d="M400.853,277.913C393.291,277.898 390.279,284.311 390.265,291.031C390.25,298.771 393.9,304.179 400.802,304.192C408.361,304.206 411.374,297.733 411.386,291.072C411.338,283.753 408.47,277.928 400.853,277.913ZM386.427,291.024C386.445,281.964 391.26,274.654 400.86,274.673C410.579,274.691 415.242,281.959 415.224,291.08C415.206,300.919 409.494,307.447 400.796,307.431C392.875,307.296 386.407,301.884 386.427,291.024Z" style="fill-rule:nonzero;"/>
            <path d="M400.853,277.913C393.291,277.898 390.279,284.311 390.265,291.031C390.25,298.771 393.9,304.179 400.802,304.192C408.361,304.206 411.374,297.733 411.386,291.072C411.338,283.753 408.47,277.928 400.853,277.913ZM386.427,291.024C386.445,281.964 391.26,274.654 400.86,274.673C410.579,274.691 415.242,281.959 415.224,291.08C415.206,300.919 409.494,307.447 400.796,307.431C392.875,307.296 386.407,301.884 386.427,291.024Z" style="stroke:white;stroke-width:1px;"/>
            <path d="M435.353,277.979C429.291,277.968 424.783,282.339 424.71,290.138C424.393,297.937 427.863,304.245 435.302,304.259C441.839,304.271 445.814,298.279 445.828,291.259C445.842,283.76 442.13,277.993 435.353,277.979ZM445.858,275.6L449.458,275.606L449.403,303.685C449.387,312.025 446.613,319.399 434.792,319.376C425.673,319.358 421.903,314.131 421.671,310.412L425.511,310.419C426.583,315.102 430.54,316.129 434.799,316.138C444.639,316.157 445.973,308.839 445.807,301.7C443.519,305.475 439.074,307.506 434.695,307.498C425.216,307.479 420.852,299.732 420.869,291.033C420.887,281.853 424.92,274.721 434.938,274.741C438.897,274.748 443.632,276.977 445.726,281.06L445.847,281.06L445.858,275.6Z" style="fill-rule:nonzero;"/>
            <path d="M435.353,277.979C429.291,277.968 424.783,282.339 424.71,290.138C424.393,297.937 427.863,304.245 435.302,304.259C441.839,304.271 445.814,298.279 445.828,291.259C445.842,283.76 442.13,277.993 435.353,277.979ZM445.858,275.6L449.458,275.606L449.403,303.685C449.387,312.025 446.613,319.399 434.792,319.376C425.673,319.358 421.903,314.131 421.671,310.412L425.511,310.419C426.583,315.102 430.54,316.129 434.799,316.138C444.639,316.157 445.973,308.839 445.807,301.7C443.519,305.475 439.074,307.506 434.695,307.498C425.216,307.479 420.852,299.732 420.869,291.033C420.887,281.853 424.92,274.721 434.938,274.741C438.897,274.748 443.632,276.977 445.726,281.06L445.847,281.06L445.858,275.6Z" style="stroke:white;stroke-width:1px;"/>
            <path d="M462.235,306.71L458.635,306.703L458.696,275.624L462.295,275.631L462.284,281.452L462.403,281.452C464.393,276.475 467.336,274.801 472.557,274.811L472.549,278.71C464.45,278.514 462.278,284.51 462.265,291.47L462.235,306.71Z" style="fill-rule:nonzero;"/>
            <path d="M462.235,306.71L458.635,306.703L458.696,275.624L462.295,275.631L462.284,281.452L462.403,281.452C464.393,276.475 467.336,274.801 472.557,274.811L472.549,278.71C464.45,278.514 462.278,284.51 462.265,291.47L462.235,306.71Z" style="stroke:white;stroke-width:1px;"/>
            <path d="M498.806,290.461C495.743,291.716 492.624,291.95 489.501,292.184C484.042,292.593 480.737,294.567 480.729,298.768C480.722,302.547 484.019,304.354 487.439,304.36C493.138,304.372 498.785,301.622 498.796,295.322L498.806,290.461ZM492.75,288.65C494.069,288.533 496.291,288.177 497.491,287.64C498.691,287.102 498.816,285.482 498.818,284.402C498.825,280.742 496.669,278.098 491.089,278.087C486.111,278.078 482.688,279.691 482.015,285.089L478.357,285.082C478.911,277.764 484.375,274.835 491.157,274.848C497.456,274.86 502.431,277.329 502.417,284.529L502.384,301.448C502.378,304.268 503.096,304.93 506.159,303.855L506.154,306.675C505.614,306.854 504.354,307.272 503.333,307.27C502.733,307.269 502.252,307.207 501.713,307.086C499.313,306.722 498.898,304.622 498.841,302.461C495.834,305.815 491.753,307.607 487.253,307.599C481.792,307.588 476.878,304.639 476.889,298.64C476.9,293.42 480.505,290.247 487.767,289.301L492.75,288.65Z" style="fill-rule:nonzero;"/>
            <path d="M498.806,290.461C495.743,291.716 492.624,291.95 489.501,292.184C484.042,292.593 480.737,294.567 480.729,298.768C480.722,302.547 484.019,304.354 487.439,304.36C493.138,304.372 498.785,301.622 498.796,295.322L498.806,290.461ZM492.75,288.65C494.069,288.533 496.291,288.177 497.491,287.64C498.691,287.102 498.816,285.482 498.818,284.402C498.825,280.742 496.669,278.098 491.089,278.087C486.111,278.078 482.688,279.691 482.015,285.089L478.357,285.082C478.911,277.764 484.375,274.835 491.157,274.848C497.456,274.86 502.431,277.329 502.417,284.529L502.384,301.448C502.378,304.268 503.096,304.93 506.159,303.855L506.154,306.675C505.614,306.854 504.354,307.272 503.333,307.27C502.733,307.269 502.252,307.207 501.713,307.086C499.313,306.722 498.898,304.622 498.841,302.461C495.834,305.815 491.753,307.607 487.253,307.599C481.792,307.588 476.878,304.639 476.889,298.64C476.9,293.42 480.505,290.247 487.767,289.301L492.75,288.65Z" style="stroke:white;stroke-width:1px;"/>
            <path d="M508.731,278.721L508.737,275.721L513.356,275.73L513.366,270.81C513.375,265.89 515.182,262.773 519.982,262.783C521.06,262.785 522.021,262.847 522.979,263.029L522.973,266.329C522.255,266.147 521.476,266.026 520.815,266.024C517.094,266.017 516.969,269.077 516.965,271.897L516.958,275.737L522.956,275.748L522.95,278.748L516.952,278.737L516.896,306.816L513.293,306.809L513.348,278.73L508.731,278.721Z" style="fill-rule:nonzero;"/>
            <path d="M508.731,278.721L508.737,275.721L513.356,275.73L513.366,270.81C513.375,265.89 515.182,262.773 519.982,262.783C521.06,262.785 522.021,262.847 522.979,263.029L522.973,266.329C522.255,266.147 521.476,266.026 520.815,266.024C517.094,266.017 516.969,269.077 516.965,271.897L516.958,275.737L522.956,275.748L522.95,278.748L516.952,278.737L516.896,306.816L513.293,306.809L513.348,278.73L508.731,278.721Z" style="stroke:white;stroke-width:1px;"/>
            <path d="M551.009,289.183C551.021,283.123 547.671,278.198 541.191,278.185C534.832,278.173 531.46,283.266 530.73,289.143L551.009,289.183ZM530.723,292.143C530.649,298.864 534.24,304.45 541.138,304.463C545.818,304.472 549.483,301.899 550.572,297.341L554.591,297.349C552.782,303.225 549.052,307.717 541.134,307.702C531.175,307.682 526.869,300.594 526.886,291.415C526.904,282.355 532.319,274.927 541.198,274.944C549.717,274.96 554.924,281.031 554.843,292.189L530.723,292.142L530.723,292.143Z" style="fill-rule:nonzero;"/>
            <path d="M551.009,289.183C551.021,283.123 547.671,278.198 541.191,278.185C534.832,278.173 531.46,283.266 530.73,289.143L551.009,289.183ZM530.723,292.143C530.649,298.864 534.24,304.45 541.138,304.463C545.818,304.472 549.483,301.899 550.572,297.341L554.591,297.349C552.782,303.225 549.052,307.717 541.134,307.702C531.175,307.682 526.869,300.594 526.886,291.415C526.904,282.355 532.319,274.927 541.198,274.944C549.717,274.96 554.924,281.031 554.843,292.189L530.723,292.142L530.723,292.143Z" style="stroke:white;stroke-width:1px;"/>
            <path d="M565.436,306.91L561.836,306.903L561.897,275.824L565.497,275.831L565.488,280.151C568.375,277.096 571.198,275.002 575.517,275.01C579.296,275.018 582.775,276.224 584.99,279.468C586.485,281.69 586.54,284.03 586.534,286.61L586.495,306.949L582.895,306.942L582.934,286.663C582.945,281.083 580.671,278.26 574.912,278.249C570.472,278.241 567.406,281.115 566.259,284.292C565.535,286.271 565.473,288.011 565.468,290.17L565.436,306.91Z" style="fill-rule:nonzero;"/>
            <path d="M565.436,306.91L561.836,306.903L561.897,275.824L565.497,275.831L565.488,280.151C568.375,277.096 571.198,275.002 575.517,275.01C579.296,275.018 582.775,276.224 584.99,279.468C586.485,281.69 586.54,284.03 586.534,286.61L586.495,306.949L582.895,306.942L582.934,286.663C582.945,281.083 580.671,278.26 574.912,278.249C570.472,278.241 567.406,281.115 566.259,284.292C565.535,286.271 565.473,288.011 565.468,290.17L565.436,306.91Z" style="stroke:white;stroke-width:1px;"/>
            <path d="M623.751,348.943L628.912,348.953C632.451,348.96 634.013,347.883 634.019,345.063C634.024,342.663 632.225,341.581 628.686,341.574L623.766,341.564L623.751,348.943ZM623.724,363.043L619.644,363.036L619.692,338.197L629.112,338.215C635.112,338.227 638.108,340.272 638.098,345.373C638.09,349.873 635.387,351.727 631.605,352.14L638.544,363.073L634.105,363.064L627.705,352.312L623.746,352.304L623.724,363.043ZM628.095,368.512C637.753,368.531 645.147,360.925 645.167,350.666C645.186,340.466 637.822,332.773 628.164,332.754C618.503,332.736 611.11,340.401 611.09,350.601C611.071,360.859 618.435,368.494 628.095,368.512ZM628.171,328.913C639.99,328.935 650.232,337.895 650.208,350.675C650.183,363.455 639.906,372.373 628.087,372.351C616.267,372.329 606.025,363.369 606.049,350.59C606.074,337.81 616.351,328.89 628.171,328.913Z" style="fill-rule:nonzero;"/>
            <path d="M687.815,348.999C687.453,536.863 534.864,688.863 347.001,688.499C159.136,688.136 7.137,535.548 7.5,347.685C7.863,159.821 160.45,7.823 348.315,8.186C536.177,8.549 688.178,161.135 687.815,348.999Z" style="fill:none;stroke:black;stroke-width:15px;"/>
        </g>
    </g>
</svg>
