<?xml version="1.0" encoding="UTF-8"?>
<svg id="Ebene_1" data-name="Ebene 1" xmlns="http://www.w3.org/2000/svg" version="1.1" viewBox="0 0 1024 214">
  <defs>
    <style>
      .cls-1 {
        fill: #d4af37;
        stroke-width: 0px;
      }
    </style>
  </defs>
  <path class="cls-1" d="M201.2,0c2.7,1.2,4.7,3.7,3.4,6.6-1.2,2.8-2.3,5.3-3.4,7.6-.3.7-.2,1.5.4,2,3.9,3.8,5.1,8.6,3.5,14.3-1.5,5.6-3.2,10.6-5.2,15-6,13.5-13.4,26-22,37.6-1,1.4-2.7,3.2-5.1,5.5-.9.8-2,1.1-3.1.4-5.3-3.5-5.6-7.5-4.5-13.5.6-3.2,1.1-5.4,1.5-6.5,4.3-13.1,9.9-26.2,16.9-39.5,2-3.9,4-7.7,5.9-11.5,0,0,0-.3,0-.4h-.2c-13.3,2.3-26.3,7.8-38.6,14.7-14.3,8-28,17.3-40.6,27.8-32.2,26.7-59.6,57.6-82.3,92.4-6.6,10.1-11.9,20.3-16,30.5-1.4,3.6-5.3,17.1-1.2,19.5,1.1.7,2.4,1.2,3.9,1.4,4.8,1,9.6,1.1,14.4.6,15-1.8,31.7-6.2,47.2-11.9,31.7-11.6,64-23.4,96.6-33.5,17.2-5.3,34.4-10.1,52.2-12.3,6.7-.8,12.7-.3,18.1,1.6,2.6.9,5.4,2,8.4,3.2,1.3.5,2.3,1.4,3,2.7,0,.3,0,.6-.2.7h-.4c-6.7-1.5-12.3-2.1-19.5-1.1-26.3,3.6-52,11-77.2,20-26.2,9.3-52.9,18.8-79.9,28.4-14.9,5.3-30.1,9.2-45.7,11.7h-7.1c-1.3-.4-2.6-.7-3.9-1-10.1-2-17.2-8.7-19.5-18.7-.3-1.4-.7-2.8-1-4.2v-3.4c.5-2,1-4.1,1.4-6.1,2.1-8.8,6.3-17.2,11.3-25.4,4.2-7,8.5-13.5,13-19.6,23.8-32.7,50.7-60.7,80.7-84.1,21.2-16.5,42.2-29.7,67.5-36.9,6.2-1.8,12.3-2.6,18.1-2.6s1.4-.4,1.9-1L201.2,0h.3-.3ZM201.6,20.7c0-1.2-.7-1.8-1.7-2.5-.2,0-.5,0-.6,0h0c-9.8,19.9-19.5,40.2-26.8,61-.8,2.2-.3,2.4,1.3.8,3-3.1,5.8-6.4,8.3-10,7-9.9,12.7-20.4,17-31.4,2.4-6.1,3.2-12.1,2.5-18.1v.2Z"/>
  <path class="cls-1" d="M665,179.3c13-19.1,25.4-37.3,37.1-54.5,14.3-21,27.4-38.9,39.5-53.8,5.6-7,19-23.1,40-48.5.5-.6,1.1-.7,1.7-.2,0,0,.2,0,.3.2.7.7.7,1.5,0,2.3-10.7,14-21.8,28.4-33.2,43.2-30.5,39.5-58.5,79.3-84,119.6-1.9,3.1-4.3,6.4-7.1,10-1.2,1.5-2.3,1.4-3.6.4-2.9-2-3.9-4.4-3.1-7.3,4-14.3,8.3-27.8,13.2-41.7,7.7-21.6,14.4-42.9,20.2-63.8,4.5-16.2,9-33.1,6.6-49.6-.6-3.9-3.4-5.5-7-6.1-3.9-.6-7.7-.7-11.3-.4-9.8.8-20.6,2.2-29.6,3.8-30.9,5.5-61.1,13-91.3,21.2-3.8,1-6.4,1.4-7.8,1.1-3.2-.6-5.4-2.7-6.6-6.3-.3-1,.2-2.1,1.2-2.4h.2c4.5-1,8.8-2,12.8-2.7,36.9-7.1,67.5-12.7,91.6-16.9,6.8-1.2,13.7-2.2,20.8-3.1,8.3-1,13.6-1.4,15.8-1,11.7,1.7,18.7,12,19.5,23.3.5,7.5-.2,15.6-2.2,24.3-4.4,19.5-10.6,40.4-18.5,62.7-5.4,15.2-10.7,30.3-15.9,45.4v.8c0,0,.2.2.3,0h.3Z"/>
  <path class="cls-1" d="M249.3,111.7c-7.1,7.4-15.6,14.7-24.3,19.2-4.9,2.5-11.4,5.2-15.3-.9-1-1.6-1.5-3.5-3.2-4.5-1.5-.9-2.8-2.1-4.1-3.5-.5-.5-.6-1.3-.3-1.9l.2-.5c.2-.6.6-.8,1.2-.3l2.1,1.6c.8.6,2,.5,2.6-.4,0,0,.2-.3.2-.4,3-7.3,7.3-12.7,14.2-17.2,4.7-3,9.3-4,13,1.3,1.5,2.2,1.6,4.4.3,6.7-4.5,7.9-12.1,11.6-20.2,15.1-1.6.7-2.3,1.8-2.1,3.5,0,.4.3.7.7.8,6.7.8,16.5-5.4,21.7-9.9,5.7-5,12-11.2,18.8-18.7,1-1.1,1.8-2.3,2.5-3.5,5.5-10.6,10.9-20.9,16.2-31,1.2-2.2,2.6-4.4,4.2-6.6.4-.5,1.1-.7,1.7-.4,2.5,1.4,5.2,3.9,3.5,7-9.3,16.9-18.4,33.3-27.3,49.3-.4.8-.8,1.6-1.1,2.3-.4,1-.2,1.1.6.4,3.6-3.4,7.5-7,11.9-10.8,2.1-1.8,5.8-4.5,8.6-2.7,3.1,1.9,4.8,5,3.9,8.5-.3.9-.4,1.9-.5,2.8,0,0,0,.2.2.2h0l18.7-13.4c.3-.2.4-.4.4-.8s0-.9-.2-1.3c-.7-1.5-.4-3.3.6-4.6,1.5-1.9,6.3-7.1,9.2-6.8,2.4.2,4.9,2.7,3.4,5-1.2,1.8-4.7,4.9-6.8,6.3-.2.2-.3.5,0,.7h0c2.9,2.1,6.3,4.7,5.6,8.6-1,5-5.1,11.1-7.5,16.2-.3.6-.2.7.4.4,4.8-3.1,9.2-6.3,13.4-9.5,1.7-1.3,3.2-3.5,4.2-5.5,2.4-5.1,5.9-9.6,10.4-13.2,6.2-5.1,13-2.8,15.1,4.8,0,.3.5.5.8.5,0,0,0,0,.2,0l1.7-1.3c.2-.2.5-.2.8-.2,2.9.8,4.6,3.6,3.3,6.5-1.3,2.8-2.5,5.6-3.7,8.3-.2.4-.3.8-.3,1.3,0,.8.2.9.7.4,6-5.5,10.4-11.5,15.2-17.9,8.1-10.8,14.2-22.9,19.9-35.2,0-.3,0-.6-.2-.7h-.4c-17.7,4.9-35.8,9.7-54.4,14.6-2.1.5-4.4,1.1-7.1,1.7-2.5.6-4.6,0-6.4-2,0,0-.6-.6-1.3-1.4-1.8-1.9-1.4-3.1,1.1-3.7,23.1-5.4,46.3-10.2,69.8-14.6,1.6-.3,2.7-.9,3.5-2.4,4.9-9.2,9.5-17.5,13.8-25,.7-1.3,1.6-2.5,2.6-3.6.5-.5,1.3-.7,1.9-.3,2.3,1.3,5.6,4.1,3.9,7.2-3.6,6.5-7.4,13.3-11.4,20.6,0,.3,0,.6.2.7h.4l39.6-7.4c.8,0,1.6.2,2.1.8v.2c.6.7.5,1.1-.4,1.3-18.7,4.2-33.2,7.5-43.4,9.9-1.1.3-1.9.9-2.5,1.9-10.4,18.7-21,38-32,57.9-10.5,19.1-18.4,37.4-26.6,56.8-.3.6-.7.7-1.2.3l-.2-.2c-.5-.4-.7-1.1-.5-1.8,7.7-20.9,14.9-39.1,21.7-54.8,2.5-5.9,5.7-12.3,9.4-19.2h0c0,0-.2,0-.2,0-.2-.2-.3-.2-.4,0-5.2,6.7-10.1,12.7-14.8,17.9-1.3,1.5-4.4,3-5.7.5-1.1-2.1.4-6.9.9-9,.2-1,0-1.1-.8-.5-5.4,4.5-11.2,9.4-17.3,14.7-1.8,1.6-4.6,3.9-7.1,2.5-3.1-1.8-4.3-4.7-3.8-8.5,0-.5,0-.6-.5-.3l-14.9,11.6c-.7.5-1.5.6-2.3.2-2.3-1.1-3.5-3.3-2.8-5.9,1.6-6,4.5-11.5,7.3-17.3.3-.7,0-1.5-.6-1.8l-2.6-1.5c-.3-.2-.6-.2-.9,0-.5.2-1,.4-1.4.7-6.8,4.6-13.5,9.2-20.1,13.8-3,2.1-4.9,4.8-7.5,7.2-4.1,3.7-8.2,6.9-12.2,9.7-.4.3-.8.4-1.3.4-1.2,0-2-.4-2.4-1.2-.3-.8-.2-1.6.4-2.2,4.1-4,9.4-7,12.6-11.6,2.3-3.2,4.1-6.8,5.4-10.9,0-.2,0-.5-.3-.6h-.3c-.7.2-1.4.6-2,1-7.8,5.3-15.1,11.1-21.8,17.3-.3.3-.8.4-1.2.2-3.3-1.4-3.2-4.2-2-7.1,1.4-3.2,2.8-6.5,4.2-9.9.6-1.6.4-1.7-.8-.5l-.3-.3ZM325.1,123.1l14-11.7c1.1-.9,1.7-2.2,1.8-3.6v-2.9c0-1.2-.7-1.4-1.6-.7-6.3,5-11.1,11-14.5,18.1-.2.3,0,.6.2.8h.2,0ZM230.7,107.7c-.4-.4-3,1.4-5.8,4s-4.8,5.1-4.4,5.5c.4.4,3-1.4,5.8-4s4.8-5.1,4.4-5.5Z"/>
  <path class="cls-1" d="M187.3,120.1c-3.7,3.7-7.4,7.2-11,10.5-5.1,4.5-18,14.2-24.7,10-1.8-1.1-3.2-2.7-4.4-4.7-.3-.5-.8-.6-1.3-.4-4.7,2.3-9.3,3.7-13.8,4.4-3.9.6-6.7-.7-8.3-3.8-.3-.6,0-1.4.5-1.8.2,0,.3,0,.5,0,6.8-.5,13.3-1.9,19.7-4.3.8-.3,1.4-.9,1.5-1.7,2.2-9.9,8-18.1,17.3-24.4,4.5-3.1,8.5-2.5,11.9,1.8,1.7,2.1,1.8,4.2.2,6.4-3.1,4.4-6.8,8.5-11.1,11.7-3.1,2.3-6.5,4.8-10.3,7.5-2.2,1.5-3,3.5-2.3,5.8.2.7.9,1.2,1.7,1.2,8.9-.3,17.2-5.2,23.5-11.3,5.3-5.1,9.7-9.7,13.4-13.8,1.1-1.2,2-2.6,2.9-4.2,9.6-18.1,19.2-36.2,28.6-54.2.8-1.5,1.8-1.7,3.2-.6l1.6,1.4c1.6,1.3,1.9,2.9,1.1,4.8-7.5,16.1-14.8,30.1-21.9,42-8.2,13.9-14.8,25.5-20.6,39.5-.2.4-.6.6-1.1.4,0,0-.2,0-.2,0-.7-.6-1-1.4-.9-2.4.9-6.4,2.5-12.7,4.6-19.1.2-.6,0-.6-.3-.2v-.3ZM157.9,122.3c.6.6,4-2,7.6-5.8h0c3.6-3.8,6-7.3,5.4-7.8-.6-.6-4,2-7.6,5.8h0c-3.6,3.8-6,7.3-5.4,7.8Z"/>
  <path class="cls-1" d="M409.9,106c0,0,0-.2-.3-.2h0c-8.1,7.2-16.2,14.4-24.2,21.6-1.4,1.2-5.1,4.1-7,2.9-2.9-1.8-4-4.6-3.3-8.3,1.2-6.4,4.9-12.9,8.8-18,1.2-1.6,2.5-1.7,4-.3l1.7,1.7c1.6,1.5,1.8,3.2.6,5-3.2,4.9-6.1,9.7-8.8,14.2-.2.4-.4.8-.5,1.2-.3,1.1,0,1.3.9.6,5.2-4,10.3-7.8,15.1-12.4,5.6-5.3,11.6-11.3,18.1-17.9.6-.6,1.1-1.1,1.7-1.7.7-.6,1.5-.7,2.2,0,4.7,3.4,2.7,6.5.6,10.3-1.9,3.3-3.7,6.6-5.5,10h.2c.2.3.4.3.5,0,2.6-3.1,5.3-6,8.1-8.9,2.6-2.6,5.5.9,4.6,3.6-.5,1.5-1.1,3-1.7,4.6-.6,1.4-.2,1.7,1.1,1,4.1-2.3,7.4-3.3,10.2-7.4,2.6-3.9,5.8-7.9,9.4-10.7,5.3-4,10.5,0,12.9,4.8.3.5.9.8,1.4.7,3.4-.6,5.8,2.4,6.9,5.2,0,.2.3.3.5.2h0c12.8-10.1,25.7-20.2,38.9-30.4,1.4-1.1,2.7-1.7,3.7-2,.9-.2,1.9,0,2.6.7,1,.8,1.7,1.8,2.1,2.8.4,1.1,0,1.7-1,2-1.4.3-2.8.9-4.1,1.9-14.3,9.7-28.2,18.9-41.4,30-1.6,1.3-2.8,2.9-3.6,4.9-9.9,22-21.5,42.5-34.9,61.7-4.3,6.1-14,19.5-22.2,18.8-7.5-.7-6.7-11-5.2-15.7,2-6.4,5-12.6,9.2-18.5,11.4-16.1,27.2-31.4,42.7-44.8,3.1-2.7,4.2-5.6,5.4-9.2.3-1,0-1.2-.8-.6-6.5,4.6-13.2,9.4-20,14.4-1.1.8-2.3,1-3.4.4-3-1.5-4.2-3.9-3.7-7.3,0-1-.2-1.1-.9-.6-2.4,1.8-8.6,5.9-10.8,1.5-.4-.9-.8-1.8-1.1-2.7,0,0-.2-.2-.3-.2h0l-13.2,13.1c-.3.3-.8.4-1.2.2-4.4-2.4-3.5-6-1.5-9.8,2.2-4.1,4.3-8.1,6.5-12.1,0-.2.2-.4,0-.7v.5ZM440.1,117.9v.4c0,.2.2.3.4.2h0c4.9-4,9.9-8.1,15.1-12.1.9-.7,1.1-2.1.3-3.1,0,0,0-.2-.3-.4-.5-.7-1.5-.8-2.2-.3h0c-5.1,4.5-9.3,9.1-12.6,13.8-.3.4-.5.9-.7,1.3v.2ZM452.7,126.9c-11.9,10.3-22.1,20.5-30.6,30.6-7,8.4-19.3,24.5-17.7,35.8.9,6.6,9,.7,11.1-1.3,2.7-2.5,5.1-5.2,7.1-8.1,12.2-17.3,21.1-36.5,30.3-56.1,0-.3.2-.6,0-.9,0-.2,0-.2-.3,0h0Z"/>
  <path class="cls-1" d="M786.3,117.6c.6-.7,1-1.5,1.5-2.2,8.1-10.1,15.8-19.5,23.2-28.4.3-.3.6-.6,1-.8.6-.3.9-.2,1,0,.2.7.2,1.3,0,1.7-10.7,14.6-21.1,29-31.1,43.2-.6.8-1.3.9-2.1.3-2.8-2-3.8-4.5-3.1-7.5,1.2-5,2.2-9.9,3.2-14.8.2-1.2,0-1.4-1.1-.7-2.5,1.6-4.7,3.6-6.7,5.8-3.6,4-7.1,8.1-10.4,12.1-.9,1.1-1.9,1.2-2.9.2-1.6-1.6-2.1-3.4-1.3-5.3,2.7-7.2,5.4-13.6,8-19,0-.3,0-.7-.3-.8h-.4c-5.1.8-10.2,1.8-15.1,3.2-.3,0-.4.4-.3.6h0c1.6,2.8,1.8,5.5.5,8.3-3.2,6.8-9,13.8-15.9,17.2-1.3.6-2.8,0-3.9-.7-3.5-2.6-5.1-6.3-4-10.6,1.6-6.6,4.9-12.4,9.9-17.4,3.4-3.3,5.2-3.1,8.4.2.6.6,1.5.8,2.3.5,5.4-1.9,10.7-3.8,15.7-5.5,2.7-.9,5.2-.5,7.3,1.4,3,2.5,2.7,5.7,2,9.3-.3,1.4,0,1.6.9.4,1.2-1.7,5.9-7.4,8.4-5.9,6.1,3.6,4.9,8.9,4.3,14.8,0,1.2.2,1.3.9.4h.2ZM735.5,124.5c5.9-3.3,10.1-7.9,12.7-13.8.6-1.3.7-3,0-4.3-.3-.6-1.1-.8-1.7-.6-1.5.6-2.7,1.5-3.6,2.7-3,4.5-6.3,9.6-9.6,15.3-.6,1-.3,1.6.9,1.6s.3-.2.7-.5c.2-.2.5-.4.7-.5h-.1Z"/>
  <path class="cls-1" d="M390.7,90.3c5.5-1.1,10.6-2.2,15.3-3.2.6,0,1.3,0,1.8.5.8.8,1,1.6.6,2.3,0,.2-.3.4-.6.5-4.8,2.1-9.6,4.2-14.1,6.1-2.8,1.2-5.6-1.4-6.5-3.7-.3-.7,0-1.4.7-1.7h0c.8-.3,1.7-.5,2.7-.7h0Z"/>
  <path class="cls-1" d="M823.3,106.3c-8.4,7.6-16.8,14.8-25.2,21.8-1.3,1-2.5,1-3.7,0-1.7-1.6-2.2-3.1-.2-4.7,7-5.6,13.5-10.9,19.5-15.9,2.4-2,4.6-4,6.7-6.2.6-.6,1.1-1.5,1.1-2.3.2-4.2,2.3-7.4,6.1-9.5,1.8-1,3.5-.9,5.1.5,2.1,1.9,2.6,3.6.3,5.6-4.3,3.8-5.8,7.1-4.5,9.7,2.3,4.6,4.8,9,7.2,13.3.2.3.5.5.9.5l50.9-4.4c.9,0,1.6.3,2.1,1,0,0,.2.2.2.4.5.8.3,1.2-.6,1.3-3.6.4-7.5.9-11.5,1.5-19.4,2.8-39.2,5.8-59.4,8.8-2.1.3-3.8-.2-5.4-1.7-.5-.4-.9-.9-1.2-1.5-1-1.7-.5-2.7,1.5-2.9,4.3-.5,8.7-1.5,13.3-3,1.1-.4,2.1-.9,2.9-1.5.6-.5.8-1.5.3-2.1l-5.6-8.4c-.3-.4-.6-.5-1,0h.2Z"/>
  <path class="cls-1" d="M575.8,119.8c0,0,0,.2.2.2h.2l16.7-16c.4-.4,1-.5,1.5-.2,3.8,1.8,4.7,4.8,2.8,8.9-1,2.2-2,4.4-2.9,6.6-.8,2-.3,2.4,1.4,1.1,6.7-4.9,12.2-11.1,16.6-18.5.3-.4.5-.9.6-1.3s0-.9,0-1.2c-.7-1.5-.7-3,.3-4.6,1.3-2.2,2.9-2.5,5-.9,1.9,1.5,1.8,2.6,1.8,4.8s.2.6.5.7c4.7,1.8,9.7,5,10,10.3.2,4.2-2.6,8.7-4.2,12.6,0,.3,0,.6.3.7h.3c2.3-.6,4.5-1,6.8-1.6,7.8-2.2,15.5-4.4,23.1-6.7.8-.2,1.6,0,2.2.6,0,0,0,.2,0,.3,0,.6,0,1.1-.7,1.3-8.1,3.4-15.8,6.5-23.1,9.4-2.6,1-5.3,1.9-8.1,2.7-4.1,1.2-6.5.4-9.1-2.8-1.9-2.3-2.1-4.7-.8-7.3,2.1-4.1,4.1-8.2,5.8-12.1.2-.5,0-1.1-.5-1.4h0l-6.4-2.2c-.4,0-.9,0-1.1.3-6,7.9-12.3,14.9-19.2,21.2-1,.9-2.1,1.1-3.3.6-4.7-2-4.7-6.3-3.9-10.6.2-.9,0-1.1-.8-.5-5.2,4.6-10.3,9.1-15.3,13.7-.8.8-1.9,1.2-3,.6-3.3-2.1-4.1-5.2-2.4-9.3,2.1-5,4.4-10,7-15.3.2-.3,0-.7-.3-.8h-.3c-6,.7-11.8,1.7-17.4,3-.4,0-.5.3-.3.7,1.7,3.5,1.4,6.9-.9,10.2-3,4.2-7,9-11.3,12.4-2.7,2.1-6.3,1.9-8.3-.9-5.8-7.7,1.3-19.5,7-25.4,1.2-1.2,2.4-2.2,3.7-3,3.2-1.9,4.4,4.3,8.1,3.4,5.7-1.5,11.6-3.1,17.6-4.8,2.7-.8,5-.3,6.8,1.5,3.4,3.1,3.6,6.8,1.5,10.8-1.3,2.6-2.6,5.1-3.9,7.7-.2.4-.3.8-.3,1.2h0ZM540.7,125c5.2-3.3,9.2-7.5,11.8-12.8.9-1.9,2.1-6.3-1.7-5.6-.7,0-1.4.6-1.8,1.2-2.9,5.1-5.7,10-8.4,14.7-.4.6-.6,1.3-.6,2.1s.2.7.7.4Z"/>
  <path class="cls-1" d="M526,104.7c0,0,0-.2-.2-.2h0c-8.5,5.6-16.1,13.1-23.5,19.9-1.3,1.2-2.6,2.3-4,3.3-1,.7-1.9.9-2.8.4-4.6-2.5-4.2-6.6-2.4-10.6,1.8-4.1,3.7-8,5.8-11.9.8-1.5,1.8-1.6,3.1-.5.6.5,1.2,1.1,1.7,1.7.9,1.1,1.1,2.6.5,3.9-1.6,3.3-3.6,6.6-5,10-.6,1.4-.3,1.6.8.6,8.8-8.1,17.7-15.9,26.5-23.3,1-.9,2.1-1,3.2-.5,3.3,1.6,5.2,5.2,4.1,8.7-1.5,5-3.4,10.1-5.7,14.9-9.2,19.4-18.5,38.9-27.7,58.4-3.2,6.8-5.9,14-8,21.7,0,.4-.4.6-.8.6-.7,0-1.1-.7-1.3-2.1v-.4c1.6-16.2,7.9-30.9,14.8-46.3,7.5-16.8,14.3-32.2,20.5-46.2.3-.7.5-1.4.5-2.1Z"/>
</svg>