<?xml version="1.0" encoding="UTF-8"?>
<svg id="Ebene_1" data-name="Ebene 1" xmlns="http://www.w3.org/2000/svg" version="1.1" viewBox="0 0 1024 214">
  <defs>
    <style>
      .cls-1 {
        fill: #f67a18;
        stroke-width: 0px;
      }
    </style>
  </defs>
  <path class="cls-1" d="M0,188.7v-3.2c.4-1.2.8-2.4,1-3.7,1.6-8.1,5.9-16.4,10.4-23.4,5.3-8.3,11.1-16.2,17.4-23.9,28.9-35,61.4-64.4,97.5-88.1,24.7-16.2,48.9-28.5,76.3-33.6,4.5-.8,9-1.2,13.5-1,.9,0,1.8-.4,2.4-1.1l7.3-10c.4-.6,1.2-.8,1.9-.5,2,.9,4.4,3.4,3.3,5.9-1.3,2.8-2.7,5.7-4.2,8.5-.3.5-.2,1.1.3,1.5,10.7,9,.1,26.3-5,35.3-6.6,11.6-13.5,21.8-20.8,30.5-2.2,2.7-4.8,5.2-7.8,7.4-.6.4-1.3.5-2,.2-8.2-4.2-6.7-10.2-4.5-18.1.9-3.1,2-6.3,3.3-9.5,6.5-15.5,14.6-29.9,23.2-43.8.1-.2,0-.6-.2-.7-.1,0-.2,0-.4,0-11,1.8-21.9,5-32.6,9.6-21.1,9-41.9,21.3-62.5,36.9-33.1,25.1-61.7,53.8-85.7,86.1-7.8,10.5-14.1,20.9-18.9,31.2-1.8,4-6.3,18-1.4,20.1,5.1,2.2,12.1,2.5,17.4,2.2,5.9-.3,12.7-1.2,20.3-2.6,10.9-2,20.6-4.4,29.4-7.1,44-13.5,91.5-29.1,137.1-39.7,12.9-3,26-5.5,38.9-6.2,9.4-.5,18.1,2.1,27,6.1.9.4,1.5,1,1.9,1.9.2.3,0,.7-.3.9-.1,0-.3,0-.4,0-6.9-1.3-13-2.2-20.3-1.4-26.6,3-52.7,8.6-79,16.5-25.4,7.6-51.8,15.7-79.4,24.4-21.2,6.7-42.8,13.2-64.8,16-10.3,1.3-21.2.7-29.9-5.6-5.6-4.1-9-10.1-10.1-18ZM195.3,80.6c10.5-9.7,18.7-21.5,25.9-35,4.2-7.9,7.3-16.1,6.1-25-.2-1.2-.8-2-2-2.2-.3,0-.6,0-.7.3-11.7,21.1-22.6,40.7-30.9,61.9,0,.2,0,.5.3.6.1,0,.2,0,.3,0,.4-.1.7-.3,1-.6Z"/>
  <path class="cls-1" d="M786.6,213.8h-1.5c-2.1-1.1-3.6-2.6-4.4-4.4-.6-1.3-.7-3.1-.2-5.2,1.2-5,2.4-9.1,3.6-12.4,8.2-22.1,16.2-44.1,24-65.9,8.6-24.2,17.3-50.9,20-75.4.5-4.5.3-8.3-.6-12.8-.8-3.4-2.9-5.4-6.4-5.8-8-1-16.4-1.1-25.1-.1-41.2,4.6-80.9,13.3-123.5,24.1-5.2,1.3-8.9,1.9-12.9-2.6-1-1.1-1.7-2.4-1.9-3.8-.1-1,.5-1.9,1.4-2.2,2.8-.7,5.6-1.3,8.5-1.8,33.2-5.4,66.8-10.8,100.7-16.3,12.1-1.9,23.3-3.4,33.5-4.5,5.4-.5,9.8-.7,13-.4,9,.9,16.2,7.3,19.6,15.7,3.5,8.9,2.6,20.9.6,29.8-3.9,17.9-9.4,36.6-16.5,55.9-7.5,20.5-15.8,42.6-25,66.3,0,.2,0,.3,0,.5.2.2.4.2.6,0,13.1-18.3,26.3-36.7,39.6-55.2,29.4-40.9,60-75.2,92-111.2.5-.6,1.2-.8,2-.4.2,0,.4.2.5.4.5.9.5,1.7-.2,2.5-14.3,17.5-28.5,35-42.8,52.5-32.2,39.5-61.7,79.1-88.4,118.8-3.5,5.2-6.9,9.8-10.3,13.8Z"/>
  <path class="cls-1" d="M731.8,138.8c.2-1.6-.2-1.8-1.1-.4-5.4,8.6-11.1,16.2-17.1,22.9-1.6,1.7-3.4,3.3-5.6,4.8-3.3,2.2-5.9-3.2-5.8-5.6,0-3.7.8-7.2,2-10.5,7-18.5,15.5-38.9,25.4-61.4.2-.4,0-.8-.4-.9-.1,0-.2,0-.3,0l-26.4,1.9c-2.6.2-4.7-.6-6.6-2.4-.6-.6-1.1-1.3-1.6-2.1-1.1-1.9-.5-2.9,1.7-2.9l34.8-.4c1.1,0,2-.6,2.4-1.6,3-7,6.2-14.1,9.8-21.4,1.3-2.7,3.3-2.1,5-.1,1.3,1.6,1.6,3.4.8,5.3l-6.9,17.2c-.2.4,0,.9.5,1.1,0,0,.2,0,.3,0l12.3.5c.8,0,1.6-.4,1.9-1.1l4.4-8.9c1-2.1,2.3-2.3,3.9-.5.1.1.2.2.3.3,1.7,1.8,2,3.8.9,6-.5,1.1-1,2.2-1.4,3.3-.4,1.1,0,1.5,1.2,1.4,2.3-.4,4,0,5.1,1.3,1,1.1.8,1.7-.8,1.8l-6.2.2c-.9,0-1.7.6-2.1,1.4l-22.1,45.7c-1.5,3-1,3.3,1.3.9,6-6.3,12.3-13.5,18.8-21.6.6-.7,1.3-.9,2.1-.5,6.2,3,3.4,8.2,1.3,12.6-.2.4,0,.8.4,1,.1,0,.3,0,.5,0l30.5-7c.9-.2,1.6,0,2.2.8,0,.1.2.3.2.5.1.7-.1,1.1-.8,1.3-8.6,2.9-17.4,6-26.2,9.1-5.7,2-10.9,2.4-13.7-3.6-.4-.9-1-1-1.7-.3-5.1,5.3-10.2,10.5-15.5,15.5-1,.9-2,1.7-3.2,2.3-.4.2-.8.2-1.2,0-2.5-1.3-3.6-3.2-3.4-5.7ZM732.9,131.6c1-1.7,1.9-3.3,2.7-5,5.4-10.9,11.6-24,18.4-39.2.3-.6,0-.9-.5-.8l-12.4.3c-1,0-2,.6-2.4,1.6-9.9,22.1-20.3,45.4-31.1,69.8-.6,1.3-.9,2.6-1,4,0,.2.1.3.3.3,0,0,.2,0,.2,0,10.7-8.5,18.6-19.4,25.6-31Z"/>
  <path class="cls-1" d="M185.6,130.4c-.5,1.2-.3,1.3.6.5l11.8-10.9c.8-.7,1.6-.8,2.5-.3,3.2,1.9,4.1,4.4,2.9,7.6-.8,2.2-1.8,4.5-2.8,6.7-.9,1.9-.4,2.2,1.3,1.2l10.4-6.4c.9-.6,1.7-1.4,2.1-2.4,3.2-7,7.4-12.8,14-16.5,6.8-3.8,14.3,2.8,10.5,9.9-2.5,4.7-10.3,13.6-16.4,10.2-.4-.2-1,0-1.2.3,0,0,0,.1,0,.2l-2.1,7.2c-.1.5.1,1,.6,1.1,0,0,.2,0,.3,0,1.3,0,2.5-.3,3.7-.9,9-4.3,16.7-9.5,23-15.5,4.6-4.4,9.2-8.7,13.9-13.1.2-.2.6-.3.9-.1,4.1,2.2,5.2,5.5,3.2,9.9-1.3,2.9-2.5,5.7-3.8,8.4-.9,1.8-.6,2,.9.7,3.1-3,6.7-6.1,10.8-9.3.3-.3.7-.3,1.1-.2,6.3,1.8,2.9,9.4,1.2,13.1-.7,1.5-.4,1.7.8.6l14.2-13.4c.6-.6,1.5-.7,2.2-.3,5.6,3,3.1,7.3,2.5,11.9,0,.2.1.5.4.5,0,0,.2,0,.3,0l15.8-8.7c1-.5,1.8-1.3,2.4-2.2,3.3-4.6,8.8-13,15.3-12.8,4.2.1,6.8,2.3,7.9,6.4.5,2,1.2,3.9,2.2,5.8,1.8,3.4-1.1,8.1-2.2,11.5-.3.9,0,1.1.8.7,4.6-2.5,9.5-5.8,11.7-10.6,4.9-10.4,9.6-20.2,14.1-29.4.4-.7.1-1.1-.7-1-10.5,1.3-21.1,2.5-31.8,3.7-7.3.8-14.6,1.2-18.1-6.8-.4-.9,0-1.9.9-2.2.1,0,.2,0,.4-.1,1.6-.3,3.7,0,5.2.4,3.2,1,6.2,1.4,9.2,1.2,12.3-.8,24.7-1.7,37.2-2.7,1.2,0,2.2-.7,2.8-1.7,3.1-5.2,6.2-10.4,9.5-15.7,2.1-3.4,4.5-6.3,7.4-8.8,1.5-1.3,3.3-.1,4.5.9,2.8,2.2,3,4.7,1.6,7.8-2.3,5.1-4.8,10.1-7.4,15-.5.9-.2,1.2.8,1.1,4.9-.5,9.7-.8,14.4-.9,11.4-.3,23.3,1,34.7,1.8.3,0,.6.2.9.4.4.3.6.7.6,1.1,0,.5-.1.7-.6.7-9.4-.2-18.9-.5-28.1.2-8.6.6-17.2,1.4-25.8,2.5-.8,0-1.4.5-1.9,1.1-4.3,5.9-8.8,11.9-13.4,18.1-2.5,3.3-4.8,7-6.8,11.2-4.7,9.3-9.2,18.4-13.8,27.3-.9,1.7-.4,2.2,1.3,1.3.6-.3,1.3-.8,1.9-1.3,12.8-11.3,24.5-23,35.3-34.9.7-.8,1.8-.9,2.6-.3l4.5,3.2c.9.6,2,.9,3,.7,8.2-1.6,16.6-3.2,25-4.8,1.4-.3,3.7-1,6.8-2.1,1.4-.5,2.7-.4,3.9.4,1.8,1.1,2.8,3,.4,4.2-5.7,2.9-10.2,6.9-13.8,12.1-1.3,1.9-1,2.1.7.6,4.1-3.4,8.4-6.7,12.7-9.9,6.3-4.7,10.4-.4,12,5.5,0,.2.2.3.4.2,0,0,.1,0,.2-.1,1.8-2,3.6-4.1,5.4-6.2,1.5-1.8,3.2-3.1,2.7-5.6-.5-2.6,1.9-6.7,4.9-4.9,2.5,1.5,3.2,3.1,3.9,5.6.1.4.5.8.9.9,4.2,1.3,8.2,5,8.6,9.4.2,3.1-2,7.5-3.3,10.6-.7,1.5-.3,1.8,1,.8,4.4-3.2,8.9-6.3,13.5-9.3,4-2.6,6.9-5.5,9.7-9.1,1-1.3,2.4-2.4,4.4-3.4,4.2-2.1,9,2.6,10.3,6,.2.4.2.8.2,1.2,0,.3,0,.6.1.8.1.4.5.6.9.5l1.4-.4c.4-.1.7,0,1,0,2.8,1.4,3.2,4.3,2,7-1.1,2.6-2.1,5-2.9,7.3-.1.4-.2.8,0,1.2,0,.2.3.4.5.3,0,0,0,0,.1,0,9.2-5.7,15.9-15.3,21.6-24.7,1.2-1.9,2.6-2.1,4.2-.6l.7.7c1.8,1.7,2.2,3.7,1.1,6l-7.1,14.7c-.9,2-.5,2.3,1.2,1.1,9.6-6.7,18-12.6,21.7-24.6,1.2-3.8-.3-6.3-4-7.6-12.2-4.3-28-2-40.2,2.3-2,.7-3.5,0-4.4-1.8l-.4-.8c-.6-1.2,0-2.7,1.2-3.3,0,0,0,0,0,0,4-1.9,8.6-3.1,13.9-3.6,9.8-1,18.8-.2,26.9,2.5,6.8,2.2,13.2,8.4,10.9,16.3-.8,2.8-2,5.2-3.7,7.3-7.1,9-15.8,15.3-26.1,19.2-.8.3-1.3.8-1.8,1.5-12.1,22-23.4,42.9-34.2,62.7-.4.7-.9.8-1.5.2,0,0-.2-.2-.3-.3-.8-.7-.9-1.6-.5-2.6,10.7-24.4,20.7-47.5,32.6-70.4.1-.3.2-.6.1-.9,0-.1-.2-.2-.3-.2,0,0,0,0-.1,0-2.9,2.9-6,5.5-9.3,8-.9.7-2.2,1.4-3.3,1.2-4.5-.7-3.5-7.4-2.6-10.4.1-.4,0-.8,0-1.2,0-.2-.3-.3-.6-.2,0,0,0,0-.1,0-5.8,4.5-11.5,9.2-17.4,13.9-.9.7-1.8.8-2.8.3-5.6-2.9-3.8-8.1-2.3-12.7,0-.2,0-.3-.2-.4,0,0-.2,0-.3,0-6.3,5-12.8,10.1-19.5,15.2-.9.7-1.8.8-2.8.1-2.8-1.9-4.1-4.5-2.7-7.7,2-4.9,4-9.9,5.9-14.9.2-.5,0-1.1-.6-1.3,0,0,0,0,0,0l-6.9-2.1c-.4-.1-.8,0-1.2.3-3.7,3.5-7.5,7.1-11.3,10.8-.5.5-.9,1.1-1.3,1.8-5.3,11.5-11.3,21.9-17.9,31.2-8.9,12.4-16.9,23.1-24.1,32-2.8,3.4-6.4,6.9-11,10.5-2.8,2.2-8.4,4.3-10.3-.2-2.5-6,7.3-19.1,11.1-23.4,9.7-11.1,19.5-21.5,29.5-31.2,8.2-8.1,13.4-15.1,16.5-25.4.5-1.5,0-1.8-1.3-1-6.2,4.1-12.5,8.1-18.8,12.2-1.3.8-2.5.9-3.7,0-6.4-4.3-.5-11.8,3-15.5,1.5-1.5,1.2-2-.9-1.4-4.6,1.4-9.5,2.7-14.6,4-.6.1-.9.7-.9,1.3.9,7.3-4.9,12.3-10.2,16.8-2.1,1.7-5.6,4.2-8.2,2.6-4.1-2.5-5.5-6.2-4.4-11,.4-1.7,0-2-1.4-.8-7.4,6.4-15.3,13.3-23.6,20.6-2.2,1.9-6.5,3.4-7.2-1.1-.8-5.2,1.8-11.2,3.4-16.2,0,0,0-.2,0-.3,0-.4-.1-.5-.4-.5,0,0-.1,0-.2.1-2.2,2.2-6.6,5.8-9.9,3.8-2.7-1.7-2.8-4.2-2.8-7.1,0-.7-.3-.8-.8-.3-5.3,4.7-10.4,9.3-15.3,13.7-.9.8-1.9.8-2.9.2-5.4-3.5-4.5-7.9-2.7-13.1.5-1.3.1-1.6-1.1-.8-4.5,3.1-9,6.1-13.8,8.8-1.1.6-2.4.6-3.4-.1-2.9-2.2-3.9-5.1-2.9-8.5.5-1.7,0-2-1.3-.8-4.7,4-9.1,7.9-13.4,11.9-1.7,1.6-3.8,2.5-5.5.4-2.5-3.3.5-9.4,2.2-12.8.6-1.2.3-1.6-1-1,0,0-.4.3-1,.9-5.2,4.7-10.2,9.4-15.1,14.1-.8.7-1.6.8-2.4.2-2.4-1.7-3.1-3.9-2-6.6,1.6-3.7,3.2-7.3,4.8-10.8.7-1.6.5-1.8-.8-.5-7.6,7.7-15.9,15.4-25.1,20.5-7.9,4.3-14.2-2.3-15.1-9.7,0-.3-.3-.5-.5-.4,0,0-.2,0-.2,0-2.9,2-5.9,4-9,5.9-6,3.7-10.6-2.2-8.6-7.8.8-2.2.2-2.6-1.6-1.1-5.5,4.6-11.2,9.7-17.4,15.3-.9.8-1.7.8-2.6,0-1.8-1.7-2.2-3.7-.9-6,2.8-5.3,5.7-10.8,8.8-16.3.3-.5.4-.9.5-1.4.1-.6-.1-.8-.7-.4-14.3,9.1-28.4,18.6-42.4,28.5-1.2.9-2.9,1.6-4.3.7-5.7-3.5-2.8-9.1,0-13.1,4.5-6.5,9-13,13.6-19.3,1.3-1.8,2.7-1.9,4.2-.3.4.5.9.9,1.3,1.4,1.5,1.6,1.6,3.3.3,5.2-4.8,6.4-9.3,12.5-13.6,18.1-.4.6-.8,1.2-1.1,1.9-.4.9-.2,1.1.7.6,13.9-8.4,27.5-17.8,40.8-28.1,1.5-1.2,4.2-3.7,6.3-2.4,2.7,1.7,3.9,3.7,3.7,5.9-.4,3.2-3.2,7.1-4.6,10.2ZM381,77.8c-1.1,1.3-2,2.9-2.4,4.5-.3,1.1-.1,1.1.5.2.9-1.3,1.6-2.9,2-4.7,0-.2,0-.2-.1,0ZM372.7,93.3c.2,0,.7-.6,1.2-1.6,0,0,0,0,0,0,.5-1,.8-1.8.6-1.9-.2,0-.7.6-1.2,1.6,0,0,0,0,0,0-.5,1-.8,1.8-.6,1.9ZM234.9,114.9c-.6-.6-3.3,1.1-6,3.8-2.7,2.7-4.4,5.4-3.8,6,.6.6,3.3-1.1,6-3.8,2.7-2.7,4.4-5.4,3.8-6ZM318.9,132.4c3.1-3.3,6.5-6.6,10-9.9,1.9-1.8,2.9-4.1,2.7-6.6,0-.2-.2-.4-.5-.4,0,0-.2,0-.2,0-5.6,4.5-10.1,10.2-13.5,17.2,0,.2,0,.3,0,.5.2.3.5.4.7,0,.2-.3.5-.6.7-.9ZM488.8,130l.2.2c.1.2.3.2.5,0l10.1-7.6c.3-.2.4-.5.5-.8.2-1.1,0-2.2-.8-3.3-.2-.3-.4-.3-.7-.1-2,1.8-3.7,3.7-4.9,5.8-1.3,2.3-3.3,3.7-4.9,5.7,0,0,0,0,0,.1ZM389.6,120.4c-.6-.2-1.1,0-1.5.5-2.7,4-5.2,8.3-7.5,12.9-1,2-.5,2.4,1.4,1.3,5.3-2.9,9.1-6.8,11.2-11.5.6-1.2.2-2.1-1.1-2.5l-2.4-.7ZM418,152.6c1.4-2.3,2.9-4.7,4.5-7.2.1-.2.2-.4,0-.6,0-.1-.1-.2-.2-.2-.2,0-.5,0-.6.1-14.1,14.7-28.6,29-39.7,45.9-1.5,2.3-2.7,5.2-3.7,8.7-.1.5-.1,1,0,1.4.2.8,1.1,1.2,1.9,1,.1,0,.2,0,.3-.1,3.6-2.2,6.8-4.5,9.5-7.8,10.6-12.7,19.2-26,28-41Z"/>
  <path class="cls-1" d="M880.5,129.1c0-.1-.1-.2-.2-.2,0,0,0,0-.1,0-4.5,5.1-9.2,10-14.3,14.6-1.2,1.1-2.9,1.5-4.3.5-4.1-2.7-5.3-6.5-3.8-11.6,2.2-7.5,6.6-13.8,13.2-19,1.2-.9,2.4-1.5,3.7-1.7,3-.5,6.8,4,8.3,6.2.3.5.9.7,1.5.6.5-.1.9-.2,1.4-.3,2.9-.4,3.9,3.5,3.3,5.5-1,3.4-2,6.9-3,10.4-.5,1.6,0,1.9,1.4,1.1,11.2-6.7,20.8-19.4,26-30.9,5.9-13,12.5-27.6,19.6-43.8,1.2-2.7,2.7-2.9,4.7-.7.2.3.5.5.8.8,2.2,1.8,2.8,4,1.6,6.6l-52,113.8c-.3.6-.6.7-1.1.3l-.6-.4c-.5-.4-.8-1.1-.5-1.7,6-18.8,12.9-38,20.6-57.6,0-.1,0-.2-.1-.3-.2,0-.3,0-.4,0-4,5.8-9.3,11.6-16,17.3-5,4.3-10.6-2.4-9.5-7.2.2-.9.2-1.7,0-2.5ZM876.2,120.5c-5.5,5.1-9.5,10.8-12,17.1-.4,1-.1,1.2.8.8.5-.2.9-.5,1.2-.9,3.7-3.7,7.4-7.3,11.1-10.8,1.1-1.1,1.6-2.7,1.2-4.2,0-.4-.2-.8-.2-1.2-.2-1.8-.9-2.1-2.2-.8Z"/>
  <path class="cls-1" d="M556.6,132.5c0,.4.2.5.5.1,4.3-5,8.8-11.1,13.9-15.6.6-.5,1.4-.5,2,0,2.6,2,3.7,4.5,3.2,7.5,0,.4.2.7.6.8.1,0,.3,0,.4,0,1.1-.5,2.1-1.1,2.9-1.7,5.5-4,11-8.4,16.6-13.1,1.6-1.3,3.2-1.3,4.8,0,5.6,4.5,1.5,10.1-.6,15-.9,2.2-.6,2.4,1.1.7l21.4-22.1c.5-.5,1.2-.6,1.7-.2,3.8,2.2,4.7,5.2,2.6,9.2-13.9,26.3-25.5,49.2-34.8,68.6-.8,1.6-1.4,3.3-1.9,5.2-.2.6-.8,1-1.5.9,0,0,0,0-.1,0-3.2-1.3-3-4.2-2-6.9,7.6-21,17.5-41.8,28.4-61.7.1-.3,0-.5-.2-.6-.2-.1-.4,0-.6,0-6.8,6.6-13.6,12.9-20.3,19-.3.3-.7.3-1,.1-3.9-2.1-5.1-5.2-3.6-9.2,1.1-3,2.3-5.9,3.7-8.9.2-.5,0-.8-.5-.8-.2,0-.4,0-.5.1-5.8,4.6-10.2,7.7-13.3,9.3-4.5,2.4-7-1-8.2-5.1-.2-.6-.4-.6-.9-.2-6.3,5.9-12.6,12.4-18.8,19.4-.6.7-1.7.7-2.3.1,0,0,0,0,0,0-1.6-1.6-1.9-3.5-.9-5.9,9.4-21.2,20.3-44.8,32.9-71.1.9-1.9,2-2,3.4-.5.4.4,1,1.1,1.8,1.9,1.3,1.4,1.8,3.4,1.2,5.2-2,6.2-3.5,10.2-4.6,12.2-8,15-16.7,31-26.1,47.9-.1.2-.2.4-.2.6Z"/>
  <path class="cls-1" d="M703,100.3c-.9-.5-1.6-1.1-2.1-1.9-.8-1.5-.4-2.6,1.3-3.1,2.1-.7,6.4-.8,8.2,1.1.4.4.4,1,0,1.4,0,0,0,0,0,0-1.4,1.2-3,2.1-4.9,2.7-.8.3-1.7.2-2.5-.2Z"/>
  <path class="cls-1" d="M153.5,105.2l6.7-2.3c.7-.2,1.4-.1,2,.3l1.7,1.3c.9.7,1.1,2,.4,3-.2.2-.4.4-.6.6l-5.5,3.2c-.7.4-1.7.4-2.3-.1l-2.8-2.1c-.9-.7-1.1-2-.4-3,.3-.3.6-.6,1-.8Z"/>
  <path class="cls-1" d="M669.3,131.3c-.3,1.4,0,1.5.8.3,4.5-6.3,9.1-12.4,13.9-18.3,2.3-2.9,5.2-5.5,8.1-7.9.3-.2.8-.2,1,.1,0,0,0,0,0,0,.3.4.3,1,0,1.5-.5,1-1.1,2-1.8,2.9-7.7,10-16.1,20.8-25.1,32.4-1.1,1.4-2.3,1.5-3.6.2-2.3-2.3-1.5-5.6-.5-8.3,2.2-6.4,4.4-12.8,6.7-19.1.6-1.7.3-2-1.1-.7-6.1,5.8-12.2,11.8-18.3,18.1-.8.8-1.9,1.4-3.1.8-3.6-2.2-4-5.2-2.5-8.7,2.5-5.9,6-11,10.3-15.4.9-.9,1.9-1.1,3.1-.4,2.9,1.7,2.3,3.7.8,6.2-1.2,1.9-2.3,3.9-3.5,6-1.3,2.3-1,2.6.9.7,3.1-3.1,6.7-6.6,10.8-10.6,1.1-1.1,2.2-2,3.3-2.6.9-.6,2-.5,2.8.2,2.6,2.1,3.3,4.8,2.2,8.2-1.5,4.5-3,8.8-4.7,12.8-.2.5-.4,1-.5,1.6Z"/>
  <path class="cls-1" d="M691.7,126.3c2.1-5.6,4.7-11.6,7.6-18,.9-2,2.1-2.2,3.7-.7l.9.9c1.5,1.5,1.9,3.2,1.1,5.2-3.7,9.2-7.7,17.4-11.9,24.8-.3.6-1.1.8-1.6.4-.2,0-.3-.2-.4-.4-2.4-3.6-.8-8.4.6-12.2Z"/>
  <path class="cls-1" d="M931.9,131.6c4.7-4.5,9.4-9,14.1-13.5.5-.5,1.1-.9,1.7-1.1.3-.1.7-.1,1,0,6.7,3.9,3.3,10.2,2.7,16,0,.5.3,1,.8,1,0,0,0,0,.1,0,3.3-.1,6.5-.9,9.6-2.4.3-.2.5-.5.4-.9-1.6-8.9,1.5-15.7,9.4-20.4,4.4-2.6,8.8-1.7,11.7,2.7,3,4.5.3,6.6-3.1,10-3.1,3.2-6.6,6.1-10.4,8.6-.4.3-.5.8-.3,1.2.1.2.3.3.5.4,11.9,2.8,25.3.5,37.1-3.5,4.7-1.6,9.3-2.9,13.9-3.9.9-.2,1.6,0,2.1.7.6.7.5,1.7-.2,2.2,0,0,0,0-.1,0-2.5,1.8-5.2,3.1-8,4.2-11.7,4.2-25.5,7.8-37.5,7.2-4.7-.2-8.8-1.8-12.1-4.9-.3-.3-.7-.3-1.1-.1-4.6,2.4-11,6-15.4,1-2.4-2.7-3.5-6-3.4-9.9,0-.8-.3-.9-.9-.4-6.2,5.4-12.7,11.5-19.5,18.3-.7.7-1.7.8-2.5.3-5.9-3.8-2.6-10.2-.3-15.8,1.1-2.7,4.5-9,10.1-18.8,1.1-1.9,2.3-2,3.7-.3.5.7,1.1,1.3,1.6,2,1.4,1.7,1.6,3.5.6,5.4l-7.1,14.2c-.9,1.8-.6,2,.8.6ZM971.3,125.3c.4.4,2.4-1.3,4.5-3.7,0,0,0,0,0,0,2.1-2.4,3.4-4.6,3-5-.4-.4-2.4,1.3-4.5,3.7-2.1,2.4-3.4,4.6-3,5Z"/>
</svg>