<?xml version="1.0" encoding="UTF-8" standalone="no"?>
<!DOCTYPE svg PUBLIC "-//W3C//DTD SVG 1.1//EN" "http://www.w3.org/Graphics/SVG/1.1/DTD/svg11.dtd">
<svg width="100%" height="100%" viewBox="0 0 1024 214" version="1.1" xmlns="http://www.w3.org/2000/svg" xmlns:xlink="http://www.w3.org/1999/xlink" xml:space="preserve" xmlns:serif="http://www.serif.com/" style="fill-rule:evenodd;clip-rule:evenodd;stroke-linejoin:round;stroke-miterlimit:2;">
    <g transform="matrix(1,0,0,1,117.671,0)">
        <path d="M575.2,0C577.5,0.9 582.8,4.2 580.6,6.9C578.8,9.1 577,11 575.2,12.8C542.1,45 511.6,80.9 483.8,120.6C468.4,142.6 452.6,165.5 436.4,189.4C432.1,195.8 427.4,202.2 422.5,208.2C419.7,211.6 416.5,207.8 415.5,205.2C415.1,204.1 415.1,202.7 415.4,201C416.7,193.7 418.5,186.5 420.7,179.3C428.5,153.8 436,129.2 443.4,105.4C445.5,98.7 447.4,91.8 449.1,84.6C450.8,77.6 451.5,71.1 451.3,65C451.2,62.5 450,61.1 447.7,60.6C437.6,58.6 427.1,59.6 416.8,60.8C390.4,64 365.7,69.5 338.7,75.7C337.6,76 336.7,76.6 336.2,77.7C320.2,110.6 303.9,144.1 287.3,178.3C287.2,178.5 287,178.6 286.8,178.6C286.4,178.6 286,178.3 285.7,178C285.3,177.6 285.2,177 285.4,176.5L323,87.8C323.9,85.6 323.7,85.4 322.3,87.4C315.8,96.4 308.9,105.5 301.6,114.7C298.7,118.4 295.4,121.4 291.9,124.3C290.4,125.6 288.8,125.6 287.3,124.3C285.1,122.4 285.9,118.8 286,116.1C286,115.5 285.8,115.4 285.3,115.8C280.6,120 275.8,124.5 271,129.4C270.4,130 269.3,130.9 267.8,131.9C267.6,132.1 267.3,132.1 267.1,132.1C263.5,131.9 261.1,128.6 262.1,125.2C262.8,122.8 263.5,120.5 264.3,118.1C264.5,117.5 264.3,117.4 263.9,117.8C258,122.2 252,126.4 246,130.2C243.3,131.9 240.6,132.9 238,133C234.8,133.2 232.8,131.7 230.4,129.6C230.2,129.4 229.9,129.4 229.7,129.6C226.4,131.8 222.8,133.6 218.9,135.2C215.1,136.8 210.8,136.1 208.2,132.8C205.5,129.3 206.9,125.4 208.4,121.1C209.2,118.8 209.9,116.5 210.5,114.2C210.7,113.6 210.3,112.9 209.7,112.6L205.7,110.9C205.4,110.9 205.2,110.9 205,111.1C196.1,122 186.3,133.6 175.6,145.9C174.2,147.5 172.5,147.9 170.6,146.9C170.5,146.9 170.4,146.8 170.3,146.7C168.8,145.2 168.8,143.7 170.2,142.1C180.9,130.4 191.3,118.7 201.3,106.8C201.5,106.5 201.7,106.2 201.7,105.8C202.1,102.9 203.9,100.3 207.1,98.1C208.2,97.4 209.4,97.5 210.7,98.4C214.1,100.9 210.4,104.5 208.7,106.7C208.5,106.9 208.6,107.2 208.7,107.3C211,109 213,110.6 214.8,112.2C216.6,113.9 217.1,116.1 216.2,118.8C214.8,123 213.3,127.4 211.8,132.1C211.8,132.2 211.8,132.3 211.9,132.4C214.1,132.3 216.2,132.1 218.3,131.3C221.4,130.1 224.2,128.8 227,127.4C229.8,126 227.9,126.4 227.7,125.8C224.2,115.5 236.6,104.6 244.7,100.5C249,98.3 252.9,99.3 255.4,103.4C257.3,106.5 253.1,110.7 250.9,112.5C244.9,117.5 239.2,122.3 233.9,126.8C233.3,127.3 233.2,128.1 233.7,128.7C234.1,129.2 234.7,129.5 235.4,129.5C238.2,129.5 241.3,129.2 243.8,127.7C251.3,123.4 258.1,119.2 264.2,115C267.2,112.9 269.8,110.3 272.2,107.5C274.3,105.1 276.9,103 279.9,101.2C281.8,100.1 283.7,100.3 285.6,101.6C288.2,103.4 290.8,106.5 288.4,109.6C288.2,109.8 288.3,110.2 288.4,110.3C290.5,111.7 291.2,113.6 290.6,116.1C290,118.2 289.4,120.4 288.8,122.5C288.8,122.5 288.8,122.7 288.9,122.8L289.1,122.8C291,121.9 292.7,120.9 294.3,119.5C299.5,114.7 304.4,109.2 308.9,103C314.1,95.7 319.3,87.8 324.5,79.3C324.6,79 324.5,78.9 324.3,79C315.6,80.4 307.4,81.7 298.6,81.1C294.6,80.8 290.7,79.5 288,76.3C287.5,75.7 287.1,74.9 287.1,74.1C287.1,73.3 287.4,72.8 288.3,72.8C296.3,73.2 304.3,72.8 312.4,71.3C318.2,70.3 323.9,69.3 329.5,68.3C330.6,68.1 331.6,67.4 332.1,66.3C336,58.5 340,50.6 344.2,42.7C345.6,40 349.6,43.9 350.2,45.3C350.7,46.2 350.6,47.3 350.1,48.5C347.8,53.6 345.3,59 342.5,64.8C342.2,65.5 342.4,65.8 343.2,65.7C362.2,61.9 380.6,58.8 398.7,56.7C412.1,55.1 425.2,54.2 438.3,54.6C450.8,55 458.6,62.1 458.3,75.4C458.2,79.3 457.8,83.1 457.1,86.7C454.6,99 451,112.3 446.2,126.7C438.9,148.8 431.2,172.1 423.3,196.5C422.5,199.1 422.8,199.3 424.4,197.1C437,179.7 449.7,161.9 462.5,143.7C483.4,114 505.2,85.6 526.3,59.4C541,41.2 554.5,24.2 566.8,8.3C568.9,5.6 571.7,2 574.7,0.6L574.9,0.6L575.2,0ZM235.9,120.7C241.4,117.1 246.6,112 250.2,106.1C250.5,105.6 250.4,105.5 249.9,105.8C244,109.3 239.2,114.1 235.6,120.4C235.3,120.9 235.4,121 235.9,120.7ZM271.9,121.3C271.9,121.3 271.8,121.6 271.7,121.7C271.7,122.033 271.833,122.1 272.1,121.9L283.8,111C284.4,110.4 284.7,109.7 284.7,108.8L284.7,107.9C284.6,107 284.2,106.9 283.6,107.4C279.2,111.2 275.3,115.8 271.9,121.2L271.9,121.3Z" style="fill-rule:nonzero;"/>
    </g>
    <g transform="matrix(1,0,0,1,117.671,0)">
        <path d="M35.2,214L27.3,214C21.7,213.4 16.6,211.8 12.2,209.1C5.4,205 1.4,199 0,191.2L0,188.3C1.5,180.8 3.8,174.1 7.2,168.2C11.9,159.8 18.1,150.9 25.7,141.5C36.2,128.5 48,115.7 61.1,103.1C86.7,78.4 114.2,57.6 143.6,40.7C160.9,30.8 178.2,23.7 195.5,19.4C202.4,17.7 209.2,16.8 216,16.8C222.8,16.8 217.9,16.3 218.5,15.4C221.4,11.3 223.6,8.3 225.2,6.4C227.4,3.7 232.3,8.1 230.8,11.3C229.5,14.1 228.2,16.6 226.9,19C226.6,19.6 226.7,20.3 227.2,20.8C232,25 233.2,29.4 231.2,35.5C229.2,41.7 226.5,47.9 223,54.2C216.6,65.6 209.5,75.9 201.8,85C199.7,87.5 197.3,89.7 194.8,91.6C193.9,92.3 192.9,92.4 191.9,91.9C186,89 185.1,84.4 186.7,78.2C187.8,73.9 189.2,69.7 190.8,65.8C196.8,51.2 205.2,36.7 213.8,22.7L213.8,22.3L213.6,22.3C196.4,25 180.1,31.4 164.2,39.6C151.8,46 140.1,53 129.2,60.5C102.6,78.9 78,100.5 55.5,125.2C45.4,136.3 36.1,147.8 27.7,159.8C22.3,167.5 17.7,175.4 13.9,183.7C11.7,188.5 10.6,193.5 10.5,198.6C10.5,202.1 12.5,203.4 15.6,204C21.3,205.1 26.5,205.4 31.2,204.9C54.6,202.7 77.1,196.1 100,188.8C138.7,176.4 178,164.2 216.5,154.6C226.2,152.2 236.8,150.1 248.3,148.5C256.1,147.4 264.4,146.7 272,148.5C276.2,149.5 280.4,150.9 284.8,152.5C286,152.9 286.9,153.7 287.5,154.8C287.6,155 287.5,155.4 287.3,155.5L286.9,155.5C283.2,154.8 279.3,154.3 275.4,154C272.3,153.7 267.1,154.1 259.7,155.2C226.8,159.8 191.5,169.6 158.9,179.8C135.9,187 112.9,194.3 90.1,201.6C79.3,205.1 68.3,207.9 57.3,210.3C51.5,211.5 44.3,212.7 35.5,213.9L35.2,213.9L35.2,214ZM207,55.7C202.4,64.5 198,73.8 194.4,83.2C193.9,84.5 194.2,84.7 195.3,83.9C197.7,82 200.1,79.8 202.3,77.3C211.1,67.4 218.5,56.1 224.2,43.6C227,37.5 228,31.5 227.1,25.4C226.9,24.2 226.2,23.5 225,23.2C224.7,23.2 224.5,23.2 224.3,23.5C218.4,33.9 212.6,44.7 206.9,55.8L207,55.8L207,55.7Z" style="fill-rule:nonzero;"/>
    </g>
    <g transform="matrix(1,0,0,1,117.671,0)">
        <path d="M595.2,97.4C595.2,96.9 595.2,96.9 594.8,97.4C589.4,105.6 583.1,112.6 575.4,120.8C574,122.3 572.4,123.3 570.7,124.4C569.5,125.2 568.1,125.4 566.8,124.6C563.7,122.7 562.4,119.8 563.1,115.8C563.1,115.6 563.1,115.5 562.8,115.4L562.6,115.4C562,115.8 561.4,116.3 560.8,116.8C555.3,122 550.1,127.1 545.2,132.1C544.9,132.4 544.4,132.6 543.9,132.4C542.5,131.9 541.5,131 541,129.7C540.4,128.2 541.2,126 541.7,124.6C543.5,119.8 545.4,115 547.6,110.1C548.2,108.7 547.9,108.5 546.8,109.5C538.3,116.6 530,123.5 522,130C520.3,131.4 518.4,132.3 516.5,133.3C511.7,135.8 507.2,134.7 504.8,130C504.1,128.6 503.4,126.6 501.4,126.7C498.1,126.9 495.6,125.5 493.9,122.5C493.7,122.1 493.9,121.6 494.2,121.4L494.6,121.4L502.1,121.6C502.9,121.6 503.7,121.1 503.9,120.3C506.3,112.2 511.8,104.4 519.8,101.5C524.6,99.7 530,104 527,109.3C523.6,115.1 518.2,120.4 512,123.6C509.7,124.8 508,127.2 508.5,129.9C508.7,130.9 509.6,131.5 510.6,131.4C519.3,130.5 526.4,125.1 532.3,119C537.8,113.3 543.5,107.5 549.2,101.5C550.1,100.6 551.1,100.4 552.3,101C558.1,104.1 556.1,108.6 554.2,113.1C553.1,115.8 551.9,118.5 550.8,121.2L550.8,121.5L551,121.5C555.3,117.1 559.7,112.6 564.3,107.9C566.7,105.4 570.3,110.1 570.6,112.1C570.9,114.5 569.2,118 568.5,120.6C568.2,121.6 568.5,121.8 569.4,121.3C572.6,119.5 575.6,117.4 578.3,114.8C587.9,105.6 595.8,92.8 602.4,80.6L602.4,80.2L601.6,80.2C589,82 576.7,84 564.9,86C559.7,86.9 555.9,86.5 552.7,81.8C552.4,81.3 552.2,80.9 552.1,80.4C552.1,79.6 552.5,78.8 553.3,78.6C555.9,78.1 558.4,77.8 561.1,77.9C565.1,78.1 569.3,77.9 573.8,77.6C583.4,76.7 593.1,75.8 602.9,74.8C604,74.8 605,74 605.4,72.9C609.1,63.7 612.8,54.8 616.5,46.3C617.4,44.1 619.8,44 621.5,45.3C624.3,47.4 624.5,50.1 623.1,53.2C620.1,59.7 617.1,66.3 614.1,73C613.9,73.4 614.1,73.6 614.5,73.6L616.7,73.6C636.9,71.5 657.1,69.4 677.2,67.2C677.9,67.2 678.5,67.4 679,67.9L679.5,68.6C679.9,69 679.8,69.3 679.2,69.4C658,72.4 636.7,75.3 615.2,78.2C612.9,78.5 611.1,79.5 610.1,81.8C593.7,120.5 577.1,159.4 560.3,198.6C560.1,199.1 559.7,199.2 559.2,199L558.3,198.4C557.8,198.1 557.5,197.4 557.7,196.8C570.3,163.8 582.9,131 595.4,98.4L595.4,97.8L595.2,97.8L595.2,97.4ZM512.7,117.6C517.6,115.3 522,110.1 524.3,105.3L524.3,105L524.1,105C518.8,106.9 514.1,112.4 512.2,117.2C512,117.8 512.2,118 512.7,117.7L512.8,117.7L512.7,117.6Z" style="fill-rule:nonzero;"/>
    </g>
    <g transform="matrix(1,0,0,1,117.671,0)">
        <path d="M351.7,83C352,83 352.3,83 352.5,83.2L354.4,85.1C354.6,85.3 354.6,85.6 354.4,85.8C353.9,86.4 353.3,87 352.6,87.4C349.2,89.4 345.7,91.4 342.3,93.4C340,94.7 336.1,90.7 335.7,88.6C335.5,87.7 336.1,86.8 337,86.6L351.6,83L351.7,83Z" style="fill-rule:nonzero;"/>
    </g>
    <g transform="matrix(1,0,0,1,117.671,0)">
        <path d="M357.4,104.7C357.8,103.6 357.5,103.4 356.7,104.2C348.9,111.4 341,118.8 333.2,126.3C332.4,127.1 331.4,127.7 330.3,128.2C330.1,128.2 329.8,128.3 329.5,128.2C319.3,125.4 330.3,109.1 333.8,104.9C335,103.4 336.4,103.2 338,104.4L338.9,105.1C340.5,106.3 340.8,107.8 339.7,109.5L331.9,121.9C330.7,123.8 331,124.1 332.8,122.7C341.4,116.3 349,107.6 356,99.1C356.9,98 357.9,96.9 359,95.9C359.2,95.7 359.5,95.6 359.8,95.6C360.6,95.6 361.3,95.8 362,96.3C364.6,98.1 365.7,100.3 365.4,102.7C365.1,105.3 364.3,108.1 363.2,111.1C361.1,116.6 358.4,123.2 355.1,130.8C354.1,133.3 354.3,133.4 355.9,131.3C358.9,127.2 361.8,123.3 364.8,119.7C372.8,109.9 380.9,100 389.2,90.1C389.5,89.7 390.1,89.7 390.4,90.1C390.4,90.1 390.6,90.3 390.6,90.4L390.6,91.1C390.6,91.3 390.4,91.5 390.3,91.7C378.1,107.4 366.2,122.9 354.6,138C353.7,139.2 352.7,140.3 351.7,141.3C350.7,142.3 350.4,141.9 349.8,141.5C346.9,139.8 347.2,137.5 348.1,134.5C349.4,129.8 350.7,125 352.2,120.4C354,114.9 355.8,109.7 357.5,104.7L357.4,104.7Z" style="fill-rule:nonzero;"/>
    </g>
    <g transform="matrix(1,0,0,1,117.671,0)">
        <path d="M657.5,128.9C662.9,128.3 668.3,125.4 673.2,122.9C673.8,122.6 674.1,121.9 674.1,121.3C673.3,113.1 678.8,106 685.1,101.2C688.6,98.6 691.9,97 695.3,101.2C697.9,104.3 695.1,106.9 693.3,109.2C689.5,114 685,118 679.9,121.2C678.4,122.1 678.1,124.6 679.9,125.5C680.5,125.8 681.2,125.9 682,125.8C685.8,125.2 689.2,124.1 692.3,122.4C698.4,119 704.5,114.5 710.6,108.8C711.6,107.9 712.3,106.7 712.6,105.4C713.5,101.5 715.9,98.5 719.4,96.2C719.7,96 720.1,95.9 720.5,96C722.6,96.3 725.9,98.7 724.2,101.3C722.7,103.6 721.3,105.9 720,108.3C718,111.9 718.6,114.5 721.4,117.2C723.1,118.9 724.6,120.8 725.9,122.9C726.2,123.5 726.9,123.8 727.5,123.7C746.5,122 765.5,120.1 784.6,117.9C785.6,117.9 786.5,117.9 787.4,118.5C788.3,119 788.3,119.4 787.2,119.5C761.4,123.5 735.4,127.1 709.5,130.3C707.3,130.6 705.4,129.9 703.8,128.4C703.5,128.1 703.1,127.7 702.9,127.3C701.6,125.5 702,124.4 704.2,124.1C709.6,123.4 715.2,122.7 720.3,121.1C720.6,121.1 720.7,120.8 720.3,120.5C717.3,117.5 714.1,114.4 712.5,110.3C712.5,110 712.2,110 712,110.3C705,115.8 697.7,121 690,125.8C687.2,127.6 684.4,128.5 681.6,128.5C678.8,128.5 677,126.9 675.4,124.8C675.2,124.6 675,124.5 674.7,124.8C670.3,127.1 665.7,129.9 661,131.5C656.9,132.9 652.4,131.1 651.8,126.5C651.8,125.3 651.8,123.8 652.4,121.9C653.4,118.5 654.5,115.1 655.7,111.9C656,111.1 655.7,110.2 655,109.7L652.7,108C652.4,107.8 652.2,107.8 652,108C645.3,114.8 637.6,122.2 629,130.3C627.9,131.4 626.4,132 624.9,131.4C621.4,130 621.1,127.4 621.8,123.9C622.4,120.5 623.1,117.3 623.9,114.3C624.1,113.7 623.9,113.6 623.5,114C617.3,119.9 611.2,126 605.2,132C604.5,132.7 603.5,133.3 602.5,132.9C598.2,131.5 598.6,126.5 600.1,123.3C602.6,117.9 605.2,112.4 607.9,106.9C609.1,104.4 611.7,106.4 613,107.6C614.7,109.2 615,111 613.8,113C611,117.7 608.1,122.6 605.2,127.6L605.2,128L605.6,128C607.7,126.1 609.8,124.2 611.8,122.1C616.9,116.6 621.9,111 626.8,105.5C627.2,105 627.9,104.8 628.5,105C630.8,105.7 632.5,107.7 631.9,110.3C631.6,111.4 631.3,112.4 630.9,113.4C629.1,117.9 627.2,122.6 625.3,127.2C624.8,128.5 625.3,128.8 626.4,128.3C628,127.6 629.7,126.5 631.6,124.8C638.1,119.1 643.9,112.2 649.1,104.2C650,102.8 650.2,101.2 650.9,99.7C652.5,96.2 655.6,98.8 657.1,100.6C658.1,101.8 658.4,103.4 657.6,104.7C657.4,105.1 657.3,105.5 657.3,105.9C657.3,106.3 657.3,106.5 657.7,106.7C662.4,110.2 663.4,114.1 660.8,119.4C659.3,122.6 658,125.6 656.9,128.5C656.9,128.9 656.9,129 657.3,129L657.3,129.2L657.5,128.9ZM681.5,116.9C686,113.6 690,109.6 692.1,104.6C692.3,104.2 692.1,104.1 691.8,104.3C687.4,106.7 683.4,112.2 681.2,116.7C681,117.1 681.2,117.2 681.4,116.9L681.5,116.9Z" style="fill-rule:nonzero;"/>
    </g>
    <g transform="matrix(1,0,0,1,117.671,0)">
        <path d="M382.4,123.8C381.9,125 381.7,126.3 381.7,127.5C381.7,128.7 382.5,129.3 383.5,129.4C392.5,129.9 400.2,126.8 407.6,122.2C414.9,117.6 422.6,112.6 430.8,107.2C431.3,106.9 431.9,106.7 432.6,106.7C433.3,106.7 432.9,106.7 433.1,106.9C433.3,107.1 433.3,107.3 433.1,107.5C423.2,114.4 413.3,120.8 403.2,126.6C398.3,129.5 393.6,131.1 388.3,132.3C382.9,133.5 378,129.9 376.8,124.7C375.3,118.7 380.5,112.4 384.4,108.4C387.4,105.3 394.4,99.1 398.8,100.9C401.2,101.9 404.3,104.7 403.2,107.6C402.7,109 401.8,110.4 400.7,111.8C395.9,117.7 390,121.5 383.2,123.1C382.9,123.1 382.7,123.3 382.6,123.6L382.4,123.8ZM386.7,115.8C386.7,115.8 386.6,116 386.5,116.1C386.3,116.5 386.5,116.6 386.8,116.4C391.7,114.3 395.4,111.1 397.9,106.7C398.5,105.6 398.3,105.4 397.2,106C392.9,108.3 389.9,111.9 386.7,115.8Z" style="fill-rule:nonzero;"/>
    </g>
</svg>
