<?xml version="1.0" encoding="UTF-8"?>
<svg id="Ebene_1" data-name="Ebene 1" xmlns="http://www.w3.org/2000/svg" version="1.1" viewBox="0 0 1024 214">
  <defs>
    <style>
      .cls-1 {
        fill: #61ce70;
        stroke-width: 0px;
      }
    </style>
  </defs>
  <path class="cls-1" d="M575.2,0c2.3.9,7.6,4.2,5.4,6.9-1.8,2.2-3.6,4.1-5.4,5.9-33.1,32.2-63.6,68.1-91.4,107.8-15.4,22-31.2,44.9-47.4,68.8-4.3,6.4-9,12.8-13.9,18.8-2.8,3.4-6-.4-7-3-.4-1.1-.4-2.5-.1-4.2,1.3-7.3,3.1-14.5,5.3-21.7,7.8-25.5,15.3-50.1,22.7-73.9,2.1-6.7,4-13.6,5.7-20.8,1.7-7,2.4-13.5,2.2-19.6-.1-2.5-1.3-3.9-3.6-4.4-10.1-2-20.6-1-30.9.2-26.4,3.2-51.1,8.7-78.1,14.9-1.1.3-2,.9-2.5,2-16,32.9-32.3,66.4-48.9,100.6-.1.2-.3.3-.5.3-.4,0-.8-.3-1.1-.6-.4-.4-.5-1-.3-1.5l37.6-88.7c.9-2.2.7-2.4-.7-.4-6.5,9-13.4,18.1-20.7,27.3-2.9,3.7-6.2,6.7-9.7,9.6-1.5,1.3-3.1,1.3-4.6,0-2.2-1.9-1.4-5.5-1.3-8.2,0-.6-.2-.7-.7-.3-4.7,4.2-9.5,8.7-14.3,13.6-.6.6-1.7,1.5-3.2,2.5-.2.2-.5.2-.7.2-3.6-.2-6-3.5-5-6.9.7-2.4,1.4-4.7,2.2-7.1.2-.6,0-.7-.4-.3-5.9,4.4-11.9,8.6-17.9,12.4-2.7,1.7-5.4,2.7-8,2.8-3.2.2-5.2-1.3-7.6-3.4-.2-.2-.5-.2-.7,0-3.3,2.2-6.9,4-10.8,5.6-3.8,1.6-8.1.9-10.7-2.4-2.7-3.5-1.3-7.4.2-11.7.8-2.3,1.5-4.6,2.1-6.9.2-.6-.2-1.3-.8-1.6l-4-1.7c-.3,0-.5,0-.7.2-8.9,10.9-18.7,22.5-29.4,34.8-1.4,1.6-3.1,2-5,1-.1,0-.2-.1-.3-.2-1.5-1.5-1.5-3-.1-4.6,10.7-11.7,21.1-23.4,31.1-35.3.2-.3.4-.6.4-1,.4-2.9,2.2-5.5,5.4-7.7,1.1-.7,2.3-.6,3.6.3,3.4,2.5-.3,6.1-2,8.3-.2.2-.1.5,0,.6h0c2.3,1.7,4.3,3.3,6.1,4.9,1.8,1.7,2.3,3.9,1.4,6.6-1.4,4.2-2.9,8.6-4.4,13.3,0,.1,0,.2.1.3h0c2.2-.1,4.3-.3,6.4-1.1,3.1-1.2,5.9-2.5,8.7-3.9s.9-1,.7-1.6c-3.5-10.3,8.9-21.2,17-25.3,4.3-2.2,8.2-1.2,10.7,2.9,1.9,3.1-2.3,7.3-4.5,9.1-6,5-11.7,9.8-17,14.3-.6.5-.7,1.3-.2,1.9.4.5,1,.8,1.7.8,2.8,0,5.9-.3,8.4-1.8,7.5-4.3,14.3-8.5,20.4-12.7,3-2.1,5.6-4.7,8-7.5,2.1-2.4,4.7-4.5,7.7-6.3,1.9-1.1,3.8-.9,5.7.4,2.6,1.8,5.2,4.9,2.8,8-.2.2-.1.6,0,.7h0c2.1,1.4,2.8,3.3,2.2,5.8-.6,2.1-1.2,4.3-1.8,6.4,0,0,0,.2.1.3h.2c1.9-.9,3.6-1.9,5.2-3.3,5.2-4.8,10.1-10.3,14.6-16.5,5.2-7.3,10.4-15.2,15.6-23.7.1-.3,0-.4-.2-.3-8.7,1.4-16.9,2.7-25.7,2.1-4-.3-7.9-1.6-10.6-4.8-.5-.6-.9-1.4-.9-2.2s.3-1.3,1.2-1.3c8,.4,16,0,24.1-1.5,5.8-1,11.5-2,17.1-3,1.1-.2,2.1-.9,2.6-2,3.9-7.8,7.9-15.7,12.1-23.6,1.4-2.7,5.4,1.2,6,2.6.5.9.4,2-.1,3.2-2.3,5.1-4.8,10.5-7.6,16.3-.3.7-.1,1,.7.9,19-3.8,37.4-6.9,55.5-9,13.4-1.6,26.5-2.5,39.6-2.1,12.5.4,20.3,7.5,20,20.8-.1,3.9-.5,7.7-1.2,11.3-2.5,12.3-6.1,25.6-10.9,40-7.3,22.1-15,45.4-22.9,69.8-.8,2.6-.5,2.8,1.1.6,12.6-17.4,25.3-35.2,38.1-53.4,20.9-29.7,42.7-58.1,63.8-84.3,14.7-18.2,28.2-35.2,40.5-51.1,2.1-2.7,4.9-6.3,7.9-7.7h.2l.3-.6ZM235.9,120.7c5.5-3.6,10.7-8.7,14.3-14.6.3-.5.2-.6-.3-.3-5.9,3.5-10.7,8.3-14.3,14.6-.3.5-.2.6.3.3ZM271.9,121.3c0,0-.1.3-.2.4q0,.5.4.2l11.7-10.9c.6-.6.9-1.3.9-2.2v-.9c-.1-.9-.5-1-1.1-.5-4.4,3.8-8.3,8.4-11.7,13.8h0Z"/>
  <path class="cls-1" d="M35.2,214h-7.9c-5.6-.6-10.7-2.2-15.1-4.9-6.8-4.1-10.8-10.1-12.2-17.9v-2.9c1.5-7.5,3.8-14.2,7.2-20.1,4.7-8.4,10.9-17.3,18.5-26.7,10.5-13,22.3-25.8,35.4-38.4,25.6-24.7,53.1-45.5,82.5-62.4,17.3-9.9,34.6-17,51.9-21.3,6.9-1.7,13.7-2.6,20.5-2.6s1.9-.5,2.5-1.4c2.9-4.1,5.1-7.1,6.7-9,2.2-2.7,7.1,1.7,5.6,4.9-1.3,2.8-2.6,5.3-3.9,7.7-.3.6-.2,1.3.3,1.8,4.8,4.2,6,8.6,4,14.7-2,6.2-4.7,12.4-8.2,18.7-6.4,11.4-13.5,21.7-21.2,30.8-2.1,2.5-4.5,4.7-7,6.6-.9.7-1.9.8-2.9.3-5.9-2.9-6.8-7.5-5.2-13.7,1.1-4.3,2.5-8.5,4.1-12.4,6-14.6,14.4-29.1,23-43.1v-.4h-.2c-17.2,2.7-33.5,9.1-49.4,17.3-12.4,6.4-24.1,13.4-35,20.9-26.6,18.4-51.2,40-73.7,64.7-10.1,11.1-19.4,22.6-27.8,34.6-5.4,7.7-10,15.6-13.8,23.9-2.2,4.8-3.3,9.8-3.4,14.9,0,3.5,2,4.8,5.1,5.4,5.7,1.1,10.9,1.4,15.6.9,23.4-2.2,45.9-8.8,68.8-16.1,38.7-12.4,78-24.6,116.5-34.2,9.7-2.4,20.3-4.5,31.8-6.1,7.8-1.1,16.1-1.8,23.7,0,4.2,1,8.4,2.4,12.8,4,1.2.4,2.1,1.2,2.7,2.3.1.2,0,.6-.2.7h-.4c-3.7-.7-7.6-1.2-11.5-1.5-3.1-.3-8.3.1-15.7,1.2-32.9,4.6-68.2,14.4-100.8,24.6-23,7.2-46,14.5-68.8,21.8-10.8,3.5-21.8,6.3-32.8,8.7-5.8,1.2-13,2.4-21.8,3.6h-.3ZM207,55.7c-4.6,8.8-9,18.1-12.6,27.5-.5,1.3-.2,1.5.9.7,2.4-1.9,4.8-4.1,7-6.6,8.8-9.9,16.2-21.2,21.9-33.7,2.8-6.1,3.8-12.1,2.9-18.2-.2-1.2-.9-1.9-2.1-2.2-.3,0-.5,0-.7.3-5.9,10.4-11.7,21.2-17.4,32.3h.1Z"/>
  <path class="cls-1" d="M595.2,97.4c0-.5,0-.5-.4,0-5.4,8.2-11.7,15.2-19.4,23.4-1.4,1.5-3,2.5-4.7,3.6-1.2.8-2.6,1-3.9.2-3.1-1.9-4.4-4.8-3.7-8.8,0-.2,0-.3-.3-.4h-.2c-.6.4-1.2.9-1.8,1.4-5.5,5.2-10.7,10.3-15.6,15.3-.3.3-.8.5-1.3.3-1.4-.5-2.4-1.4-2.9-2.7-.6-1.5.2-3.7.7-5.1,1.8-4.8,3.7-9.6,5.9-14.5.6-1.4.3-1.6-.8-.6-8.5,7.1-16.8,14-24.8,20.5-1.7,1.4-3.6,2.3-5.5,3.3-4.8,2.5-9.3,1.4-11.7-3.3-.7-1.4-1.4-3.4-3.4-3.3-3.3.2-5.8-1.2-7.5-4.2-.2-.4,0-.9.3-1.1.1,0,.3,0,.4,0l7.5.2c.8,0,1.6-.5,1.8-1.3,2.4-8.1,7.9-15.9,15.9-18.8,4.8-1.8,10.2,2.5,7.2,7.8-3.4,5.8-8.8,11.1-15,14.3-2.3,1.2-4,3.6-3.5,6.3.2,1,1.1,1.6,2.1,1.5,8.7-.9,15.8-6.3,21.7-12.4,5.5-5.7,11.2-11.5,16.9-17.5.9-.9,1.9-1.1,3.1-.5,5.8,3.1,3.8,7.6,1.9,12.1-1.1,2.7-2.3,5.4-3.4,8.1v.3h.2c4.3-4.4,8.7-8.9,13.3-13.6,2.4-2.5,6,2.2,6.3,4.2.3,2.4-1.4,5.9-2.1,8.5-.3,1,0,1.2.9.7,3.2-1.8,6.2-3.9,8.9-6.5,9.6-9.2,17.5-22,24.1-34.2,0-.2,0-.3,0-.4h-.8c-12.6,1.8-24.9,3.8-36.7,5.8-5.2.9-9,.5-12.2-4.2-.3-.5-.5-.9-.6-1.4,0-.8.4-1.6,1.2-1.8,2.6-.5,5.1-.8,7.8-.7,4,.2,8.2,0,12.7-.3,9.6-.9,19.3-1.8,29.1-2.8,1.1,0,2.1-.8,2.5-1.9,3.7-9.2,7.4-18.1,11.1-26.6.9-2.2,3.3-2.3,5-1,2.8,2.1,3,4.8,1.6,7.9-3,6.5-6,13.1-9,19.8-.2.4,0,.6.4.6.7,0,1.4,0,2.2,0,20.2-2.1,40.4-4.2,60.5-6.4.7,0,1.3.2,1.8.7l.5.7c.4.4.3.7-.3.8-21.2,3-42.5,5.9-64,8.8-2.3.3-4.1,1.3-5.1,3.6-16.4,38.7-33,77.6-49.8,116.8-.2.5-.6.6-1.1.4l-.9-.6c-.5-.3-.8-1-.6-1.6,12.6-33,25.2-65.8,37.7-98.4,0-.2,0-.4,0-.6h-.2ZM512.7,117.6c4.9-2.3,9.3-7.5,11.6-12.3,0,0,0-.3,0-.3h-.2c-5.3,1.9-10,7.4-11.9,12.2-.2.6,0,.8.5.5h.1Z"/>
  <path class="cls-1" d="M351.7,83c.3,0,.6,0,.8.2l1.9,1.9c.2.2.2.5,0,.7-.5.6-1.1,1.2-1.8,1.6-3.4,2-6.9,4-10.3,6-2.3,1.3-6.2-2.7-6.6-4.8-.2-.9.4-1.8,1.3-2l14.6-3.6h.1Z"/>
  <path class="cls-1" d="M357.4,104.7c.4-1.1.1-1.3-.7-.5-7.8,7.2-15.7,14.6-23.5,22.1-.8.8-1.8,1.4-2.9,1.9-.2,0-.5.1-.8,0-10.2-2.8.8-19.1,4.3-23.3,1.2-1.5,2.6-1.7,4.2-.5l.9.7c1.6,1.2,1.9,2.7.8,4.4l-7.8,12.4c-1.2,1.9-.9,2.2.9.8,8.6-6.4,16.2-15.1,23.2-23.6.9-1.1,1.9-2.2,3-3.2.2-.2.5-.3.8-.3.8,0,1.5.2,2.2.7,2.6,1.8,3.7,4,3.4,6.4-.3,2.6-1.1,5.4-2.2,8.4-2.1,5.5-4.8,12.1-8.1,19.7-1,2.5-.8,2.6.8.5,3-4.1,5.9-8,8.9-11.6,8-9.8,16.1-19.7,24.4-29.6.3-.4.9-.4,1.2,0,0,0,.2.2.2.3v.7c0,.2-.2.4-.3.6-12.2,15.7-24.1,31.2-35.7,46.3-.9,1.2-1.9,2.3-2.9,3.3s-1.3.6-1.9.2c-2.9-1.7-2.6-4-1.7-7,1.3-4.7,2.6-9.5,4.1-14.1,1.8-5.5,3.6-10.7,5.3-15.7h0Z"/>
  <path class="cls-1" d="M657.5,128.9c5.4-.6,10.8-3.5,15.7-6,.6-.3.9-1,.9-1.6-.8-8.2,4.7-15.3,11-20.1,3.5-2.6,6.8-4.2,10.2,0,2.6,3.1-.2,5.7-2,8-3.8,4.8-8.3,8.8-13.4,12-1.5.9-1.8,3.4,0,4.3.6.3,1.3.4,2.1.3,3.8-.6,7.2-1.7,10.3-3.4,6.1-3.4,12.2-7.9,18.3-13.6,1-.9,1.7-2.1,2-3.4.9-3.9,3.3-6.9,6.8-9.2.3-.2.7-.3,1.1-.2,2.1.3,5.4,2.7,3.7,5.3-1.5,2.3-2.9,4.6-4.2,7-2,3.6-1.4,6.2,1.4,8.9,1.7,1.7,3.2,3.6,4.5,5.7.3.6,1,.9,1.6.8,19-1.7,38-3.6,57.1-5.8,1,0,1.9,0,2.8.6.9.5.9.9-.2,1-25.8,4-51.8,7.6-77.7,10.8-2.2.3-4.1-.4-5.7-1.9-.3-.3-.7-.7-.9-1.1-1.3-1.8-.9-2.9,1.3-3.2,5.4-.7,11-1.4,16.1-3,.3,0,.4-.3,0-.6-3-3-6.2-6.1-7.8-10.2,0-.3-.3-.3-.5,0-7,5.5-14.3,10.7-22,15.5-2.8,1.8-5.6,2.7-8.4,2.7s-4.6-1.6-6.2-3.7c-.2-.2-.4-.3-.7,0-4.4,2.3-9,5.1-13.7,6.7-4.1,1.4-8.6-.4-9.2-5,0-1.2,0-2.7.6-4.6,1-3.4,2.1-6.8,3.3-10,.3-.8,0-1.7-.7-2.2l-2.3-1.7c-.3-.2-.5-.2-.7,0-6.7,6.8-14.4,14.2-23,22.3-1.1,1.1-2.6,1.7-4.1,1.1-3.5-1.4-3.8-4-3.1-7.5.6-3.4,1.3-6.6,2.1-9.6.2-.6,0-.7-.4-.3-6.2,5.9-12.3,12-18.3,18-.7.7-1.7,1.3-2.7.9-4.3-1.4-3.9-6.4-2.4-9.6,2.5-5.4,5.1-10.9,7.8-16.4,1.2-2.5,3.8-.5,5.1.7,1.7,1.6,2,3.4.8,5.4-2.8,4.7-5.7,9.6-8.6,14.6v.4c0,0,.3,0,.4,0,2.1-1.9,4.2-3.8,6.2-5.9,5.1-5.5,10.1-11.1,15-16.6.4-.5,1.1-.7,1.7-.5,2.3.7,4,2.7,3.4,5.3-.3,1.1-.6,2.1-1,3.1-1.8,4.5-3.7,9.2-5.6,13.8-.5,1.3,0,1.6,1.1,1.1,1.6-.7,3.3-1.8,5.2-3.5,6.5-5.7,12.3-12.6,17.5-20.6.9-1.4,1.1-3,1.8-4.5,1.6-3.5,4.7-.9,6.2.9,1,1.2,1.3,2.8.5,4.1-.2.4-.3.8-.3,1.2s0,.6.4.8c4.7,3.5,5.7,7.4,3.1,12.7-1.5,3.2-2.8,6.2-3.9,9.1,0,.4,0,.5.4.5v.2ZM681.5,116.9c4.5-3.3,8.5-7.3,10.6-12.3.2-.4,0-.5-.3-.3-4.4,2.4-8.4,7.9-10.6,12.4-.2.4,0,.5.2.2h0Z"/>
  <path class="cls-1" d="M382.4,123.8c-.5,1.2-.7,2.5-.7,3.7s.8,1.8,1.8,1.9c9,.5,16.7-2.6,24.1-7.2,7.3-4.6,15-9.6,23.2-15,.5-.3,1.1-.5,1.8-.5s.3,0,.5.2.2.4,0,.6h0c-9.9,6.9-19.8,13.3-29.9,19.1-4.9,2.9-9.6,4.5-14.9,5.7-5.4,1.2-10.3-2.4-11.5-7.6-1.5-6,3.7-12.3,7.6-16.3,3-3.1,10-9.3,14.4-7.5,2.4,1,5.5,3.8,4.4,6.7-.5,1.4-1.4,2.8-2.5,4.2-4.8,5.9-10.7,9.7-17.5,11.3-.3,0-.5.2-.6.5l-.2.2ZM386.7,115.8s-.1.2-.2.3c-.2.4,0,.5.3.3,4.9-2.1,8.6-5.3,11.1-9.7.6-1.1.4-1.3-.7-.7-4.3,2.3-7.3,5.9-10.5,9.8h0Z"/>
</svg>