<?xml version="1.0" encoding="UTF-8" standalone="no"?>
<!DOCTYPE svg PUBLIC "-//W3C//DTD SVG 1.1//EN" "http://www.w3.org/Graphics/SVG/1.1/DTD/svg11.dtd">
<svg width="100%" height="100%" viewBox="0 0 1366 286" version="1.1" xmlns="http://www.w3.org/2000/svg" xmlns:xlink="http://www.w3.org/1999/xlink" xml:space="preserve" xmlns:serif="http://www.serif.com/" style="fill-rule:evenodd;clip-rule:evenodd;stroke-linejoin:round;stroke-miterlimit:2;">
    <g transform="matrix(1.33333,0,0,1.33333,0,0)">
        <g>
            <g id="Ebene_1">
                <g id="Ebene_1-2">
                    <g>
                        <path d="M9.3,23.9C8.6,23.9 4.7,24.3 4.3,24.4C4.5,22.2 4.7,19.6 4.7,17.9C4.7,16.2 4.4,12 4.1,9.4C12,8.2 24.8,6.8 34.1,6.8C43.4,6.8 43.7,7.3 48.1,7.9C48.1,13.3 47.9,18 47.8,23.2C46.3,23.2 42.9,23 39.7,23C36.5,23 32.9,23 28.9,23.3C28.9,28.4 28.9,32.1 28.7,37.7C31.9,37.7 39.3,37.4 44.1,37.3L43.6,53.8C41.5,53.8 33.8,53.6 28.7,53.6C28.7,63.4 28.9,73.8 29.1,78.7L9,79.4C9,65.1 9.3,44.1 9.4,24L9.3,23.9Z" style="fill:white;fill-rule:nonzero;"/>
                        <path d="M92.6,61.7L92.6,80.5C89.4,80 85.3,79.9 82.1,79.9C78.9,79.9 75.8,80.1 73.2,80.2L73.5,74.5C69,78.3 64.7,80 58.8,80C52.9,80 46.4,75.8 46.4,67.7C46.4,59.6 46.7,62.1 46.9,60.9C47.9,54.3 51,49.3 62,47.7L73.6,45.9C73.6,42.7 73.3,39.6 73,36.3C72.8,34.1 72.4,32.5 71.3,32.5C69.6,32.5 68,36.6 67,42.5C62.4,41.9 56.4,41 49,41C51.1,24.7 60,18 72,18C84,18 90.4,28 91.6,36.8C92.4,43.1 92.7,53.7 92.8,61.7L92.6,61.7ZM68.4,66.1C69.9,66.1 71.4,65.6 73.5,64.7L73.5,54.6L70.4,55.5C67.7,56.2 66.4,57.3 66.2,60.4L66.2,63.3C66.2,65.3 67.2,66 68.5,66L68.4,66L68.4,66.1Z" style="fill:white;fill-rule:nonzero;"/>
                        <path d="M99.2,28.3L99.2,3.3C104.5,3.3 116.1,3.1 118.9,2.6C118.5,8.4 118.2,16.7 118.2,23.3C123.9,20.6 128.4,18.9 133.8,18.9C144.5,18.9 146.2,25.7 146.2,31.8C146.2,37.9 145.8,48.6 145.8,58.3L145.8,79.1L134.7,79.1C132.2,79.1 128.2,79.3 125.9,79.7C126.3,66.2 126.6,55.8 126.6,42.1L126.6,38.1C126.6,35.3 125.4,34.7 124.2,34.7C123,34.7 120.8,35.7 119.4,36.6C118.6,37.1 118.2,37.7 118.2,39.2L118.2,79.4C112.1,79.4 103.8,79.6 98.4,80.1C98.6,72.3 99.1,46.2 99.1,28.3L99.2,28.3Z" style="fill:white;fill-rule:nonzero;"/>
                        <path d="M153.5,28L153.5,18.4C157.5,18.4 169.2,18 172.5,17.6C172.1,19.6 171.7,25 171.2,27.8C174.5,20.8 177.8,18.3 183.2,18.3C188.6,18.3 186.6,18.5 189.1,19L186.6,36.9C184.6,36.5 182.8,36.2 180.5,36.2C178.2,36.2 176.4,36.8 174.7,38.2C173.8,38.9 173.2,39.6 172.6,40.6C171.9,41.6 171.9,43 171.9,44.2C171.9,49.2 171.7,55.9 171.7,66.7L171.7,79.7L159.7,79.7C155.9,79.7 155.1,79.7 152.3,80C152.9,70.6 153.3,42.2 153.3,28.2L153.5,28Z" style="fill:white;fill-rule:nonzero;"/>
                        <path d="M202.9,78.4C195.5,75.2 189.9,67.8 189.3,57.4C191.4,57.6 194.7,58 197.4,58C200.1,58 204.8,57.7 208.3,57.2C208.7,59.8 209.1,61.8 210.2,63.7C210.8,64.8 211.5,65.4 212.2,65.4C212.9,65.4 213.4,64.7 214.1,63.9C215.2,61.8 215.9,58.5 215.9,57.5C215.9,56.5 215.4,55.5 213.4,55.3C211.6,55 201.6,54.1 199.1,53.9C190.9,53.2 188.9,49.5 188.9,43.9C188.9,38.3 191.9,28.9 198.1,23.1C202.1,19.5 206.3,18.1 212,18.1C217.7,18.1 219.5,18.8 222.6,20.2C229.4,23.3 233.6,29.7 234.7,39.1C230.1,39.1 227.1,39.1 223.5,39.5C221.4,39.7 217.7,40.2 216,40.6C215.5,37.9 215,35.9 214,34.1C213.3,32.9 212.5,32.5 212,32.5C211.5,32.5 210.5,33.2 209.9,34.2C208.5,36.6 207.9,39 207.9,40.1C207.9,41.2 208.2,41.9 210,42.1C214.4,42.7 222.4,43.2 225.7,43.7C233.2,44.7 235.3,47.3 235.3,52.9C235.3,64.1 229.8,73.4 222.8,77.6C219.1,79.7 214.7,80.1 212,80.1C209.3,80.1 206.1,79.7 203,78.4L202.9,78.4Z" style="fill:white;fill-rule:nonzero;"/>
                        <path d="M239.8,49.7C239.8,30.4 248.3,18 264.7,18C281.1,18 288.1,27.6 288.1,41L288.1,42.9C284.4,42.7 279.7,42.4 275.1,42.4C270.5,42.4 271.8,42.4 269.1,42.7C268.5,36.8 267.8,32.5 264.8,32.5C261.8,32.5 259.8,36.7 259.8,49.9C259.8,63.1 261.8,65.5 264.8,65.5C267.8,65.5 268.4,64.2 269.3,55.1C276.5,55.1 282.5,54.7 288.4,54.1C287,71.7 277.6,80.1 263.8,80.1C250,80.1 239.9,69.2 239.9,49.7L239.8,49.7Z" style="fill:white;fill-rule:nonzero;"/>
                        <path d="M293.4,28.2L293.4,3.3C298.7,3.3 310.3,3.1 313.1,2.6C312.7,8.4 312.4,16.7 312.4,23.3C318.1,20.6 322.6,18.9 328,18.9C338.7,18.9 340.4,25.7 340.4,31.8C340.4,37.9 340,48.6 340,58.3L340,79.1L328.9,79.1C326.4,79.1 322.4,79.3 320.1,79.7C320.5,66.2 320.8,55.8 320.8,42.1L320.8,38.1C320.8,35.3 319.6,34.7 318.4,34.7C317.2,34.7 315,35.7 313.6,36.6C312.8,37.1 312.4,37.7 312.4,39.2L312.4,79.4C306.3,79.4 298,79.6 292.6,80.1C292.8,72.3 293.3,46.2 293.3,28.3L293.4,28.2Z" style="fill:white;fill-rule:nonzero;"/>
                        <path d="M374.8,76.1C369.9,78.4 364.5,80.1 359.7,80.1C348.7,80.1 346.7,73.5 346.7,67.1C346.7,60.7 347.2,50.2 347.2,40.4C347.2,30.6 347.2,24.3 347,18.8C348.1,19 354.6,19.4 357.6,19.4C360.6,19.4 365.1,19.1 366.7,18.9C366.3,44.4 366.1,49.6 366.1,53.8L366.1,60.7C366.1,63.6 367.2,64.1 368.3,64.1C369.4,64.1 371.4,63.6 373.1,62.7C374.3,62 374.4,61.2 374.4,59.6L374.4,29.5C374.4,18.7 374.4,22 374.4,19C376.7,19 379.2,19.3 383.8,19.3C388.4,19.3 392.6,19.1 394.1,18.9C393.7,28.2 393.2,55.9 393.2,69.2C393.2,82.5 393.4,79.4 393.4,81.5C388.2,81.5 378.6,81.9 374.1,82.3C374.4,80.2 374.6,77.5 374.6,76.1L374.8,76.1Z" style="fill:white;fill-rule:nonzero;"/>
                        <path d="M39.4,186.8C37.1,190 33.4,192.4 27,192.4C11.9,192.4 5.1,180 5.1,157.2C5.1,134.4 15.8,117.9 32.8,117.9C49.8,117.9 57.7,132.4 57.7,141.8C57.7,151.2 57.7,145.2 57.5,146.2C54.5,146.2 40.1,146.9 37.7,147.2L37.7,144.6C37.5,140.7 36,134.4 32.7,134.4C29.4,134.4 26,140 26,156.6C26,173.2 29.1,175.5 32.4,175.5C35.7,175.5 38.2,172.6 38.5,166.3L31.9,166.3C31.9,163.1 32.1,156.5 32.1,152L43.8,152C50,152 55.4,151.6 57.8,151.5C57.5,157.9 57.4,163.5 57.4,169.3C57.4,178.3 57.6,185.4 57.7,192.3C50.8,192.3 44.3,193.2 39.2,194.2L39.4,186.8Z" style="fill:white;fill-rule:nonzero;"/>
                        <path d="M65.9,139.8L65.9,130.2C69.9,130.2 81.6,129.8 84.9,129.4C84.5,131.4 84.1,136.8 83.6,139.6C86.9,132.6 90.2,130.1 95.6,130.1C101,130.1 99,130.3 101.5,130.8L99,148.7C97,148.3 95.2,148 92.9,148C90.6,148 88.8,148.6 87.1,150C86.2,150.7 85.6,151.4 85,152.4C84.3,153.4 84.3,154.8 84.3,156C84.3,161 84.1,167.7 84.1,178.5L84.1,191.5L72.1,191.5C68.3,191.5 67.5,191.5 64.7,191.8C65.3,182.4 65.7,154 65.7,140L65.9,139.8Z" style="fill:white;fill-rule:nonzero;"/>
                        <path d="M145,173.6L145,192.4C141.8,191.9 137.7,191.8 134.5,191.8C131.3,191.8 128.2,192 125.6,192.1L125.9,186.4C121.4,190.2 117.1,191.9 111.2,191.9C105.3,191.9 98.8,187.7 98.8,179.6C98.8,171.5 99.1,174 99.3,172.8C100.3,166.2 103.4,161.2 114.4,159.6L126,157.8C126,154.6 125.7,151.5 125.4,148.2C125.2,146 124.8,144.4 123.7,144.4C122,144.4 120.4,148.5 119.4,154.4C114.8,153.8 108.8,152.9 101.4,152.9C103.5,136.6 112.4,129.9 124.4,129.9C136.4,129.9 142.8,139.9 144,148.7C144.8,155 145.1,165.6 145.2,173.6L145,173.6ZM120.8,178C122.3,178 123.8,177.5 125.9,176.6L125.9,166.5L122.8,167.4C120.1,168.1 118.8,169.2 118.6,172.3L118.6,175.2C118.6,177.2 119.6,177.9 120.9,177.9L120.8,177.9L120.8,178Z" style="fill:white;fill-rule:nonzero;"/>
                        <path d="M152.8,144.4C152.2,144.4 148.2,144.6 147.2,144.8L146.6,131.8L152.7,131.8L152.7,130.3C152.7,122.4 155.1,117.3 163.7,114.6C168.2,113.1 174.5,112.9 179.4,112.8L183.1,112.8C182.6,117.4 182.2,122.3 182,127.8L177,127.8C173.9,128 172.1,128.6 172.1,130.9L172.1,131.5C174.4,131.5 179.3,131.3 182.2,131C181.6,136.9 181.2,142.8 181.2,144.3L173.7,144.3C171.2,144.3 171.9,144.7 171.9,146.2C171.6,154.1 171.6,159.2 171.6,166.5L171.6,178.3C171.6,182.7 171.6,187.1 171.8,190.9C166.5,190.9 158.9,191.4 152.1,191.7C152.5,177.4 152.7,157.6 152.7,144.4L152.8,144.4Z" style="fill:white;fill-rule:nonzero;"/>
                        <path d="M186.3,139.8L186.3,130.2C190.3,130.2 202,129.8 205.3,129.4C204.9,131.4 204.5,136.8 204,139.6C207.3,132.6 210.6,130.1 216,130.1C221.4,130.1 219.4,130.3 221.9,130.8L219.4,148.7C217.4,148.3 215.6,148 213.3,148C211,148 209.2,148.6 207.5,150C206.6,150.7 206,151.4 205.4,152.4C204.7,153.4 204.7,154.8 204.7,156C204.7,161 204.5,167.7 204.5,178.5L204.5,191.5L192.5,191.5C188.7,191.5 187.9,191.5 185.1,191.8C185.7,182.4 186.1,154 186.1,140L186.3,139.8Z" style="fill:white;fill-rule:nonzero;"/>
                        <path d="M265.3,173.6L265.3,192.4C262.1,191.9 258,191.8 254.8,191.8C251.6,191.8 248.5,192 245.9,192.1L246.2,186.4C241.7,190.2 237.4,191.9 231.5,191.9C225.6,191.9 219.1,187.7 219.1,179.6C219.1,171.5 219.4,174 219.6,172.8C220.6,166.2 223.7,161.2 234.7,159.6L246.3,157.8C246.3,154.6 246,151.5 245.7,148.2C245.5,146 245.1,144.4 244,144.4C242.3,144.4 240.7,148.5 239.7,154.4C235.1,153.8 229.1,152.9 221.7,152.9C223.8,136.6 232.7,129.9 244.7,129.9C256.7,129.9 263.1,139.9 264.3,148.7C265.1,155 265.4,165.6 265.5,173.6L265.3,173.6ZM241.2,178C242.7,178 244.2,177.5 246.3,176.6L246.3,166.5L243.2,167.4C240.5,168.1 239.2,169.2 239,172.3L239,175.2C239,177.2 240,177.9 241.3,177.9L241.2,177.9L241.2,178Z" style="fill:white;fill-rule:nonzero;"/>
                        <path d="M272.4,176.6C272.4,170.1 272.9,162.7 272.9,153.5C272.9,144.3 272.9,147.5 272.9,144.8L267.5,145.3C267.5,143 266.9,134.6 266.9,132.2L273,132.2C273,129.2 272.8,125.8 272.7,123.7L292.6,122.3L292.1,131.5L303.2,131C302.8,135.6 302.3,142.5 302.3,144.7C299.9,144.7 295.4,144.7 293.5,145C292.5,145.2 292.1,145.8 292.1,147.3C292.1,152.6 291.8,159 291.8,166.3C291.8,173.6 291.8,169.9 291.8,172.4C291.8,174.9 292.6,176.3 294.4,176.3C296.2,176.3 299.2,175.7 302,175.2C302.2,179.2 303.1,188 303.4,190.4C298.3,191.1 292.2,191.8 287.7,191.8C276.5,191.8 272.3,186.5 272.3,176.6L272.4,176.6Z" style="fill:white;fill-rule:nonzero;"/>
                        <path d="M309,140L309,115.1C314.3,115.1 325.9,114.9 328.7,114.4C328.3,120.2 328,128.5 328,135.1C333.7,132.4 338.2,130.7 343.6,130.7C354.3,130.7 356,137.5 356,143.6C356,149.7 355.6,160.4 355.6,170.1L355.6,190.9L344.5,190.9C342,190.9 338,191.1 335.7,191.5C336.1,178 336.4,167.6 336.4,153.9L336.4,149.9C336.4,147.1 335.2,146.5 334,146.5C332.8,146.5 330.6,147.5 329.2,148.4C328.4,148.9 328,149.5 328,151L328,191.2C321.9,191.2 313.6,191.4 308.2,191.9C308.4,184.1 308.9,158 308.9,140.1L309,140Z" style="fill:white;fill-rule:nonzero;"/>
                        <path d="M403.5,38.5C403.5,33.8 403.3,24.5 403.2,20.2C406.8,20.2 419.6,19.8 423,19.4C423,28.6 422.3,46.3 422.3,62.1C422.3,77.9 422.5,75.1 422.5,78.8C414.8,78.8 407.5,79.2 402.6,79.6C402.9,69.3 403.5,52 403.5,38.5ZM402.8,1.3C406.1,1.3 420.8,0.8 423.5,0.6L423,13.6C414.8,13.6 408,13.9 402.9,14.4L402.9,1.2L402.8,1.2L402.8,1.3Z" style="fill:white;fill-rule:nonzero;"/>
                    </g>
                </g>
            </g>
        </g>
    </g>
</svg>
