<?xml version="1.0" encoding="UTF-8" standalone="no"?>
<!DOCTYPE svg PUBLIC "-//W3C//DTD SVG 1.1//EN" "http://www.w3.org/Graphics/SVG/1.1/DTD/svg11.dtd">
<svg width="100%" height="100%" viewBox="0 0 7500 5000" version="1.1" xmlns="http://www.w3.org/2000/svg" xmlns:xlink="http://www.w3.org/1999/xlink" xml:space="preserve" xmlns:serif="http://www.serif.com/" style="fill-rule:evenodd;clip-rule:evenodd;stroke-linejoin:round;stroke-miterlimit:2;">
    <g transform="matrix(1.2527,0,0,1.2527,-1081.83,-428.21)">
        <path d="M2345.93,3237.33C2348.82,3237.02 2350.82,3237.38 2351.91,3236.61C2400.72,3202.07 2449.54,3167.53 2498.01,3132.57C2501.53,3130.03 2504.33,3124.3 2504.24,3120.12C2503.96,3107.18 2502.36,3094.24 2500.82,3081.35C2499.4,3069.47 2492.66,3065.92 2482.09,3073.17C2471.41,3080.5 2459.41,3087.37 2451.69,3097.03C2416.38,3141.15 2382.36,3186.17 2347.97,3230.93C2346.83,3232.42 2346.76,3234.62 2345.93,3237.33ZM2579.43,2706.14C2580.92,2706.97 2582.41,2707.81 2583.91,2708.65C2589.39,2705.86 2595.44,2700.03 2600.24,2700.82C2618.1,2703.78 2624.47,2691.68 2632.95,2681.88C2640.58,2673.04 2648.43,2664.34 2655.57,2655.17C2719.1,2573.58 2777.31,2488.96 2814.57,2393.6C2823.72,2370.18 2828.16,2344.26 2829.41,2319.25C2830.85,2290.75 2816.21,2267.62 2786.43,2250.93C2711.31,2401.55 2630.44,2547.92 2579.43,2706.14ZM2711.74,2227.37C2671.64,2223.73 2635.58,2227.21 2599.83,2234.29C2508.08,2252.46 2425.07,2290.5 2344.3,2333.43C2145.92,2438.88 1967.82,2569.77 1801.16,2714.67C1556.7,2927.22 1342.99,3164.28 1160.06,3425.38C1095.87,3517 1039.83,3612.96 998.694,3715.93C981.577,3758.77 969.869,3802.82 970.21,3848.96C970.421,3877.51 975.73,3905.01 992.629,3929.59C1007.29,3950.91 1026.86,3961.46 1055.24,3959.21C1118.13,3954.23 1178.24,3938.4 1237.33,3919.35C1462.17,3846.88 1686.3,3772.44 1911.44,3700.79C2164.58,3620.23 2419.76,3545.66 2679.48,3485.6C2799.73,3457.79 2920.55,3432.11 3044.6,3423.95C3097.43,3420.48 3149.95,3422.06 3200.41,3439.89C3207.9,3442.53 3214.19,3444.47 3218.59,3434.83C3237.91,3392.53 3257.85,3350.48 3277.48,3308.31C3278.13,3306.91 3277.87,3305.14 3277.64,3307.39C3268.31,3300.29 3256.32,3295.78 3254.52,3288.93C3249.9,3271.33 3265.65,3260.34 3277.5,3249.94C3281.52,3246.4 3292.07,3249.38 3299.64,3249.38C3301,3250.9 3302.37,3252.42 3303.74,3253.94C3343.9,3172.58 3384.06,3091.23 3424.22,3009.88C3423.01,3009.08 3421.81,3008.27 3420.6,3007.46C3415.05,3011.88 3409.46,3016.25 3403.97,3020.73C3367.37,3050.64 3331.15,3080.98 3293.99,3110.28C3281.27,3120.31 3266.86,3128.91 3252.09,3136.13C3221.94,3150.87 3198.17,3142.39 3184.1,3113.39C3182.68,3110.46 3181.44,3107.46 3179.1,3102.22C3173.27,3105.69 3168,3108.37 3163.25,3111.71C3133.17,3132.83 3103.44,3154.39 3073.1,3175.17C3061.95,3182.8 3049.91,3189.59 3037.48,3195.21C3001.66,3211.39 2968.3,3194.35 2963.32,3156.91C2961.41,3142.6 2963.01,3127.89 2963.01,3109.13C2955.42,3114.78 2950.3,3117.71 2946.34,3121.67C2893.38,3174.56 2840.43,3227.48 2787.83,3280.7C2773.73,3294.96 2760.61,3310.1 2747.48,3325.18C2741.03,3332.58 2733.2,3332.56 2728.8,3325.84C2722.83,3316.71 2715.51,3305.25 2716.77,3295.71C2719.51,3275.04 2724.76,3253.91 2733.57,3234.82C2757.18,3183.67 2783.22,3133.49 2808.23,3082.9C2811.56,3076.16 2814.53,3069.26 2814.84,3059.67C2809.55,3063.04 2803.9,3066 2799.03,3069.84C2756.98,3102.96 2715.5,3136.72 2672.95,3169.26C2651.99,3185.29 2630.33,3201.15 2606.83,3213.49C2576.4,3229.46 2550.78,3216.08 2545.01,3183.5C2543.05,3172.43 2543.45,3160.99 2542.59,3146.78C2534.22,3151.33 2527.04,3154.25 2521.09,3158.63C2462.95,3201.52 2405.02,3244.65 2347.03,3287.71C2339.33,3293.43 2331.9,3299.51 2323.92,3304.88C2299.3,3321.43 2270.12,3308.88 2268.56,3280.13C2267.81,3266.34 2269.11,3251.6 2273.66,3238.57C2301.89,3157.83 2344.4,3084.65 2408.31,3023.34C2413.55,3018.31 2419.08,3013.5 2424.79,3008.93C2469.81,2972.94 2498.46,2973.74 2541.29,3011.58C2564.66,3032.23 2564.17,3058.05 2558.16,3084.03C2555.28,3096.5 2556.2,3103.49 2569.07,3110.07C2587.86,3119.67 2586.42,3138.15 2586.3,3154.85C2586.08,3185.35 2589.77,3188.64 2617.5,3172.13C2643.69,3156.53 2669.21,3138.98 2691.54,3118.89C2752.85,3063.73 2812.38,3006.85 2862.42,2942.02C2876.82,2923.37 2882.94,2922.79 2903.34,2935.09C2946.32,2961 2950.57,2969.65 2927.64,3012.77C2900.09,3064.59 2869.14,3114.83 2839.69,3165.77C2837.02,3170.39 2834.59,3175.14 2832.05,3179.84C2833.56,3181.19 2835.07,3182.54 2836.58,3183.89C2840.03,3179.32 2843.16,3174.51 2846.96,3170.22C2896.1,3114.86 2945.21,3059.49 2994.68,3004.39C3002.59,2995.57 3008.16,2980.56 3025.86,2988.45C3056.14,3001.94 3064.79,3014.34 3057.48,3036C3050.52,3056.61 3041.35,3076.57 3034.03,3097.09C3028.74,3111.93 3023.98,3127.04 3020.69,3142.35C3017.74,3156.1 3022.96,3160.32 3036.7,3154.42C3053.4,3147.25 3070.68,3139.53 3084.44,3128.48C3116.43,3102.8 3146.4,3074.92 3177.34,3048.09C3184.96,3041.48 3191.06,3029.97 3204.66,3037.3C3218.35,3044.69 3232.17,3052.48 3229.34,3070.77C3228.93,3073.45 3228.84,3076.16 3228.59,3078.86C3226.19,3105.31 3234.26,3111.91 3259.63,3098.7C3284.06,3085.97 3309.07,3071.11 3327.44,3051.85C3381.64,2995.01 3433.49,2936.13 3484.67,2876.85C3517.22,2839.15 3516.82,2841.93 3555.51,2871.66C3568.43,2881.58 3572.07,2893.65 3566.56,2907.83C3557.87,2930.18 3550.19,2953.09 3538.94,2974.3C3510.14,3028.59 3479.59,3082.08 3449.77,3135.9C3446.92,3141.03 3444.21,3146.24 3440.69,3152.83C3444.25,3152.41 3446.2,3152.75 3447.17,3152C3500.38,3110.36 3554.43,3069.59 3606.15,3026.38C3623.4,3011.96 3636.92,2992.43 3648.2,2973.21C3673.35,2930.34 3662.67,2890.89 3620.63,2861.86C3583.72,2836.36 3540.91,2824.97 3496.47,2819.04C3400.47,2806.24 3307.15,2814.43 3218.09,2852.82C3208.42,2856.98 3198.45,2863.49 3187.83,2853.77C3176.62,2843.5 3168.4,2832.94 3172.78,2816.64C3178.02,2797.08 3190.22,2783.16 3209.79,2776.72C3229.32,2770.31 3249.67,2765.09 3270.13,2762.34C3367.01,2749.34 3461.74,2760.08 3554.41,2788.17C3590.01,2798.96 3622.32,2815.64 3649.89,2839.74C3700.24,2883.72 3711.17,2933.83 3674.58,2988.54C3651.25,3023.42 3622.53,3056.81 3589.84,3084.19C3533.91,3131.02 3472.85,3172.49 3414.25,3216.57C3406.33,3222.52 3397.93,3229.44 3393.51,3237.68C3299.47,3412.87 3210.09,3590.02 3141.08,3775.49C3133.3,3796.38 3128.22,3818.15 3121.57,3839.42C3119.8,3845.08 3117.78,3851.06 3114.18,3855.76C3109.57,3861.79 3103.26,3866.68 3097.67,3872.06C3090.84,3864.18 3078.47,3856.44 3078.23,3848.39C3077.56,3825.94 3077.73,3802.09 3085.03,3781.06C3115.38,3693.65 3148.4,3607.06 3180.63,3520.23C3185.15,3508.05 3190.75,3496.21 3197.39,3480.58C3178.33,3477.39 3161.25,3473.16 3143.91,3471.84C3063.96,3465.77 2985.68,3478.65 2907.98,3493.44C2685.9,3535.71 2469.53,3597.54 2254.39,3663.28C1931.94,3761.81 1613.82,3871.41 1298.63,3988.69C1238.72,4010.98 1175.87,4027.37 1113.12,4041.66C1061.61,4053.39 1010.78,4044.56 964.289,4018.62C930.233,3999.61 909.084,3971.61 896.946,3936.94C875.789,3876.52 878.439,3815.32 890.782,3753.98C920.808,3604.74 991.518,3471.19 1075.65,3343.52C1258.85,3065.5 1488.58,2824.74 1753.37,2612.96C1958.98,2448.52 2182.45,2309.23 2430.11,2206.02C2484.82,2183.23 2542.6,2166.35 2600.03,2149.99C2644.83,2137.24 2691.47,2136.27 2737.24,2148.21C2750.47,2151.67 2753.15,2144.19 2757.15,2136.14C2826.07,1997.2 2895.06,1858.29 2964.03,1719.38C3061.72,1522.65 3176.8,1334.93 3299.81,1151.29C3310.13,1135.88 3320.12,1120.26 3327.89,1103.01C3324.59,1106.27 3321.06,1109.35 3318.01,1112.8C3144.79,1308.85 2972.38,1505.53 2797.96,1700.64C2746.82,1757.84 2691.5,1812 2635.05,1864.7C2608.38,1889.59 2576.41,1910.88 2543.49,1928.24C2487.67,1957.68 2441.82,1937.25 2426.44,1878.74C2412.3,1824.95 2418.96,1770.95 2430.05,1717.6C2456.47,1590.53 2505.17,1470.14 2558.01,1351.07C2562.11,1341.81 2565.97,1332.46 2569.94,1323.14C2567.72,1321.43 2565.5,1319.72 2563.29,1318.01C2560.12,1323.14 2557.76,1328.92 2553.67,1333.3C2405.39,1491.71 2254.78,1648.25 2109.22,1808.82C1989.11,1941.31 1875.24,2078.75 1757.91,2213.47C1736.43,2238.14 1711.99,2260.62 1688.17,2283.43C1679.64,2291.6 1668.61,2298.62 1655.6,2291.3C1642.44,2283.91 1641.96,2271.24 1645.68,2259.51C1652.89,2236.77 1659.88,2213.71 1670.28,2192.18C1729.73,2069.04 1805.71,1954.42 1880.06,1838.98C1978.28,1686.49 2077.71,1534.67 2174.2,1381.22C2226.41,1298.2 2274.32,1212.6 2308.93,1121.53C2321.81,1087.66 2331.07,1051.96 2336.33,1016.36C2342.09,977.406 2328.86,965.044 2286.85,959.478C2223.76,951.121 2162.11,961.804 2100.93,973.766C1919.33,1009.27 1742.96,1061.87 1567.34,1117.12C1473.04,1146.78 1377.85,1174.08 1282.57,1200.93C1256.21,1208.35 1228.26,1211.74 1200.75,1214.48C1152.83,1219.26 1122.17,1189.02 1104.13,1157.63C1089.9,1132.87 1110.75,1080.37 1137.79,1067.55C1143.08,1065.04 1150.59,1063.72 1156.15,1065.1C1206.94,1077.76 1256.13,1064.8 1305.48,1057.21C1497.56,1027.69 1685.44,980.453 1874.77,939.242C1985.1,915.229 2096.93,897.177 2208.31,877.587C2228.52,874.033 2249.84,875.354 2270.64,875.578C2320.58,876.114 2359.06,897.487 2389.01,933.943C2409.78,959.215 2413.39,988.686 2405.53,1017.44C2393.83,1060.24 2380.57,1103.2 2362.17,1143.79C2311.23,1256.18 2244.6,1361.03 2176.97,1465.09C2043.53,1670.43 1907.94,1874.56 1774.55,2079.94C1741.86,2130.28 1714.19,2183.47 1684.45,2235.47C1681.01,2241.47 1679.08,2248.22 1679.67,2257.25C1686.22,2251.99 1693.66,2247.43 1699.18,2241.35C1750.05,2185.23 1801.64,2129.63 1851.04,2072.38C2014.91,1882.44 2177.95,1691.87 2341.33,1501.55C2455.03,1369.11 2568.81,1236.74 2682.33,1104.17C2689.88,1095.36 2696.03,1085.41 2702.12,1075.6C2744.91,1006.68 2791.86,940.47 2847.07,879.599C2850.44,875.891 2853.9,872.194 2857.76,868.961C2880.43,849.988 2885.72,850.345 2908.18,869.858C2923.27,882.976 2939.24,895.216 2954.43,908.247C2964.19,916.626 2968.36,926.199 2960.19,938.237C2940.69,966.959 2922.75,996.662 2902.23,1024.71C2765,1212.27 2642.45,1407.68 2541.26,1614.46C2506.97,1684.53 2477.82,1756.5 2471.06,1834.26C2469.54,1851.71 2472.17,1869.81 2475.46,1887.19C2478.32,1902.28 2490.98,1909.77 2506.64,1905.1C2526.24,1899.25 2546.9,1893.22 2563.43,1882.37C2595.05,1861.62 2627.24,1840.2 2653.56,1814.09C2725.38,1742.89 2796.13,1670.58 2863.83,1595.95C2943.88,1507.72 3020.68,1416.89 3098.18,1326.67C3229.66,1173.61 3361.18,1020.58 3491.37,866.565C3526.47,825.04 3556.76,779.961 3589.57,736.717C3593.84,731.092 3599.33,725.839 3605.41,722.03C3609.03,719.766 3616.93,718.481 3619.43,720.506C3632.01,730.704 3644.67,741.276 3654.67,753.585C3658.33,758.099 3656.92,768.579 3654.13,774.914C3643.78,798.396 3633.62,822.193 3620.31,844.248C3531.85,990.856 3442.02,1136.74 3353.74,1283.43C3193.67,1549.42 3025.28,1811.06 2876.6,2083C2859.74,2113.84 2843.48,2144.97 2826.29,2175.66C2821.19,2184.76 2821.62,2190.87 2830,2198.18C2888.39,2249.1 2900.46,2309.84 2873.08,2378.93C2844.9,2450.06 2803.51,2514.75 2758.01,2576.72C2715.19,2635.04 2667.5,2690.26 2621.29,2746.36C2612.93,2756.51 2601.73,2764.75 2591.21,2773.18C2565.21,2794.01 2529.72,2784.09 2525.84,2752.2C2522.64,2725.93 2524.85,2697.99 2530.85,2672.05C2551.38,2583.41 2588.36,2499.74 2625.27,2416.26C2650.47,2359.26 2677.44,2302.94 2703.58,2246.3C2706.02,2240.99 2708.21,2235.58 2711.74,2227.37Z" style="fill-rule:nonzero;"/>
        <path d="M4439.61,1806.11C4431.23,1792.23 4423.38,1781.54 4418.07,1769.84C4411.92,1756.3 4403.69,1755.96 4395.7,1766.22C4372.07,1796.6 4349.52,1827.72 4326.74,1858.68C4325.43,1860.46 4325.88,1863.38 4324.65,1871.32C4365.97,1847.88 4403.1,1826.82 4439.61,1806.11ZM4046.5,1576.54C4142.67,1465.28 4230.21,1349.44 4271.16,1208.8C4183.54,1324.61 4114.13,1450.09 4046.5,1576.54ZM5772,1057.93C5727.3,1075.72 5320.08,1581.43 5292.06,1652.68C5300.29,1646.27 5306.01,1642.2 5311.27,1637.66C5345.33,1608.34 5379.91,1579.52 5413.16,1549.41C5504.77,1466.44 5591.64,1379.52 5662.47,1279.73C5704.55,1220.44 5739.92,1157.87 5764.18,1090.19C5767.68,1080.45 5769.13,1070.06 5772,1057.93ZM4248.96,1874.66C4241.91,1878.56 4236.64,1881.4 4231.45,1884.36C4189.07,1908.57 4144.69,1927.87 4094.29,1931.35C4082.84,1932.15 4071.02,1931.83 4059.71,1930.11C4027.3,1925.17 4006.72,1902.63 4005.31,1871.81C4005.05,1866.11 4005.27,1860.39 4005.27,1850.27C3997.17,1856.65 3992.38,1860.04 3988.04,1863.89C3898.08,1943.64 3810.52,2025.45 3735.24,2118.02C3730.99,2123.25 3721.57,2124.8 3714.56,2128.06C3710.92,2120.28 3702.62,2111.3 3704.49,2104.93C3710.89,2083.16 3720.03,2061.97 3729.64,2041.17C3758.54,1978.61 3788.17,1916.35 3817.44,1853.95C3818.98,1850.67 3819.88,1847.13 3822.65,1839.23C3813.96,1845.1 3809.19,1848.55 3804.19,1851.67C3732.99,1896.09 3661.91,1940.69 3590.4,1984.66C3576.94,1992.93 3562.09,1999.52 3547.21,2005.38C3503.36,2022.66 3462.45,1998.62 3461.15,1953.85C3460.62,1935.73 3465.11,1917.45 3467.61,1899.28C3468.32,1894.09 3470.07,1889.03 3472.62,1878.78C3463.55,1885.57 3458.27,1889.16 3453.42,1893.2C3366.56,1965.52 3279.83,2037.99 3192.81,2110.15C3183.33,2118 3174.4,2130.7 3158.74,2123.73C3140.96,2115.82 3124.14,2104.57 3126.39,2083.74C3129.03,2059.26 3132.38,2034.14 3140.81,2011.03C3171.26,1927.59 3219.52,1852.17 3265.95,1776.01C3283.71,1746.87 3300.07,1716.95 3318.78,1688.36C3342.06,1652.78 3354.3,1651.15 3389.71,1675.38C3414.76,1692.52 3417.47,1695.59 3405.05,1722.4C3383.24,1769.5 3360.53,1816.38 3334.95,1861.75C3309.33,1907.19 3279.74,1950.66 3251.92,1995.01C3249.06,1999.57 3246.38,2004.22 3245.62,2011.11C3249.57,2008.82 3253.81,2006.88 3257.43,2004.19C3336.78,1945.35 3416.17,1886.55 3495.2,1827.32C3502.64,1821.74 3508.52,1813.89 3513.75,1806.27C3543.71,1762.62 3579.54,1724.01 3623.73,1692.42C3626.94,1690.12 3630.27,1687.94 3633.69,1685.92C3685.29,1655.54 3695.57,1660.02 3745.24,1700.97C3751.23,1705.9 3754.15,1716.35 3754.66,1724.45C3757.04,1762.56 3738.1,1793.39 3712.98,1821.25C3710.4,1824.11 3699.74,1823.87 3695.19,1821.34C3676.58,1810.99 3666.2,1795.36 3667.84,1774.15C3628.03,1783.36 3529.64,1906.37 3527.83,1951.44C3538.83,1948.95 3549.85,1948.39 3558.84,1944.1C3597.96,1925.41 3637.77,1907.56 3674.92,1885.8C3730.3,1853.37 3783.58,1817.81 3837.88,1783.78C3854.24,1773.53 3864.85,1759.74 3873.84,1743.31C3948.48,1607.06 4020.95,1469.64 4100.41,1335.87C4138.35,1272 4189.56,1214.94 4235.86,1155.55C4246.61,1141.76 4261.31,1130.45 4275.21,1119.1C4284.36,1111.62 4296.1,1104.33 4308.2,1112.21C4321.71,1121.01 4337.19,1130.54 4335.45,1148.96C4334.24,1161.75 4330.91,1174.59 4326.76,1186.89C4290.31,1294.9 4233.09,1393.16 4160.97,1483.41C4104.91,1553.56 4044.57,1620.71 3986.3,1689.32C3978.07,1699.02 3969.65,1708.86 3963.32,1719.66C3913.26,1805.09 3863.67,1890.76 3813.98,1976.38C3811.59,1980.5 3809.7,1984.86 3805.45,1993.37C3811.94,1988.91 3814.76,1987.56 3816.78,1985.51C3883.84,1917.47 3950.82,1849.38 4017.76,1781.24C4021.67,1777.27 4024.8,1772.61 4028.78,1768.72C4036.56,1761.11 4040.74,1746.9 4057.04,1753.72C4079.99,1763.32 4086.3,1774.03 4080.87,1794C4075.17,1814.96 4068.15,1835.65 4063.51,1856.81C4059.08,1876.95 4062.83,1880.46 4085.17,1881.57C4124.45,1883.52 4160.88,1872.76 4195.54,1857.23C4216.83,1847.7 4237.06,1835.79 4256.64,1823.39C4265.3,1817.91 4272.83,1809.45 4278.02,1800.84C4299.81,1764.72 4325.08,1731.4 4359.46,1704.73C4363.03,1701.97 4366.67,1699.28 4370.42,1696.76C4411.91,1668.82 4458.48,1685.99 4467.37,1733.8C4470.52,1750.73 4467.87,1768.6 4467.87,1786.26C4467.13,1786.51 4471.09,1785.53 4474.72,1783.9C4505.29,1770.16 4521.5,1772.97 4543.39,1797.26C4549.25,1803.76 4554.81,1811.44 4557.34,1819.45C4564.92,1843.5 4583.21,1854.49 4607.81,1853.73C4635.27,1852.88 4662.62,1848.5 4689.94,1845.08C4701.49,1843.63 4706.73,1836.6 4709.72,1825.66C4725.92,1766.23 4759.84,1716.7 4808.98,1676.37C4818.47,1668.58 4829.18,1661.76 4840.24,1656.02C4879.97,1635.42 4899.68,1639.66 4931.62,1678.12C4943.06,1691.9 4937.43,1707.66 4927.24,1718.75C4902.5,1745.69 4876.95,1772.27 4849.05,1796.27C4829.65,1812.97 4805.91,1825.28 4783.94,1839.31C4769.35,1848.63 4762.91,1871.14 4767.49,1893.5C4771.1,1911.13 4784.9,1916.99 4800.35,1916.53C4824.95,1915.81 4850.24,1914.64 4873.84,1908.74C4943.54,1891.34 5003.91,1855.61 5063.41,1818.84C5068.5,1815.7 5072.74,1810.61 5075.93,1805.62C5178.37,1645.17 5296.11,1494.58 5416.2,1345.62C5484.81,1260.52 5555.58,1176.91 5627.34,1094.12C5653.8,1063.59 5685.8,1037.25 5715.55,1009.26C5720.8,1004.32 5727.15,1000.24 5733.5,996.523C5750.73,986.42 5768.79,973.981 5789.38,986.785C5813.93,1002.05 5834,1021.89 5825.68,1052.71C5819.06,1077.24 5811.23,1101.9 5800.14,1124.9C5742.47,1244.51 5661.88,1349.71 5566.57,1445.48C5466.62,1545.9 5359.15,1638.69 5245.25,1725.08C5232.91,1734.45 5221.5,1745.9 5212.81,1758.32C5132.65,1872.95 5054.96,1989.08 4989.24,2111.64C4970.95,2145.77 4957.22,2182.27 4944.27,2218.58C4936.07,2241.56 4942.41,2246.55 4968.76,2244.03C5029.92,2238.18 5087.24,2219.25 5143.36,2197.27C5293.79,2138.33 5435.17,2063.28 5573.52,1983.11C5739.95,1886.67 5912.54,1800.71 6086.79,1717.55C6113.55,1704.78 6141.74,1694.65 6169.04,1682.87C6186.8,1675.2 6199.3,1683.38 6210.38,1694.45C6218.11,1702.16 6207.59,1724.16 6192.71,1731.88C5843.01,1913.14 5494.07,2095.78 5130.14,2251.53C5090.25,2268.59 5048.67,2282.36 5007.3,2296.13C4991.73,2301.31 4974.6,2303.71 4958.02,2304.63C4911.2,2307.23 4876.29,2277.94 4877.81,2234.2C4878.73,2207.55 4884.07,2180.21 4892.8,2154.79C4922.48,2068.36 4969.62,1989.18 5013.88,1908.88C5020.6,1896.67 5027.52,1884.55 5031.37,1870.06C5025.6,1873.27 5019.82,1876.46 5014.07,1879.69C4958.92,1910.73 4902.92,1940.09 4839.9,1955.17C4829.29,1957.71 4818.4,1959.68 4807.5,1960.67C4757.02,1965.25 4721.2,1941.86 4707.73,1896.05C4706.24,1890.97 4704.72,1885.9 4703.08,1880.39C4681.14,1885.12 4660.64,1890.62 4639.74,1893.86C4577.32,1903.51 4546.22,1889.8 4514.53,1838.75C4507.54,1827.49 4499.21,1824.09 4487.65,1830.12C4472.04,1838.27 4456.62,1846.87 4441.97,1856.42C4409.69,1877.46 4378.01,1899.27 4345.95,1920.59C4340.79,1924.03 4335.06,1926.78 4329.39,1929.47C4289.87,1948.17 4255.01,1929.63 4250.85,1887.8C4250.5,1884.23 4249.84,1880.69 4248.96,1874.66Z" style="fill-rule:nonzero;"/>
        <path d="M4077.72,3191.17C4000.95,3222.83 3921.58,3250.27 3861.18,3308.44C3945.76,3289.44 4014.6,3244.93 4077.72,3191.17ZM3748.06,3122.98C3749.35,3124.06 3750.64,3125.15 3751.92,3126.24C3757.79,3124.4 3764.94,3123.96 3769.32,3120.48C3791.55,3102.78 3814.96,3085.86 3834.23,3065.57C3850.08,3048.88 3861.23,3028.13 3873.24,3008.52C3875.58,3004.7 3874.34,2996 3871.09,2992.99C3868.06,2990.17 3859.19,2990.01 3854.65,2992.07C3846.03,2996 3836.82,3001.02 3831.11,3007.94C3805.42,3039.02 3780.61,3070.75 3756.16,3102.7C3751.82,3108.36 3750.68,3116.16 3748.06,3122.98ZM4271.3,3113.08C4237.54,3126.05 4204.79,3138.2 4172.53,3151.38C4166.1,3154.01 4160.83,3160.04 4156.15,3165.37C4084.04,3247.61 3990.75,3301.11 3886.25,3339.18C3875.15,3343.22 3862.66,3345.17 3850.7,3345.64C3829.44,3346.47 3814.89,3331.35 3819.84,3311.99C3823.08,3299.3 3828.9,3284.9 3838.67,3276.4C3866.85,3251.87 3894.7,3224.87 3927.99,3208.08C3991.44,3176.07 4058.44,3150.18 4124.26,3122.38C4147.1,3112.73 4152.51,3102.12 4137.6,3082.99C4126.87,3069.21 4112.83,3057.38 4098.9,3046.16C4087.13,3036.69 4073.45,3029.27 4060.5,3021.09C4029.09,3001.25 3998.71,2980.6 3987.87,2941.78C3957.93,2953.27 3929.36,2964.23 3899.27,2975.78C3914.64,2999.92 3904.84,3020.83 3893.62,3041.37C3873.45,3078.28 3848.78,3112.54 3815.4,3139.88C3797.87,3154.25 3777.68,3167.44 3756.27,3175.63C3720.31,3189.38 3685.13,3165.68 3684.06,3129.01C3683.68,3115.71 3685.16,3101.56 3689.76,3089.09C3711.12,3031.17 3745.65,2981.1 3797.02,2942.36C3813.7,2929.78 3831.68,2917.99 3855.62,2926.21C3858.37,2927.15 3862.37,2925.57 3865.59,2924.58C3911.18,2910.52 3956.86,2896.69 4002.22,2881.99C4012.89,2878.53 4023.31,2873.14 4032.35,2866.78C4064.46,2844.19 4097.77,2823.66 4136.74,2813.25C4146.05,2810.77 4158.47,2810.06 4166.63,2813.85C4193.68,2826.39 4197.28,2841.14 4174.84,2859.44C4156.19,2874.66 4132.5,2884.7 4110.41,2895.94C4095.77,2903.4 4079.26,2907.76 4064.92,2915.63C4046.75,2925.62 4045.93,2934.93 4060.99,2949.24C4073.13,2960.79 4086.83,2970.89 4099.57,2981.9C4115.29,2995.48 4131.22,3008.9 4146.18,3023.19C4167.52,3043.58 4184.9,3066.34 4187.56,3098.91C4213.17,3090.08 4235.77,3080.48 4259.44,3074.64C4284.24,3068.53 4294.83,3054.59 4302.21,3032.32C4352.56,2880.47 4405.79,2729.44 4455.12,2577.29C4473.01,2522.11 4483.88,2464.82 4495.62,2408.07C4499.83,2387.68 4497.88,2366.03 4497.43,2344.98C4496.99,2324.14 4485.35,2309.13 4463.38,2305.43C4436.23,2300.86 4408.11,2294.91 4381.13,2297.15C4306.32,2303.37 4231.38,2310.79 4157.37,2322.61C3825,2375.7 3498.08,2450.45 3175.92,2543.52C3164.33,2546.87 3152.48,2549.53 3140.63,2552.03C3109.3,2558.64 3076.73,2543.16 3067.65,2517.58C3058.07,2490.61 3075.79,2449.71 3105.22,2441.78C3143.34,2431.52 3182.95,2425.99 3222.07,2419.14C3234.51,2416.95 3247.49,2415.74 3260.06,2416.5C3269.04,2417.04 3277.65,2421.88 3286.59,2424.27C3291.78,2425.65 3297.55,2427.37 3302.64,2426.57C3548.52,2387.76 3794.48,2349.33 4040.14,2309.35C4147.27,2291.91 4253.7,2270.73 4360.67,2252.34C4386.7,2247.87 4413.55,2247.3 4440.07,2245.62C4511.99,2241.07 4551.91,2287.6 4567.35,2335.66C4579.06,2372.13 4577.69,2409.67 4572.31,2446.84C4558.45,2542.77 4528.38,2634.92 4495.86,2726.44C4462.46,2820.43 4428.93,2914.39 4395.51,3008.38C4393.02,3015.37 4391,3022.5 4387.8,3032.61C4398.73,3030.87 4406.54,3028.19 4414.02,3028.85C4421.06,3029.46 4427.74,3033.59 4434.58,3036.17C4432.15,3041.76 4431.4,3049.93 4426.98,3052.44C4414.78,3059.35 4400.39,3062.87 4388.16,3069.73C4380.06,3074.28 4370.38,3081.21 4367.86,3088.92C4305.45,3279.82 4243.89,3470.96 4182.27,3662.08C4180.29,3668.2 4179.16,3674.56 4180.58,3682.62C4183.85,3678.27 4187.33,3674.05 4190.36,3669.57C4425.47,3321.85 4675.93,2983.88 4933.08,2650.24C5009.5,2551.1 5090.01,2454.72 5169.01,2357.33C5178.4,2345.75 5189.54,2335.27 5200.8,2325.19C5214.11,2313.28 5223.5,2314.03 5237.02,2325.42C5244.87,2332.03 5245.89,2337.94 5239.41,2346.33C5081.92,2550.23 4923.61,2753.58 4767.59,2958.45C4611.52,3163.37 4455.49,3368.42 4314.28,3582.76C4270.6,3649.08 4230.97,3717.74 4189.49,3785.33C4179.69,3801.29 4170.24,3817.44 4160.03,3833.16C4154.05,3842.38 4147.78,3852.35 4133.36,3850.22C4117.16,3847.83 4100.45,3842.77 4098.34,3825.95C4095.56,3803.79 4093.21,3780.33 4097.9,3758.8C4138.55,3572.36 4186.97,3387.67 4245.43,3205.35C4254.71,3176.41 4263.74,3147.41 4272.8,3118.41C4273.07,3117.56 4272.28,3116.42 4271.3,3113.08Z" style="fill-rule:nonzero;"/>
        <path d="M5229.26,3162.46C5263.77,3157.15 5287.76,3138.99 5304.75,3112.74C5326.6,3079 5333.26,3041.75 5333.25,3003.07C5290.31,3051.97 5249.61,3101.29 5229.26,3162.46ZM5664.78,2681.25C5652.93,2694.34 5641.11,2707.47 5629.21,2720.53C5572.79,2782.51 5515.16,2843.45 5448.3,2895.93C5429.12,2910.99 5409.04,2925.19 5388.34,2938.34C5376.14,2946.08 5372.8,2953.49 5374.36,2967.73C5384.5,3060.26 5360.64,3141.34 5275.06,3199.21C5262.45,3207.75 5248.3,3214.97 5233.83,3220.23C5186.15,3237.57 5142.12,3208.8 5149.36,3161.96C5154.51,3128.65 5169.22,3096.47 5179.89,3063.85C5181.81,3057.99 5184.82,3052.42 5187.33,3046.72C5186.18,3045.84 5185.02,3044.95 5183.87,3044.07C5179.19,3046.73 5174.32,3049.13 5169.87,3052.09C5078.74,3112.9 4987.74,3173.88 4896.5,3234.55C4879.43,3245.9 4862.25,3257.53 4843.73,3266.41C4814.13,3280.61 4782.77,3261.32 4784.97,3230.39C4786.08,3214.91 4790.54,3199.37 4795.23,3184.31C4812.11,3130.15 4837.44,3079.31 4869.48,3031.46C4885.72,3007.22 4891.52,3006.27 4919.14,3016.7C4955.81,3030.55 4957.64,3033.98 4938.69,3067.71C4919.7,3101.5 4899.29,3134.59 4879.6,3168.03C4876.64,3173.05 4874.18,3178.32 4874.32,3186.12C4879.25,3183.92 4884.47,3182.15 4889.08,3179.45C5001.68,3113.44 5114.26,3047.41 5226.65,2981.06C5234.37,2976.51 5240.46,2969.48 5247.33,2963.64C5266.29,2947.52 5284.76,2930.86 5304.41,2915.54C5316.35,2906.23 5329.79,2901.66 5346.37,2907.7C5352.8,2910.04 5363.32,2906.52 5370.47,2902.96C5427.06,2874.76 5475.85,2836.73 5520.83,2794.29C5591.72,2727.43 5654.45,2654.27 5710.81,2576.36C5718.25,2566.08 5723.53,2554.31 5728.79,2542.82C5781.42,2427.98 5838.72,2315.3 5909.17,2208.73C5918.33,2194.87 5928.71,2181.58 5939.75,2168.96C5949.77,2157.51 5961.12,2155.01 5976.12,2163.88C6014.89,2186.82 6016.63,2187.08 5997.68,2226.33C5929.08,2368.41 5859.33,2510.02 5790.54,2652.03C5630.49,2982.42 5486.35,3318.6 5358.71,3660.75C5350.86,3681.78 5344.06,3703.35 5339.51,3725.13C5336.96,3737.34 5341.49,3750.61 5340.13,3763.19C5338.88,3774.74 5334.02,3786 5330.75,3797.39C5320.72,3794.83 5309.09,3794.44 5300.99,3789.27C5285.51,3779.37 5281.07,3762.29 5282.87,3745.95C5286.07,3716.95 5288.44,3687.09 5297.9,3659.53C5344.68,3523.27 5390.88,3386.74 5442.54,3252.01C5512.7,3069.04 5587.65,2887.61 5660.47,2705.5C5663.43,2698.11 5665.72,2690.5 5668.33,2683C5667.15,2682.42 5665.97,2681.83 5664.78,2681.25Z" style="fill-rule:nonzero;"/>
        <path d="M5900.88,3128.91C5894.36,3132.86 5889.05,3135.85 5884,3139.18C5851.85,3160.37 5820.03,3182.01 5787.53,3202.73C5773.73,3211.52 5759.23,3219.92 5743.9,3225.92C5702.58,3242.1 5662.13,3212.22 5668.61,3170.67C5670.44,3159 5673.28,3147.01 5678.43,3136.33C5726.7,3036.15 5797.83,2953 5892.44,2887.62C5895.23,2885.69 5898.2,2884 5901.14,2882.28C5950.82,2853.17 5986.09,2856.9 6026.02,2897.49C6032.57,2904.16 6036.38,2916.19 6035.82,2925.44C6033.35,2966.16 6010.42,2997.75 5979.36,3024.41C5975.15,3028.02 5963.43,3029.38 5959.47,3026.55C5953.69,3022.42 5949.31,3013.7 5948.79,3006.66C5947.82,2993.52 5950.07,2980.18 5950.97,2966.92C5949.39,2965.93 5947.81,2964.94 5946.22,2963.95C5939.32,2967.86 5931.11,2970.59 5925.72,2975.85C5885.38,3015.21 5845.39,3054.89 5805.78,3094.9C5796.08,3104.69 5788.2,3116.05 5779.48,3126.69C5780.34,3127.83 5781.2,3128.98 5782.05,3130.13C5787.53,3127.43 5793.27,3125.1 5798.45,3121.97C5835.39,3099.69 5872.13,3077.11 5909.12,3054.89C5933.68,3040.13 5964.83,3044.57 5980.06,3067.79C5985.73,3076.43 5984.12,3090.5 5982.65,3101.73C5980,3121.89 5981.02,3125.21 6002.22,3121.75C6046.6,3114.52 6091.64,3108.54 6134.64,3096.51C6259.81,3061.48 6384.79,3025.59 6508.53,2986.42C6594.96,2959.06 6682.58,2938.35 6772.59,2925.66C6788.22,2923.45 6803.33,2922.3 6817.24,2932.54C6828.17,2940.6 6832.06,2948.36 6819.58,2956.96C6808.12,2964.86 6796.48,2974.24 6783.3,2977.97C6712.49,2997.98 6641.9,3019.37 6569.89,3034.8C6426.95,3065.43 6287.57,3106.48 6148.92,3150.5C6103.6,3164.88 6056.5,3174.38 6010.22,3186.11C6009.66,3186.25 6009.08,3186.31 6008.51,3186.39C5949.29,3194.83 5924.06,3181.84 5900.88,3128.91Z" style="fill-rule:nonzero;"/>
        <path d="M3579.57,1457.41C3575.02,1454.62 3567.43,1454.9 3561.48,1455.68C3547.18,1457.56 3533.15,1461.45 3518.83,1462.82C3507.26,1463.93 3495.01,1470.02 3483.6,1466.6C3478.17,1466.86 3472.75,1467.42 3467.34,1467.96L3467.21,1467.96C3425.41,1479.73 3384.56,1490.48 3344.45,1503.21C3333.25,1506.76 3322.19,1514.99 3314.82,1523.82C3303.25,1537.67 3305.53,1553.61 3315.51,1565.71C3327.56,1580.31 3340.68,1577.71 3356.97,1572.02C3412.17,1552.73 3467.93,1534.83 3523.52,1516.52C3539.88,1511.13 3557.58,1508.12 3572.42,1500.3C3582.46,1495.01 3590.1,1483.92 3595.43,1473.86C3596.8,1471.27 3586.28,1461.51 3579.57,1457.41Z" style="fill-rule:nonzero;"/>
        <path d="M5072.88,2839.64C5081.54,2845.22 5092.52,2849.4 5097.77,2857.03C5100.09,2860.4 5092.45,2872.58 5086.34,2877.53C5078.34,2884.01 5067.7,2888.04 5057.64,2891.83C5011.13,2909.36 4964.41,2926.39 4917.81,2943.71C4900.45,2950.17 4872.87,2932.22 4871.58,2913.43C4870.39,2896.09 4883.07,2875.18 4900.8,2871.61C4957.17,2860.26 5013.91,2850.47 5072.88,2839.64Z" style="fill-rule:nonzero;"/>
        <path d="M6181.39,2881.74C6186.3,2882.58 6193.51,2882.87 6202.46,2882.87C6228.44,2882.87 6252.4,2873.55 6252.4,2845.88C6252.4,2819.9 6229.6,2809.17 6202.17,2809.17L6181.39,2809.17L6181.39,2881.74ZM6181.39,2790.53L6204.19,2790.53C6230.75,2790.53 6246.34,2776.98 6246.34,2758.63C6246.34,2736.32 6229.02,2727.57 6203.62,2727.57C6192.07,2727.57 6185.43,2728.41 6181.39,2729.26L6181.39,2790.53ZM6156.28,2712.6C6167.25,2710.34 6184.56,2708.65 6202.17,2708.65C6227.29,2708.65 6243.45,2712.88 6255.57,2722.48C6265.68,2729.82 6271.74,2741.12 6271.74,2756.08C6271.74,2774.44 6259.33,2790.53 6238.83,2797.87L6238.83,2798.44C6257.31,2802.96 6278.96,2817.92 6278.96,2846.16C6278.96,2862.54 6272.32,2874.96 6262.5,2884.28C6248.94,2896.42 6227,2902.07 6195.24,2902.07C6177.93,2902.07 6164.65,2900.94 6156.28,2899.81L6156.28,2712.6Z" style="fill-rule:nonzero;"/>
        <path d="M6359.78,2885.69C6359.78,2875.24 6367,2867.9 6377.1,2867.9C6387.21,2867.9 6394.13,2875.24 6394.13,2885.69C6394.13,2895.86 6387.5,2903.48 6376.82,2903.48C6366.71,2903.48 6359.78,2895.86 6359.78,2885.69Z" style="fill-rule:nonzero;"/>
        <path d="M6579.45,2821.31L6560.4,2766.53C6556.07,2754.11 6553.18,2742.81 6550.3,2731.8L6549.72,2731.8C6546.83,2743.1 6543.66,2754.67 6539.9,2766.25L6520.85,2821.31L6579.45,2821.31ZM6515.66,2840.51L6495.45,2900.37L6469.47,2900.37L6535.57,2710.06L6565.88,2710.06L6632.27,2900.37L6605.43,2900.37L6584.65,2840.51L6515.66,2840.51Z" style="fill-rule:nonzero;"/>
        <path d="M6711.66,2885.69C6711.66,2875.24 6718.88,2867.9 6728.98,2867.9C6739.08,2867.9 6746.01,2875.24 6746.01,2885.69C6746.01,2895.86 6739.37,2903.48 6728.69,2903.48C6718.59,2903.48 6711.66,2895.86 6711.66,2885.69Z" style="fill-rule:nonzero;"/>
    </g>
</svg>
