<?xml version="1.0" encoding="UTF-8"?>
<svg id="Ebene_1" data-name="Ebene 1" xmlns="http://www.w3.org/2000/svg" viewBox="0 0 901.263772624938 195.853880186355">
  <defs>
    <style>
      .cls-1 {
        stroke-width: 0px;
      }

      .cls-1, .cls-2 {
        fill: #000;
      }

      .cls-2 {
        stroke: #000;
        stroke-miterlimit: 10;
        stroke-width: 2px;
      }
    </style>
  </defs>
  <g>
    <path class="cls-1" d="M39.543354045283,113.35661843805c-12.080017089844-7.399993896484-24.559997558594-16.149993896484-32.640014648438-27.779983520508-3.809997558594-5.480010986328-5.910003662109-11.710006713867-6.299987792969-18.700012207031C.253345500361,60.596639190003.053363810908,54.476628814026.023365031611,48.526631865784-.066631306279,32.836629424378.103351603877,16.946599517151.533374797236.836614165589c.009979248047-.339996337891.22998046875-.639984130859.549987792969-.75.629974365234-.209991455078,1.139984130859-.039978027344,1.509979248047.530029296875,34.019989013672,52.439987182617,66.320007324219,102.219985961914,96.890014648438,149.349975585938.209991455078.339996337891.239990234375.690002441406.069976806641,1.040008544922-.290008544922.600006103516-1.049987792969.809997558594-1.599975585938.429992675781-19.700012207031-13.610000610352-39.170013427734-26.299987792969-58.410003662109-38.080001831055h0Z"/>
    <path class="cls-1" d="M442.063373576533,20.386632476136c-6.000030517578,1.170013427734-7.280029296875,8.199981689453-.720001220703,10.329986572266,3.509948730469,1.130004882812,6.909973144531,2.320007324219,10.199951171875,3.570007324219,4.650024414062,1.769989013672,6.7900390625,5.06999206543,6.440002441406,9.899993896484-.279968261719,3.860015869141-2.029998779297,6.660003662109-5.25,8.390014648438-6.319976806641,3.40998840332-12.889953613281,1.56999206543-19.709991455078.419998168945-.389953613281-.070007324219-.589965820312-.290008544922-.619964599609-.68000793457l-.730041503906-9.459991455078c-.039947509766-.579986572266.230010986328-.910003662109.800018310547-.980010986328l1.030029296875-.129989624023c.529968261719-.070007324219.859985351562.15998840332.989959716797.679992675781,1.460021972656,5.929992675781,4.989990234375,10.530014038086,12.029998779297,9.149993896484,6.010009765625-1.189987182617,8.860015869141-8.349990844727,1.700012207031-10.839996337891-4.679992675781-1.619995117188-14.339965820312-3.669998168945-15.869995117188-9.229995727539-.72998046875-2.660003662109-.540008544922-5.209991455078.579986572266-7.660003662109,3.740020751953-8.179992675781,15.250030517578-7.010009765625,22.210021972656-5.5.309997558594.059997558594.529968261719.330017089844.540008544922.650024414062l.249969482422,8.679977416992c.010040283203.389999389648-.179992675781.600006103516-.569976806641.610000610352l-1.290008544922.050003051758c-.480010986328.019989013672-.759979248047-.209991455078-.850006103516-.68000793457-1.089965820312-6.089996337891-4.809967041016-8.52001953125-11.159973144531-7.269989013672h0Z"/>
    <path class="cls-1" d="M587.167530070674,54.766530547425c-9.494140625-.029891967773-17.164184570312-8.499908447266-17.124084472656-18.909896850586.039916992188-10.410003662109,7.759948730469-18.820007324219,17.255676269531-18.789916992188,9.494201660156.029907226562,17.164184570312,8.499908447266,17.124084472656,18.909912109375-.039855957031,10.410003662109-7.759826660156,18.820007324219-17.255676269531,18.789901733398M587.243335734736,52.066625151917c5.660034179688,0,10.25-7.209991455078,10.25-16.110000610352s-4.589965820312-16.110000610352-10.25-16.110000610352c-5.659973144531,0-10.25,7.209991455078-10.25,16.110000610352s4.590026855469,16.110000610352,10.25,16.110000610352h0Z"/>
    <path class="cls-1" d="M102.723346721064,190.466619048401l.019989013672-172.429992675781c0-.349975585938.170013427734-.52001953125.52001953125-.52001953125l77.749969482422-.029968261719c.52001953125,0,.779998779297.260009765625.779998779297.779968261719-.019958496094,35.590026855469-.019958496094,71.410018920898,0,107.440017700195.010040283203,14.509994506836-5.329956054688,26.879989624023-16.009979248047,37.099990844727-16.109985351562,15.420013427734-40.289978027344,24.390014648438-62.200012207031,28.380004882812-.570007324219.100006103516-.859985351562-.140014648438-.859985351562-.720001220703h0Z"/>
    <path class="cls-1" d="M369.943347941768,33.776616606995c2.599975585938.170013427734,5.069976806641-.019989013672,7.409973144531-.56999206543.410034179688-.089996337891.760009765625-.330001831055,1.000030517578-.660003662109.529998779297-.75.870025634766-1.589996337891.999969482422-2.499984741211.070037841797-.500015258789.360046386719-.75.860015869141-.75h1.360015869141c.529998779297.009979248047.769989013672.269989013672.719970703125.800003051758-.339965820312,3.309997558594-.349975585938,6.65998840332-.039978027344,10.049987792969.050018310547.550003051758-.200012207031.860000610352-.75.910003662109l-1.189971923828.119995117188c-.529998779297.050003051758-.990020751953-.360000610352-1.000030517578-.889999389648-.049987792969-2.449996948242-1.320007324219-3.679992675781-3.789978027344-3.699996948242-1.850036621094-.010009765625-3.700012207031-.029998779297-5.530029296875-.059997558594-.519958496094-.010009765625-.779968261719.249984741211-.779968261719.769989013672l.029968261719,13.009994506836c.010009765625.389999389648.310028076172.700012207031.700012207031.720001220703,4.590026855469.200012207031,8.630004882812.160003662109,12.130004882812-.119995117188,3.660003662109-.289993286133,4.590026855469-4.179992675781,5.27001953125-7.099990844727.100006103516-.440002441406.529998779297-.720001220703.969970703125-.640014648438l1.290008544922.240005493164c.52001953125.089996337891.870025634766.59001159668.789978027344,1.120025634766l-1.319976806641,8.859985351562c-.040008544922.249984741211-.180023193359.369995117188-.429992675781.369995117188l-30.760009765625.039993286133c-.669982910156,0-1.010009765625-.329986572266-1.019989013672-1v-.439987182617c-.010040283203-.570007324219.260009765625-.880004882812.829986572266-.940017700195l3.619995117188-.379989624023c.899993896484-.089996337891,1.589996337891-.839996337891,1.600036621094-1.740005493164.099945068359-8.129989624023.119995117188-16.279983520508.049957275391-24.429977416992-.009979248047-1.090026855469-.159973144531-2.150024414062-.459991455078-3.200012207031-.099975585938-.359985351562-.339965820312-.570007324219-.709991455078-.630004882812l-3.949981689453-.580017089844c-.650024414062-.099975585938-.960021972656-.47998046875-.940032958984-1.130004882812l.010040283203-.389984130859c.019958496094-.559967041016.489990234375-1.009979248047,1.059967041016-.989990234375,9.690002441406.269989013672,19.329986572266.170013427734,28.920013427734-.300018310547.419982910156-.019989013672.630004882812.179992675781.630004882812.600036621094.039978027344,2.879974365234.320007324219,5.629974365234.839996337891,8.239990234375.129974365234.659973144531-.139984130859,1.029983520508-.809997558594,1.099990844727l-.899993896484.099990844727c-.610046386719.070007324219-.980010986328-.199981689453-1.110046386719-.799987792969-.639953613281-2.869995117188-1.759979248047-5.760009765625-5.109954833984-6.060028076172-3.390045166016-.309997558594-6.910003662109-.379974365234-10.570037841797-.22998046875-.359985351562.02001953125-.639984130859.309997558594-.629974365234.669982910156l.050018310547,11.810028076172c0,.369979858398.289978027344.679992675781.659973144531.699981689453h0Z"/>
    <path class="cls-1" d="M498.853321086299,21.146611724183c-.14990234375,9.350021362305-.14990234375,18.810012817383-.010009765625,28.360015869141.010009765625.850006103516.440063476562,1.31999206543,1.280029296875,1.419998168945l4.279968261719.519989013672c.550048828125.070007324219.800048828125.380020141602.75.93000793457l-.059997558594.600006103516c-.049987792969.539993286133-.339965820312.809997558594-.880004882812.809997558594h-17.099945068359c-.580017089844,0-.899993896484-.289993286133-.949981689453-.860000610352l-.050018310547-.509994506836c-.0400390625-.470001220703.289978027344-.900009155273.760009765625-.959991455078l4.549957275391-.570007324219c.340026855469-.050003051758.559997558594-.240005493164.660034179688-.570007324219.259948730469-.910003662109.390014648438-1.81999206543.390014648438-2.729995727539.019958496094-8.530014038086.019958496094-17.339996337891.009948730469-26.43000793457,0-.419982910156-.2099609375-.629974365234-.639953613281-.640014648438-2.079956054688-.009979248047-6.170013427734-.7099609375-7.270050048828,1.590026855469-.769958496094,1.619995117188-1.43994140625,3.289978027344-2.029968261719,5.019989013672-.129974365234.389999389648-.409973144531.600006103516-.819976806641.649993896484-.470031738281.059997558594-.940002441406.010009765625-1.390014648438-.139984130859-.369995117188-.120010375977-.5400390625-.370025634766-.500030517578-.760009765625l.809997558594-8.670013427734c.029998779297-.339965820312.209991455078-.499969482422.550018310547-.47998046875,9.529968261719.489990234375,19.149963378906.489990234375,28.859985351562,0,.349975585938-.010009765625.530029296875.149993896484.559997558594.489990234375l.809997558594,8.660003662109c.030090332031.380004882812-.130004882812.630004882812-.5.760009765625-.419982910156.149993896484-.849914550781.199981689453-1.299987792969.149993896484-.390014648438-.040008544922-.669982910156-.240005493164-.819946289062-.609985351562l-2.220031738281-5.380004882812c-.300048828125-.730010986328-1.009948730469-1.220031738281-1.809997558594-1.230010986328l-5.240051269531-.069976806641c-.440002441406-.010009765625-.669982910156.209991455078-.679992675781.649963378906h0Z"/>
    <path class="cls-1" d="M617.473316203486,37.28662637262l.020080566406,12.599990844727c.009948730469.570007324219.289978027344.890014648438.859924316406.960006713867l5.2900390625.610015869141c.4599609375.049987792969.679992675781.309997558594.669982910156.759994506836l-.019958496094.799987792969c-.010070800781.510009765625-.27001953125.770004272461-.780029296875.770004272461l-17.530029296875-.020004272461c-.409973144531,0-.75-.330001831055-.77001953125-.739990234375l-.039978027344-.869995117188c-.02001953125-.500015258789.220031738281-.77001953125.710021972656-.800018310547l3.52001953125-.249984741211c1.009948730469-.070007324219,1.800048828125-.910003662109,1.809936523438-1.919998168945.050109863281-8.910003662109.050109863281-17.070007324219,0-24.500015258789-.009887695312-.959991455078-.079956054688-1.949981689453-.2099609375-2.959991455078-.0400390625-.299987792969-.280029296875-.540008544922-.590026855469-.589996337891l-4.260009765625-.670013427734c-.579956054688-.089996337891-.889892578125-.429992675781-.940002441406-1.019989013672l-.029968261719-.440002441406c-.059997558594-.709991455078.27001953125-1.050018310547.97998046875-1.040008544922,9.5.25,19.130004882812.150024414062,28.890014648438-.279968261719.359985351562-.010009765625.559997558594.159973144531.600036621094.519958496094l.920043945312,8.690002441406c.049926757812.490005493164-.170043945312.740020751953-.670104980469.750015258789l-1.049987792969.009994506836c-.450012207031.010025024414-.849975585938-.289993286133-.969970703125-.720001220703-.609985351562-2.139984130859-1.429992675781-5.049987792969-3.869934082031-5.769989013672-3.610107421875-1.070007324219-8.02001953125-.679992675781-11.85009765625-.619995117188-.389953613281.010009765625-.7099609375.329986572266-.700012207031.719970703125l.050048828125,12.010040283203c0,.199981689453.150024414062.369979858398.349975585938.389999389648,2.950012207031.319976806641,9.460021972656.869979858398,9.650024414062-3.410018920898.02001953125-.5.420043945312-.899993896484.919982910156-.920013427734l1.520080566406-.069976806641c.43994140625-.02001953125.639892578125.189987182617.589904785156.639984130859-.369934082031,3.410003662109-.359924316406,6.830017089844.010009765625,10.280014038086.059997558594.579986572266-.200012207031.879989624023-.779968261719.899993896484l-1.029968261719.039993286133c-.56005859375.029998779297-.910034179688-.229995727539-1.06005859375-.769989013672l-.549987792969-2.059997558594c-.27001953125-.980010986328-1.150024414062-1.670013427734-2.170043945312-1.68000793457l-6.7099609375-.100006103516c-.52001953125-.009994506836-.780029296875.250015258789-.780029296875.770004272461h0Z"/>
    <path class="cls-1" d="M224.943363200557,21.916631255433c-.190017700195,5.029998779297-.270034790039,10.329986572266-.230010986328,15.899993896484.029998779297,4.599990844727.449996948242,7.640014648438,1.259994506836,9.129989624023,1.809997558594,3.310012817383,5.210006713867,4.670013427734,10.199981689453,4.080001831055,4.230041503906-.509994506836,6.619995117188-2.849990844727,7.190002441406-7.029983520508.739990234375-5.450012207031.809997558594-12.789993286133.200042724609-21.999984741211-.029998779297-.530029296875-.310028076172-.830017089844-.830047607422-.910034179688l-4.489990234375-.679992675781c-.529998779297-.079986572266-.779968261719-.390014648438-.730010986328-.919982910156l.050048828125-.470031738281c.049957275391-.519958496094.479949951172-.909973144531.999969482422-.909973144531l13.390014648438-.059997558594c.640014648438,0,.940002441406.320007324219.909973144531.959991455078l-.019958496094.389984130859c-.030029296875.610015869141-.350036621094.970031738281-.960021972656,1.059997558594l-3.960021972656.600006103516c-.409973144531.060028076172-.639953613281.290008544922-.7099609375.690002441406-.27001953125,1.550018310547-.410034179688,2.610015869141-.410034179688,3.180023193359.010009765625,7.149978637695-.049987792969,13.349975585938-.169982910156,18.579986572266-.240020751953,10.559997558594-11.319976806641,12.439987182617-19.229995727539,10.429992675781-7.690002441406-1.959991455078-9.230010986328-8.809997558594-8.990005493164-16.110000610352.18000793457-5.449996948242.150009155273-10.699996948242-.089996337891-15.740005493164-.020004272461-.5-.400009155273-.909973144531-.900009155273-.989990234375l-4.439987182617-.660003662109c-.380004882812-.059997558594-.570007324219-.279998779297-.580001831055-.670013427734v-.949981689453c0-.550018310547.269989013672-.820007324219.81999206543-.809997558594l16.790008544922.089996337891c.480010986328.010009765625.75.25.800018310547.720001220703l.089965820312.700012207031c.050018310547.420013427734-.249984741211.809997558594-.669982910156.869995117188l-4.529998779297.690002441406c-.420013427734.059997558594-.740020751953.420013427734-.759994506836.839996337891h0Z"/>
    <path class="cls-1" d="M283.043323527705,42.28662637262l-.159973144531-20.119995117188c-.010009765625-.410003662109-.200012207031-.679992675781-.590026855469-.820007324219-1.609954833984-.570007324219-3.22998046875-.849975585938-4.859985351562-.819976806641-.559997558594.009979248047-.839996337891-.260009765625-.830017089844-.820037841797l.010009765625-.759979248047c0-.569976806641.2900390625-.860015869141.860046386719-.860015869141l13.309997558594-.009979248047c.5,0,.75.249969482422.759948730469.759979248047l.010009765625.970031738281c.010040283203.519989013672-.249969482422.759979248047-.760009765625.72998046875-1.2099609375-.089996337891-2.389953613281.059997558594-3.539978027344.429992675781-.690002441406.230010986328-1.039978027344.700012207031-1.059967041016,1.420013427734-.290008544922,10.759994506836-.270050048828,21.130004882812.049957275391,31.099990844727.02001953125.620010375977-.279968261719.910003662109-.899963378906.880004882812l-2.25-.110000610352c-.610046386719-.029998779297-1.059997558594-.320007324219-1.350036621094-.860000610352-.989990234375-1.889999389648-1.949981689453-3.540008544922-2.899993896484-4.950012207031-5.109985351562-7.599990844727-10.149993896484-14.789993286133-15.110015869141-21.559982299805-.299957275391-.410003662109-.449951171875-.359985351562-.449951171875.149993896484l-.0400390625,22.429992675781c-.009979248047.730010986328.5400390625,1.34001159668,1.260040283203,1.420013427734l4.919952392578.550003051758c.390045166016.039993286133.690002441406.379989624023.679992675781.789993286133l-.029998779297.779998779297c-.009979248047.509994506836-.279998779297.759994506836-.789947509766.759994506836l-13.820007324219.010009765625c-.429992675781,0-.7900390625-.330001831055-.830017089844-.760009765625l-.059997558594-.690002441406c-.049987792969-.529983520508.189971923828-.81999206543.719970703125-.889984130859l3.900054931641-.520004272461c.319976806641-.040008544922.579986572266-.270004272461.659942626953-.570007324219.230041503906-.820007324219.350036621094-1.679992675781.360015869141-2.589996337891.080017089844-7.950012207031.059997558594-16.380004882812-.049957275391-25.290008544922-.010040283203-.839996337891-.430053710938-1.329986572266-1.260009765625-1.459991455078l-3.550048828125-.550018310547c-.5-.079986572266-.759948730469-.369995117188-.769958496094-.869995117188l-.02001953125-.549987792969c-.02001953125-.650024414062.289978027344-.970001220703.940032958984-.970001220703l8.919952392578-.029998779297c.640014648438-.010009765625,1.240020751953.309997558594,1.600036621094.839996337891l16.260009765625,23.650009155273c.509979248047.75.769989013672.669982910156.759948730469-.240005493164h0Z"/>
    <path class="cls-1" d="M298.983325969111,21.026616606995l-4.759979248047-.579986572266c-.389984130859-.050018310547-.580017089844-.269989013672-.569976806641-.669982910156l.040008544922-.960021972656c.019989013672-.509979248047.279998779297-.760009765625.789947509766-.760009765625h17.2900390625c.5,0,.760009765625.250030517578.779968261719.75l.040008544922.959991455078c.019989013672.410034179688-.170013427734.630004882812-.579986572266.680023193359l-4.77001953125.589996337891c-.349975585938.040008544922-.569976806641.240020751953-.640014648438.589996337891-.18994140625.910003662109-.289978027344,1.850006103516-.299987792969,2.839996337891-.130004882812,7.890014648438-.099975585938,16.25.070007324219,25.080017089844.010009765625.81999206543.429992675781,1.269989013672,1.239990234375,1.359985351562l4.400024414062.490005493164c.409973144531.049987792969.599975585938.270004272461.589965820312.679992675781l-.039978027344.960006713867c-.02001953125.509994506836-.289978027344.770004272461-.799987792969.770004272461h-17.27001953125c-.509979248047,0-.779968261719-.25-.799957275391-.760009765625l-.029998779297-.970001220703c-.010009765625-.399993896484.179962158203-.619979858398.579986572266-.669982910156l4.660003662109-.540008544922c.409973144531-.050003051758.659973144531-.279998779297.75-.690002441406.189971923828-.889999389648.289978027344-1.769989013672.299987792969-2.630004882812.080017089844-7.050003051758.080017089844-14.720001220703.009979248047-22.999984741211-.009979248047-.950012207031-.110015869141-1.910003662109-.309967041016-2.900024414062-.080017089844-.369964599609-.300048828125-.569976806641-.670043945312-.619995117188h0Z"/>
    <path class="cls-1" d="M337.103351603877,44.686635527893l8.459991455078-21.830001831055c.430023193359-1.110015869141.070007324219-1.830017089844-1.089996337891-2.149993896484-1.010009765625-.27001953125-2.089965820312-.310028076172-3.260009765625-.120025634766-.670013427734.109985351562-1.010009765625-.169982910156-1.019958496094-.849975585938l-.020050048828-.900024414062c-.009948730469-.529968261719.250030517578-.789978027344.779998779297-.789978027344l12.800048828125-.040008544922c.529968261719,0,.779968261719.27001953125.769989013672.799987792969l-.029998779297,1.220001220703c-.019989013672.549987792969-.290008544922.75-.820037841797.600036621094-3.879974365234-1.060028076172-5.419982910156,4.7099609375-6.519989013672,7.199981689453-3.829986572266,8.669998168945-7.179992675781,17.389984130859-10.049987792969,26.160003662109-.130004882812.389999389648-.399993896484.589981079102-.809997558594.589981079102l-2.019989013672.020004272461c-.390014648438.010009765625-.650024414062-.18000793457-.769989013672-.549987792969-2.430023193359-7.470001220703-6.52001953125-17.620010375977-12.270050048828-30.429992675781-1.059967041016-2.360015869141-2.789947509766-3.390014648438-5.190002441406-3.080017089844-.629943847656.080017089844-.919982910156-.190002441406-.889953613281-.820007324219l.029998779297-.659973144531c.029998779297-.670043945312.379974365234-1.010009765625,1.049957275391-1.010009765625h16.02001953125c.670013427734,0,1.019989013672.339965820312,1.049987792969,1.010009765625l.029998779297.47998046875c.040008544922.809997558594-.339996337891,1.159973144531-1.149993896484,1.059997558594-1.509979248047-.190002441406-2.830017089844.010009765625-3.980010986328.589996337891-.429992675781.220001220703-.559967041016.559997558594-.389953613281,1.02001953125l8.4599609375,22.479995727539c.269989013672.720001220703.549987792969.720001220703.830017089844,0h0Z"/>
    <path class="cls-1" d="M415.693347941768,36.636632476136c3.470031738281,4.439987182617,6.839996337891,8.729995727539,10.089996337891,12.859985351562.97998046875,1.250015258789,2.180023193359,1.870010375977,3.600036621094,1.870010375977.399993896484,0,.719970703125.31999206543.709991455078.720001220703l-.010040283203.919998168945c-.009979248047.520004272461-.269958496094.779998779297-.799987792969.789993286133l-7.779968261719.020004272461c-.390045166016,0-.760040283203-.189987182617-.990051269531-.510009765625l-11.139984130859-15.489990234375c-.230010986328-.329986572266-.550018310547-.490005493164-.9599609375-.5l-3.670013427734-.050003051758c-.300018310547-.009994506836-.5400390625.240005493164-.530029296875.529998779297l.339996337891,12.170013427734c.010009765625.449996948242.239990234375.709991455078.690002441406.779998779297l4.480010986328.710006713867c.509979248047.079986572266.730010986328.379989624023.680023193359.889984130859l-.080047607422.710006713867c-.049987792969.419998168945-.409942626953.739990234375-.839996337891.739990234375l-16.5-.009994506836c-.499969482422,0-.769989013672-.25-.799987792969-.75l-.059997558594-.960006713867c-.02001953125-.330001831055.210021972656-.619979858398.5400390625-.660003662109l4.049957275391-.469985961914c.630004882812-.080001831055,1.119995117188-.589996337891,1.149993896484-1.229995727539.5-9.750015258789.489990234375-19.070007324219-.039978027344-27.949996948242-.02001953125-.430023193359-.239990234375-.680023193359-.669982910156-.730010986328l-4.170043945312-.580017089844c-.469970703125-.059997558594-.819946289062-.4599609375-.809967041016-.929992675781l.009979248047-.699981689453c.010040283203-.510009765625.27001953125-.77001953125.779998779297-.77001953125,6.620025634766-.009979248047,13.340026855469-.009979248047,20.150024414062-.019989013672,5.629974365234,0,11.029968261719,2.429992675781,10.889984130859,8.970001220703-.109985351562,5.110000610352-3.700012207031,7.480010986328-8.119964599609,8.970001220703-.270050048828.089996337891-.370056152344.43000793457-.190032958984.660003662109M404.263324748408,21.756627593323l-.019989013672,11.459991455078c0,.670013427734.540008544922,1.220001220703,1.220031738281,1.220001220703l3.399963378906.010009765625c4.480041503906,0,8.119995117188-2.869995117188,8.130004882812-6.43000793457v-1.020004272461c.010040283203-3.559997558594-3.619964599609-6.449981689453-8.109985351562-6.449981689453l-3.400024414062-.010009765625c-.669982910156,0-1.220001220703.549987792969-1.220001220703,1.220001220703h0Z"/>
    <path class="cls-1" d="M463.733356486689,21.206609282776c-1.280029296875-.429992675781-2.730010986328-.639984130859-4.340026855469-.639984130859-.679962158203,0-1.009979248047-.339996337891-.989990234375-1.029998779297l.010009765625-.580017089844c.010009765625-.589965820312.319976806641-.889984130859.919982910156-.889984130859h16.880004882812c.470001220703,0,.859985351562.379974365234.880035400391.850006103516l.029998779297.579986572266c.019989013672.579986572266-.260040283203.910003662109-.839996337891.980010986328l-4.020050048828.489990234375c-.629943847656.080017089844-1.119964599609.590026855469-1.149963378906,1.22998046875-.460021972656,8.690032958984-.470001220703,17.840026855469-.019989013672,27.430023193359.029998779297.660003662109.540008544922,1.210006713867,1.199951171875,1.290008544922l4.160034179688.490005493164c.439971923828.050003051758.660003662109.289993286133.649963378906.739990234375l-.009948730469.860000610352c-.010009765625.529998779297-.280029296875.800003051758-.809997558594.800003051758l-17.070037841797-.010009765625c-.529968261719,0-.789978027344-.259994506836-.799987792969-.779998779297v-.829986572266c-.010009765625-.400009155273.289978027344-.729995727539.680023193359-.779998779297l4.179992675781-.510009765625c.619964599609-.080001831055,1.100006103516-.59001159668,1.129974365234-1.220001220703.460021972656-9.570007324219.450012207031-18.779998779297-.019989013672-27.610000610352-.019989013672-.389984130859-.279998779297-.730010986328-.649993896484-.860015869141h0Z"/>
    <path class="cls-1" d="M534.123340617549,35.866628203675c.219970703125.339996337891.719970703125.339996337891.930053710938,0l8.409912109375-13.470016479492c.380004882812-.609985351562.010070800781-1.419982910156-.7099609375-1.519989013672l-2.799926757812-.410003662109c-.56005859375-.089996337891-.820068359375-.409973144531-.790100097656-.970001220703l.040100097656-.489990234375c.039916992188-.670013427734.39990234375-1.010009765625,1.079895019531-1l11.150085449219.089996337891c.339965820312,0,.599914550781.140014648438.769958496094.429992675781.330017089844.540008544922.309997558594,1.040008544922-.0400390625,1.489990234375-.22998046875.300018310547-.539978027344.490020751953-.950012207031.580017089844-1.9599609375.440002441406-3.469909667969,1.470001220703-4.529968261719,3.090026855469-3.269958496094,4.989974975586-6.669921875,10.15998840332-10.179992675781,15.489974975586-.330017089844.509994506836-.5,1.059997558594-.489990234375,1.660003662109l.049987792969,8.669998168945c.010009765625.550003051758.370056152344,1.039993286133.890075683594,1.189987182617,1.569946289062.470016479492,3.279907226562.650024414062,5.130004882812.540008544922.609924316406-.029998779297.869995117188.25.799926757812.860015869141l-.119995117188.90998840332c-.070007324219.580001831055-.400024414062.869995117188-.980041503906.869995117188l-17.889953613281-.050003051758c-.669982910156-.009994506836-1.009948730469-.339996337891-1.030029296875-1.009994506836l-.02001953125-.459991455078c-.019897460938-.5.350036621094-.919998168945.85009765625-.970016479492l4.9599609375-.519989013672c.539978027344-.059997558594.9599609375-.509994506836.980041503906-1.059997558594.069946289062-2.610000610352.109985351562-5.320007324219.129943847656-8.130004882812.010009765625-1.330001831055-.410034179688-2.599990844727-1.25-3.799987792969-2.699951171875-3.880004882812-5.22998046875-7.690017700195-7.580017089844-11.43000793457-1.380004882812-2.209991455078-3.950012207031-6.160003662109-6.720031738281-5.870025634766-.4599609375.050048828125-.849914550781-.309967041016-.839965820312-.769958496094l.02001953125-.980010986328c.009948730469-.449981689453.380004882812-.809997558594.819946289062-.809997558594l15.590087890625.049987792969c.690002441406,0,1.030029296875.350006103516,1.039978027344,1.040008544922l.009948730469.429992675781c.010009765625.790008544922-.380004882812,1.130004882812-1.159912109375,1.02001953125-1.520080566406-.210021972656-2.820068359375-.059997558594-3.900085449219.459991455078-.469970703125.220001220703-.559997558594.549987792969-.289978027344.999969482422l8.619995117188,13.850021362305h0Z"/>
    <path class="cls-1" d="M373.443347941768,137.156621489808c-.079986572266-6.259994506836-.509979248047-12.369979858398-1.289978027344-18.330001831055-.080047607422-.589996337891.169982910156-.929977416992.759979248047-1.019989013672l2.939971923828-.470016479492c.730041503906-.110000610352,1.180023193359.190002441406,1.350036621094.910003662109,2.889984130859,12.310012817383,10.859985351562,20.470001220703,24.499969482422,16.030014038086,3.890014648438-1.270004272461,6.420043945312-3.800018310547,7.600036621094-7.610015869141,1.999969482422-6.399993896484-2.550018310547-10.110000610352-7.920013427734-11.839996337891-4.97998046875-1.610000610352-9.600006103516-3.15998840332-13.859985351562-4.65998840332-7.320007324219-2.59001159668-14.27001953125-6.640014648438-14.670043945312-15.470016479492-.559967041016-12.239974975586,7.970031738281-19.999984741211,19.340057373047-21.289993286133,7.029968261719-.799987792969,14.609954833984-.219985961914,22.759979248047,1.75.410003662109.100006103516.610015869141.360000610352.589965820312.779998779297-.190002441406,5.930023193359-.019958496094,11.43000793457.510040283203,16.500015258789.039978027344.389999389648-.139984130859.589981079102-.5400390625.599990844727l-3.579956054688.050003051758c-.340026855469,0-.5400390625-.169998168945-.589996337891-.500015258789-1.029998779297-6.249984741211-3.220001220703-11.610000610352-9.110015869141-13.709991455078-6.859985351562-2.440002441406-17.120025634766-.919982910156-20.079986572266,6.559997558594-2.5400390625,6.399993896484,2.389953613281,10.199996948242,7.820007324219,11.970001220703,6.569946289062,2.140014648438,12.849945068359,4.380020141602,18.819946289062,6.710006713867,9.140045166016,3.580001831055,12.510040283203,11.719985961914,10.310028076172,20.860000610352-2.389984130859,9.920013427734-11.550018310547,14.330001831055-21.709991455078,15.170013427734-6.080017089844.509994506836-12.280029296875-.950012207031-18.250030517578-2.170028686523-1.749969482422-.360000610352-3.499969482422-.489990234375-5.239959716797-.389999389648-.25.020004272461-.450012207031-.179992675781-.460021972656-.429992675781h0Z"/>
    <path class="cls-1" d="M600.423328410518,140.216619048401c-37.369995117188,1.580017089844-43.369995117188-55.5-10.659973144531-65.719985961914,14.489990234375-4.52001953125,29.589965820312,1.609985351562,36.27001953125,15.339981079102,9.859985351562,20.27001953125.199951171875,49.290023803711-25.610046386719,50.380004882812M617.213306437861,111.516622100159c.7900390625-10.850006103516-.759887695312-28.40998840332-13.159912109375-32.860000610352-9.22998046875-3.309982299805-17.160034179688,2.839996337891-20.430053710938,11.390014648438-4.119995117188,10.770004272461-4.179992675781,28.349990844727,2.779968261719,38.369979858398,4.800048828125,6.910003662109,13.390014648438,9.400009155273,20.590087890625,4.77001953125,6.9599609375-4.480010986328,9.619934082031-13.559997558594,10.219909667969-21.670013427734h0Z"/>
    <path class="cls-1" d="M804.123340617549,73.076619658753c23.800048828125-.559997558594,35.380004882812,22.800003051758,30.130004882812,43.52001953125-1.7900390625,7.110000610352-5.200012207031,12.72998046875-10.22998046875,16.860000610352-12.31005859375,10.119995117188-30.920043945312,8.929977416992-41.550048828125-3.140014648438-11.72998046875-13.329986572266-11-37.320007324219,2-49.389999389648,5.440063476562-5.050003051758,11.989990234375-7.669982910156,19.650024414062-7.850006103516M818.893360148799,126.386632476136c4.839965820312-8.640014648438,5.029968261719-20.830017089844,3.219970703125-30.440017700195-.609985351562-3.209991455078-1.72998046875-6.309997558594-3.380004882812-9.279998779297-6.47998046875-11.690002441406-20.950012207031-11.879974365234-27.619995117188-.220001220703-1.77001953125,3.080017089844-2.969970703125,6.440017700195-3.619995117188,10.090026855469-1.969970703125,10.999984741211-1.349975585938,26.399978637695,6.969970703125,34.619979858398,7.980102539062,7.880020141602,19.180053710938,4.599990844727,24.430053710938-4.769989013672h0Z"/>
    <path class="cls-1" d="M457.413379680049,78.766637358948c-.180053710938-.010009765625-.320007324219.130004882812-.330047607422.309982299805-.129974365234,16.949996948242-.109985351562,33.280014038086.080017089844,48.990005493164.009979248047,1.380004882812.179992675781,2.789993286133.489990234375,4.229995727539.070007324219.330001831055.280029296875.610015869141.579986572266.759994506836,2.560028076172,1.360015869141,6.720001220703,1.360015869141,9.550018310547,1.470001220703.310028076172.010025024414.550018310547.260040283203.540008544922.56999206543l-.049987792969,3.200012207031c0,.350021362305-.170043945312.519989013672-.52001953125.519989013672l-32.480010986328-.009979248047c-.269958496094,0-.489990234375-.220001220703-.489990234375-.489990234375l-.050018310547-3.060012817383c-.009979248047-.389999389648.190002441406-.610015869141.580017089844-.650009155273l8.119995117188-.809997558594c1.120025634766-.119995117188,2.010040283203-1.009994506836,2.130035400391-2.129989624023.339996337891-3.389999389648.509979248047-6.979995727539.499969482422-10.769989013672-.029998779297-14.060028076172-.029998779297-27.84001159668,0-41.350006103516.010009765625-.510009765625-.249969482422-.77001953125-.759979248047-.77001953125l-10.559997558594.060012817383c-.410003662109,0-.779998779297.120010375977-1.110015869141.360000610352-2.880004882812,2.080001831055-5.089996337891,9.239990234375-6.129974365234,12.539993286133-.070037841797.210006713867-.290008544922.34001159668-.510040283203.289993286133l-3.589965820312-.779998779297c-.420043945312-.089981079102-.590026855469-.339996337891-.519989013672-.759994506836.919952392578-5.22998046875,1.449981689453-10.669982910156,1.579956054688-16.31999206543.010040283203-.449996948242.240020751953-.649993896484.690002441406-.580001831055,2.829986572266.439987182617,5.700012207031.799987792969,8.580017089844.84001159668,11.749969482422.169998168945,23.319976806641.179977416992,34.72998046875.039993286133,3.200042724609-.030014038086,6.320037841797-.380020141602,9.470031738281-.84001159668.4599609375-.070007324219.700012207031.130004882812.709991455078.599990844727.119995117188,5.690002441406.649963378906,11.140014648438,1.580017089844,16.360000610352.069976806641.370025634766-.089996337891.600021362305-.460052490234.68000793457l-3.529998779297.740020751953c-.309967041016.059997558594-.619964599609-.120025634766-.720001220703-.420013427734-1.529998779297-4.780014038086-3.099945068359-8.479995727539-4.72998046875-11.089996337891-.710021972656-1.150009155273-1.75-1.710006713867-3.119995117188-1.699996948242-3.699981689453.049987792969-7.120025634766.039993286133-10.249969482422-.029998779297h0Z"/>
    <path class="cls-1" d="M329.103321086299,107.586614165589c-.609985351562.010025024414-1.099975585938.500015258789-1.099975585938,1.110000610352l.010009765625,24.080017089844c0,.65998840332.539978027344,1.199996948242,1.199981689453,1.209976196289,6.710021972656.030014038086,13.320007324219.030014038086,19.830017089844-.009979248047,9.399993896484-.059997558594,9.739990234375-6.81999206543,12.290008544922-13.580001831055.189971923828-.490005493164.539978027344-.68000793457,1.059997558594-.560012817383l3.389984130859.790008544922c.589996337891.140014648438.819976806641.509994506836.680023193359,1.110000610352-1.149993896484,5.030014038086-1.970031738281,10.520004272461-2.480010986328,16.449996948242-.029998779297.419998168945-.259979248047.629989624023-.690002441406.629989624023l-56.569976806641.02001953125c-.2900390625,0-.530029296875-.240005493164-.530029296875-.540008544922v-3.230010986328c0-.389999389648.190002441406-.589981079102.580017089844-.599990844727,2.089965820312-.089996337891,4.399993896484-.289978027344,6.910003662109-.619979858398,1.899993896484-.250030517578,2.899993896484-1.270004272461,3-3.059997558594.100006103516-1.790023803711.160003662109-3.540023803711.179962158203-5.25.170043945312-12.840026855469.210021972656-25.000015258789.119995117188-36.490020751953-.019958496094-2.330001831055-.149993896484-4.710006713867-.389953613281-7.139999389648-.140014648438-1.43000793457-1.010009765625-2.25-2.600036621094-2.470001220703-2.75-.389999389648-5.200012207031-.619995117188-7.359985351562-.699981689453-.240020751953-.010025024414-.429992675781-.210021972656-.429992675781-.450012207031l.049987792969-3.269989013672c0-.310012817383.160034179688-.470016479492.480010986328-.470016479492,12.469970703125-.009994506836,25.029998779297-.009994506836,37.679992675781,0,5.25,0,10.570007324219-.469985961914,15.699981689453-1.020004272461.470031738281-.050003051758.720031738281.160003662109.75.650009155273.300048828125,5.589996337891.900024414062,11.18000793457,1.809997558594,16.780014038086.020050048828.149978637695-.039947509766.229995727539-.189971923828.249984741211l-4.149993896484.550003051758c-.199981689453.020004272461-.320007324219-.06999206543-.360015869141-.260009765625-1.689971923828-9.129989624023-5.089965820312-12.589996337891-13.470001220703-12.690002441406-4.949981689453-.049987792969-10.040008544922-.039978027344-15.269989013672.050003051758-.819976806641.010025024414-1.230010986328.430023193359-1.230010986328,1.250015258789v21.449996948242c0,.639984130859.519989013672,1.169982910156,1.160034179688,1.18000793457,4.389984130859.109985351562,10.709991455078.580001831055,14.459991455078-1.280014038086,1.999969482422-.990005493164,2.649993896484-3.679992675781,2.910003662109-5.839996337891.069946289062-.549987792969.369995117188-.820007324219.919982910156-.830001831055l3.159973144531-.009994506836c.600036621094-.010009765625.880035400391.290008544922.850036621094.889999389648-.339996337891,6.40998840332-.330017089844,12.940002441406.019958496094,19.609985351562.010040283203.350006103516-.149993896484.529998779297-.499969482422.529998779297h-4.030029296875c-.22998046875,0-.359954833984-.110000610352-.389953613281-.339996337891-.530029296875-4.559997558594-1.380004882812-7.679977416992-6.770050048828-7.809982299805-3.529968261719-.089996337891-7.099945068359-.120010375977-10.690002441406-.070022583008h0Z"/>
    <path class="cls-1" d="M258.683338176143,87.916615996643c-.170013427734-.759994506836-.349975585938-.759994506836-.539978027344,0-4.079986572266,16.150024414062-8.030029296875,32.040023803711-11.839996337891,47.690002441406-.310028076172,1.300018310547-.570037841797,2.660003662109-.77001953125,4.09001159668-.050018310547.349990844727-.350006103516.619979858398-.709991455078.619979858398l-6.590026855469-.009979248047c-.380004882812,0-.599975585938-.190002441406-.669952392578-.560012817383-.280029296875-1.549987792969-.610015869141-3.039993286133-.990020751953-4.470001220703-4.050018310547-15.309997558594-8.989990234375-31.940002441406-14.820007324219-49.889984130859-1.389999389648-4.309997558594-3.119995117188-7.410018920898-8.40998840332-6.530014038086-.43000793457.070022583008-.650009155273-.119979858398-.639999389648-.559997558594l.059997558594-3.009994506836c.009994506836-.490005493164.25-.740005493164.739990234375-.740005493164l27.260009765625-.009994506836c.349975585938,0,.529968261719.18000793457.529968261719.529998779297l-.059997558594,3.229995727539c-.009948730469.429992675781-.219970703125.630020141602-.649963378906.580001831055-1.950012207031-.209991455078-3.700012207031-.039993286133-5.25.5-2.169982910156.75-2.940002441406,2.410003662109-2.309997558594,4.970016479492,2.809997558594,11.449996948242,6.4599609375,24.499984741211,10.940002441406,39.149978637695.179962158203.589996337891.339965820312.589996337891.489990234375-.009994506836l11.919982910156-48.43000793457c.089996337891-.349990844727.310028076172-.529983520508.679992675781-.529983520508h8.179992675781c.390014648438,0,.630004882812.190002441406.710052490234.579986572266,3.459991455078,16.650009155273,7.079986572266,32.790008544922,10.859954833984,48.419998168945.119995117188.490005493164.250030517578.500015258789.390045166016.010025024414,4.249969482422-14.710021972656,7.839996337891-28.120025634766,10.759979248047-40.210006713867,1.029968261719-4.310012817383-4.5-4.670013427734-7.390014648438-4.52001953125-.349975585938.02001953125-.52001953125-.139984130859-.529968261719-.489990234375l-.060028076172-3.260009765625c-.009979248047-.349990844727.160003662109-.529983520508.510009765625-.529983520508l21.740020751953-.010009765625c.349975585938-.009994506836.519958496094.160003662109.529998779297.509994506836l.049957275391,3.070007324219c.010009765625.510009765625-.25.75-.760009765625.720001220703-4.079956054688-.270004272461-6.829956054688,1.65998840332-8.239990234375,5.790008544922-5.909973144531,17.190002441406-11.149993896484,35.540008544922-15.700012207031,55.040023803711-.109985351562.449966430664-.399963378906.679977416992-.869995117188.679977416992l-6.389953613281.009994506836c-.330047607422.009979248047-.540008544922-.150009155273-.610046386719-.480010986328l-11.549987792969-51.940002441406h0Z"/>
    <path class="cls-1" d="M516.703418742549,132.94661477594c.509887695312-1.229995727539.759887695312-2.539993286133.769897460938-3.939987182617.050048828125-13.5.050048828125-27.990005493164.010009765625-43.470001220703,0-1.570007324219-.139953613281-3.079986572266-.429931640625-4.540008544922-.070068359375-.360000610352-.250061035156-.629974365234-.56005859375-.809997558594-2.299987792969-1.349990844727-6.429992675781-1.330001831055-8.989990234375-1.440002441406-.330017089844-.009979248047-.489929199219-.179977416992-.5-.499984741211l-.0400390625-3.169998168945c-.009887695312-.350006103516.160034179688-.520004272461.5-.520004272461l31.260009765625-.040008544922c.340026855469,0,.510009765625.170013427734.510009765625.509994506836l.030090332031,3.240005493164c.009948730469.360000610352-.170043945312.539993286133-.530090332031.539993286133-2.159973144531,0-6.890014648438.090026855469-8.899963378906,1.310012817383-.330017089844.199996948242-.52001953125.489990234375-.590026855469.859985351562-.299926757812,1.70002746582-.450012207031,3.470016479492-.460021972656,5.320022583008-.039978027344,14.72998046875-.049987792969,29.65998840332-.019897460938,44.779998779297.009948730469,1.90998840332.969909667969,2.879974365234,2.879943847656,2.899993896484,4.9599609375.050003051758,9.760009765625.030029296875,14.409973144531-.059997558594,4.820007324219-.080017089844,8.349975585938-2.379989624023,10.590026855469-6.900009155273,1.299987792969-2.629989624023,2.690063476562-5.269989013672,3.769958496094-8,.130065917969-.309997558594.460021972656-.469985961914.780029296875-.380004882812l3.559997558594,1.050003051758c.369995117188.110015869141.52001953125.350006103516.429992675781.730010986328-1.339965820312,5.919982910156-2.169982910156,11.860000610352-2.499938964844,17.809997558594-.020080566406.349990844727-.31005859375.619979858398-.660034179688.619979858398l-54.2900390625-.019973754883c-.529968261719,0-.789978027344-.260009765625-.799987792969-.790023803711l-.029968261719-2.869979858398c-.010009765625-.330001831055.149963378906-.52001953125.47998046875-.560012817383l8.419982910156-.979995727539c.400024414062-.039993286133.75-.300003051758.900085449219-.68000793457h0Z"/>
    <path class="cls-1" d="M681.513355265986,120.126622710511c.269958496094.389999389648.410034179688.350006103516.420043945312-.130004882812.179931640625-12.099990844727.059997558594-24.709991455078-.349975585938-37.839981079102-.040100097656-1.410018920898-.730102539062-2.240020751953-2.070007324219-2.490020751953-2.870056152344-.549987792969-5.650085449219-.849990844727-8.330078125-.889999389648-.320007324219,0-.47998046875-.15998840332-.47998046875-.489990234375l.0400390625-3.239990234375c0-.330001831055.169982910156-.490005493164.499938964844-.490005493164l25.510009765625-.020004272461c.339965820312,0,.510009765625.169998168945.510009765625.519989013672l-.02001953125,3.230010986328c0,.350006103516-.169982910156.519989013672-.52001953125.510009765625-3.709899902344-.089996337891-9.019897460938-.910003662109-9.269958496094,4.489990234375-.77001953125,16.84001159668-.710021972656,35.470001220703.179992675781,55.900009155273.019958496094.419998168945-.179992675781.630004882812-.600036621094.630004882812l-5.399963378906.029998779297c-.5400390625,0-1.0400390625-.300003051758-1.299987792969-.77001953125-2.870056152344-5.360000610352-6.0400390625-10.529998779297-9.52001953125-15.509994506836-8.049987792969-11.510009765625-16.130004882812-22.979995727539-24.22998046875-34.399993896484-.340026855469-.479995727539-.52001953125-.419998168945-.529968261719.169998168945-.170043945312,11.399993896484-.110046386719,25.099990844727.159912109375,41.09001159668.030029296875,1.929977416992.920043945312,3.029998779297,2.650024414062,3.279983520508,3.099975585938.449996948242,6.200012207031.710006713867,9.309997558594.779998779297.22998046875.009994506836.340087890625.119995117188.340087890625.350006103516v3.720001220703c0,.18000793457-.090087890625.270004272461-.270080566406.270004272461l-26.950012207031-.010025024414c-.320007324219,0-.489929199219-.15998840332-.5-.469970703125l-.149963378906-3.310028076172c-.010009765625-.219985961914.149963378906-.399978637695.369995117188-.409973144531,2.719970703125-.160018920898,5.2900390625-.500015258789,7.710021972656-1.030029296875,1.169982910156-.259979248047,1.779968261719-.949966430664,1.830017089844-2.079986572266.659912109375-15.910003662109.679931640625-32.229995727539.059936523438-48.959991455078-.029968261719-1.010009765625-.380004882812-1.880004882812-1.029907226562-2.630004882812-.170043945312-.190002441406-.400024414062-.320007324219-.650085449219-.349990844727l-7.809997558594-.950012207031c-.280029296875-.029998779297-.419921875-.189987182617-.419921875-.470001220703l.019897460938-3.089996337891c.010009765625-.330001831055.170043945312-.5.500061035156-.5l18.239929199219-.029998779297c.420043945312-.009994506836.75.160003662109.990051269531.510009765625l31.059997558594,45.079986572266h0Z"/>
    <path class="cls-1" d="M712.30333329333,132.436620269104c.429992675781-1.729995727539.650085449219-3.539978027344.659973144531-5.439987182617.090026855469-12.709991455078.080017089844-25.650009155273-.039978027344-38.820007324219-.009948730469-1.939987182617-.109985351562-4.040008544922-.279968261719-6.309982299805-.099975585938-1.320022583008-.860046386719-2.100021362305-2.280029296875-2.330017089844-2.960021972656-.5-5.7099609375-.760009765625-8.239929199219-.769989013672-.289978027344-.010009765625-.430053710938-.150009155273-.420043945312-.440017700195l.079956054688-3.330001831055c.010009765625-.229995727539.190002441406-.419998168945.420043945312-.419998168945,11.7099609375-.079986572266,23.429992675781-.059997558594,35.159973144531.070007324219,3.150024414062.029998779297,6.309997558594.479995727539,9.47998046875,1.350006103516,26.360107421875,7.199996948242,28.530029296875,46.939987182617,4.680053710938,58.690002441406-5.390014648438,2.659973144531-11.5400390625,4.009979248047-18.460021972656,4.059982299805-10.169982910156.06999206543-20.460021972656.09001159668-30.850036621094.060012817383-.329956054688,0-.489929199219-.170013427734-.5-.500015258789l-.019958496094-3.22998046875c0-.319976806641.159973144531-.490020751953.480041503906-.509994506836,2.989990234375-.18000793457,6.499938964844-.250030517578,9.349975585938-1.27001953125.390014648438-.139984130859.68994140625-.459991455078.779968261719-.860000610352M724.05333329333,81.21663430719l-.080017089844,50.199981689453c-.010009765625,1.410003662109,1.130004882812,2.539993286133,2.530029296875,2.550018310547l7.739990234375.009994506836c11.780029296875.020004272461,21.340087890625-9.730010986328,21.359985351562-21.779998779297l.02001953125-11.639999389648c.02001953125-12.050003051758-9.510009765625-21.84001159668-21.280029296875-21.860000610352l-7.739990234375-.010009765625c-1.39990234375-.009994506836-2.539978027344,1.130020141602-2.549987792969,2.530014038086h0Z"/>
    <path class="cls-1" d="M850.603321086299,89.026616606995c-.269897460938-.369995117188-.39990234375-.330001831055-.39990234375.130004882812.029907226562,11.880020141602.039916992188,23.850021362305.009887695312,35.910003662109-.009887695312,2.650009155273.190002441406,5.070007324219.580078125,7.250015258789.069946289062.369979858398.27001953125.639984130859.599975585938.81999206543,2.5,1.329986572266,7.650024414062,1.269989013672,10.530029296875,1.339996337891.359924316406.009994506836.539916992188.199981689453.549926757812.559982299805l.059997558594,3.250030517578c.010070800781.360000610352-.169982910156.539993286133-.529968261719.539993286133l-26.5-.010025024414c-.330017089844,0-.5-.169967651367-.5-.509994506836l-.059997558594-3.240005493164c-.010009765625-.309951782227.149963378906-.479995727539.4599609375-.509994506836,2.030029296875-.149993896484,4.180114746094-.369995117188,6.440002441406-.649978637695,1.760009765625-.220016479492,2.710083007812-1.120010375977,2.850036621094-2.710021972656.130004882812-1.619979858398.210021972656-3.199996948242.22998046875-4.749984741211.130004882812-13.039993286133.140075683594-26.210006713867.010009765625-39.520004272461-.010009765625-1.799987792969-.109985351562-3.580001831055-.279968261719-5.330001831055-.099975585938-.949996948242-.780029296875-1.719985961914-1.700012207031-1.940002441406-2.440002441406-.559982299805-4.940002441406-.850006103516-7.490051269531-.880004882812-.329956054688,0-.489990234375-.15998840332-.489990234375-.489990234375l.010009765625-3.230010986328c0-.329986572266.170043945312-.489990234375.5-.489990234375l18.06005859375-.059997558594c.449951171875,0,.799926757812.18000793457,1.059936523438.549987792969l30.950012207031,44.940002441406c.289978027344.420013427734.429992675781.370010375977.440002441406-.139984130859.02001953125-11.070007324219.010009765625-22.420013427734-.030029296875-34.050003051758-.009948730469-.790008544922-.14990234375-2.279998779297-.43994140625-4.459991455078-.050048828125-.370025634766-.210021972656-.680023193359-.490051269531-.930023193359-1.820007324219-1.599990844727-7.589904785156-1.599990844727-9.75-1.599990844727-.320007324219,0-.47998046875-.160003662109-.47998046875-.480010986328l-.070007324219-3.279998779297c-.010009765625-.339981079102.160034179688-.509994506836.5-.509994506836h25.52001953125c.349975585938,0,.52001953125.170013427734.510009765625.509994506836l-.050048828125,3.270004272461c-.009887695312.370010375977-.18994140625.540023803711-.559997558594.510009765625-2.369995117188-.169998168945-5.449890136719-.250015258789-7.619995117188.859985351562-.349975585938.170013427734-.609924316406.480010986328-.72998046875.850006103516-.450012207031,1.330001831055-.700012207031,2.660018920898-.75,3.990020751953-.289978027344,7.279998779297-.549987792969,14.29997253418-.409973144531,21.639984130859.219970703125,11.170013427734,0,21.720001220703.670043945312,32.830001831055.029907226562.540008544922-.220092773438.810012817383-.760009765625.810012817383l-5.580078125.019973754883c-.409912109375,0-.7099609375-.179992675781-.899963378906-.539993286133-3.140014648438-5.830001831055-6.410034179688-11.169998168945-9.799987792969-16-8.100036621094-11.550003051758-16.160034179688-22.969985961914-24.170043945312-34.270004272461h0Z"/>
    <path class="cls-1" d="M28.513355265986,110.176641021058l-1.029998779297,40.019989013672c-13.130004882812-3.340026855469-21-11.200012207031-23.610015869141-23.570007324219-1.949981689453-9.240005493164-3.069976806641-18.779998779297-3.339965820312-28.619979858398-.0400390625-1.320022583008,0-2.610000610352.109954833984-3.880004882812.029998779297-.380020141602.450012207031-.600021362305.779998779297-.400024414062l27.090026855469,16.45002746582h0Z"/>
    <path class="cls-1" d="M28.513355265986,110.176641021058l70.190002441406,43.089996337891c.25.159973144531.399993896484.429992675781.409973144531.720001220703.02001953125.679992675781-.349975585938,1.010009765625-1.099975585938.989990234375-21.220001220703-.620025634766-43.370025634766-2.019989013672-66.440002441406-4.190002441406-1.429992675781-.130004882812-2.790008544922-.330017089844-4.089996337891-.589996337891l1.029998779297-40.019989013672h0Z"/>
    <path class="cls-1" d="M38.383350383174,154.556615386292c1.130004882812,8.010009765625,1.670013427734,16.119995117188,1.599975585938,24.320007324219-8.279998779297-4.019989013672-15.379974365234-9.689971923828-21.289978027344-17-1.869995117188-2.309997558594-3.679992675781-4.559997558594-5.440002441406-6.759979248047-.440002441406-.560028076172-.029998779297-1.370025634766.679992675781-1.350006103516l24.450012207031.789978027344h0Z"/>
    <path class="cls-1" d="M39.983325969111,178.876622710511c.070037841797-8.200012207031-.469970703125-16.309997558594-1.599975585938-24.320007324219l59.910003662109,2.340026855469c.350006103516.009979248047.619995117188.169982910156.799987792969.47998046875.169982910156.300018310547.199981689453.609985351562.090026855469.920013427734-.110015869141.349975585938-.330017089844.589965820312-.660003662109.739990234375-12.140014648438,5.630004882812-24.600006103516,11.639984130859-37.380004882812,18.029998779297-3.850006103516,1.930023193359-7.160003662109,3.029998779297-9.950012207031,3.320007324219-3.699981689453.389984130859-7.440002441406-.110015869141-11.210021972656-1.510009765625h0Z"/>
    <path class="cls-1" d="M52.133319865596,184.876622710511c15.360015869141-8.149993896484,30.800018310547-15.880004882812,45.880035400391-23.669982910156.489990234375-.250030517578.919982910156-.340026855469,1.290008544922-.269989013672.449981689453.089996337891.660003662109.359985351562.649963378906.809997558594-.189971923828,7.149963378906-1.009979248047,14.439971923828-2.459991455078,21.869995117188-2.779968261719,14.149963378906-34.069976806641,6.259979248047-42.989959716797,3.439971923828-.910034179688-.289978027344-1.720031738281-.689971923828-2.440032958984-1.220001220703-.339996337891-.25-.299987792969-.760009765625.069976806641-.959991455078h0Z"/>
  </g>
  <g>
    <path class="cls-1" d="M211.346639280451,189.236215864777c5.025955440244-.344820237626,5.321658841694-.493173130555,5.469009350213-1.824339629289.197469729104-1.673981967533.197469729104-5.567243022559.197469729104-13.105173798513,0-7.539935544777,0-11.433196599804-.197469729104-13.107178567338-.14735050852-1.331166498732-.443053909969-1.479519391663-5.469009350213-1.824339629287v-2.068921425738h16.555380943571c6.110535373699,0,10.545084011042,1.577753064008,10.545084011042,7.439697103606,0,7.293348979501-7.489816324192,7.786522110056-7.489816324192,8.426043364716,0,.543292351142,9.953677208141.936227040525,9.953677208141,9.510623298173,0,7.489816324192-7.687286053297,8.622510709411-13.698585370236,8.622510709411h-15.865740468325v-2.06892142574ZM222.728714275259,171.596254987749c0,.591406802901.393937073796.737754927008,2.168157482499.737754927008,5.12418911259,0,7.538933160366-2.315507991018,7.538933160366-6.798171080123,0-4.089728399718-1.725103572528-6.160654594283-7.194112922743-6.160654594283h-1.478517007251c-.936227040524,0-1.034460712871.198472113516-1.034460712871.689640475248v11.531430272151ZM222.728714275259,187.756696473111c0,.936227040524.098233672346,1.182813605803,1.724101188117,1.182813605803h2.02080697398c4.68113520262,0,8.031103906508-2.068921425742,8.031103906508-7.193110538332s-4.08972839972-7.046762414222-8.720744381756-7.046762414222c-2.857797957745,0-3.055267686849.148352892931-3.055267686849.787874147592v12.269185199159Z"/>
    <path class="cls-1" d="M242.53382548155,189.236215864777c3.844144218854-.246586565279,4.533784694101-1.479519391665,6.159652209872-5.569247791384l8.426043364716-21.138282473847c1.428397786668-3.596555269167,1.773218024291-4.482663089104,2.315507991018-6.307002718391h2.562094556295c.246586565278,1.527633843425,1.182813605802,4.189966840888,1.823337244875,5.765715136076l9.805324315211,23.602143357793c1.281047278148,3.153501359197,1.625867515771,3.694788941511,5.764712751664,3.646674489752v2.06892142574h-16.801967508849v-2.06892142574c4.927721767898-.198472113518,5.321658841694-.641526023486,5.321658841694-1.872454081051,0-.986346261108-2.119040646326-6.405236390736-2.414744047776-6.996643193637-.147350508519-.246586565278-.344820237623-.344820237622-.640523639073-.394939458207-1.231930441974-.148352892931-3.744908162097-.246586565278-8.671627545583-.246586565278-3.104384523022,0-3.252737415953.246586565278-3.695791325923,1.281047278148-1.182813605801,3.005148466264-1.970687753394,5.567243022559-1.970687753394,6.060416153112,0,1.479519391663.541287582315,1.824339629287,5.222422784936,2.169159866913v2.06892142574h-13.205412239683v-2.06892142574ZM263.622991119222,177.359965355002c.444056294381,0,.591406802901-.146348124108.591406802901-.294701017039,0-.246586565279-.197469729104-.787874147594-.295703401451-1.084579933457l-4.68113520262-12.170951526812-4.926719383487,12.467657312674c-.14835289293.344820237624-.246586565278.591406802901-.246586565278.787874147594,0,.196467344691.246586565278.294701017039.542289966728.294701017039h9.016447783206Z"/>
    <path class="cls-1" d="M308.802461323185,195.853880186355c-8.574396257647-6.750056628362-11.875248125363-13.600351697891-11.875248125363-21.928161390262,0-8.325804923548,3.300851867716-15.176099993078,11.875248125363-21.926156621439l1.083577549044,1.281047278149c-6.651822956016,5.765715136075-8.524277037063,13.057059346751-8.524277037063,20.64510934329s1.872454081047,14.881398976038,8.524277037063,20.647114112115l-1.083577549044,1.281047278148Z"/>
    <path class="cls-1" d="M314.220349068402,189.236215864777c5.025955440243-.344820237626,5.321658841694-.493173130555,5.469009350212-1.824339629289.197469729104-1.673981967533.197469729104-5.567243022559.197469729104-13.105173798513,0-7.539935544777,0-11.433196599804-.197469729104-13.107178567338-.147350508519-1.331166498732-.443053909969-1.479519391663-5.469009350212-1.824339629287v-2.068921425738h17.048554074125v2.068921425738c-5.025955440244.344820237624-5.321658841694.493173130555-5.469009350213,1.824339629287-.099236056758,1.03446071287-.197469729104,3.941375506789-.197469729104,6.256883497806v3.251735031541c0,1.429400171079.14735050852,1.625867515771,1.429400171079,1.625867515771h12.958825674406c1.281047278147,0,1.428397786666-.196467344693,1.428397786666-1.625867515771v-3.251735031541c0-2.315507991018-.098233672345-5.222422784936-.196467344692-6.256883497806-.148352892931-1.331166498732-.444056294382-1.479519391663-5.470011734625-1.824339629287v-2.068921425738h17.048554074125v2.068921425738c-5.025955440243.344820237624-5.321658841694.493173130555-5.469009350212,1.824339629287-.197469729105,1.673981967533-.197469729105,5.56724302256-.197469729105,13.107178567338,0,7.537930775954,0,11.43119183098.197469729105,13.105173798513.147350508519,1.331166498734.443053909969,1.479519391663,5.469009350212,1.824339629289v2.06892142574h-17.048554074125v-2.06892142574c5.025955440243-.344820237626,5.321658841694-.493173130555,5.470011734625-1.824339629289.147350508519-1.379280950492.196467344692-5.370775677866.196467344692-11.086371593357,0-1.429400171077-.14735050852-1.62586751577-1.428397786666-1.62586751577h-12.958825674406c-1.282049662559,0-1.429400171079.196467344693-1.429400171079,1.62586751577,0,5.715595915492.049116836174,9.707090642865.197469729104,11.086371593357.14735050852,1.331166498734.443053909969,1.479519391663,5.469009350213,1.824339629289v2.06892142574h-17.048554074125v-2.06892142574Z"/>
    <path class="cls-1" d="M373.196638314948,156.518388667017c9.115683839964,0,16.161443869774,7.19311053833,16.161443869774,17.788313769957,0,10.593198462802-7.04576002981,17.786309001134-16.161443869774,17.786309001134s-16.161443869774-7.193110538332-16.161443869774-17.786309001134c0-10.595203231627,7.04576002981-17.788313769957,16.161443869774-17.788313769957ZM373.196638314948,189.72938899533c5.271539621109,0,9.756207479038-4.977840988484,9.756207479038-15.422686558355,0-10.446850338696-4.484667857929-15.422686558355-9.756207479038-15.422686558355-5.272542005521,0-9.756207479038,4.975836219659-9.756207479038,15.422686558355,0,10.444845569871,4.483665473516,15.422686558355,9.756207479038,15.422686558355Z"/>
    <path class="cls-1" d="M393.986091013523,189.236215864777c4.730252038794-.344820237626,5.025955440245-.493173130555,5.174308333176-1.824339629289.196467344692-1.673981967533.196467344692-5.567243022559.196467344692-13.105173798513,0-7.539935544777,0-11.433196599804-.196467344692-13.107178567338-.148352892931-1.331166498732-.444056294382-1.479519391663-5.174308333176-1.824339629287v-2.068921425738h10.150144552835c.29570340145.5914068029.837993368178,1.281047278146,1.478517007252,2.217274318669l15.373569722181,22.371215300233h.098233672347v-7.588049996539c0-7.539935544777,0-11.433196599804-.197469729105-13.107178567338-.14735050852-1.331166498732-.443053909969-1.479519391663-5.764712751664-1.824339629287v-2.068921425738h13.944169551104v2.068921425738c-4.581899145863,0-5.025955440245.246586565279-5.173305948764,2.957034014504-.147350508519,2.562094556295-.246586565277,5.617362243145-.246586565277,8.229576020025,0,9.508618529348.049116836173,17.44148876351.393937073796,21.334749818538h-3.547438432992c-2.06892142574-3.843141834443-3.843141834443-6.7019421766-6.45435322691-10.346611897527l-12.022598633883-17.098673294709h-.099236056758v9.855443535795c0,7.537930775954,0,11.43119183098.197469729104,13.105173798513.14735050852,1.331166498734.44305390997,1.479519391663,6.405236390738,1.824339629289v2.06892142574h-14.535576354005v-2.06892142574Z"/>
    <path class="cls-1" d="M435.569005948321,179.972179131882c1.527633843424,5.813829587836,4.188964456477,9.757209863448,9.460504077587,9.757209863448,5.420894898452,0,8.179456799438-3.105386907435,8.179456799438-6.208769046045,0-3.203620579779-2.51297772012-4.288200513236-6.01129931694-5.471014119037l-3.843141834443-1.230928057565c-8.819980438514-2.906914793917-9.756207479038-5.912063260181-9.756207479038-9.755205094623,0-6.307002718391,5.272542005521-10.545084011042,12.86059200206-10.545084011042,3.744908162096,0,6.996643193639.541287582315,9.607854586107,1.182813605801,0,.591406802901-.049116836175,1.47751462284-.049116836175,2.167155098086,0,2.365627211602.148352892931,4.68113520262.344820237624,7.094876865985h-2.315507991018c-.837993368179-6.010296932529-3.794024998269-8.079218358271-8.47516020089-8.079218358271-4.286195744412,0-7.538933160366,2.610209008057-7.538933160366,5.763710367251,0,2.169159866911,1.133696769628,3.646674489752,4.730252038793,4.877602547313l8.179456799439,2.858800342159c5.272542005523,1.872454081047,7.341463431263,4.484667857927,7.341463431263,9.165803060547,0,6.551584514846-5.419892514041,10.543079242219-13.401879584377,10.543079242219-3.64667448975,0-7.390580267434-1.47751462284-10.889904248666-1.47751462284-.049116836173-2.513980104533-.393937073796-6.948528741876-.787874147592-10.200263773419l2.364624827191-.443053909969Z"/>
    <path class="cls-1" d="M464.982974125129,151.999562174654c8.573393873236,6.750056628362,11.875248125363,13.600351697891,11.875248125363,21.926156621439,0,8.327809692371-3.301854252128,15.178104761901-11.875248125363,21.928161390262l-1.083577549043-1.281047278148c6.651822956015-5.765715136076,8.524277037062-13.059064115576,8.524277037062-20.647114112115s-1.872454081047-14.879394207215-8.524277037062-20.64510934329l1.083577549043-1.281047278149Z"/>
    <path class="cls-1" d="M494.889113048079,189.236215864777c5.025955440246-.344820237626,5.272542005521-.493173130555,5.469009350214-1.824339629289.197469729104-1.673981967533.197469729104-5.567243022559.197469729104-13.105173798513,0-7.539935544777,0-11.433196599804-.197469729104-13.107178567338-.196467344693-1.331166498732-.443053909969-1.479519391663-5.469009350214-1.824339629287v-2.068921425738h18.033897950823c3.794024998269,0,6.651822956017.88811258876,8.721746766167,2.66032822864,1.773218024291,1.479519391663,2.857797957746,3.548440817403,2.857797957746,6.160654594283,0,6.798171080123-6.01129931694,9.70508587404-14.78216291928,9.70508587404-1.330164114321,0-2.759564285399-.098233672345-3.449204760647-.098233672345v11.677778396257c0,1.331166498734.44305390997,1.479519391663,6.159652209872,1.824339629289v2.06892142574h-17.54172720468v-2.06892142574ZM506.271188042887,173.370475396451c.788876532006.048114451762,1.527633843425.098233672345,2.315507991019.098233672345,4.927721767897,0,9.509620913761-.888112588762,9.509620913761-7.391582651844,0-6.1105353737-3.990492342962-6.996643193641-9.36126802083-6.996643193641-2.266391154846,0-2.46386088395.294701017039-2.46386088395,1.182813605803v13.107178567338Z"/>
    <path class="cls-1" d="M527.751283601123,189.236215864777c5.025955440244-.344820237626,5.321658841694-.493173130555,5.469009350214-1.824339629289.197469729103-1.673981967533.197469729103-5.567243022559.197469729103-13.105173798513,0-7.539935544777,0-11.433196599804-.197469729103-13.107178567338-.14735050852-1.331166498732-.44305390997-1.479519391663-5.469009350214-1.824339629287v-2.068921425738h17.048554074127v2.068921425738c-5.025955440246.344820237624-5.321658841696.493173130555-5.469009350214,1.824339629287-.099236056758,1.03446071287-.197469729106,3.941375506789-.197469729106,6.256883497806v3.251735031541c0,1.429400171079.14735050852,1.625867515771,1.429400171079,1.625867515771h12.958825674406c1.281047278148,0,1.428397786667-.196467344693,1.428397786667-1.625867515771v-3.251735031541c0-2.315507991018-.098233672346-5.222422784936-.196467344691-6.256883497806-.148352892931-1.331166498732-.444056294382-1.479519391663-5.470011734626-1.824339629287v-2.068921425738h17.048554074127v2.068921425738c-5.025955440246.344820237624-5.321658841696.493173130555-5.469009350214,1.824339629287-.197469729106,1.673981967533-.197469729106,5.56724302256-.197469729106,13.107178567338,0,7.537930775954,0,11.43119183098.197469729106,13.105173798513.147350508518,1.331166498734.443053909969,1.479519391663,5.469009350214,1.824339629289v2.06892142574h-17.048554074127v-2.06892142574c5.025955440244-.344820237626,5.321658841694-.493173130555,5.470011734626-1.824339629289.14735050852-1.379280950492.196467344691-5.370775677866.196467344691-11.086371593357,0-1.429400171077-.14735050852-1.62586751577-1.428397786667-1.62586751577h-12.958825674406c-1.282049662559,0-1.429400171079.196467344693-1.429400171079,1.62586751577,0,5.715595915492.049116836175,9.707090642865.197469729106,11.086371593357.147350508518,1.331166498734.443053909969,1.479519391663,5.469009350214,1.824339629289v2.06892142574h-17.048554074127v-2.06892142574Z"/>
    <path class="cls-1" d="M586.727572847669,156.518388667017c9.115683839962,0,16.161443869774,7.19311053833,16.161443869774,17.788313769957,0,10.593198462802-7.045760029812,17.786309001134-16.161443869774,17.786309001134s-16.161443869774-7.193110538332-16.161443869774-17.786309001134c0-10.595203231627,7.04576002981-17.788313769957,16.161443869774-17.788313769957ZM586.727572847669,189.72938899533c5.272542005521,0,9.756207479037-4.977840988484,9.756207479037-15.422686558355,0-10.446850338696-4.483665473515-15.422686558355-9.756207479037-15.422686558355s-9.756207479038,4.975836219659-9.756207479038,15.422686558355c0,10.444845569871,4.483665473517,15.422686558355,9.756207479038,15.422686558355Z"/>
    <path class="cls-1" d="M612.346513641796,189.236215864777c5.321658841694-.344820237626,5.56824540697-.493173130555,5.765715136075-1.824339629289.098233672346-.984341492283.196467344693-2.708442680401.196467344693-5.567243022559v-22.469448972579h-5.666479079318c-1.674984351945,0-2.364624827191,1.42940017108-4.385431801169,7.096881634809l-2.266391154846-.493173130555c.44305390997-1.922573301632.738757311421-4.68113520262.936227040525-9.165803060547.985343876697.148352892931,1.921570917222.246586565276,2.906914793917.344820237624.936227040525.100238441168,1.921570917222.148352892931,2.857797957746.148352892931h16.95032040178c2.069923810153,0,3.991494727374-.196467344695,5.764712751663-.493173130555.197469729104,4.484667857927.493173130555,7.243229758915.936227040525,9.165803060547l-2.266391154844.493173130555c-2.019804589569-5.667481463728-2.709445064815-7.096881634809-4.385431801173-7.096881634809h-5.666479079317v22.469448972579c0,2.858800342157.099236056758,4.582901530275.197469729104,5.567243022559.197469729104,1.331166498734.44305390997,1.479519391663,5.764712751663,1.824339629289v2.06892142574h-17.639960877024v-2.06892142574Z"/>
    <path class="cls-1" d="M655.606417697361,156.518388667017c9.115683839962,0,16.161443869772,7.19311053833,16.161443869772,17.788313769957,0,10.593198462802-7.04576002981,17.786309001134-16.161443869772,17.786309001134s-16.161443869776-7.193110538332-16.161443869776-17.786309001134c0-10.595203231627,7.045760029812-17.788313769957,16.161443869776-17.788313769957ZM655.606417697361,189.72938899533c5.271539621108,0,9.756207479037-4.977840988484,9.756207479037-15.422686558355,0-10.446850338696-4.484667857929-15.422686558355-9.756207479037-15.422686558355-5.272542005521,0-9.756207479038,4.975836219659-9.756207479038,15.422686558355,0,10.444845569871,4.483665473517,15.422686558355,9.756207479038,15.422686558355Z"/>
    <path class="cls-1" d="M702.609225146198,180.661819607128c0-.787874147592-.393937073795-.936227040524-3.153501359195-1.034460712872l-3.005148466265-.098233672345v-2.068921425742h15.323450501597v1.77221563988c-3.349968703889.100238441169-3.449204760645.344820237624-3.449204760645,2.513980104533,0,2.906914793919.148352892931,5.418890129629.148352892931,7.882751013578-2.857797957746,1.134699154039-8.475160200891,2.463860883949-12.614005436784,2.463860883949-11.332958158635,0-18.083014786995-4.779368874966-18.083014786995-17.786309001134,0-7.489816324192,4.779368874966-17.788313769957,19.01924182752-17.788313769957,3.794024998269,0,7.883753397989.344820237624,10.888901864253.787874147594,0,1.774220408699-.049116836173,3.450207145057-.049116836173,4.975836219659,0,1.283052046971.148352892931,3.301854252126.295703401451,4.879607316134h-2.168157482498c-1.428397786667-4.927721767897-4.926719383488-8.277690471785-10.544081626629-8.277690471785-7.785519725645,0-11.037254757186,6.946523973053-11.037254757186,15.815621247741,0,7.588049996537,2.562094556293,15.029751868969,10.83978502808,15.029751868969,3.006150850675,0,5.370775677868-.641526023484,7.588049996539-1.824339629287v-7.243229758915Z"/>
    <path class="cls-1" d="M714.333113225395,189.236215864777c5.025955440244-.344820237626,5.321658841694-.493173130555,5.469009350214-1.824339629289.197469729104-1.673981967533.197469729104-5.567243022559.197469729104-13.105173798513,0-7.539935544777,0-11.433196599804-.197469729104-13.107178567338-.14735050852-1.331166498732-.44305390997-1.479519391663-5.469009350214-1.824339629287v-2.068921425738h19.019241827518c3.941375506791,0,5.962182480769.541287582315,7.982989454749,1.872454081047,2.018802205155,1.331166498732,3.201615810956,3.450207145057,3.201615810956,6.405236390738,0,7.144996086568-8.17945679944,8.426043364716-8.17945679944,8.869097274686,0,.246586565278.148352892931.54329235114.641526023484,1.182813605799l8.179456799442,10.49496479046c2.06892142574,2.662332997465,2.562094556293,3.105386907435,5.025955440242,3.105386907435v2.06892142574h-8.426043364716l-11.037254757184-15.32445288601c-.393937073797-.493173130553-.738757311421-.5914068029-2.808681121573-.5914068029-2.019804589569,0-2.217274318671.050119220585-2.217274318671.543292351138,0,8.770863602342.049116836171,10.150144552834.197469729103,11.479306282743.14735050852,1.331166498734.44305390997,1.479519391663,5.469009350214,1.824339629289v2.06892142574h-17.048554074125v-2.06892142574ZM725.715188220203,171.890956004788c0,.888112588762.098233672346,1.134699154039,3.300851867714,1.134699154039,7.638169217124,0,9.115683839964-4.08972839972,9.115683839964-6.850295069531,0-3.991494727374-3.153501359197-6.800175848946-8.573393873237-6.800175848946-3.596555269163,0-3.843141834441.148352892931-3.843141834441,1.381285719319v11.134486045119Z"/>
    <path class="cls-1" d="M752.173124766919,189.236215864777c3.843141834443-.246586565279,4.532782309689-1.479519391665,6.15864982546-5.569247791384l8.426043364718-21.138282473847c1.429400171079-3.596555269167,1.774220408701-4.482663089104,2.315507991018-6.307002718391h2.562094556293c.246586565279,1.527633843425,1.182813605801,4.189966840888,1.822334860464,5.765715136076l9.80532431521,23.602143357793c1.281047278148,3.153501359197,1.627872284595,3.694788941511,5.765715136076,3.646674489752v2.06892142574h-16.801967508849v-2.06892142574c4.927721767899-.198472113518,5.320656457283-.641526023486,5.320656457283-1.872454081051,0-.986346261108-2.117035877503-6.405236390736-2.413741663366-6.996643193637-.148352892931-.246586565278-.344820237622-.344820237622-.639521254659-.394939458207-1.232932826388-.148352892931-3.744908162098-.246586565278-8.672629929995-.246586565278-3.105386907435,0-3.251735031541.246586565278-3.696793710335,1.281047278148-1.180808836978,3.005148466264-1.970687753394,5.567243022559-1.970687753394,6.060416153112,0,1.479519391663.543292351138,1.824339629287,5.22442755376,2.169159866913v2.06892142574h-13.205412239684v-2.06892142574ZM773.26128802018,177.359965355002c.44305390997,0,.591406802901-.146348124108.591406802901-.294701017039,0-.246586565279-.196467344693-.787874147594-.294701017039-1.084579933457l-4.68113520262-12.170951526812-4.927721767897,12.467657312674c-.148352892931.344820237624-.246586565279.591406802901-.246586565279.787874147594,0,.196467344691.246586565279.294701017039.541287582319.294701017039h9.017450167616Z"/>
    <path class="cls-1" d="M790.995473031906,189.236215864777c5.025955440244-.344820237626,5.272542005521-.493173130555,5.471014119037-1.824339629289.196467344693-1.673981967533.196467344693-5.567243022559.196467344693-13.105173798513,0-7.539935544777,0-11.433196599804-.196467344693-13.107178567338-.198472113516-1.331166498732-.445058678793-1.479519391663-5.471014119037-1.824339629287v-2.068921425738h18.034900335235c3.795027382681,0,6.651822956015.88811258876,8.720744381755,2.66032822864,1.774220408703,1.479519391663,2.858800342157,3.548440817403,2.858800342157,6.160654594283,0,6.798171080123-6.012301701354,9.70508587404-14.783165303694,9.70508587404-1.329161729909,0-2.758561900986-.098233672345-3.448202376232-.098233672345v11.677778396257c0,1.331166498734.443053909969,1.479519391663,6.15864982546,1.824339629289v2.06892142574h-17.541727204682v-2.06892142574ZM802.378550411127,173.370475396451c.787874147591.048114451762,1.527633843423.098233672345,2.315507991016.098233672345,4.927721767897,0,9.510623298173-.888112588762,9.510623298173-7.391582651844,0-6.1105353737-3.991494727374-6.996643193641-9.362270405241-6.996643193641-2.267393539256,0-2.463860883947.294701017039-2.463860883947,1.182813605803v13.107178567338Z"/>
    <path class="cls-1" d="M823.857643584948,189.236215864777c5.025955440244-.344820237626,5.322661226106-.493173130555,5.471014119037-1.824339629289.196467344691-1.673981967533.196467344691-5.567243022559.196467344691-13.105173798513,0-7.539935544777,0-11.433196599804-.196467344691-13.107178567338-.148352892931-1.331166498732-.445058678793-1.479519391663-5.471014119037-1.824339629287v-2.068921425738h17.048554074127v2.068921425738c-5.023950671421.344820237624-5.320656457283.493173130555-5.469009350214,1.824339629287-.098233672346,1.03446071287-.196467344693,3.941375506789-.196467344693,6.256883497806v3.251735031541c0,1.429400171079.148352892931,1.625867515771,1.429400171079,1.625867515771h12.958825674406c1.281047278148,0,1.429400171077-.196467344693,1.429400171077-1.625867515771v-3.251735031541c0-2.315507991018-.100238441169-5.222422784936-.198472113514-6.256883497806-.146348124108-1.331166498732-.44305390997-1.479519391663-5.469009350214-1.824339629287v-2.068921425738h17.048554074127v2.068921425738c-5.025955440244.344820237624-5.320656457283.493173130555-5.469009350214,1.824339629287-.196467344693,1.673981967533-.196467344693,5.56724302256-.196467344693,13.107178567338,0,7.537930775954,0,11.43119183098.196467344693,13.105173798513.148352892931,1.331166498734.44305390997,1.479519391663,5.469009350214,1.824339629289v2.06892142574h-17.048554074127v-2.06892142574c5.025955440244-.344820237626,5.322661226106-.493173130555,5.469009350214-1.824339629289.148352892931-1.379280950492.198472113514-5.370775677866.198472113514-11.086371593357,0-1.429400171077-.148352892929-1.62586751577-1.429400171077-1.62586751577h-12.958825674406c-1.281047278148,0-1.429400171079.196467344693-1.429400171079,1.62586751577,0,5.715595915492.050119220585,9.707090642865.196467344693,11.086371593357.148352892931,1.331166498734.445058678793,1.479519391663,5.469009350214,1.824339629289v2.06892142574h-17.048554074127v-2.06892142574Z"/>
    <path class="cls-1" d="M879.97713725816,177.951372157901l-8.031103906507-12.219065978574c-4.187962072065-6.307002718393-4.729249654383-6.357121938978-7.537930775952-6.357121938978v-2.068921425738h16.308794378292v2.068921425738c-4.829488095551,0-5.076074660828.198472113516-5.076074660828,1.084579933457,0,.394939458207.346825006447,1.182813605801,1.57775306401,3.153501359197l6.357121938976,10.150144552832c.344820237622.591406802901.639521254661,1.084579933457.936227040524,1.084579933457.294701017039,0,.589402034077-.541287582317.936227040525-1.084579933457l5.567243022559-8.818978054102c1.724101188118-2.760566669811,2.167155098086-3.64667448975,2.167155098086-4.238081292651,0-1.03446071287-.886107819939-1.182813605801-4.187962072065-1.331166498732v-2.068921425738h12.269185199159v2.068921425738c-2.463860883949.100238441171-4.08972839972.936227040525-6.503470063084,4.681135202622l-9.067569388202,13.993286387276v8.77086360234c0,1.972692522218.246586565278,2.119040646327,6.455355611322,2.415746432189v2.06892142574h-18.624302369311v-2.06892142574c6.206764277222-.296705785862,6.453350842497-.44305390997,6.453350842497-2.415746432189v-8.869097274686Z"/>
  </g>
  <line class="cls-2" x1="211.346639280451" y1="148.35836221543" x2="901.263772624938" y2="148.35836221543"/>
</svg>