<?xml version="1.0" encoding="UTF-8"?>
<svg id="f_11" data-name="f/11" xmlns="http://www.w3.org/2000/svg" viewBox="0 0 30 18.89">
  <defs>
    <style>
      .cls-1 {
        fill: #000;
        stroke-width: 0px;
      }
    </style>
  </defs>
  <g>
    <path class="cls-1" d="M.72,13.63l.18-.48c.26.1.55.21.88.21,1.09,0,1.49-.98,1.65-2.31l.55-5.08c.2-1.75.82-2.84,2.18-2.84.53,0,.93.14,1.22.3l-.22.49c-.27-.16-.57-.24-1.01-.24-1.06,0-1.47,1.11-1.57,2.25l-.56,5.18c-.21,1.73-.81,2.8-2.26,2.8-.42,0-.76-.14-1.05-.27ZM2.23,6.92l.94-.06h3.53v.53H2.23v-.47Z"/>
    <path class="cls-1" d="M10.92,2.59h.63l-4.57,12.19h-.63L10.92,2.59Z"/>
  </g>
  <g>
    <path class="cls-1" d="M14.25,4.26h-.03l-1.7,1.01-.18-.59,2-1.21h.64v10.4h-.72V4.26Z"/>
    <path class="cls-1" d="M21.44,4.26h-.03l-1.7,1.01-.18-.59,2-1.21h.64v10.4h-.72V4.26Z"/>
  </g>
</svg>