<?xml version="1.0" encoding="UTF-8"?>
<svg id="f_2.8" data-name="f/2.8" xmlns="http://www.w3.org/2000/svg" viewBox="0 0 30 18.89">
  <defs>
    <style>
      .cls-1 {
        fill: #000;
        stroke-width: 0px;
      }
    </style>
  </defs>
  <g>
    <path class="cls-1" d="M.72,13.63l.18-.48c.26.1.55.21.88.21,1.09,0,1.49-.98,1.65-2.31l.55-5.08c.2-1.75.82-2.84,2.18-2.84.53,0,.93.14,1.22.3l-.22.49c-.27-.16-.57-.24-1.01-.24-1.06,0-1.47,1.11-1.57,2.25l-.56,5.18c-.21,1.73-.81,2.8-2.26,2.8-.42,0-.76-.14-1.05-.27ZM2.23,6.92l.94-.06h3.53v.53H2.23v-.47Z"/>
    <path class="cls-1" d="M10.92,2.59h.63l-4.57,12.19h-.63L10.92,2.59Z"/>
  </g>
  <g>
    <path class="cls-1" d="M12.46,13.88v-.46l.9-1.03c2.38-2.5,3.77-4.21,3.77-6.13,0-1.24-.51-2.29-2.06-2.29-.93,0-1.62.5-1.99.81l-.29-.51c.56-.51,1.38-.95,2.42-.95,1.93,0,2.67,1.48,2.67,2.83,0,2.02-1.43,3.81-3.66,6.2l-.74.86v.03h4.67v.64h-5.7Z"/>
    <path class="cls-1" d="M19.8,13.36c0-.41.26-.71.63-.71s.62.3.62.71c0,.38-.23.69-.63.69-.37,0-.63-.31-.62-.69Z"/>
    <path class="cls-1" d="M22.33,11.34c0-1.41.87-2.37,2.06-2.97v-.05c-1.14-.56-1.67-1.48-1.67-2.38,0-1.56,1.2-2.62,2.71-2.62,1.67,0,2.52,1.23,2.52,2.45,0,.93-.45,1.88-1.71,2.53v.06c1.31.62,2.05,1.57,2.05,2.8,0,1.67-1.33,2.9-3,2.9-1.82,0-2.97-1.29-2.97-2.7ZM27.55,11.26c0-1.43-.92-2.1-2.38-2.64-1.34.48-2.07,1.46-2.07,2.56-.04,1.26.8,2.25,2.21,2.25,1.31,0,2.24-.81,2.24-2.17ZM23.47,5.83c0,1.26.86,1.86,2.04,2.25,1-.44,1.7-1.16,1.7-2.23,0-1.01-.55-1.92-1.85-1.92-1.18,0-1.89.83-1.89,1.89Z"/>
  </g>
</svg>