<?xml version="1.0" encoding="UTF-8"?>
<svg id="f_2" data-name="f/2" xmlns="http://www.w3.org/2000/svg" viewBox="0 0 30 18.89">
  <defs>
    <style>
      .cls-1 {
        fill: #000;
        stroke-width: 0px;
      }
    </style>
  </defs>
  <g>
    <path class="cls-1" d="M.72,13.63l.18-.48c.26.1.55.21.88.21,1.09,0,1.49-.98,1.65-2.31l.55-5.08c.2-1.75.82-2.84,2.18-2.84.53,0,.93.14,1.22.3l-.22.49c-.27-.16-.57-.24-1.01-.24-1.06,0-1.47,1.11-1.57,2.25l-.56,5.18c-.21,1.73-.81,2.8-2.26,2.8-.42,0-.76-.14-1.05-.27ZM2.23,6.92l.94-.06h3.53v.53H2.23v-.47Z"/>
    <path class="cls-1" d="M10.92,2.59h.63l-4.57,12.19h-.63L10.92,2.59Z"/>
  </g>
  <path class="cls-1" d="M11.37,13.88v-.46l.9-1.03c2.38-2.5,3.77-4.21,3.77-6.13,0-1.24-.51-2.29-2.06-2.29-.93,0-1.62.5-1.99.81l-.29-.51c.56-.51,1.38-.95,2.42-.95,1.93,0,2.67,1.48,2.67,2.83,0,2.02-1.43,3.81-3.66,6.2l-.74.86v.03h4.67v.64h-5.7Z"/>
</svg>