<?xml version="1.0" encoding="UTF-8"?>
<svg id="f_4" data-name="f/4" xmlns="http://www.w3.org/2000/svg" viewBox="0 0 30 18.89">
  <defs>
    <style>
      .cls-1 {
        fill: #000;
        stroke-width: 0px;
      }
    </style>
  </defs>
  <g>
    <path class="cls-1" d="M.72,13.63l.18-.48c.26.1.55.21.88.21,1.09,0,1.49-.98,1.65-2.31l.55-5.08c.2-1.75.82-2.84,2.18-2.84.53,0,.93.14,1.22.3l-.22.49c-.27-.16-.57-.24-1.01-.24-1.06,0-1.47,1.11-1.57,2.25l-.56,5.18c-.21,1.73-.81,2.8-2.26,2.8-.42,0-.76-.14-1.05-.27ZM2.23,6.92l.94-.06h3.53v.53H2.23v-.47Z"/>
    <path class="cls-1" d="M10.92,2.59h.63l-4.57,12.19h-.63L10.92,2.59Z"/>
  </g>
  <path class="cls-1" d="M15.39,13.88v-3.07h-4.49v-.5l4.56-6.84h.65v6.71h1.47v.63h-1.47v3.07h-.71ZM15.39,10.19v-3.98c0-.59.02-1.13.05-1.69h-.06c-.35.7-.58,1.09-.85,1.56l-2.77,4.07v.03h3.62Z"/>
</svg>