<?xml version="1.0" encoding="UTF-8"?>
<svg id="f_5.8" data-name="f/5.8" xmlns="http://www.w3.org/2000/svg" viewBox="0 0 30 18.89">
  <defs>
    <style>
      .cls-1 {
        fill: #000;
        stroke-width: 0px;
      }
    </style>
  </defs>
  <g>
    <path class="cls-1" d="M.72,13.63l.18-.48c.26.1.55.21.88.21,1.09,0,1.49-.98,1.65-2.31l.55-5.08c.2-1.75.82-2.84,2.18-2.84.53,0,.93.14,1.22.3l-.22.49c-.27-.16-.57-.24-1.01-.24-1.06,0-1.47,1.11-1.57,2.25l-.56,5.18c-.21,1.73-.81,2.8-2.26,2.8-.42,0-.76-.14-1.05-.27ZM2.23,6.92l.94-.06h3.53v.53H2.23v-.47Z"/>
    <path class="cls-1" d="M10.92,2.59h.63l-4.57,12.19h-.63L10.92,2.59Z"/>
  </g>
  <g>
    <path class="cls-1" d="M16.73,4.14h-3.59l-.52,3.34c.21-.04.42-.07.79-.07.67,0,1.38.18,1.95.55.74.44,1.39,1.32,1.39,2.6,0,2.09-1.49,3.48-3.31,3.48-.92,0-1.74-.29-2.19-.62l.29-.59c.36.24,1.09.57,1.94.57,1.38,0,2.53-1.05,2.52-2.72,0-1.59-.95-2.63-2.84-2.63-.57,0-.98.05-1.29.1l.69-4.67h4.16v.66Z"/>
    <path class="cls-1" d="M18.7,13.36c0-.41.26-.71.63-.71s.62.3.62.71c0,.38-.23.69-.63.69-.37,0-.63-.31-.62-.69Z"/>
    <path class="cls-1" d="M26.43,4c-.27,0-.6.02-.99.1-2.15.48-3.26,2.46-3.48,4.42h.03c.47-.73,1.31-1.35,2.45-1.35,1.73,0,2.82,1.34,2.82,3.3s-1.05,3.57-2.96,3.57-3.11-1.64-3.11-4.31c0-2.03.64-3.63,1.53-4.69.7-.84,1.72-1.4,2.79-1.62.34-.07.68-.11.91-.11v.68ZM26.5,10.57c0-1.87-.96-2.75-2.25-2.75-.87,0-1.73.54-2.17,1.46-.07.15-.15.35-.15.57,0,2.25.92,3.57,2.41,3.57,1.21,0,2.16-.97,2.16-2.85Z"/>
  </g>
</svg>