<svg version="1.1" id="Layer_1" xmlns="http://www.w3.org/2000/svg" xmlns:xlink="http://www.w3.org/1999/xlink" x="0px" y="0px"
	 width="100%" viewBox="0 0 1024 480" enable-background="new 0 0 1024 480" xml:space="preserve">
<path fill="#000000" opacity="1.000000" stroke="none" 
	d="
M781.146362,270.165619 
	C827.131348,201.295181 872.913208,132.722214 918.693909,64.148491 
	C922.392761,58.608013 926.215515,53.144051 929.726379,47.486713 
	C931.595886,44.474239 933.919312,42.988605 937.463013,43.125965 
	C942.952393,43.338737 948.447815,43.479458 953.940796,43.484627 
	C956.573303,43.487106 957.465027,44.678940 957.412720,47.141964 
	C957.331482,50.972198 957.388428,54.805389 957.388428,58.637325 
	C957.388184,134.443878 957.388184,210.250443 957.387939,286.057007 
	C957.387878,292.893555 957.387085,292.895294 964.302734,292.898132 
	C978.297791,292.903870 992.294067,293.011993 1006.287170,292.850403 
	C1010.649841,292.800018 1012.796936,293.990570 1012.402466,298.800507 
	C1012.036011,303.269226 1012.127380,307.801117 1012.368347,312.286346 
	C1012.580139,316.229156 1011.028564,317.508209 1007.150879,317.463043 
	C993.157715,317.299988 979.161499,317.409851 965.166443,317.401001 
	C957.400330,317.396118 957.394104,317.382111 957.392822,324.922821 
	C957.387085,358.744080 957.303894,392.565735 957.481506,426.386047 
	C957.504517,430.775665 956.304504,432.371277 951.890442,432.122772 
	C946.575989,431.823608 941.217346,431.814087 935.904419,432.128998 
	C931.100525,432.413696 929.594727,430.626495 929.619690,425.822876 
	C929.794678,392.168976 929.718079,358.513763 929.722900,324.858978 
	C929.723999,317.431671 929.725647,317.426666 922.462708,317.425598 
	C871.480713,317.418243 820.498718,317.416351 769.516724,317.403229 
	C762.679504,317.401459 763.122681,317.339111 762.546509,310.555450 
	C761.801697,301.784454 763.988892,294.341797 769.492676,287.439819 
	C773.734741,282.120026 777.156433,276.145996 781.146362,270.165619 
M811.673462,269.122772 
	C806.573120,276.617310 801.472839,284.111816 796.421997,291.533569 
	C798.538208,293.374786 800.275879,292.886597 801.874573,292.887665 
	C842.203125,292.914154 882.531677,292.911133 922.860229,292.901825 
	C929.692688,292.900269 929.633179,292.875275 929.715820,285.974945 
	C930.507690,219.845016 927.886230,153.683014 931.541382,87.577820 
	C931.602417,86.475159 932.231079,84.943077 930.364075,83.982735 
	C929.428772,85.624619 928.490967,87.168701 927.649475,88.763588 
	C917.700195,107.620598 908.343262,126.849609 896.426514,144.558578 
	C868.522888,186.025040 840.233704,227.232025 811.673462,269.122772 
z"/>
<path fill="#000000" opacity="1.000000" stroke="none" 
	d="
M111.617149,338.682343 
	C114.929436,314.195435 117.227394,290.033752 119.794075,265.900909 
	C122.237770,242.924393 124.890221,219.969803 127.521606,197.013672 
	C128.207962,191.025879 127.727539,190.316849 121.740128,190.315384 
	C106.075165,190.311539 90.408958,190.224792 74.746040,190.408356 
	C70.448326,190.458710 68.382088,189.511658 68.585541,184.617661 
	C69.236229,168.965271 65.845062,172.494324 81.932014,170.900558 
	C96.351204,169.472031 110.868797,169.326141 125.362320,169.726410 
	C129.136566,169.830658 130.413086,168.641525 130.844681,164.701340 
	C133.521622,140.262726 135.191422,115.631454 142.802231,92.005867 
	C147.537231,77.307388 153.729752,63.365055 164.396423,51.844101 
	C180.698135,34.236790 201.391342,29.187746 224.403656,31.064743 
	C235.773254,31.992102 246.670914,34.847923 257.069153,39.679394 
	C260.721741,41.376541 261.836578,43.243160 259.697723,46.934387 
	C258.119934,49.657368 256.836639,52.603317 255.816910,55.584934 
	C254.329376,59.934448 252.546097,61.119648 247.860001,58.765259 
	C235.468689,52.539631 221.987961,51.037949 208.417755,52.737358 
	C190.887939,54.932629 179.369461,65.748360 171.402649,80.867973 
	C162.624100,97.528107 159.313934,115.646965 157.344299,134.106064 
	C156.111664,145.658203 154.967926,157.219833 153.805893,168.566330 
	C155.709152,170.248947 157.628647,169.634995 159.377396,169.638870 
	C182.874756,169.690948 206.373520,169.814545 229.868668,169.585449 
	C234.873413,169.536667 236.499298,170.934601 236.419113,176.047775 
	C236.195511,190.307800 236.413010,190.307053 222.281921,190.304886 
	C200.784256,190.301590 179.284256,190.473282 157.790680,190.176956 
	C152.918610,190.109772 150.948929,191.550613 150.489487,196.316208 
	C148.877930,213.032028 147.073624,229.729736 145.265350,246.425980 
	C143.421204,263.453400 141.401245,280.462067 139.614639,297.495392 
	C137.828384,314.525513 136.560593,331.624664 133.292252,348.459442 
	C130.174484,364.518646 125.714874,380.143799 118.000206,394.734436 
	C99.495232,429.732513 62.531769,438.694702 30.436714,429.799927 
	C25.639469,428.470398 21.049446,426.401489 16.343767,424.730347 
	C13.300860,423.649689 12.075261,421.979279 13.529104,418.673737 
	C15.135653,415.020996 16.477848,411.240265 17.733896,407.448639 
	C18.764868,404.336517 20.406853,403.903717 23.401680,405.027557 
	C31.037186,407.892700 38.786041,410.254486 47.019039,411.087616 
	C68.453651,413.256561 86.497787,403.829315 96.932510,385.023376 
	C104.150093,372.015442 108.031708,357.992188 110.693336,343.519623 
	C110.964088,342.047424 111.281250,340.583771 111.617149,338.682343 
z"/>
<path fill="#000000" opacity="1.000000" stroke="none" 
	d="
M519.282593,431.212830 
	C516.945129,430.618042 516.856812,429.084045 516.817993,427.557648 
	C516.775635,425.892670 516.787842,424.226166 516.787659,422.560333 
	C516.774109,308.776520 516.761719,194.992676 516.749207,81.208847 
	C516.748962,79.237236 516.749146,77.265617 516.749146,73.510498 
	C494.878479,86.473236 474.135040,98.767868 452.810333,111.406998 
	C449.505310,104.248650 447.749756,97.221992 445.953278,90.249641 
	C445.328583,87.825073 447.925629,87.044235 449.570801,86.047264 
	C468.373779,74.652855 487.197083,63.291958 506.015320,51.922726 
	C506.157837,51.836628 506.328613,51.783539 506.446899,51.673008 
	C516.282288,42.483162 528.517456,43.072586 540.664734,43.226982 
	C543.839478,43.267334 545.132874,44.759277 545.053528,47.870537 
	C544.947388,52.032799 545.012024,56.199543 545.012085,60.364365 
	C545.013794,181.478256 545.016174,302.592133 545.020386,423.706024 
	C545.020630,431.353973 545.028015,431.368164 537.242493,431.362610 
	C531.412354,431.358429 525.582153,431.311676 519.282593,431.212830 
z"/>
<path fill="#000000" opacity="1.000000" stroke="none" 
	d="
M242.661743,465.316650 
	C235.913239,465.321564 229.624023,465.321564 222.749847,465.321564 
	C223.519211,458.833344 226.253693,453.821411 228.189850,448.637085 
	C252.009781,384.856323 275.954407,321.122131 299.877106,257.379761 
	C329.998444,177.121155 360.158875,96.877174 390.175659,16.579504 
	C391.812592,12.200499 393.894897,10.162942 398.801636,10.561270 
	C404.519012,11.025407 410.302948,10.669605 415.759064,10.669605 
	C416.730316,13.498502 415.539795,15.101440 414.918518,16.756477 
	C363.437714,153.897354 311.924286,291.025970 260.421082,428.158447 
	C256.324249,439.066620 252.271469,449.991425 248.223907,460.917999 
	C247.322128,463.352386 246.414047,465.693939 242.661743,465.316650 
z"/>
<path fill="#000000" opacity="1.000000" stroke="none" 
	d="
M703.535522,385.279419 
	C725.807007,383.503113 733.866943,406.104248 728.371033,422.115601 
	C723.499939,436.306976 707.867615,442.488983 694.714539,435.276306 
	C685.316345,430.122711 680.634949,418.477753 682.857971,405.783142 
	C684.846130,394.430054 692.069519,387.152374 703.535522,385.279419 
z"/>
</svg>