<svg version="1.1" id="Layer_1" xmlns="http://www.w3.org/2000/svg" xmlns:xlink="http://www.w3.org/1999/xlink" x="0px" y="0px"
	 width="100%" viewBox="0 0 1024 496" enable-background="new 0 0 1024 496" xml:space="preserve">
<path fill="#000000" opacity="1.000000" stroke="none" 
	d="
M876.380798,47.171082 
	C896.360962,41.447315 916.184509,40.478226 935.916992,45.677204 
	C971.923340,55.163895 993.531311,78.951279 1000.100159,115.160065 
	C1007.413330,155.471298 992.256714,187.493103 960.272400,212.130142 
	C953.827515,217.094452 946.697998,221.037323 939.714905,225.167953 
	C940.740417,227.993866 943.149536,228.284653 944.955933,229.225266 
	C964.854370,239.586960 982.761047,252.440170 995.831848,271.006439 
	C1031.361938,321.474670 1014.215027,392.590363 959.580078,421.947205 
	C918.569824,443.983093 866.075317,439.583252 830.301453,410.516357 
	C810.145874,394.139557 798.046143,372.598633 795.865845,346.717224 
	C792.279053,304.137939 809.021729,270.247925 842.631836,244.346542 
	C849.912903,238.735504 857.734131,233.992950 865.745728,229.527115 
	C867.269836,228.677521 869.281616,228.385239 870.195801,225.916046 
	C866.132080,223.508392 861.956299,221.187134 857.933350,218.625809 
	C833.221741,202.892334 815.691162,181.688751 810.929321,152.200607 
	C803.276794,104.811462 830.190308,62.080822 876.380798,47.171082 
M831.374023,367.130341 
	C835.944824,377.522888 842.478882,386.447876 851.238770,393.709869 
	C863.979797,404.272247 878.790466,409.481689 895.125793,411.083923 
	C913.828796,412.918365 931.800415,410.413330 948.331726,401.367065 
	C973.056641,387.837097 984.373291,365.958252 985.930237,338.390991 
	C987.599915,308.827423 978.298706,284.001190 954.539185,265.408020 
	C938.735779,253.040970 920.650635,245.002258 902.080261,237.882980 
	C899.967529,237.073044 898.206787,237.651764 896.314087,238.364532 
	C883.752625,243.095123 872.161804,249.523911 861.517395,257.732330 
	C827.571289,283.909698 815.375305,327.404968 831.374023,367.130341 
M839.570679,119.059067 
	C839.462036,119.883896 839.358093,120.709358 839.244141,121.533455 
	C835.106506,151.464706 843.456055,176.456879 868.335388,194.859756 
	C878.447815,202.339752 889.838013,207.354507 901.302795,212.384232 
	C909.052124,215.783936 915.420227,215.235245 922.785034,211.115570 
	C954.921204,193.139587 975.815979,168.352127 973.591675,129.320312 
	C972.527588,110.647804 966.723694,93.733124 952.125366,80.935677 
	C937.501160,68.115547 919.924316,65.133995 901.273743,66.044746 
	C869.416504,67.600426 846.536560,87.062599 839.570679,119.059067 
z"/>
<path fill="#000000" opacity="1.000000" stroke="none" 
	d="
M490.004669,404.677795 
	C539.331604,404.678894 588.159546,404.678040 636.987549,404.683502 
	C643.848083,404.684296 643.869507,404.698486 643.913635,411.619781 
	C643.942383,416.118683 643.899719,420.618103 643.884705,425.117279 
	C643.875122,427.991394 642.521729,429.427246 639.557678,429.233521 
	C638.396606,429.157684 637.225586,429.240967 636.059082,429.240875 
	C571.399536,429.237396 506.739990,429.233398 442.080444,429.227325 
	C434.758026,429.226654 435.232330,429.181519 434.608948,421.683746 
	C434.004822,414.417114 436.731567,409.254120 441.330933,403.859894 
	C470.204865,369.995636 502.033691,338.798340 530.621765,304.693146 
	C553.028931,277.961700 574.210571,250.392960 589.196167,218.567322 
	C599.934143,195.762405 606.040710,171.944626 605.574585,146.690536 
	C605.337402,133.841537 603.478027,121.133835 598.791443,109.034851 
	C589.479004,84.993477 571.479187,72.020126 546.374695,68.312111 
	C514.869690,63.658722 487.603394,73.569122 463.070435,92.753120 
	C461.531586,93.956451 460.247650,95.605621 457.289490,95.981506 
	C454.180145,90.479828 450.763214,84.824623 447.768036,78.954247 
	C446.453094,76.377098 449.210693,75.140236 450.749878,73.831894 
	C469.328003,58.039658 490.620575,47.697903 514.704468,44.047840 
	C535.488098,40.897942 556.260986,41.437538 576.141113,49.517612 
	C606.123779,61.703732 622.867920,85.024704 630.208008,115.605751 
	C639.262878,153.330765 631.367615,188.909531 615.123352,223.163849 
	C600.660645,253.661453 580.581970,280.440857 559.360291,306.423096 
	C533.213379,338.435364 503.951416,367.707764 477.440247,399.401855 
	C476.286072,400.781738 474.730194,401.893188 474.239807,404.201447 
	C479.345398,405.251465 484.457367,404.400513 490.004669,404.677795 
z"/>
<path fill="#000000" opacity="1.000000" stroke="none" 
	d="
M65.412415,427.673096 
	C45.800762,432.683380 27.394623,429.900940 9.481988,422.044647 
	C6.754190,420.848267 5.400402,419.596649 6.829981,416.429962 
	C8.471614,412.793579 9.856754,409.023468 11.088890,405.225677 
	C12.108032,402.084320 13.724787,401.615967 16.720572,402.744507 
	C25.457787,406.035950 34.310291,408.683960 43.838596,408.886475 
	C64.887489,409.333954 79.721741,399.788086 89.599564,381.609650 
	C97.521149,367.031342 101.478157,351.186310 103.514618,334.983093 
	C107.598076,302.492798 110.977310,269.913483 114.577110,237.363129 
	C116.039223,224.142258 117.245308,210.892975 118.723915,197.674088 
	C119.186836,193.535507 117.800537,192.083435 113.567947,192.134369 
	C98.071167,192.320877 82.568489,192.056915 67.073036,192.291992 
	C62.251595,192.365143 60.699207,190.719788 60.762035,185.947678 
	C60.920921,173.878769 60.729183,173.783554 72.910049,172.929535 
	C87.035065,171.939224 101.181564,171.214355 115.344513,171.737808 
	C119.463348,171.890060 121.678345,171.097900 122.123672,166.305008 
	C123.352921,153.075089 124.650520,139.819092 126.775574,126.711945 
	C130.578568,103.255524 136.028992,80.239342 150.973648,60.863411 
	C163.675583,44.395191 180.581863,36.251366 201.394821,35.594662 
	C216.666214,35.112804 231.184418,37.722546 245.171860,43.839657 
	C249.219696,45.609901 250.524368,47.652718 248.176208,51.742004 
	C245.798538,55.882694 244.675156,60.684135 241.966736,64.527176 
	C239.662872,64.746147 238.251251,63.373318 236.623108,62.646450 
	C222.958618,56.546131 208.621643,55.002903 194.119141,57.816120 
	C179.768280,60.599922 170.088394,70.072868 163.049408,82.496857 
	C153.993759,98.480316 150.442093,116.040848 148.363861,133.996353 
	C147.120895,144.735550 146.542801,155.566940 144.890869,166.236908 
	C144.103836,171.320328 145.909714,171.754364 150.003540,171.733429 
	C172.834869,171.616623 195.667130,171.677475 218.499069,171.689911 
	C225.305878,171.693619 225.305862,171.711792 225.329575,178.677246 
	C225.375671,192.216904 225.375687,192.207825 211.999832,192.195831 
	C190.667816,192.176712 169.334045,192.314880 148.005142,192.051422 
	C143.108673,191.990921 141.760864,193.996964 141.304611,198.355835 
	C138.465897,225.476044 135.401443,252.572510 132.508560,279.687195 
	C130.268570,300.682190 128.824112,321.784027 125.250198,342.604645 
	C121.395027,365.063843 115.600594,386.937256 100.979515,405.254333 
	C91.853661,416.687134 80.205551,424.331116 65.412415,427.673096 
z"/>
<path fill="#000000" opacity="1.000000" stroke="none" 
	d="
M299.774231,225.887177 
	C315.564606,183.748810 331.237610,141.981308 346.919098,100.216972 
	C356.983276,73.413094 367.096497,46.627506 377.078491,19.793068 
	C378.164246,16.874224 379.635254,15.520712 382.867493,15.625845 
	C389.130951,15.829572 395.405762,15.685405 401.485687,15.685405 
	C402.281097,18.609955 401.131805,20.366316 400.446991,22.192852 
	C357.262756,137.377747 314.067322,252.558441 270.867218,367.737396 
	C259.759949,397.351318 248.534454,426.921631 237.624832,456.608124 
	C235.996613,461.038696 233.698486,462.622589 229.195450,462.238068 
	C223.654984,461.764954 218.013474,462.699249 211.538757,461.500305 
	C241.086716,382.621979 270.373566,304.440674 299.774231,225.887177 
z"/>
<path fill="#000000" opacity="1.000000" stroke="none" 
	d="
M749.865845,409.919739 
	C749.200317,418.580933 747.078064,426.257660 739.794739,431.116333 
	C731.239319,436.823639 722.179260,437.148163 713.581787,431.339111 
	C705.048340,425.573303 702.111938,416.762817 703.097534,406.944458 
	C704.373657,394.231354 711.252014,385.857147 721.047852,383.777954 
	C735.149719,380.784821 747.416687,389.580780 749.291809,404.043121 
	C749.526855,405.855591 749.687988,407.677673 749.865845,409.919739 
z"/>
</svg>