<svg version="1.1" id="Layer_1" xmlns="http://www.w3.org/2000/svg" xmlns:xlink="http://www.w3.org/1999/xlink" x="0px" y="0px"
	 width="100%" viewBox="0 0 1024 768" enable-background="new 0 0 1024 768" xml:space="preserve">
<path fill="#000000" opacity="1.000000" stroke="none" 
	d="
M728.999878,712.432617 
	C708.003723,712.426270 687.506165,712.282898 667.012695,712.513062 
	C662.127258,712.567993 660.243103,710.920837 660.856873,706.200012 
	C660.920776,705.708313 660.945374,705.186523 660.855286,704.703491 
	C658.086426,689.851746 665.010010,679.380981 674.442688,668.441223 
	C711.995911,624.888123 752.429077,583.992188 790.561951,540.987000 
	C826.972473,499.924347 861.997253,457.808929 890.990845,411.058685 
	C910.129272,380.199066 925.871704,347.711334 934.162048,312.135590 
	C943.377563,272.589417 944.526123,232.977127 931.799500,193.897751 
	C918.828796,154.068970 891.313354,130.258820 850.201904,122.371490 
	C811.418457,114.930794 774.739990,121.253174 739.999023,139.761108 
	C726.710388,146.840515 714.328857,155.253098 702.833496,164.936600 
	C699.650818,167.617645 697.985718,167.285736 696.052185,163.680130 
	C691.880859,155.901581 687.508545,148.224396 682.992920,140.639999 
	C681.223694,137.668350 681.432556,135.750854 684.143494,133.417801 
	C710.844971,110.438232 740.876404,93.986420 775.283752,85.613174 
	C807.566101,77.757088 839.885132,76.893829 872.179382,84.717949 
	C918.374695,95.909927 950.864868,123.870804 970.189331,167.070572 
	C984.129211,198.232956 988.836853,231.035507 986.629639,265.021637 
	C982.874451,322.842712 960.574463,374.009583 930.344727,422.270050 
	C905.260437,462.316223 876.010132,499.246429 845.099548,534.932861 
	C819.465515,564.527466 792.927673,593.292664 766.598938,622.256470 
	C753.046265,637.165588 740.198547,652.715759 727.045105,667.987366 
	C726.082397,669.104980 725.031738,670.206421 724.814636,671.873596 
	C726.862183,673.674744 729.297119,672.891418 731.506836,672.892700 
	C819.323303,672.943726 907.139832,672.944275 994.956299,672.954895 
	C1003.312561,672.955933 1003.315857,672.966675 1003.317444,681.503845 
	C1003.318909,689.668945 1003.044434,697.846008 1003.408752,705.994690 
	C1003.633240,711.016418 1002.047913,712.546936 996.942688,712.520569 
	C959.284302,712.325806 921.624329,712.429871 883.964905,712.432373 
	C832.476562,712.435852 780.988220,712.432678 728.999878,712.432617 
z"/>
<path fill="#000000" opacity="1.000000" stroke="none" 
	d="
M289.186340,131.176514 
	C272.187195,153.534225 264.192078,179.164474 259.437927,205.941986 
	C255.307449,229.206635 253.529510,252.788055 251.224747,276.289032 
	C250.773819,280.886932 250.224411,285.475189 249.744675,289.846893 
	C251.955322,291.483246 254.022263,290.900940 255.958221,290.902771 
	C295.783020,290.940491 335.607849,290.933746 375.432678,290.949615 
	C382.307373,290.952362 382.314056,290.981445 382.327087,297.946503 
	C382.338623,304.111847 382.335815,310.277191 382.334167,316.442535 
	C382.332153,324.192963 382.329895,324.205200 374.779083,324.204834 
	C334.787628,324.202972 294.796173,324.194366 254.804718,324.188568 
	C253.471680,324.188354 252.123398,324.323547 250.808502,324.170197 
	C247.118805,323.739929 245.744339,325.669189 245.390869,329.012390 
	C243.380325,348.028931 241.334763,367.041809 239.269775,386.052521 
	C237.079330,406.218414 234.837219,426.378693 232.648666,446.544800 
	C230.513565,466.218201 228.403580,485.894379 226.307388,505.571960 
	C221.990616,546.094910 218.439148,586.758423 204.445419,625.514160 
	C197.489822,644.777710 188.363983,662.838623 174.570511,678.215210 
	C153.165009,702.077515 125.735680,712.417419 94.332779,714.250427 
	C70.393372,715.647827 48.179810,709.566772 26.573719,700.098755 
	C23.535889,698.767639 22.608755,697.312439 23.946341,694.046997 
	C26.911167,686.808960 29.685123,679.481812 32.209709,672.079346 
	C33.424046,668.518738 34.973637,667.953369 38.461552,669.280579 
	C55.015709,675.579285 71.764915,680.490173 89.896622,680.088684 
	C121.471703,679.389648 143.667664,664.291077 159.076111,637.562561 
	C171.428711,616.134949 177.268005,592.592468 181.577805,568.617493 
	C186.168930,543.077515 188.092453,517.185547 190.822830,491.401642 
	C193.552948,465.620270 196.687027,439.881897 199.517502,414.110779 
	C202.620987,385.853912 205.526947,357.575256 208.654526,329.321136 
	C209.166382,324.697083 206.926910,324.137604 203.155975,324.149628 
	C175.662155,324.237518 148.167908,324.192261 120.673782,324.182037 
	C113.686424,324.179443 113.669373,324.167877 113.650909,317.335083 
	C113.634247,311.169830 113.735764,305.003235 113.635384,298.839661 
	C113.586647,295.847198 114.879341,294.822357 117.796707,294.631500 
	C147.525360,292.686981 177.223129,289.981476 207.066269,291.006470 
	C210.925797,291.139038 212.836517,290.083435 213.253998,285.952911 
	C214.925217,269.417267 216.716187,252.891449 218.689880,236.389160 
	C223.420135,196.838852 231.091354,158.083344 251.658386,123.179672 
	C271.751984,89.079445 301.588806,70.434669 341.249756,68.083023 
	C368.060059,66.493347 393.550446,71.805267 417.892883,83.124184 
	C422.448730,85.242584 423.221466,87.411781 420.956665,91.878136 
	C416.986023,99.708611 413.605835,107.838509 409.933594,115.941643 
	C408.593567,115.559425 407.738251,115.480820 407.054840,115.096527 
	C386.217377,103.379158 363.516693,100.859848 340.292938,102.526573 
	C322.720062,103.787735 307.729309,111.524933 295.408325,124.204094 
	C293.320953,126.352158 291.392090,128.654312 289.186340,131.176514 
z"/>
<path fill="#000000" opacity="1.000000" stroke="none" 
	d="
M548.953369,366.832092 
	C526.987915,425.333069 505.173370,483.476440 483.377808,541.626892 
	C460.529388,602.586426 437.696899,663.551941 414.862854,724.516907 
	C410.249329,736.834656 405.555664,749.124084 401.122345,761.506592 
	C399.783234,765.247009 397.726898,766.596802 393.737701,766.471558 
	C384.581451,766.184143 375.410187,766.384644 366.245117,766.355652 
	C364.603973,766.350525 362.895203,766.622559 360.939240,765.296082 
	C362.451111,758.320740 365.584412,751.700500 368.123077,744.925049 
	C401.483368,655.888184 434.942169,566.888245 468.375458,477.878784 
	C491.677643,415.841431 514.995972,353.810120 538.275818,291.764374 
	C569.451660,208.674088 600.647217,125.591049 631.637634,42.431610 
	C633.592346,37.186420 636.086243,35.256138 641.706848,35.529171 
	C651.805054,36.019711 661.944153,35.667633 673.333435,35.667633 
	C631.676758,146.602814 590.394714,256.540222 548.953369,366.832092 
z"/>
</svg>