<svg version="1.1" id="Layer_1" xmlns="http://www.w3.org/2000/svg" xmlns:xlink="http://www.w3.org/1999/xlink" x="0px" y="0px"
	 width="100%" viewBox="0 0 1024 752" enable-background="new 0 0 1024 752" xml:space="preserve">
<path fill="#000000" opacity="1.000000" stroke="none" 
	d="
M675.512329,384.538696 
	C706.511658,338.084259 737.299438,291.923370 768.107788,245.776306 
	C807.054077,187.439713 846.029419,129.122528 884.933899,70.758110 
	C886.763062,68.013985 888.747192,66.588379 892.226929,66.661484 
	C902.055725,66.868011 911.894775,66.862427 921.723633,66.653976 
	C925.777100,66.568008 927.460022,67.875420 927.310364,72.081581 
	C927.067505,78.906326 927.233765,85.745758 927.233337,92.578987 
	C927.225647,213.410706 927.218994,334.242432 927.212097,455.074158 
	C927.211609,462.824890 927.211975,462.829712 935.217590,462.831543 
	C959.383911,462.837097 983.551025,462.937653 1007.716003,462.756439 
	C1012.447876,462.720947 1014.306458,464.205505 1014.173828,469.021790 
	C1013.926147,478.014862 1013.962280,487.022247 1014.151978,496.017944 
	C1014.239746,500.179779 1012.612183,501.457306 1008.544189,501.434631 
	C983.711914,501.296173 958.878540,501.364868 934.045532,501.368835 
	C927.242981,501.369934 927.232849,501.376770 927.232239,508.373688 
	C927.227600,564.039612 927.229614,619.705566 927.222168,675.371460 
	C927.221130,682.843689 927.152771,682.904053 919.698608,682.908325 
	C909.698730,682.914062 899.698730,682.926697 889.699036,682.884888 
	C883.363159,682.858398 883.048401,682.497742 883.048706,675.982483 
	C883.051147,620.316589 883.055359,564.650696 883.063354,508.984802 
	C883.064453,501.356049 883.075562,501.361572 875.325500,501.361694 
	C791.993286,501.363007 708.661011,501.363495 625.328796,501.360535 
	C617.794922,501.360291 618.401672,501.284821 617.638672,494.019897 
	C616.012634,478.537903 620.267944,465.592163 629.577759,452.860535 
	C645.692322,430.823090 660.154541,407.577332 675.512329,384.538696 
M884.720642,130.768845 
	C882.532837,130.837814 882.259949,132.804703 881.538452,134.171738 
	C877.730286,141.387085 874.079956,148.685745 870.275818,155.903305 
	C858.392944,178.448486 847.052795,201.411041 832.833435,222.518845 
	C779.974792,300.984863 726.410095,378.975189 673.139709,457.164032 
	C672.158813,458.603699 670.607910,459.878448 670.929993,461.996521 
	C672.532471,463.408081 674.446045,462.805664 676.195129,462.806488 
	C742.508057,462.838043 808.820923,462.835266 875.133850,462.833588 
	C883.084473,462.833405 883.089355,462.824341 883.087463,454.844574 
	C883.070496,382.366974 882.894165,309.888916 883.107544,237.412003 
	C883.198730,206.445236 883.540833,175.467590 885.562378,144.538589 
	C885.851868,140.110336 886.424438,135.585159 884.720642,130.768845 
z"/>
<path fill="#000000" opacity="1.000000" stroke="none" 
	d="
M357.883698,47.777863 
	C374.254028,50.061554 389.623901,54.223763 404.181671,61.162285 
	C411.176270,64.496048 411.163086,64.511925 408.039795,71.415855 
	C404.629700,78.953773 401.229340,86.496094 397.658234,94.405373 
	C389.582153,90.555298 382.204132,86.603516 374.050446,84.781685 
	C351.518707,79.747284 329.000488,77.285042 306.911499,86.743759 
	C289.732605,94.099915 278.113770,107.367317 269.228210,123.275314 
	C255.588898,147.694122 249.657059,174.436111 246.398239,201.861115 
	C243.965118,222.337402 242.082214,242.879105 239.961929,263.392456 
	C239.878571,264.198944 239.874237,265.013611 239.838242,265.722626 
	C241.708588,267.459229 243.804321,266.789215 245.714188,266.791138 
	C285.041687,266.830261 324.369232,266.819305 363.696747,266.830139 
	C370.341766,266.831970 370.352539,266.857208 370.364288,273.452942 
	C370.376160,280.118591 370.119537,286.796326 370.446075,293.445892 
	C370.671295,298.032349 369.097900,299.476776 364.500671,299.448761 
	C335.839264,299.274078 307.176300,299.356415 278.513855,299.354126 
	C266.015686,299.353149 253.515182,299.490601 241.020706,299.276184 
	C236.836441,299.204407 235.654251,300.944275 235.244659,304.802734 
	C232.436676,331.255371 229.368439,357.680206 226.504196,384.127014 
	C224.015320,407.108093 221.950500,430.137878 219.225510,453.089996 
	C214.328476,494.336823 212.481583,536.031250 201.343765,576.383179 
	C195.099014,599.007629 186.809601,620.680481 172.773270,639.775391 
	C153.479782,666.022278 127.366547,679.815918 95.161552,683.518738 
	C68.630608,686.569153 43.880531,681.153564 19.840712,670.559387 
	C16.705843,669.177856 15.475441,667.802979 16.982685,664.195007 
	C19.932934,657.132874 22.478315,649.894043 24.980209,642.655396 
	C26.177402,639.191589 27.764034,638.561401 31.285910,639.916138 
	C47.496296,646.151917 63.943127,651.198303 81.686783,650.761230 
	C112.287788,650.007324 134.412476,635.650085 149.623245,609.628601 
	C163.411911,586.039978 169.619446,559.990479 173.572205,533.408081 
	C178.951935,497.228943 181.945847,460.753082 185.837921,424.389740 
	C188.561523,398.943298 191.704956,373.542114 194.519714,348.105103 
	C196.147293,333.396576 197.370316,318.642822 199.057037,303.941711 
	C199.472290,300.322540 197.948669,299.461090 195.003494,299.415009 
	C191.671478,299.362854 188.338440,299.362366 185.005844,299.361725 
	C160.509445,299.357178 136.013062,299.362000 111.516670,299.354767 
	C105.229340,299.352905 105.089111,299.213898 105.073387,292.914642 
	C105.058838,287.082275 105.208794,281.246338 105.044571,275.418793 
	C104.943474,271.831360 106.447701,270.291473 109.958672,270.096375 
	C123.419724,269.348450 136.889053,268.677734 150.328766,267.636047 
	C166.136398,266.410858 181.955338,266.809753 197.770004,266.903687 
	C202.192978,266.929962 203.315155,265.072540 203.764999,261.018280 
	C207.429459,227.992371 209.663437,194.757629 217.783340,162.360413 
	C224.845566,134.183258 234.563553,107.239342 253.406204,84.450233 
	C273.547272,60.090763 299.906525,48.521282 331.000153,46.847176 
	C339.817322,46.372456 348.654297,46.596230 357.883698,47.777863 
z"/>
<path fill="#000000" opacity="1.000000" stroke="none" 
	d="
M599.338989,170.206696 
	C566.945435,256.453705 534.623840,342.312073 502.393738,428.204803 
	C464.723389,528.595764 427.098419,629.003906 389.609558,729.462708 
	C387.742340,734.466309 385.350708,736.541260 379.876984,736.232910 
	C371.405243,735.755554 362.886261,736.157959 354.387939,736.096863 
	C349.168030,736.059387 348.696808,735.390808 350.506012,730.578613 
	C362.342255,699.095642 374.246246,667.638123 386.065186,636.148743 
	C401.103424,596.082092 416.054749,555.982849 431.093323,515.916382 
	C449.289795,467.436462 467.556641,418.982941 485.759247,370.505341 
	C504.547577,320.467834 523.286743,270.411896 542.063354,220.369980 
	C562.069214,167.051819 582.092468,113.740158 602.110962,60.426735 
	C607.319885,46.554447 612.544922,32.688225 617.747803,18.813683 
	C618.528564,16.731730 619.258545,14.721201 622.066895,14.739085 
	C633.061951,14.809104 644.057373,14.825144 655.052429,14.895226 
	C655.510498,14.898146 655.966431,15.241417 657.336487,15.795247 
	C638.035950,67.155891 618.743652,118.494568 599.338989,170.206696 
z"/>
</svg>